<svg xmlns="http://www.w3.org/2000/svg" width="693.922" height="142.92" viewBox="0 0 693.922 142.92">
  <g id="grafismo" transform="translate(-13.686 -235.178)" opacity="0.4">
    <path id="Path_419" data-name="Path 419" d="M691.837,245.576c-2.4,5.218-5.905,8.211-9.622,8.211s-7.244-2.993-9.64-8.211c-3.046-6.606-7.857-10.4-13.194-10.4h-.012c-5.347,0-10.159,3.792-13.2,10.4-2.395,5.218-5.909,8.211-9.634,8.211s-7.238-2.993-9.632-8.211c-3.049-6.606-7.863-10.4-13.205-10.4s-10.153,3.792-13.208,10.4c-2.384,5.218-5.9,8.211-9.628,8.211s-7.244-2.993-9.626-8.211c-3.052-6.606-7.864-10.4-13.194-10.4h-.011c-5.351,0-10.161,3.792-13.2,10.4-2.4,5.218-5.911,8.211-9.635,8.211s-7.234-2.993-9.638-8.211c-3.04-6.606-7.849-10.4-13.2-10.4-5.336,0-10.153,3.792-13.2,10.4-2.392,5.218-5.9,8.211-9.626,8.211s-7.244-2.993-9.638-8.211c-3.041-6.606-7.852-10.4-13.194-10.4s-10.162,3.792-13.2,10.4c-2.4,5.218-5.91,8.211-9.635,8.211s-7.234-2.993-9.638-8.211c-3.04-6.606-7.852-10.4-13.2-10.4s-10.155,3.792-13.2,10.4c-2.393,5.218-5.9,8.211-9.628,8.211s-7.244-2.993-9.641-8.211c-3.046-6.606-7.855-10.4-13.194-10.4h-.011c-5.342,0-10.149,3.792-13.188,10.4-2.4,5.218-5.914,8.211-9.638,8.211s-7.239-2.993-9.634-8.211c-3.04-6.606-7.852-10.4-13.2-10.4s-10.153,3.792-13.2,10.4c-2.4,5.218-5.911,8.211-9.628,8.211s-7.237-2.993-9.641-8.211c-3.046-6.606-7.857-10.4-13.194-10.4s-10.159,3.792-13.2,10.4c-2.4,5.218-5.91,8.211-9.632,8.211s-7.244-2.993-9.635-8.211c-3.04-6.606-7.849-10.4-13.2-10.4s-10.153,3.792-13.2,10.4c-2.4,5.218-5.913,8.211-9.638,8.211s-7.224-2.993-9.626-8.211c-3.046-6.606-7.864-10.4-13.206-10.4s-10.147,3.792-13.193,10.4c-2.4,5.218-5.917,8.211-9.641,8.211s-7.23-2.993-9.628-8.211c-3.052-6.606-7.869-10.4-13.2-10.4s-10.155,3.792-13.2,10.4c-2.4,5.218-5.916,8.211-9.638,8.211s-7.225-2.993-9.626-8.211c-3.049-6.606-7.858-10.4-13.208-10.4s-10.149,3.792-13.191,10.4c-2.4,5.218-5.917,8.211-9.641,8.211s-7.233-2.993-9.632-8.211c-3.046-6.606-7.858-10.4-13.2-10.4s-10.153,3.792-13.2,10.4c-2.4,5.218-5.917,8.211-9.638,8.211s-7.227-2.993-9.631-8.211c-3.046-6.606-7.855-10.4-13.2-10.4a11.619,11.619,0,0,0-6.3,1.941V241.9a8.747,8.747,0,0,1,6.3-3.114c3.724,0,7.238,2.991,9.641,8.209,3.049,6.611,7.848,10.4,13.182,10.406h.023c5.338,0,10.143-3.8,13.191-10.406,2.4-5.218,5.916-8.209,9.635-8.209S72.9,241.778,75.292,247c3.053,6.611,7.857,10.4,13.188,10.406H88.5c5.332,0,10.144-3.8,13.193-10.406,2.4-5.218,5.911-8.209,9.628-8.209s7.238,2.991,9.641,8.209c3.049,6.611,7.848,10.4,13.182,10.406h.023c5.338,0,10.144-3.8,13.194-10.406,2.4-5.218,5.916-8.209,9.632-8.209s7.238,2.991,9.632,8.209c3.055,6.611,7.857,10.4,13.188,10.406h.023c5.335,0,10.146-3.8,13.194-10.406,2.4-5.218,5.911-8.209,9.629-8.209S209.9,241.778,212.3,247c3.044,6.611,7.852,10.4,13.184,10.406h.023c5.336,0,10.15-3.8,13.194-10.406,2.4-5.218,5.916-8.209,9.637-8.209s7.239,2.991,9.631,8.209c3.049,6.611,7.854,10.4,13.193,10.406h.024c5.342,0,10.144-3.8,13.188-10.406,2.4-5.218,5.913-8.209,9.637-8.209s7.227,2.991,9.628,8.209c3.043,6.611,7.857,10.4,13.2,10.406h.023c5.332,0,10.136-3.8,13.179-10.406,2.4-5.218,5.918-8.209,9.641-8.209s7.236,2.991,9.632,8.209c3.044,6.611,7.852,10.4,13.188,10.406h.023c5.338,0,10.146-3.8,13.194-10.406,2.4-5.218,5.905-8.209,9.622-8.209h.011c3.719,0,7.227,2.991,9.631,8.209,3.043,6.611,7.848,10.4,13.193,10.406h.024c5.342,0,10.141-3.8,13.179-10.406,2.4-5.218,5.916-8.209,9.641-8.209s7.238,2.991,9.632,8.209c3.043,6.611,7.857,10.4,13.194,10.406h.023c5.339,0,10.139-3.8,13.188-10.406,2.4-5.218,5.91-8.209,9.635-8.209s7.235,2.991,9.626,8.209c3.044,6.611,7.852,10.4,13.194,10.406h.023c5.342,0,10.146-3.8,13.184-10.406,2.4-5.218,5.916-8.209,9.637-8.209s7.239,2.991,9.637,8.209c3.04,6.611,7.854,10.4,13.19,10.406h.024c5.333,0,10.147-3.8,13.2-10.406,2.389-5.218,5.9-8.209,9.628-8.209h.011c3.719,0,7.227,2.991,9.628,8.209,3.037,6.611,7.84,10.4,13.182,10.406h.023c5.339,0,10.144-3.8,13.188-10.406,2.4-5.218,5.911-8.209,9.635-8.209s7.236,2.991,9.638,8.209c3.043,6.611,7.843,10.4,13.188,10.406h.023c5.332,0,10.145-3.8,13.194-10.406,2.389-5.218,5.9-8.209,9.626-8.209h.012c3.718,0,7.227,2.991,9.629,8.209,3.044,6.611,7.849,10.4,13.194,10.406h.023c5.332,0,10.13-3.8,13.175-10.406,2.4-5.218,5.91-8.209,9.635-8.209a7.2,7.2,0,0,1,2.57.5v-3.769a11.1,11.1,0,0,0-2.57-.338c-5.345,0-10.155,3.792-13.2,10.4" transform="translate(0 0)" fill="#fff"/>
    <path id="Path_420" data-name="Path 420" d="M691.837,273.78c-2.4,5.218-5.905,8.211-9.622,8.211s-7.244-2.993-9.64-8.211c-3.046-6.606-7.857-10.4-13.194-10.4h-.012c-5.347,0-10.159,3.792-13.2,10.4-2.395,5.218-5.909,8.211-9.634,8.211S629.3,279,626.9,273.78c-3.049-6.606-7.863-10.4-13.205-10.4s-10.153,3.792-13.208,10.4c-2.384,5.218-5.9,8.211-9.628,8.211s-7.244-2.993-9.626-8.211c-3.052-6.606-7.864-10.4-13.194-10.4h-.011c-5.351,0-10.161,3.792-13.2,10.4-2.4,5.218-5.911,8.211-9.635,8.211s-7.234-2.993-9.638-8.211c-3.04-6.606-7.849-10.4-13.2-10.4-5.336,0-10.153,3.792-13.2,10.4-2.392,5.218-5.9,8.211-9.626,8.211s-7.244-2.993-9.638-8.211c-3.041-6.606-7.852-10.4-13.194-10.4s-10.162,3.792-13.2,10.4c-2.4,5.218-5.91,8.211-9.635,8.211s-7.234-2.993-9.638-8.211c-3.04-6.606-7.852-10.4-13.2-10.4s-10.155,3.792-13.2,10.4c-2.393,5.218-5.9,8.211-9.628,8.211s-7.244-2.993-9.641-8.211c-3.046-6.606-7.855-10.4-13.194-10.4h-.011c-5.342,0-10.149,3.792-13.188,10.4-2.4,5.218-5.914,8.211-9.638,8.211s-7.239-2.993-9.634-8.211c-3.04-6.606-7.852-10.4-13.2-10.4s-10.153,3.792-13.2,10.4c-2.4,5.218-5.911,8.211-9.628,8.211s-7.237-2.993-9.641-8.211c-3.046-6.606-7.857-10.4-13.194-10.4s-10.159,3.792-13.2,10.4c-2.4,5.218-5.91,8.211-9.632,8.211s-7.244-2.993-9.635-8.211c-3.04-6.606-7.849-10.4-13.2-10.4s-10.153,3.792-13.2,10.4c-2.4,5.218-5.913,8.211-9.638,8.211s-7.224-2.993-9.626-8.211c-3.046-6.606-7.864-10.4-13.206-10.4s-10.147,3.792-13.193,10.4c-2.4,5.218-5.917,8.211-9.641,8.211S172.6,279,170.2,273.78c-3.052-6.606-7.869-10.4-13.2-10.4s-10.155,3.792-13.2,10.4c-2.4,5.218-5.916,8.211-9.638,8.211s-7.225-2.993-9.626-8.211c-3.049-6.606-7.858-10.4-13.208-10.4s-10.149,3.792-13.191,10.4c-2.4,5.218-5.917,8.211-9.641,8.211S81.258,279,78.858,273.78c-3.046-6.606-7.858-10.4-13.2-10.4s-10.153,3.792-13.2,10.4c-2.4,5.218-5.917,8.211-9.638,8.211S35.594,279,33.19,273.78c-3.046-6.606-7.855-10.4-13.2-10.4a11.619,11.619,0,0,0-6.3,1.941V270.1a8.747,8.747,0,0,1,6.3-3.114c3.724,0,7.238,2.991,9.641,8.209,3.049,6.611,7.848,10.4,13.182,10.406h.023c5.338,0,10.143-3.8,13.191-10.406,2.4-5.218,5.916-8.209,9.635-8.209s7.238,2.991,9.634,8.209c3.053,6.611,7.857,10.4,13.188,10.406H88.5c5.332,0,10.144-3.8,13.193-10.406,2.4-5.218,5.911-8.209,9.628-8.209s7.238,2.991,9.641,8.209c3.049,6.611,7.848,10.4,13.182,10.406h.023c5.338,0,10.144-3.8,13.194-10.406,2.4-5.218,5.916-8.209,9.632-8.209s7.238,2.991,9.632,8.209c3.055,6.611,7.857,10.4,13.188,10.406h.023c5.335,0,10.146-3.8,13.194-10.406,2.4-5.218,5.911-8.209,9.629-8.209s7.236,2.991,9.638,8.209c3.044,6.611,7.852,10.4,13.184,10.406h.023c5.336,0,10.15-3.8,13.194-10.406,2.4-5.218,5.916-8.209,9.637-8.209s7.239,2.991,9.631,8.209c3.049,6.611,7.854,10.4,13.193,10.406h.024c5.342,0,10.144-3.8,13.188-10.406,2.4-5.218,5.913-8.209,9.637-8.209s7.227,2.991,9.628,8.209c3.043,6.611,7.857,10.4,13.2,10.406h.023c5.332,0,10.136-3.8,13.179-10.406,2.4-5.218,5.918-8.209,9.641-8.209s7.236,2.991,9.632,8.209c3.044,6.611,7.852,10.4,13.188,10.406h.023c5.338,0,10.146-3.8,13.194-10.406,2.4-5.218,5.905-8.209,9.622-8.209h.011c3.719,0,7.227,2.991,9.631,8.209,3.043,6.611,7.848,10.4,13.193,10.406h.024c5.342,0,10.141-3.8,13.179-10.406,2.4-5.218,5.916-8.209,9.641-8.209s7.238,2.991,9.632,8.209c3.043,6.611,7.857,10.4,13.194,10.406h.023c5.339,0,10.139-3.8,13.188-10.406,2.4-5.218,5.91-8.209,9.635-8.209s7.235,2.991,9.626,8.209c3.044,6.611,7.852,10.4,13.194,10.406h.023c5.342,0,10.146-3.8,13.184-10.406,2.4-5.218,5.916-8.209,9.637-8.209s7.239,2.991,9.637,8.209c3.04,6.611,7.854,10.4,13.19,10.406h.024c5.333,0,10.147-3.8,13.2-10.406,2.389-5.218,5.9-8.209,9.628-8.209h.011c3.719,0,7.227,2.991,9.628,8.209,3.037,6.611,7.84,10.4,13.182,10.406h.023c5.339,0,10.144-3.8,13.188-10.406,2.4-5.218,5.911-8.209,9.635-8.209s7.236,2.991,9.638,8.209c3.043,6.611,7.843,10.4,13.188,10.406h.023c5.332,0,10.145-3.8,13.194-10.406,2.389-5.218,5.9-8.209,9.626-8.209h.012c3.718,0,7.227,2.991,9.629,8.209,3.044,6.611,7.849,10.4,13.194,10.406h.023c5.332,0,10.13-3.8,13.175-10.406,2.4-5.218,5.91-8.209,9.635-8.209a7.2,7.2,0,0,1,2.57.5V263.72a11.1,11.1,0,0,0-2.57-.338c-5.345,0-10.155,3.792-13.2,10.4" transform="translate(0 14.491)" fill="#fff"/>
    <path id="Path_1065" data-name="Path 1065" d="M691.837,273.78c-2.4,5.218-5.905,8.211-9.622,8.211s-7.244-2.993-9.64-8.211c-3.046-6.606-7.857-10.4-13.194-10.4h-.012c-5.347,0-10.159,3.792-13.2,10.4-2.395,5.218-5.909,8.211-9.634,8.211S629.3,279,626.9,273.78c-3.049-6.606-7.863-10.4-13.205-10.4s-10.153,3.792-13.208,10.4c-2.384,5.218-5.9,8.211-9.628,8.211s-7.244-2.993-9.626-8.211c-3.052-6.606-7.864-10.4-13.194-10.4h-.011c-5.351,0-10.161,3.792-13.2,10.4-2.4,5.218-5.911,8.211-9.635,8.211s-7.234-2.993-9.638-8.211c-3.04-6.606-7.849-10.4-13.2-10.4-5.336,0-10.153,3.792-13.2,10.4-2.392,5.218-5.9,8.211-9.626,8.211s-7.244-2.993-9.638-8.211c-3.041-6.606-7.852-10.4-13.194-10.4s-10.162,3.792-13.2,10.4c-2.4,5.218-5.91,8.211-9.635,8.211s-7.234-2.993-9.638-8.211c-3.04-6.606-7.852-10.4-13.2-10.4s-10.155,3.792-13.2,10.4c-2.393,5.218-5.9,8.211-9.628,8.211s-7.244-2.993-9.641-8.211c-3.046-6.606-7.855-10.4-13.194-10.4h-.011c-5.342,0-10.149,3.792-13.188,10.4-2.4,5.218-5.914,8.211-9.638,8.211s-7.239-2.993-9.634-8.211c-3.04-6.606-7.852-10.4-13.2-10.4s-10.153,3.792-13.2,10.4c-2.4,5.218-5.911,8.211-9.628,8.211s-7.237-2.993-9.641-8.211c-3.046-6.606-7.857-10.4-13.194-10.4s-10.159,3.792-13.2,10.4c-2.4,5.218-5.91,8.211-9.632,8.211s-7.244-2.993-9.635-8.211c-3.04-6.606-7.849-10.4-13.2-10.4s-10.153,3.792-13.2,10.4c-2.4,5.218-5.913,8.211-9.638,8.211s-7.224-2.993-9.626-8.211c-3.046-6.606-7.864-10.4-13.206-10.4s-10.147,3.792-13.193,10.4c-2.4,5.218-5.917,8.211-9.641,8.211S172.6,279,170.2,273.78c-3.052-6.606-7.869-10.4-13.2-10.4s-10.155,3.792-13.2,10.4c-2.4,5.218-5.916,8.211-9.638,8.211s-7.225-2.993-9.626-8.211c-3.049-6.606-7.858-10.4-13.208-10.4s-10.149,3.792-13.191,10.4c-2.4,5.218-5.917,8.211-9.641,8.211S81.258,279,78.858,273.78c-3.046-6.606-7.858-10.4-13.2-10.4s-10.153,3.792-13.2,10.4c-2.4,5.218-5.917,8.211-9.638,8.211S35.594,279,33.19,273.78c-3.046-6.606-7.855-10.4-13.2-10.4a11.619,11.619,0,0,0-6.3,1.941V270.1a8.747,8.747,0,0,1,6.3-3.114c3.724,0,7.238,2.991,9.641,8.209,3.049,6.611,7.848,10.4,13.182,10.406h.023c5.338,0,10.143-3.8,13.191-10.406,2.4-5.218,5.916-8.209,9.635-8.209s7.238,2.991,9.634,8.209c3.053,6.611,7.857,10.4,13.188,10.406H88.5c5.332,0,10.144-3.8,13.193-10.406,2.4-5.218,5.911-8.209,9.628-8.209s7.238,2.991,9.641,8.209c3.049,6.611,7.848,10.4,13.182,10.406h.023c5.338,0,10.144-3.8,13.194-10.406,2.4-5.218,5.916-8.209,9.632-8.209s7.238,2.991,9.632,8.209c3.055,6.611,7.857,10.4,13.188,10.406h.023c5.335,0,10.146-3.8,13.194-10.406,2.4-5.218,5.911-8.209,9.629-8.209s7.236,2.991,9.638,8.209c3.044,6.611,7.852,10.4,13.184,10.406h.023c5.336,0,10.15-3.8,13.194-10.406,2.4-5.218,5.916-8.209,9.637-8.209s7.239,2.991,9.631,8.209c3.049,6.611,7.854,10.4,13.193,10.406h.024c5.342,0,10.144-3.8,13.188-10.406,2.4-5.218,5.913-8.209,9.637-8.209s7.227,2.991,9.628,8.209c3.043,6.611,7.857,10.4,13.2,10.406h.023c5.332,0,10.136-3.8,13.179-10.406,2.4-5.218,5.918-8.209,9.641-8.209s7.236,2.991,9.632,8.209c3.044,6.611,7.852,10.4,13.188,10.406h.023c5.338,0,10.146-3.8,13.194-10.406,2.4-5.218,5.905-8.209,9.622-8.209h.011c3.719,0,7.227,2.991,9.631,8.209,3.043,6.611,7.848,10.4,13.193,10.406h.024c5.342,0,10.141-3.8,13.179-10.406,2.4-5.218,5.916-8.209,9.641-8.209s7.238,2.991,9.632,8.209c3.043,6.611,7.857,10.4,13.194,10.406h.023c5.339,0,10.139-3.8,13.188-10.406,2.4-5.218,5.91-8.209,9.635-8.209s7.235,2.991,9.626,8.209c3.044,6.611,7.852,10.4,13.194,10.406h.023c5.342,0,10.146-3.8,13.184-10.406,2.4-5.218,5.916-8.209,9.637-8.209s7.239,2.991,9.637,8.209c3.04,6.611,7.854,10.4,13.19,10.406h.024c5.333,0,10.147-3.8,13.2-10.406,2.389-5.218,5.9-8.209,9.628-8.209h.011c3.719,0,7.227,2.991,9.628,8.209,3.037,6.611,7.84,10.4,13.182,10.406h.023c5.339,0,10.144-3.8,13.188-10.406,2.4-5.218,5.911-8.209,9.635-8.209s7.236,2.991,9.638,8.209c3.043,6.611,7.843,10.4,13.188,10.406h.023c5.332,0,10.145-3.8,13.194-10.406,2.389-5.218,5.9-8.209,9.626-8.209h.012c3.718,0,7.227,2.991,9.629,8.209,3.044,6.611,7.849,10.4,13.194,10.406h.023c5.332,0,10.13-3.8,13.175-10.406,2.4-5.218,5.91-8.209,9.635-8.209a7.2,7.2,0,0,1,2.57.5V263.72a11.1,11.1,0,0,0-2.57-.338c-5.345,0-10.155,3.792-13.2,10.4" transform="translate(0 53.491)" fill="#fff"/>
    <path id="Path_1066" data-name="Path 1066" d="M691.837,273.78c-2.4,5.218-5.905,8.211-9.622,8.211s-7.244-2.993-9.64-8.211c-3.046-6.606-7.857-10.4-13.194-10.4h-.012c-5.347,0-10.159,3.792-13.2,10.4-2.395,5.218-5.909,8.211-9.634,8.211S629.3,279,626.9,273.78c-3.049-6.606-7.863-10.4-13.205-10.4s-10.153,3.792-13.208,10.4c-2.384,5.218-5.9,8.211-9.628,8.211s-7.244-2.993-9.626-8.211c-3.052-6.606-7.864-10.4-13.194-10.4h-.011c-5.351,0-10.161,3.792-13.2,10.4-2.4,5.218-5.911,8.211-9.635,8.211s-7.234-2.993-9.638-8.211c-3.04-6.606-7.849-10.4-13.2-10.4-5.336,0-10.153,3.792-13.2,10.4-2.392,5.218-5.9,8.211-9.626,8.211s-7.244-2.993-9.638-8.211c-3.041-6.606-7.852-10.4-13.194-10.4s-10.162,3.792-13.2,10.4c-2.4,5.218-5.91,8.211-9.635,8.211s-7.234-2.993-9.638-8.211c-3.04-6.606-7.852-10.4-13.2-10.4s-10.155,3.792-13.2,10.4c-2.393,5.218-5.9,8.211-9.628,8.211s-7.244-2.993-9.641-8.211c-3.046-6.606-7.855-10.4-13.194-10.4h-.011c-5.342,0-10.149,3.792-13.188,10.4-2.4,5.218-5.914,8.211-9.638,8.211s-7.239-2.993-9.634-8.211c-3.04-6.606-7.852-10.4-13.2-10.4s-10.153,3.792-13.2,10.4c-2.4,5.218-5.911,8.211-9.628,8.211s-7.237-2.993-9.641-8.211c-3.046-6.606-7.857-10.4-13.194-10.4s-10.159,3.792-13.2,10.4c-2.4,5.218-5.91,8.211-9.632,8.211s-7.244-2.993-9.635-8.211c-3.04-6.606-7.849-10.4-13.2-10.4s-10.153,3.792-13.2,10.4c-2.4,5.218-5.913,8.211-9.638,8.211s-7.224-2.993-9.626-8.211c-3.046-6.606-7.864-10.4-13.206-10.4s-10.147,3.792-13.193,10.4c-2.4,5.218-5.917,8.211-9.641,8.211S172.6,279,170.2,273.78c-3.052-6.606-7.869-10.4-13.2-10.4s-10.155,3.792-13.2,10.4c-2.4,5.218-5.916,8.211-9.638,8.211s-7.225-2.993-9.626-8.211c-3.049-6.606-7.858-10.4-13.208-10.4s-10.149,3.792-13.191,10.4c-2.4,5.218-5.917,8.211-9.641,8.211S81.258,279,78.858,273.78c-3.046-6.606-7.858-10.4-13.2-10.4s-10.153,3.792-13.2,10.4c-2.4,5.218-5.917,8.211-9.638,8.211S35.594,279,33.19,273.78c-3.046-6.606-7.855-10.4-13.2-10.4a11.619,11.619,0,0,0-6.3,1.941V270.1a8.747,8.747,0,0,1,6.3-3.114c3.724,0,7.238,2.991,9.641,8.209,3.049,6.611,7.848,10.4,13.182,10.406h.023c5.338,0,10.143-3.8,13.191-10.406,2.4-5.218,5.916-8.209,9.635-8.209s7.238,2.991,9.634,8.209c3.053,6.611,7.857,10.4,13.188,10.406H88.5c5.332,0,10.144-3.8,13.193-10.406,2.4-5.218,5.911-8.209,9.628-8.209s7.238,2.991,9.641,8.209c3.049,6.611,7.848,10.4,13.182,10.406h.023c5.338,0,10.144-3.8,13.194-10.406,2.4-5.218,5.916-8.209,9.632-8.209s7.238,2.991,9.632,8.209c3.055,6.611,7.857,10.4,13.188,10.406h.023c5.335,0,10.146-3.8,13.194-10.406,2.4-5.218,5.911-8.209,9.629-8.209s7.236,2.991,9.638,8.209c3.044,6.611,7.852,10.4,13.184,10.406h.023c5.336,0,10.15-3.8,13.194-10.406,2.4-5.218,5.916-8.209,9.637-8.209s7.239,2.991,9.631,8.209c3.049,6.611,7.854,10.4,13.193,10.406h.024c5.342,0,10.144-3.8,13.188-10.406,2.4-5.218,5.913-8.209,9.637-8.209s7.227,2.991,9.628,8.209c3.043,6.611,7.857,10.4,13.2,10.406h.023c5.332,0,10.136-3.8,13.179-10.406,2.4-5.218,5.918-8.209,9.641-8.209s7.236,2.991,9.632,8.209c3.044,6.611,7.852,10.4,13.188,10.406h.023c5.338,0,10.146-3.8,13.194-10.406,2.4-5.218,5.905-8.209,9.622-8.209h.011c3.719,0,7.227,2.991,9.631,8.209,3.043,6.611,7.848,10.4,13.193,10.406h.024c5.342,0,10.141-3.8,13.179-10.406,2.4-5.218,5.916-8.209,9.641-8.209s7.238,2.991,9.632,8.209c3.043,6.611,7.857,10.4,13.194,10.406h.023c5.339,0,10.139-3.8,13.188-10.406,2.4-5.218,5.91-8.209,9.635-8.209s7.235,2.991,9.626,8.209c3.044,6.611,7.852,10.4,13.194,10.406h.023c5.342,0,10.146-3.8,13.184-10.406,2.4-5.218,5.916-8.209,9.637-8.209s7.239,2.991,9.637,8.209c3.04,6.611,7.854,10.4,13.19,10.406h.024c5.333,0,10.147-3.8,13.2-10.406,2.389-5.218,5.9-8.209,9.628-8.209h.011c3.719,0,7.227,2.991,9.628,8.209,3.037,6.611,7.84,10.4,13.182,10.406h.023c5.339,0,10.144-3.8,13.188-10.406,2.4-5.218,5.911-8.209,9.635-8.209s7.236,2.991,9.638,8.209c3.043,6.611,7.843,10.4,13.188,10.406h.023c5.332,0,10.145-3.8,13.194-10.406,2.389-5.218,5.9-8.209,9.626-8.209h.012c3.718,0,7.227,2.991,9.629,8.209,3.044,6.611,7.849,10.4,13.194,10.406h.023c5.332,0,10.13-3.8,13.175-10.406,2.4-5.218,5.91-8.209,9.635-8.209a7.2,7.2,0,0,1,2.57.5V263.72a11.1,11.1,0,0,0-2.57-.338c-5.345,0-10.155,3.792-13.2,10.4" transform="translate(0 92.491)" fill="#fff"/>
  </g>
</svg>
