<svg xmlns="http://www.w3.org/2000/svg" width="160.291" height="156.848" viewBox="0 0 160.291 156.848">
  <g id="icon-agua" transform="translate(-87.855 -86.554)">
    <g id="Group_104" data-name="Group 104" transform="translate(-1429.145 -976.446)">
      <g id="Group_104-2" data-name="Group 104" transform="translate(1517 1063)">
        <path id="Path_1093" data-name="Path 1093" d="M969.23,593.9a36.94,36.94,0,0,1-28.49-60.447,3.17,3.17,0,0,0,.244-.336l28.377-36.194,28.4,36.569c.034.053.073.1.112.156A36.932,36.932,0,0,1,969.23,593.9m33.549-64.153-30.934-39.832a3.122,3.122,0,0,0-2.464-1.208h-.01a3.123,3.123,0,0,0-2.459,1.2l-31.071,39.622a2.237,2.237,0,0,0-.156.219,43.2,43.2,0,1,0,67.123.039l-.029-.039" transform="translate(-889.084 -470.702)" fill="#fff"/>
        <path id="Path_1094" data-name="Path 1094" d="M956.63,503.357a3.123,3.123,0,0,0-3.764,2.328A24.253,24.253,0,0,1,938.509,522.5a3.13,3.13,0,1,0,2.381,5.79,30.522,30.522,0,0,0,18.068-21.17,3.126,3.126,0,0,0-2.328-3.765" transform="translate(-848.316 -414.352)" fill="#fff"/>
        <path id="Path_1095" data-name="Path 1095" d="M940.047,503.813v.063a3.131,3.131,0,0,0,6.263,0v-.063a3.131,3.131,0,0,0-6.263,0" transform="translate(-834.85 -424.378)" fill="#fff"/>
        <path id="Path_1096" data-name="Path 1096" d="M959.773,541.992a18.306,18.306,0,0,0-3.955-11.371c-.034-.044-.068-.083-.1-.127L942.3,512.84l-13.373,17.425q-.088.132-.19.263a18.272,18.272,0,0,0-4.028,11.464,17.537,17.537,0,1,0,35.064,0m1-15.2a24.579,24.579,0,0,1,5.265,15.2,23.8,23.8,0,1,1-47.59,0A24.539,24.539,0,0,1,923.7,526.8l.107-.146,16.022-20.873a3.124,3.124,0,0,1,2.484-1.222h0a3.135,3.135,0,0,1,2.489,1.232l15.949,20.985.015.015" transform="translate(-918.446 -409.382)" fill="#00aaac"/>
        <path id="Path_1097" data-name="Path 1097" d="M936.151,511.6a3.132,3.132,0,0,1,3.131,3.131,13.592,13.592,0,0,1-13.466,13.685,3.131,3.131,0,0,1,0-6.262,7.323,7.323,0,0,0,7.2-7.422,3.132,3.132,0,0,1,3.131-3.131" transform="translate(-902.022 -382.121)" fill="#00aaac"/>
        <path id="Path_1098" data-name="Path 1098" d="M951.88,510.985q.1-.131.19-.263L965.442,493.3l13.422,17.649.1.131a18.3,18.3,0,0,1,3.955,11.372,17.537,17.537,0,1,1-35.064,0,18.273,18.273,0,0,1,4.028-11.464m-5.036-3.73a24.566,24.566,0,0,0-5.255,15.195,23.8,23.8,0,1,0,47.584,0,24.584,24.584,0,0,0-5.259-15.2l-.015-.014-15.949-20.985a3.135,3.135,0,0,0-2.489-1.232h0a3.138,3.138,0,0,0-2.484,1.222l-16.022,20.873-.107.146" transform="translate(-828.883 -485.013)" fill="#00aaac"/>
        <path id="Path_1099" data-name="Path 1099" d="M948.963,508.872a13.591,13.591,0,0,0,13.461-13.685,3.129,3.129,0,1,0-6.258,0,7.323,7.323,0,0,1-7.2,7.422,3.131,3.131,0,0,0,0,6.263" transform="translate(-812.462 -457.757)" fill="#00aaac"/>
      </g>
    </g>
  </g>
</svg>
