<svg xmlns="http://www.w3.org/2000/svg" xmlns:xlink="http://www.w3.org/1999/xlink" width="50" height="50" viewBox="0 0 50 50">
  <defs>
    <linearGradient id="linear-gradient" y1="0.5" x2="1" y2="0.5" gradientUnits="objectBoundingBox">
      <stop offset="0" stop-color="#00aaac"/>
      <stop offset="1" stop-color="#253e92"/>
    </linearGradient>
    <clipPath id="clip-path">
      <rect id="Rectangle_53" data-name="Rectangle 53" width="27.669" height="30.215" fill="none"/>
    </clipPath>
  </defs>
  <g id="icon-linkd" transform="translate(-1151 -2013)">
    <circle id="Ellipse_23" data-name="Ellipse 23" cx="25" cy="25" r="25" transform="translate(1151 2013)" fill="url(#linear-gradient)"/>
    <g id="Group_187" data-name="Group 187" transform="translate(1163.09 2024.189)">
      <g id="Group_186" data-name="Group 186" clip-path="url(#clip-path)">
        <path id="Path_1717" data-name="Path 1717" d="M319.646,487.364a6.782,6.782,0,0,0-.127-.957,9.5,9.5,0,0,0-9.287-7.7.558.558,0,1,0-.019,1.114,9.6,9.6,0,0,1,1.477.141,8.373,8.373,0,0,1,6.875,8.218.562.562,0,0,0,.446.566.568.568,0,0,0,.625-.327c.014-.024.007-.062.045-.072v-.895c-.05-.017-.033-.06-.036-.093" transform="translate(-296.668 -661.63)" fill="#fff"/>
        <path id="Path_1718" data-name="Path 1718" d="M317.445,486.7a6.375,6.375,0,0,0-.126-1.191,7.275,7.275,0,0,0-7.066-5.863.561.561,0,1,0-.026,1.117,6.248,6.248,0,0,1,2.749.673,6.113,6.113,0,0,1,2.687,2.685,6.359,6.359,0,0,1,.671,2.787.555.555,0,0,0,.482.551.564.564,0,0,0,.613-.4,1.333,1.333,0,0,0,.017-.358" transform="translate(-296.67 -660.334)" fill="#fff"/>
        <path id="Path_1719" data-name="Path 1719" d="M310.228,481.7a3.929,3.929,0,0,1,3.875,3.911.558.558,0,1,0,1.117-.014,4.342,4.342,0,0,0-.1-1,5.047,5.047,0,0,0-4.737-4.021,1.589,1.589,0,0,0-.353.019.569.569,0,0,0-.4.616.577.577,0,0,0,.592.484" transform="translate(-296.671 -659.038)" fill="#fff"/>
        <path id="Path_1720" data-name="Path 1720" d="M319.021,489.144a1.6,1.6,0,0,0-2.281-.007c-.327.282-.616.609-.928.909-.184.177-.322.456-.556.5a1.583,1.583,0,0,1-.862-.234q-.079-.036-.15-.072a6.356,6.356,0,0,1-2.217-1.971,3.6,3.6,0,0,1-.673-1.53.241.241,0,0,1,.084-.241c.418-.413.838-.828,1.25-1.25a1.632,1.632,0,0,0,.1-2.377c-.788-.849-1.611-1.673-2.46-2.46a1.63,1.63,0,0,0-2.362.079c-.239.234-.475.473-.711.711a4.61,4.61,0,0,0-1.36,2.8,4.456,4.456,0,0,0,.764,3.119,31.318,31.318,0,0,0,2.811,3.439,38.317,38.317,0,0,0,5.073,4.558,4.485,4.485,0,0,0,2.331.914l.007.033h.969a.023.023,0,0,1,0-.033,4.362,4.362,0,0,0,1.883-.618,7.694,7.694,0,0,0,1.754-1.57,1.579,1.579,0,0,0,0-2.219q-1.192-1.278-2.47-2.477m-10.5-7.627a1.875,1.875,0,0,0,.2-.193.577.577,0,0,1,.947,0c.239.236.475.475.711.711q.752.748,1.5,1.5a.582.582,0,0,1,0,.947c-.1.1-.2.205-.3.31-.045-.041-.083-.076-.117-.11-.978-.978-1.954-1.957-2.938-2.933-.091-.088-.107-.143,0-.227m10.758,12.86a3.515,3.515,0,0,1-4.095-.184,37.388,37.388,0,0,1-4.9-4.412,30.974,30.974,0,0,1-2.708-3.3,3.49,3.49,0,0,1-.022-3.883c.069-.1.1-.131.208-.026q1.45,1.457,2.909,2.906c.081.084.1.138,0,.208l-.026.026a1.146,1.146,0,0,0-.37,1.332A5.756,5.756,0,0,0,312,489.965a6.368,6.368,0,0,0,2.36,1.537,3.668,3.668,0,0,0,.974.208.83.83,0,0,0,.706-.293c.255-.272.263-.267.52-.007.912.912,1.823,1.826,2.737,2.732.1.1.115.15-.019.236m1.269-1.165c-.1.093-.2.258-.3.26s-.2-.165-.293-.26c-.914-.911-1.823-1.825-2.74-2.732-.1-.1-.117-.162,0-.25a2.2,2.2,0,0,0,.2-.2.575.575,0,0,1,.933.007l1.21,1.21c.341.341.683.687,1.026,1.026a.582.582,0,0,1,.208.465.607.607,0,0,1-.248.47" transform="translate(-301.904 -659.922)" fill="#fff"/>
        <path id="Path_1721" data-name="Path 1721" d="M324.669,473.826a9.233,9.233,0,0,0-6.77-7.292,9.025,9.025,0,0,0-7.973,1.632,8.9,8.9,0,0,0-3.405,5.441,9.063,9.063,0,0,0,.709,5.832.66.66,0,0,1,.036.554c-.475,1.315-.919,2.642-1.4,3.954a.936.936,0,0,0,.561,1.346h.372q1.088-.387,2.181-.776c.723-.253,1.449-.5,2.169-.759a.425.425,0,0,1,.365.021,9.235,9.235,0,0,0,11.1-2.31,9.1,9.1,0,0,0,2.121-4.691c.033-.224.055-.453.084-.68v-1.265c-.05-.334-.091-.67-.148-1.007m-4.1,8.044a7.758,7.758,0,0,1-5.553,1.706,7.539,7.539,0,0,1-3.043-.828,1.309,1.309,0,0,0-1.15-.069c-1.186.434-2.381.838-3.572,1.253-.055.019-.112.038-.2.064.2-.568.387-1.11.575-1.649.262-.754.523-1.508.795-2.26a1.033,1.033,0,0,0-.055-.876,7.677,7.677,0,0,1-.849-2.732,7.954,7.954,0,0,1,1.861-6.245,7.79,7.79,0,0,1,4.543-2.7,7.9,7.9,0,0,1,6.61,1.52,7.646,7.646,0,0,1,3,4.835,7.9,7.9,0,0,1-2.964,7.985" transform="translate(-302.023 -678.938)" fill="#fff"/>
        <path id="Path_1722" data-name="Path 1722" d="M316.252,473.831a1.063,1.063,0,0,0-1.482-.031,4.42,4.42,0,0,0-.4.391.167.167,0,0,1-.251.033,6.841,6.841,0,0,1-2.5-2.5c-.06-.1-.069-.169.026-.25.119-.1.224-.215.332-.327a1.091,1.091,0,0,0-.014-1.611c-.387-.394-.778-.783-1.169-1.172a1.1,1.1,0,0,0-1.637,0c-.305.3-.6.606-.909.907a1.725,1.725,0,0,0-.5,1.267,4.548,4.548,0,0,0,.6,2.04,12.4,12.4,0,0,0,4.56,4.718,4.913,4.913,0,0,0,2.241.783,1.627,1.627,0,0,0,1.265-.372c.4-.365.788-.74,1.148-1.141a1.046,1.046,0,0,0-.038-1.465c-.415-.437-.842-.864-1.277-1.277m-.566,3.031a.817.817,0,0,1-.735.069,4.871,4.871,0,0,1-1.74-.761,11.383,11.383,0,0,1-3.842-4.064,3.621,3.621,0,0,1-.487-1.432.778.778,0,0,1,.255-.7c.289-.26.551-.546.814-.811l1.227,1.227c-.15.141-.325.3-.489.463a.872.872,0,0,0-.167,1.2,7.9,7.9,0,0,0,3.312,3.293.851.851,0,0,0,1.114-.155c.177-.174.344-.355.5-.518.415.415.811.811,1.207,1.205-.308.315-.618.668-.969.981" transform="translate(-299.279 -676.476)" fill="#fff"/>
        <path id="Path_1723" data-name="Path 1723" d="M325.857,509.927a1.723,1.723,0,0,0-2.814-.492c-.48.472-.947.947-1.425,1.42-.041.041-.072.1-.141.112a.5.5,0,0,1-.014-.2c0-1.327,0-2.656,0-3.983a1.725,1.725,0,0,0-.449-1.227c-.549-.589-1.124-1.16-1.711-1.711a1.225,1.225,0,0,0-.828-.372h-.012l.007.014a.225.225,0,0,1-.193-.036h-9.824a.215.215,0,0,1-.193.033l0-.014-.026,0a1.044,1.044,0,0,0-.365.064,1.625,1.625,0,0,0-1,1.506q0,7.939,0,15.876a1.372,1.372,0,0,0,.072.53,1.657,1.657,0,0,0,1.525,1.083q5.677-.007,11.352,0a1.386,1.386,0,0,0,.7-.15,1.741,1.741,0,0,0,.945-1.613c0-1.527,0-3.052,0-4.579a.658.658,0,0,1,.21-.508c1.224-1.215,2.439-2.437,3.663-3.653a1.762,1.762,0,0,0,.611-1.09v-.558a3.266,3.266,0,0,0-.1-.449m-7.658-5.355a.712.712,0,0,1,.389.2l1.5,1.5a.747.747,0,0,1,.117.146.4.4,0,0,1,.079.348c-.038.086-.179.031-.274.033-.277,0-.556,0-.837,0-.325,0-.654,0-.983,0-.093,0-.129-.021-.129-.122q.007-.995,0-1.99c0-.117.04-.136.141-.119m2.1,12.624v3.517a.593.593,0,0,1-.68.682H308.688c-.465,0-.678-.215-.678-.685V505.262c0-.482.208-.692.687-.692q4.03,0,8.061,0c.155,0,.191.033.191.191-.009.835,0,1.673,0,2.513a.567.567,0,0,0,.647.649c.847,0,1.7,0,2.546,0,.134,0,.16.036.16.165q-.007,2.008,0,4.021a.345.345,0,0,1-.11.258q-1.124,1.113-2.241,2.234a1.046,1.046,0,0,0-.267.437c-.236.718-.48,1.437-.723,2.155a.582.582,0,0,0,.78.773q1.1-.369,2.191-.733a.928.928,0,0,0,.37-.224Zm-.513-1.281c-.115.1-.193.241-.351.291-.351.11-.7.232-1.081.356.127-.377.248-.728.36-1.079.053-.16.2-.236.289-.353.05-.055.076,0,.1.024.22.219.439.437.656.659.031.029.074.057.021.1m3.436-3.436c-.842.84-1.68,1.682-2.522,2.525l-.076.069a.8.8,0,0,1-.079-.079c-.21-.205-.41-.415-.623-.616-.074-.069-.062-.107,0-.172q1.26-1.253,2.513-2.515c.055-.057.093-.074.158-.007.208.215.42.425.635.632.062.062.057.1-.007.162m1.511-1.537c-.177.212-.387.4-.578.6-.05.053-.081.029-.122-.012-.217-.217-.434-.437-.656-.654-.05-.05-.053-.081,0-.131.179-.169.351-.348.53-.52a.581.581,0,0,1,.372-.153.569.569,0,0,1,.487.31.484.484,0,0,1-.036.556" transform="translate(-300.493 -627.333)" fill="#fff"/>
        <path id="Path_1724" data-name="Path 1724" d="M308.378,506.906c1.3,0,2.606,0,3.909,0s2.58,0,3.871,0a.558.558,0,1,0,0-1.114h-7.741a.638.638,0,0,0-.2.021.565.565,0,0,0-.4.618.552.552,0,0,0,.556.475" transform="translate(-299.186 -624.088)" fill="#fff"/>
        <path id="Path_1725" data-name="Path 1725" d="M313.952,506.729c-.923,0-1.849,0-2.773,0h-2.754a.561.561,0,1,0,0,1.119q2.742,0,5.488,0a.708.708,0,0,0,.2-.021.557.557,0,0,0-.162-1.093" transform="translate(-299.183 -622.792)" fill="#fff"/>
        <path id="Path_1726" data-name="Path 1726" d="M308.379,508.779q1.4,0,2.792,0h2.754a.56.56,0,1,0,0-1.117q-2.753,0-5.508,0a.575.575,0,0,0-.2.021.565.565,0,0,0-.394.621.55.55,0,0,0,.556.472" transform="translate(-299.185 -621.494)" fill="#fff"/>
        <path id="Path_1727" data-name="Path 1727" d="M314.519,509.166a.554.554,0,0,0-.613-.566c-.907,0-1.814,0-2.718,0s-1.835,0-2.754,0a.56.56,0,1,0,0,1.114h5.472a.554.554,0,0,0,.613-.549" transform="translate(-299.184 -620.196)" fill="#fff"/>
        <path id="Path_1728" data-name="Path 1728" d="M313.564,510.036q-1.636,0-3.274,0a.56.56,0,1,0-.007,1.117h3.274a.56.56,0,1,0,.007-1.117" transform="translate(-296.588 -618.207)" fill="#fff"/>
        <path id="Path_1729" data-name="Path 1729" d="M321.778,529.72a9.176,9.176,0,0,0-2.849-1.083c-.36-.083-.725-.15-1.1-.227.031-.055.053-.1.076-.138.625-.976,1.262-1.945,1.871-2.93a5.968,5.968,0,0,0,.241-6.269,6.061,6.061,0,0,0-6.288-3.174,5.96,5.96,0,0,0-3.472,1.782,6.057,6.057,0,0,0-1.735,4.973,5.894,5.894,0,0,0,.921,2.642q.952,1.5,1.911,2.99c.024.036.043.074.072.126-.067.014-.119.029-.172.036a13.505,13.505,0,0,0-2.649.706,5.142,5.142,0,0,0-1.756,1.057,1.759,1.759,0,0,0-.045,2.6,4.361,4.361,0,0,0,1.429.952,14.163,14.163,0,0,0,4.539,1.045c.3.026.592.05.885.079h1.938a.722.722,0,0,1,.141-.033c.47-.041.94-.067,1.408-.119a13.305,13.305,0,0,0,3.7-.9,4.463,4.463,0,0,0,1.663-1.1,1.691,1.691,0,0,0,.2-2.155,2.789,2.789,0,0,0-.928-.869m-11.411-5.057a5.07,5.07,0,0,1,.205-5.632,4.953,4.953,0,0,1,3.136-1.995,5,5,0,0,1,5.613,3.2,4.952,4.952,0,0,1-.523,4.563q-2.015,3.146-4.021,6.3c-.043.069-.088.136-.148.229-.06-.088-.105-.153-.148-.219q-2.058-3.222-4.114-6.438m11.3,7.335a3.529,3.529,0,0,1-1.36.847,11.109,11.109,0,0,1-3,.737c-.9.1-1.8.155-2.255.193a19.222,19.222,0,0,1-5.135-.6,6.418,6.418,0,0,1-1.933-.835,2.347,2.347,0,0,1-.415-.368.57.57,0,0,1,0-.864,3.541,3.541,0,0,1,.742-.577,8.066,8.066,0,0,1,2.479-.857c.387-.079.783-.124,1.172-.2.122-.024.174.021.234.117.632,1,1.265,2,1.911,2.99a.853.853,0,0,0,.368.315c.253.107.494-.017.67-.291.585-.914,1.179-1.821,1.742-2.747a.591.591,0,0,1,.721-.351,10.593,10.593,0,0,1,3.336,1.019,3.336,3.336,0,0,1,.718.549.589.589,0,0,1,.007.919" transform="translate(-301.356 -610.174)" fill="#fff"/>
        <path id="Path_1730" data-name="Path 1730" d="M314.173,520.064a2.791,2.791,0,1,0-2.809,2.766,2.788,2.788,0,0,0,2.809-2.766M309.717,520a1.632,1.632,0,0,1,1.7-1.627,1.666,1.666,0,1,1-.055,3.331,1.634,1.634,0,0,1-1.642-1.7" transform="translate(-298.113 -608.207)" fill="#fff"/>
        <path id="Path_1731" data-name="Path 1731" d="M316.032,499.089a1,1,0,0,0-.088.463,11.784,11.784,0,0,1-.754,2.98.7.7,0,0,1-.921.432.686.686,0,0,1-.379-.926,11.277,11.277,0,0,0,.709-2.892,10.415,10.415,0,0,0-.632-4.746c-.031-.079-.062-.158-.088-.239a.7.7,0,1,1,1.305-.487,11.5,11.5,0,0,1,.523,1.656,12.244,12.244,0,0,1,.279,1.716c0,.038,0,.081.048.091v.141c-.031.029-.021.067-.024.1s-.014.093.024.131v.186a.355.355,0,0,0,0,.279v.558c-.045.055-.014.119-.024.179.007.045-.017.1.024.143Z" transform="translate(-290.847 -641.53)" fill="#fff"/>
        <path id="Path_1732" data-name="Path 1732" d="M314.785,495.368a.208.208,0,0,1,0-.279Z" transform="translate(-289.6 -638.925)" fill="#fff"/>
        <path id="Path_1733" data-name="Path 1733" d="M314.742,495.631c0-.067-.031-.138.038-.191v.188c-.012.017-.024.021-.038,0" transform="translate(-289.598 -638.439)" fill="#fff"/>
        <path id="Path_1734" data-name="Path 1734" d="M314.781,495.1c-.062-.031-.048-.088-.041-.141.014-.019.029-.019.041,0Z" transform="translate(-289.596 -639.124)" fill="#fff"/>
        <path id="Path_1735" data-name="Path 1735" d="M314.742,495.521l.038,0v.138c-.079-.026-.036-.088-.038-.136" transform="translate(-289.598 -638.329)" fill="#fff"/>
        <path id="Path_1736" data-name="Path 1736" d="M314.78,495.007l-.041,0c0-.038-.019-.081.041-.091Z" transform="translate(-289.595 -639.168)" fill="#fff"/>
        <path id="Path_1737" data-name="Path 1737" d="M304.77,497.813a11.561,11.561,0,0,1,.828-4.073.7.7,0,0,1,.914-.484.7.7,0,0,1,.389.974,10.42,10.42,0,0,0-.064,7.6c.031.081.062.16.088.241a.7.7,0,1,1-1.305.489,11.26,11.26,0,0,1-.515-1.608,13.064,13.064,0,0,1-.334-3.133" transform="translate(-303.41 -641.53)" fill="#fff"/>
        <path id="Path_1738" data-name="Path 1738" d="M305.94,497.618a9.373,9.373,0,0,1,.649-3.489.692.692,0,1,1,1.308.453,9.649,9.649,0,0,0-.516,2.019,7.632,7.632,0,0,0,.437,3.582,2.335,2.335,0,0,1,.115.353.7.7,0,0,1-1.336.365,9.429,9.429,0,0,1-.561-2.1,11.325,11.325,0,0,1-.1-1.181" transform="translate(-301.788 -640.92)" fill="#fff"/>
        <path id="Path_1739" data-name="Path 1739" d="M314.744,497.416a9.35,9.35,0,0,1-.644,3.448.7.7,0,0,1-.89.453.685.685,0,0,1-.42-.9,9.649,9.649,0,0,0,.513-2.016,7.628,7.628,0,0,0-.432-3.56c-.033-.1-.067-.191-.1-.284a.7.7,0,0,1,.43-.864.687.687,0,0,1,.878.4,9.474,9.474,0,0,1,.57,2.143c.055.425.079.849.091,1.179" transform="translate(-292.353 -640.92)" fill="#fff"/>
        <path id="Path_1740" data-name="Path 1740" d="M319.769,493.62a2.083,2.083,0,0,0-2.157-2.157q-4.177-.007-8.352,0a2.114,2.114,0,0,0-2.15,2.191q0,3.429,0,6.863,0,3.454,0,6.908a2.09,2.09,0,0,0,2.172,2.191q4.166.007,8.328,0a2.082,2.082,0,0,0,2.16-2.155q.007-6.923,0-13.841m-11.266.413c.017-.169,0-.341.007-.511a.685.685,0,0,1,.651-.661c.069,0,.141,0,.21,0h8.14c.613,0,.862.246.864.852,0,.544,0,.544-.554.544h-4.4c-1.565,0-3.131,0-4.7,0-.181,0-.246-.041-.227-.227m0,1.849c0-.2.055-.236.243-.234,1.573.007,3.148,0,4.72,0s3.133,0,4.7,0c.169,0,.217.033.215.212q-.007,4.675,0,9.35c0,.191-.057.222-.232.22q-4.707,0-9.419,0c-.177,0-.229-.038-.229-.224q.011-4.664,0-9.326m9.877,11.151a3.885,3.885,0,0,0,0,.441.7.7,0,0,1-.737.747c-.372,0-.745,0-1.117,0h-7.14c-.63,0-.876-.244-.876-.864,0-.535,0-.535.539-.535h4.419c1.565,0,3.131,0,4.7,0,.172,0,.239.033.217.212" transform="translate(-300.168 -643.957)" fill="#fff"/>
        <path id="Path_1741" data-name="Path 1741" d="M334.66,533.063a4.818,4.818,0,0,0-4.813-4.813H319.13a4.817,4.817,0,0,0-4.811,4.813v.821h-6.288a4.817,4.817,0,0,0-4.811,4.813v4.19a4.79,4.79,0,0,0,.971,2.89l-.94,3.527a.564.564,0,0,0,.542.709.547.547,0,0,0,.277-.074l3.992-2.238h10.686a4.818,4.818,0,0,0,4.813-4.813v-.821h6.257l3.992,2.241a.566.566,0,0,0,.274.072.564.564,0,0,0,.544-.709l-.94-3.527a4.79,4.79,0,0,0,.971-2.89Zm-15.912,13.511H308.032l-.1,0a.6.6,0,0,0-.289.072l-2.964,1.663.671-2.515a.559.559,0,0,0-.117-.511,3.679,3.679,0,0,1-.89-2.393V538.7a3.691,3.691,0,0,1,3.687-3.689h10.717a3.692,3.692,0,0,1,3.689,3.689v2.654a.537.537,0,0,0-.024.153.554.554,0,0,0,.024.155v1.229a3.691,3.691,0,0,1-3.689,3.687m14.788-9.321a3.682,3.682,0,0,1-.89,2.393.56.56,0,0,0-.117.511l.671,2.515-2.964-1.663a.6.6,0,0,0-.291-.071l-.036,0-.062,0h-6.286V538.7a4.817,4.817,0,0,0-4.813-4.813h-3.305v-.821a3.693,3.693,0,0,1,3.687-3.689h10.717a3.693,3.693,0,0,1,3.689,3.689Z" transform="translate(-305.557 -592.954)" fill="#fff"/>
        <path id="Path_1742" data-name="Path 1742" d="M320.711,531.208H310.276a.562.562,0,0,1,0-1.124h10.435a.562.562,0,1,1,0,1.124" transform="translate(-296.555 -590.412)" fill="#fff"/>
        <path id="Path_1743" data-name="Path 1743" d="M317.864,532.261h-5.531a.562.562,0,1,1,0-1.124h5.531a.562.562,0,1,1,0,1.124" transform="translate(-293.707 -588.952)" fill="#fff"/>
        <path id="Path_1744" data-name="Path 1744" d="M317.431,533.273h-4.787a.562.562,0,1,1,0-1.124h4.787a.562.562,0,1,1,0,1.124" transform="translate(-293.275 -587.549)" fill="#fff"/>
        <path id="Path_1745" data-name="Path 1745" d="M316.287,533.435H305.563a.562.562,0,1,1,0-1.124h10.724a.562.562,0,1,1,0,1.124" transform="translate(-303.091 -587.325)" fill="#fff"/>
        <path id="Path_1746" data-name="Path 1746" d="M316.287,534.393H305.563a.562.562,0,1,1,0-1.124h10.724a.562.562,0,1,1,0,1.124" transform="translate(-303.091 -585.997)" fill="#fff"/>
        <path id="Path_1747" data-name="Path 1747" d="M316.287,535.351H305.563a.562.562,0,1,1,0-1.124h10.724a.562.562,0,1,1,0,1.124" transform="translate(-303.091 -584.669)" fill="#fff"/>
        <path id="Path_1748" data-name="Path 1748" d="M312.439,562.63a13.8,13.8,0,0,0,13.891-13.888c0-.212,0-.425-.014-.632a9.9,9.9,0,0,0,2.436-2.529,9.629,9.629,0,0,1-2.8.768,4.893,4.893,0,0,0,2.145-2.7,9.866,9.866,0,0,1-3.1,1.186,4.885,4.885,0,0,0-8.319,4.45,13.856,13.856,0,0,1-10.063-5.1,4.886,4.886,0,0,0,1.51,6.517,4.813,4.813,0,0,1-2.21-.611l0,.062a4.882,4.882,0,0,0,3.918,4.784,4.886,4.886,0,0,1-1.289.172,4.813,4.813,0,0,1-.916-.086,4.882,4.882,0,0,0,4.56,3.391,9.838,9.838,0,0,1-7.228,2.021,13.82,13.82,0,0,0,7.483,2.193" transform="translate(-303.152 -572.102)" fill="#fff"/>
        <path id="Path_1749" data-name="Path 1749" d="M312.8,561.214c.081-.091.112-.117.136-.15a4.359,4.359,0,0,1,4.62-1.842,4.578,4.578,0,0,1,3.923,4.183,11.077,11.077,0,0,1,.124,1.663c0,2.32-.007,4.637,0,6.954,0,.26-.062.337-.329.337q-1.822-.025-3.644,0c-.265,0-.329-.077-.329-.337.01-2.159,0-4.324,0-6.484a5.173,5.173,0,0,0-.172-1.456,2.1,2.1,0,0,0-3.415-1.048,2.568,2.568,0,0,0-.926,2.126c.014,2.04.007,4.078.007,6.118,0,.265-.019.535,0,.8.017.231-.076.277-.289.274-1.236-.007-2.472-.01-3.706,0-.227,0-.308-.045-.305-.291q.029-2.756.029-5.515,0-3.393-.022-6.784c0-.248.053-.322.308-.32,1.236.014,2.47.012,3.708,0,.222,0,.284.064.277.281-.014.465,0,.933,0,1.484" transform="translate(-298.232 -550.127)" fill="#fff"/>
        <path id="Path_1750" data-name="Path 1750" d="M310.018,565.725c0,2.038,0,4.076,0,6.116,0,.253-.05.344-.325.339-1.227-.017-2.451-.014-3.677,0-.227,0-.3-.055-.3-.293q.011-6.168,0-12.33c0-.215.05-.286.277-.284q1.868.018,3.742,0c.248,0,.286.088.286.308-.007,2.048,0,4.1,0,6.147" transform="translate(-302.096 -549.951)" fill="#fff"/>
        <path id="Path_1751" data-name="Path 1751" d="M308.055,556.667a2.235,2.235,0,0,1,2.322,2.83,2.39,2.39,0,0,1-2.863,1.594,2.21,2.21,0,0,1-1.737-3.043,2.309,2.309,0,0,1,2.279-1.382" transform="translate(-302.247 -553.56)" fill="#fff"/>
      </g>
    </g>
  </g>
</svg>
