<svg xmlns="http://www.w3.org/2000/svg" xmlns:xlink="http://www.w3.org/1999/xlink" width="50" height="50" viewBox="0 0 50 50">
  <defs>
    <linearGradient id="linear-gradient" y1="0.5" x2="1" y2="0.5" gradientUnits="objectBoundingBox">
      <stop offset="0" stop-color="#00aaac"/>
      <stop offset="1" stop-color="#253e92"/>
    </linearGradient>
    <clipPath id="clip-path">
      <rect id="Rectangle_41" data-name="Rectangle 41" width="37.991" height="31.752" fill="none"/>
    </clipPath>
  </defs>
  <g id="icon-chat" transform="translate(-940 -1699)">
    <circle id="Ellipse_19" data-name="Ellipse 19" cx="25" cy="25" r="25" transform="translate(940 1699)" fill="url(#linear-gradient)"/>
    <g id="Group_161" data-name="Group 161" transform="translate(946 1709)" clip-path="url(#clip-path)">
      <path id="Path_1433" data-name="Path 1433" d="M50.151,171.17a6.55,6.55,0,0,0-.13-.98,9.452,9.452,0,0,0-2.184-4.509,9.56,9.56,0,0,0-7.327-3.375.573.573,0,1,0-.021,1.144,9.723,9.723,0,0,1,1.514.145,8.579,8.579,0,0,1,7.043,8.416.573.573,0,0,0,.455.579.584.584,0,0,0,.643-.333c.013-.026.006-.064.045-.077v-.914c-.051-.017-.034-.062-.036-.1" transform="translate(-21.731 -278.553)" fill="#fff"/>
      <path id="Path_1434" data-name="Path 1434" d="M47.9,170.6a6.947,6.947,0,0,0-.13-1.219,7.452,7.452,0,0,0-7.236-6.006.574.574,0,1,0-.028,1.144,6.425,6.425,0,0,1,2.816.687,6.275,6.275,0,0,1,2.75,2.752,6.493,6.493,0,0,1,.687,2.855.566.566,0,0,0,.493.564.576.576,0,0,0,.628-.41,1.477,1.477,0,0,0,.019-.367" transform="translate(-21.73 -277.337)" fill="#fff"/>
      <path id="Path_1435" data-name="Path 1435" d="M40.5,165.593a4.025,4.025,0,0,1,3.969,4.007.572.572,0,1,0,1.144-.015,4.534,4.534,0,0,0-.1-1.021,5.169,5.169,0,0,0-4.851-4.118,1.563,1.563,0,0,0-.361.019.58.58,0,0,0-.408.632.589.589,0,0,0,.6.5" transform="translate(-21.732 -276.123)" fill="#fff"/>
      <path id="Path_1436" data-name="Path 1436" d="M49.055,173.14a1.638,1.638,0,0,0-2.334-.009c-.337.29-.634.626-.954.933-.186.179-.329.468-.568.512a1.639,1.639,0,0,1-.884-.239c-.051-.023-.1-.047-.154-.073a6.47,6.47,0,0,1-2.27-2.02,3.683,3.683,0,0,1-.69-1.565.247.247,0,0,1,.085-.248c.429-.425.858-.85,1.281-1.281a1.672,1.672,0,0,0,.1-2.434c-.807-.871-1.648-1.714-2.519-2.521a1.672,1.672,0,0,0-2.421.081c-.246.241-.487.485-.728.728a4.721,4.721,0,0,0-1.392,2.863,4.551,4.551,0,0,0,.781,3.2,31.841,31.841,0,0,0,2.88,3.523,39.055,39.055,0,0,0,5.195,4.667,4.576,4.576,0,0,0,2.389.937l.006.034h.993a.024.024,0,0,1,0-.034,4.46,4.46,0,0,0,1.93-.634,7.858,7.858,0,0,0,1.8-1.608,1.616,1.616,0,0,0,0-2.274q-1.22-1.31-2.53-2.536M38.3,165.328a2.538,2.538,0,0,0,.2-.2.591.591,0,0,1,.969-.006c.243.241.485.487.728.728q.769.769,1.537,1.535a.6.6,0,0,1,0,.971c-.1.1-.2.209-.305.316-.047-.041-.085-.077-.122-.111q-1.5-1.5-3.008-3c-.092-.092-.109-.149,0-.235M49.317,178.5a3.594,3.594,0,0,1-4.2-.186,38.619,38.619,0,0,1-5.019-4.52,31.905,31.905,0,0,1-2.773-3.386,3.57,3.57,0,0,1-.023-3.975c.07-.1.107-.137.214-.028Q39,167.9,40.5,169.38c.085.085.107.141,0,.213l-.026.028a1.172,1.172,0,0,0-.38,1.362,5.9,5.9,0,0,0,1.772,3,6.486,6.486,0,0,0,2.417,1.573,3.613,3.613,0,0,0,1,.211.847.847,0,0,0,.724-.3c.258-.278.267-.273.532-.006q1.4,1.4,2.805,2.8c.107.107.115.154-.021.239m1.3-1.191c-.1.1-.2.265-.3.267s-.2-.169-.3-.267c-.935-.933-1.868-1.87-2.805-2.8-.1-.1-.12-.167,0-.256a2.271,2.271,0,0,0,.2-.2.588.588,0,0,1,.954.006l1.24,1.24c.35.35.7.7,1.053,1.05a.6.6,0,0,1,.211.476.625.625,0,0,1-.254.483" transform="translate(-26.637 -276.952)" fill="#fff"/>
      <path id="Path_1437" data-name="Path 1437" d="M54.831,155.8a9.464,9.464,0,0,0-15.1-5.8,9.112,9.112,0,0,0-3.491,5.575,9.286,9.286,0,0,0,.726,5.972.682.682,0,0,1,.038.57c-.487,1.345-.942,2.7-1.433,4.048a.959.959,0,0,0,.574,1.379h.38l2.233-.794c.741-.26,1.486-.512,2.225-.777a.426.426,0,0,1,.374.021,9.476,9.476,0,0,0,13.536-7.172c.036-.231.06-.463.088-.7v-1.3c-.051-.342-.092-.687-.152-1.031m-4.2,8.239a7.959,7.959,0,0,1-5.688,1.749,7.711,7.711,0,0,1-3.115-.85,1.35,1.35,0,0,0-1.181-.07c-1.213.444-2.438.858-3.657,1.283l-.2.066c.2-.581.395-1.136.589-1.689.269-.773.534-1.546.813-2.314a1.056,1.056,0,0,0-.058-.9,7.861,7.861,0,0,1-.869-2.8,8.159,8.159,0,0,1,1.907-6.4,8,8,0,0,1,4.654-2.771,8.094,8.094,0,0,1,6.77,1.559,7.838,7.838,0,0,1,3.072,4.951,8.088,8.088,0,0,1-3.036,8.179" transform="translate(-26.749 -294.776)" fill="#fff"/>
      <path id="Path_1438" data-name="Path 1438" d="M46.447,156.015a1.089,1.089,0,0,0-1.518-.03,4,4,0,0,0-.408.4.175.175,0,0,1-.258.034,7.023,7.023,0,0,1-2.558-2.556c-.06-.1-.07-.173.028-.258a4.581,4.581,0,0,0,.339-.335,1.118,1.118,0,0,0-.013-1.648q-.6-.605-1.2-1.2a1.12,1.12,0,0,0-1.676,0c-.314.305-.619.619-.931.927a1.766,1.766,0,0,0-.512,1.3,4.639,4.639,0,0,0,.617,2.088,12.7,12.7,0,0,0,4.669,4.832,5.021,5.021,0,0,0,2.3.8,1.668,1.668,0,0,0,1.3-.38c.406-.374.807-.76,1.176-1.168a1.073,1.073,0,0,0-.041-1.5q-.637-.669-1.307-1.307m-.579,3.1a.842.842,0,0,1-.752.073,5.014,5.014,0,0,1-1.783-.781,11.639,11.639,0,0,1-3.935-4.163,3.71,3.71,0,0,1-.5-1.467.794.794,0,0,1,.26-.715c.3-.265.568-.562.835-.831l1.255,1.255c-.154.145-.331.305-.5.474a.9.9,0,0,0-.171,1.234,8.116,8.116,0,0,0,3.39,3.371.875.875,0,0,0,1.142-.158c.181-.177.352-.365.51-.529l1.238,1.234c-.314.32-.634.683-.993,1" transform="translate(-24.176 -292.469)" fill="#fff"/>
      <path id="Path_1439" data-name="Path 1439" d="M56.183,197.263a1.77,1.77,0,0,0-2.887-.506c-.489.485-.971.971-1.456,1.456-.043.043-.073.1-.145.113a.49.49,0,0,1-.015-.207v-4.078a1.762,1.762,0,0,0-.455-1.258q-.845-.906-1.751-1.753a1.28,1.28,0,0,0-.848-.382h-.015l.009.015a.234.234,0,0,1-.2-.034H38.357a.222.222,0,0,1-.2.032l0-.013h-.03a1.156,1.156,0,0,0-.371.068,1.661,1.661,0,0,0-1.025,1.541v16.263a1.458,1.458,0,0,0,.075.542,1.7,1.7,0,0,0,1.563,1.11q5.813-.01,11.629,0a1.424,1.424,0,0,0,.715-.152,1.783,1.783,0,0,0,.967-1.655c0-1.563,0-3.126,0-4.689a.676.676,0,0,1,.22-.521c1.251-1.245,2.5-2.5,3.751-3.743a1.8,1.8,0,0,0,.623-1.117v-.572a3.07,3.07,0,0,0-.094-.459m-7.848-5.485a.7.7,0,0,1,.4.2c.512.515,1.025,1.025,1.537,1.537a.8.8,0,0,1,.12.149.394.394,0,0,1,.079.357c-.038.088-.184.032-.278.034-.288,0-.572,0-.858,0-.337,0-.675,0-1.01,0-.1,0-.13-.021-.13-.124,0-.681,0-1.36,0-2.041,0-.117.043-.137.141-.12m2.148,12.928v3.6c0,.48-.216.7-.7.7H38.594c-.478,0-.692-.218-.692-.7V192.482c0-.493.211-.709.7-.709q4.131,0,8.258,0c.158,0,.194.036.194.194-.011.858,0,1.717,0,2.575a.579.579,0,0,0,.655.666c.873,0,1.744,0,2.613,0,.139,0,.167.036.162.167q-.006,2.059,0,4.118a.346.346,0,0,1-.111.265c-.769.76-1.529,1.527-2.3,2.289a1.03,1.03,0,0,0-.273.446c-.243.737-.493,1.473-.741,2.208a.592.592,0,0,0,.8.79c.749-.25,1.5-.5,2.248-.747a.954.954,0,0,0,.374-.231Zm-.521-1.311c-.12.1-.2.246-.361.3-.363.113-.72.237-1.108.365.132-.386.254-.745.371-1.1.049-.164.194-.241.3-.361.045-.058.075-.006.1.023l.675.673c.03.03.077.062.021.107m3.519-3.521q-1.3,1.291-2.586,2.588c-.023.021-.045.041-.075.07l-.088-.081c-.209-.209-.416-.425-.634-.63-.077-.073-.064-.111,0-.177q1.291-1.284,2.573-2.575c.06-.06.1-.077.164-.006.209.218.429.433.647.645.064.064.062.1,0,.167m1.546-1.574c-.184.218-.395.41-.589.619-.056.053-.085.028-.126-.013-.224-.222-.446-.448-.673-.67-.049-.049-.053-.083,0-.135.186-.173.359-.357.542-.534a.6.6,0,0,1,.384-.154.572.572,0,0,1,.5.316.493.493,0,0,1-.036.57" transform="translate(-25.315 -246.404)" fill="#fff"/>
      <path id="Path_1440" data-name="Path 1440" d="M38.39,194.45c1.334,0,2.669,0,4,0s2.643,0,3.965,0a.572.572,0,1,0,0-1.142H38.43a.612.612,0,0,0-.2.023.575.575,0,0,0-.4.632.563.563,0,0,0,.568.487" transform="translate(-24.089 -243.364)" fill="#fff"/>
      <path id="Path_1441" data-name="Path 1441" d="M44.1,194.381q-1.419,0-2.84,0h-2.82a.574.574,0,1,0,0,1.144q2.812,0,5.624,0a.664.664,0,0,0,.2-.021.57.57,0,0,0-.167-1.119" transform="translate(-24.088 -242.148)" fill="#fff"/>
      <path id="Path_1442" data-name="Path 1442" d="M38.392,196.593c.952,0,1.907,0,2.859,0h2.82a.572.572,0,1,0,0-1.142q-2.821,0-5.643,0a.611.611,0,0,0-.2.021.579.579,0,0,0-.4.634.565.565,0,0,0,.57.485" transform="translate(-24.089 -240.931)" fill="#fff"/>
      <path id="Path_1443" data-name="Path 1443" d="M44.68,197.1a.568.568,0,0,0-.63-.581h-5.6a.575.575,0,1,0,0,1.144h5.6a.569.569,0,0,0,.628-.564" transform="translate(-24.088 -239.716)" fill="#fff"/>
      <path id="Path_1444" data-name="Path 1444" d="M43.928,198.166q-1.678,0-3.354,0a.572.572,0,1,0-.006,1.142c.559,0,1.119,0,1.676,0s1.119,0,1.678,0a.572.572,0,1,0,.006-1.142" transform="translate(-21.655 -237.852)" fill="#fff"/>
      <path id="Path_1445" data-name="Path 1445" d="M51.927,219.025a9.439,9.439,0,0,0-2.919-1.108c-.369-.085-.743-.154-1.127-.233.032-.056.053-.1.079-.141.641-1,1.292-1.992,1.917-3a6.115,6.115,0,0,0,.246-6.422,6.209,6.209,0,0,0-6.439-3.25,6.076,6.076,0,0,0-3.557,1.828,6.2,6.2,0,0,0-1.778,5.092,6.045,6.045,0,0,0,.944,2.705c.651,1.023,1.307,2.041,1.958,3.064.023.036.043.075.073.128-.066.015-.12.03-.175.038a13.724,13.724,0,0,0-2.714.724,5.233,5.233,0,0,0-1.8,1.082,1.8,1.8,0,0,0-.047,2.662,4.468,4.468,0,0,0,1.465.976,14.511,14.511,0,0,0,4.648,1.072c.3.026.606.051.907.079h1.983a.708.708,0,0,1,.145-.032c.48-.043.963-.07,1.443-.124a13.678,13.678,0,0,0,3.794-.92,4.586,4.586,0,0,0,1.7-1.121,1.736,1.736,0,0,0,.2-2.205,2.885,2.885,0,0,0-.952-.892m-11.687-5.177a5.2,5.2,0,0,1,.207-5.769,5.146,5.146,0,0,1,8.427,5.9q-2.066,3.222-4.118,6.45c-.045.07-.09.141-.152.235-.062-.092-.109-.158-.152-.224q-2.107-3.3-4.212-6.6m11.572,7.513a3.575,3.575,0,0,1-1.392.867,11.321,11.321,0,0,1-3.072.756c-.92.1-1.847.158-2.312.2a19.581,19.581,0,0,1-5.259-.613,6.588,6.588,0,0,1-1.981-.854,2.653,2.653,0,0,1-.425-.378.581.581,0,0,1,0-.882,3.58,3.58,0,0,1,.758-.594,8.251,8.251,0,0,1,2.541-.875c.4-.083.8-.13,1.2-.2a.2.2,0,0,1,.241.12c.649,1.023,1.3,2.047,1.958,3.064a.884.884,0,0,0,.376.322.55.55,0,0,0,.687-.3c.6-.935,1.208-1.864,1.783-2.814a.61.61,0,0,1,.739-.359,10.908,10.908,0,0,1,3.418,1.042,3.569,3.569,0,0,1,.737.564.6.6,0,0,1,.006.942" transform="translate(-26.125 -230.322)" fill="#fff"/>
      <path id="Path_1446" data-name="Path 1446" d="M44.42,209.306a2.859,2.859,0,1,0-2.878,2.835,2.858,2.858,0,0,0,2.878-2.835m-4.565-.062a1.672,1.672,0,0,1,1.738-1.667,1.706,1.706,0,1,1-.056,3.412,1.672,1.672,0,0,1-1.682-1.744" transform="translate(-23.084 -228.477)" fill="#fff"/>
      <path id="Path_1447" data-name="Path 1447" d="M46.954,184.927a1,1,0,0,0-.09.472,12.1,12.1,0,0,1-.773,3.051.713.713,0,0,1-.944.444.7.7,0,0,1-.389-.946,11.459,11.459,0,0,0,.726-2.966,10.647,10.647,0,0,0-.649-4.859c-.03-.081-.062-.164-.09-.246a.713.713,0,1,1,1.337-.5,11.971,11.971,0,0,1,.538,1.7,12.82,12.82,0,0,1,.284,1.757c0,.038,0,.081.049.094v.143c-.032.028-.023.066-.026.1s-.013.092.026.13v.192a.369.369,0,0,0,0,.286v.572c-.047.058-.015.124-.026.184.009.049-.017.107.026.149Z" transform="translate(-16.274 -259.713)" fill="#fff"/>
      <path id="Path_1448" data-name="Path 1448" d="M45.786,181.341a.215.215,0,0,1,0-.286Z" transform="translate(-15.106 -257.271)" fill="#fff"/>
      <path id="Path_1449" data-name="Path 1449" d="M45.744,181.651c0-.068-.032-.141.041-.194v.19c-.013.019-.026.023-.041,0" transform="translate(-15.102 -256.815)" fill="#fff"/>
      <path id="Path_1450" data-name="Path 1450" d="M45.783,181.05c-.064-.032-.049-.09-.041-.145.015-.017.028-.017.041,0Z" transform="translate(-15.102 -257.456)" fill="#fff"/>
      <path id="Path_1451" data-name="Path 1451" d="M45.744,181.55l.041,0v.143c-.081-.028-.038-.09-.041-.139" transform="translate(-15.102 -256.714)" fill="#fff"/>
      <path id="Path_1452" data-name="Path 1452" d="M45.781,180.951l-.041,0c0-.038-.021-.081.041-.092Z" transform="translate(-15.101 -257.498)" fill="#fff"/>
      <path id="Path_1453" data-name="Path 1453" d="M34.327,183.618a11.929,11.929,0,0,1,.848-4.174.718.718,0,1,1,1.337.5,10.663,10.663,0,0,0-.068,7.78c.032.081.064.162.09.246a.713.713,0,1,1-1.334.5,10.964,10.964,0,0,1-.527-1.648,13.191,13.191,0,0,1-.344-3.209" transform="translate(-28.05 -259.713)" fill="#fff"/>
      <path id="Path_1454" data-name="Path 1454" d="M35.667,183.472a9.643,9.643,0,0,1,.664-3.574.71.71,0,1,1,1.341.465,9.727,9.727,0,0,0-.527,2.067,7.8,7.8,0,0,0,.446,3.668,2.767,2.767,0,0,1,.117.363.713.713,0,0,1-1.371.374,9.764,9.764,0,0,1-.572-2.152,11.113,11.113,0,0,1-.1-1.211" transform="translate(-26.529 -259.142)" fill="#fff"/>
      <path id="Path_1455" data-name="Path 1455" d="M45.505,183.264a9.584,9.584,0,0,1-.66,3.531.713.713,0,0,1-.912.465.7.7,0,0,1-.431-.924,9.865,9.865,0,0,0,.525-2.065,7.822,7.822,0,0,0-.44-3.647c-.036-.1-.07-.194-.1-.292a.712.712,0,0,1,.44-.884.7.7,0,0,1,.9.412,9.755,9.755,0,0,1,.583,2.2c.058.433.081.869.094,1.206" transform="translate(-17.686 -259.141)" fill="#fff"/>
      <path id="Path_1456" data-name="Path 1456" d="M49.974,179.114a2.137,2.137,0,0,0-2.212-2.21q-4.279-.01-8.555,0a2.166,2.166,0,0,0-2.2,2.244q0,3.513,0,7.029,0,3.539,0,7.078A2.142,2.142,0,0,0,39.23,195.5q4.266.01,8.532,0a2.134,2.134,0,0,0,2.212-2.208q.006-7.09,0-14.177m-11.54.423c.017-.173,0-.348.006-.523a.7.7,0,0,1,.668-.677c.07,0,.143,0,.214,0h8.339c.628,0,.882.254.882.873,0,.559,0,.559-.564.559h-4.5c-1.6,0-3.209,0-4.812,0-.184,0-.252-.043-.231-.233m0,1.894c0-.2.056-.241.248-.239,1.612.009,3.224,0,4.836,0s3.209,0,4.812,0c.173,0,.222.034.222.216q-.01,4.791,0,9.578c0,.194-.06.228-.237.226q-4.823-.006-9.648,0c-.181,0-.233-.041-.233-.228q.01-4.778,0-9.554m10.116,11.422c-.017.149,0,.3,0,.45a.713.713,0,0,1-.754.767c-.38,0-.762,0-1.144,0H39.333c-.645,0-.9-.248-.9-.886,0-.544,0-.544.553-.544h4.526c1.6,0,3.207,0,4.81,0,.175,0,.243.034.222.218" transform="translate(-25.011 -261.987)" fill="#fff"/>
      <path id="Path_1457" data-name="Path 1457" d="M64.76,223.949a4.934,4.934,0,0,0-4.93-4.93H48.852a4.934,4.934,0,0,0-4.93,4.93v.839H37.485a4.935,4.935,0,0,0-4.93,4.93v4.294a4.906,4.906,0,0,0,.995,2.959l-.963,3.615a.576.576,0,0,0,.555.724.552.552,0,0,0,.282-.075l4.091-2.293H48.461a4.936,4.936,0,0,0,4.93-4.93v-.841H59.8l4.089,2.3a.575.575,0,0,0,.837-.651l-.963-3.612a4.919,4.919,0,0,0,1-2.961Zm-16.3,13.839H37.485l-.1,0a.6.6,0,0,0-.3.073l-3.034,1.7.687-2.575a.585.585,0,0,0-.12-.525,3.765,3.765,0,0,1-.914-2.451v-4.294a3.783,3.783,0,0,1,3.779-3.777H48.461a3.781,3.781,0,0,1,3.777,3.777v2.718a.642.642,0,0,0-.023.158.628.628,0,0,0,.023.158v1.26a3.781,3.781,0,0,1-3.777,3.777m15.146-9.548a3.78,3.78,0,0,1-.912,2.453.574.574,0,0,0-.12.523l.685,2.575-3.034-1.7a.576.576,0,0,0-.3-.075l-.036,0h-6.5v-2.3a4.936,4.936,0,0,0-4.93-4.93H45.075v-.839a3.783,3.783,0,0,1,3.777-3.779H59.83a3.783,3.783,0,0,1,3.777,3.779Z" transform="translate(-30.061 -214.181)" fill="#fff"/>
      <path id="Path_1458" data-name="Path 1458" d="M51.253,222.27H40.565a.576.576,0,1,1,0-1.153H51.253a.576.576,0,1,1,0,1.153" transform="translate(-21.623 -211.8)" fill="#fff"/>
      <path id="Path_1459" data-name="Path 1459" d="M48.584,223.474H42.917a.575.575,0,1,1,0-1.151h5.666a.575.575,0,1,1,0,1.151" transform="translate(-18.954 -210.431)" fill="#fff"/>
      <path id="Path_1460" data-name="Path 1460" d="M48.179,224.634h-4.9a.576.576,0,0,1,0-1.153h4.9a.576.576,0,1,1,0,1.153" transform="translate(-18.549 -209.117)" fill="#fff"/>
      <path id="Path_1461" data-name="Path 1461" d="M46.154,224.82H35.167a.576.576,0,0,1,0-1.153H46.154a.576.576,0,0,1,0,1.153" transform="translate(-27.75 -208.905)" fill="#fff"/>
      <path id="Path_1462" data-name="Path 1462" d="M46.154,225.917H35.167a.576.576,0,1,1,0-1.153H46.154a.576.576,0,0,1,0,1.153" transform="translate(-27.75 -207.66)" fill="#fff"/>
      <path id="Path_1463" data-name="Path 1463" d="M46.154,227.014H35.167a.576.576,0,0,1,0-1.153H46.154a.576.576,0,0,1,0,1.153" transform="translate(-27.75 -206.415)" fill="#fff"/>
      <path id="Path_1464" data-name="Path 1464" d="M42.206,256.048a14.131,14.131,0,0,0,14.228-14.226c0-.218,0-.433-.015-.649a10.163,10.163,0,0,0,2.5-2.588,9.916,9.916,0,0,1-2.872.786,5.015,5.015,0,0,0,2.2-2.765,10.06,10.06,0,0,1-3.175,1.215,5,5,0,0,0-8.521,4.558,14.191,14.191,0,0,1-10.308-5.224,5.006,5.006,0,0,0,1.548,6.676,4.945,4.945,0,0,1-2.263-.623l0,.062a5,5,0,0,0,4.012,4.9,4.977,4.977,0,0,1-1.317.175,4.886,4.886,0,0,1-.942-.09,5.007,5.007,0,0,0,4.671,3.474,10.081,10.081,0,0,1-7.4,2.071,14.156,14.156,0,0,0,7.665,2.246" transform="translate(-27.807 -194.636)" fill="#fff"/>
      <path id="Path_1465" data-name="Path 1465" d="M43,256.507a1.55,1.55,0,0,0,.141-.156,4.467,4.467,0,0,1,4.733-1.885,4.684,4.684,0,0,1,4.014,4.285,11.106,11.106,0,0,1,.13,1.7c0,2.376-.006,4.748,0,7.122,0,.267-.064.346-.337.344q-1.867-.022-3.732,0c-.273,0-.342-.077-.342-.344.011-2.214.006-4.428,0-6.64a5.329,5.329,0,0,0-.175-1.492,2.15,2.15,0,0,0-3.5-1.072A2.631,2.631,0,0,0,43,260.551c.011,2.088,0,4.176,0,6.266,0,.273-.017.547,0,.818.017.237-.079.284-.295.282q-1.9-.013-3.8,0c-.228,0-.312-.047-.31-.3q.029-2.821.028-5.647,0-3.478-.021-6.95c0-.254.051-.329.314-.327,1.266.015,2.534.013,3.8,0,.228,0,.293.068.284.29-.015.476,0,.954,0,1.52" transform="translate(-23.196 -174.04)" fill="#fff"/>
      <path id="Path_1466" data-name="Path 1466" d="M39.818,261.143c0,2.088,0,4.176,0,6.264,0,.26-.049.352-.333.348-1.255-.017-2.509-.015-3.764,0-.233,0-.312-.058-.312-.3q.01-6.312,0-12.629c0-.22.053-.293.282-.29q1.918.019,3.835,0c.254,0,.295.09.293.316-.006,2.1,0,4.2,0,6.3" transform="translate(-26.817 -173.874)" fill="#fff"/>
      <path id="Path_1467" data-name="Path 1467" d="M37.793,251.551a2.29,2.29,0,0,1,2.378,2.9,2.446,2.446,0,0,1-2.934,1.631,2.262,2.262,0,0,1-1.778-3.117,2.368,2.368,0,0,1,2.334-1.413" transform="translate(-26.96 -177.256)" fill="#fff"/>
    </g>
  </g>
</svg>
