<svg id="icon-video" xmlns="http://www.w3.org/2000/svg" width="43.064" height="31.58" viewBox="0 0 43.064 31.58">
  <g id="_32-sale_tag" data-name="32-sale tag" transform="translate(0 0)">
    <path id="Path_1111" data-name="Path 1111" d="M43.289,5.158a1.435,1.435,0,0,0-1.435.115L31.145,12.881V6.435A1.435,1.435,0,0,0,29.709,5H2.435A1.435,1.435,0,0,0,1,6.435V33.709a1.435,1.435,0,0,0,1.435,1.435H29.709a1.435,1.435,0,0,0,1.435-1.435V28.7L41.8,36.307a1.435,1.435,0,0,0,.833.273,1.536,1.536,0,0,0,.66-.158,1.435,1.435,0,0,0,.775-1.278V6.435a1.435,1.435,0,0,0-.775-1.278ZM28.274,32.274H3.871V7.871h24.4Zm12.919.086L31.145,25.183V16.4L41.193,9.22Z" transform="translate(-1 -5)" fill="#fff"/>
  </g>
</svg>
