<svg xmlns="http://www.w3.org/2000/svg" width="16" height="20" viewBox="0 0 16 20">
  <g id="icon-pin" transform="translate(6 0.001)">
    <g id="_3-place" data-name="3-place" transform="translate(-6.001 -0.001)">
      <path id="Subtraction_1" data-name="Subtraction 1" d="M8,20a.727.727,0,0,1-.487-.185C7.207,19.543,0,13.108,0,7.857A7.939,7.939,0,0,1,8,0a8.02,8.02,0,0,1,5.657,2.3A7.74,7.74,0,0,1,16,7.857a9.181,9.181,0,0,1-1.13,4.048,22.4,22.4,0,0,1-2.511,3.8,36.453,36.453,0,0,1-3.871,4.109A.735.735,0,0,1,8,20ZM8,4.287a3.572,3.572,0,1,0,3.635,3.57A3.607,3.607,0,0,0,8,4.287Z" transform="translate(0.001 0)" fill="#fcc200"/>
    </g>
  </g>
</svg>
