<svg xmlns="http://www.w3.org/2000/svg" xmlns:xlink="http://www.w3.org/1999/xlink" width="50" height="50" viewBox="0 0 50 50">
  <defs>
    <linearGradient id="linear-gradient" y1="0.5" x2="1" y2="0.5" gradientUnits="objectBoundingBox">
      <stop offset="0" stop-color="#00aaac"/>
      <stop offset="1" stop-color="#253e92"/>
    </linearGradient>
    <clipPath id="clip-path">
      <rect id="Rectangle_49" data-name="Rectangle 49" width="27.242" height="26.497" fill="none"/>
    </clipPath>
  </defs>
  <g id="icon-insta" transform="translate(-1147 -1920)">
    <circle id="Ellipse_24" data-name="Ellipse 24" cx="25" cy="25" r="25" transform="translate(1147 1920)" fill="url(#linear-gradient)"/>
    <g id="Group_179" data-name="Group 179" transform="translate(1159.181 1932.498)">
      <g id="Group_178" data-name="Group 178" clip-path="url(#clip-path)">
        <path id="Path_1600" data-name="Path 1600" d="M89.336,534.654l-.112-.8a.049.049,0,0,0-.055-.045H88.2a.052.052,0,0,0-.057.045l-.136.8a.107.107,0,0,1-.119.1H86.58c-.074,0-.11-.036-.091-.119l1.329-6.209a.115.115,0,0,1,.122-.1h1.5a.111.111,0,0,1,.117.1l1.334,6.209c.017.083-.021.119-.1.119H89.455a.106.106,0,0,1-.119-.1m.561-7.825-.728.926a.163.163,0,0,1-.138.067h-.99c-.084,0-.129-.048-.084-.129l.542-.928a.146.146,0,0,1,.138-.074H89.82c.093,0,.131.064.076.138m-1.508,5.8h.606c.029,0,.036-.019.036-.045l-.284-1.966c-.01-.036-.045-.036-.052,0l-.341,1.966c-.01.036.01.045.036.045" transform="translate(-183.843 -599.848)" fill="#312783"/>
        <path id="Path_1601" data-name="Path 1601" d="M90.747,528.122h1.305a.1.1,0,0,1,.107.112V532.6c0,1.329-.468,2.35-2.816,2.176a.114.114,0,0,1-.112-.119V533.56a.1.1,0,0,1,.119-.1c1.093.055,1.267-.293,1.286-.88,0-.048-.036-.055-.064-.019a1,1,0,0,1-.826.367c-.892,0-1.258-.613-1.258-1.589v-1.7c0-1.029.394-1.587,1.258-1.587a.945.945,0,0,1,.835.413c.026.036.055.026.055-.01v-.219a.106.106,0,0,1,.11-.112m-.11,3.095v-1.46c0-.239-.129-.4-.322-.4s-.3.164-.3.4v1.46c0,.239.122.4.3.4s.322-.158.322-.4" transform="translate(-181.062 -597.964)" fill="#312783"/>
        <path id="Path_1602" data-name="Path 1602" d="M92.487,528.08h1.305a.107.107,0,0,1,.11.112v4.527a.105.105,0,0,1-.11.11H92.487a.105.105,0,0,1-.11-.11V532.6c0-.036-.026-.045-.055-.01a.928.928,0,0,1-.8.313,1.229,1.229,0,0,1-1.289-1.386v-3.324a.109.109,0,0,1,.112-.112h1.3a.109.109,0,0,1,.112.112v2.983c0,.277.1.413.294.413s.32-.146.32-.42v-2.976a.107.107,0,0,1,.11-.112" transform="translate(-178.64 -597.922)" fill="#312783"/>
        <path id="Path_1603" data-name="Path 1603" d="M95.77,529.584v3.179a.1.1,0,0,1-.107.107H94.357a.1.1,0,0,1-.11-.107v-.222c0-.038-.029-.055-.055-.019a1.067,1.067,0,0,1-.938.422c-.523.012-1.3-.155-1.3-1.441s.773-1.47,1.883-1.47H94.2a.043.043,0,0,0,.045-.045v-.22a.375.375,0,0,0-.367-.413.3.3,0,0,0-.3.265c-.007.074-.048.11-.11.11l-1.332-.007a.1.1,0,0,1-.112-.112,1.679,1.679,0,0,1,1.866-1.561c1.122,0,1.88.6,1.88,1.534m-1.522,1.854V531.1a.043.043,0,0,0-.045-.043h-.284a.386.386,0,0,0-.406.4.313.313,0,0,0,.313.358.406.406,0,0,0,.422-.377" transform="translate(-176.262 -597.964)" fill="#312783"/>
        <path id="Path_1604" data-name="Path 1604" d="M93.716,531.493v-.055a.105.105,0,0,1,.11-.11h1.231c.064,0,.11.029.11.064v.065a.36.36,0,0,0,.368.358.261.261,0,0,0,.277-.274c0-.293-.451-.377-.854-.515a1.513,1.513,0,0,1,.532-2.976,1.573,1.573,0,0,1,1.754,1.589.1.1,0,0,1-.112.1H95.938c-.064,0-.11-.036-.11-.091v-.093a.294.294,0,0,0-.3-.32.3.3,0,0,0-.294.32c0,.3.4.432.7.532.613.205,1.413.506,1.413,1.434,0,.883-.716,1.422-1.8,1.422-1.112,0-1.828-.578-1.828-1.451" transform="translate(-173.817 -597.964)" fill="#312783"/>
        <path id="Path_1605" data-name="Path 1605" d="M98.983,533.7l-.112-.8a.049.049,0,0,0-.055-.045h-.974a.051.051,0,0,0-.055.045l-.136.8a.108.108,0,0,1-.119.1H96.226c-.074,0-.11-.036-.093-.119l1.334-6.209a.11.11,0,0,1,.119-.1h1.5a.112.112,0,0,1,.117.1l1.332,6.209c.019.083-.019.119-.093.119H99.1a.1.1,0,0,1-.117-.1m-.947-2.021h.606c.026,0,.036-.019.036-.045l-.284-1.966c-.01-.036-.045-.036-.053,0L98,531.638c-.01.036.007.045.036.045" transform="translate(-170.471 -598.898)" fill="#312783"/>
        <path id="Path_1606" data-name="Path 1606" d="M102.076,529.386a1.735,1.735,0,0,1-1.732,1.931h-.6a.043.043,0,0,0-.045.048V533.7a.107.107,0,0,1-.11.11h-1.3a.106.106,0,0,1-.11-.11v-6.209a.105.105,0,0,1,.11-.11h1.983a1.822,1.822,0,0,1,1.806,2.009m-1.522.038c0-.489-.229-.744-.551-.744h-.258a.044.044,0,0,0-.045.045v1.37a.044.044,0,0,0,.045.045H100c.322,0,.551-.248.551-.716" transform="translate(-167.633 -598.897)" fill="#312783"/>
        <path id="Path_1607" data-name="Path 1607" d="M103.9,529.386a1.735,1.735,0,0,1-1.732,1.931h-.6a.043.043,0,0,0-.045.048V533.7a.106.106,0,0,1-.11.11H100.11a.106.106,0,0,1-.107-.11v-6.209a.1.1,0,0,1,.107-.11H102.1a1.822,1.822,0,0,1,1.806,2.009m-1.522.038c0-.489-.229-.744-.551-.744h-.258a.044.044,0,0,0-.045.045v1.37a.044.044,0,0,0,.045.045h.258c.322,0,.551-.248.551-.716" transform="translate(-165.101 -598.897)" fill="#312783"/>
        <path id="Path_1608" data-name="Path 1608" d="M82.125,530.16a.578.578,0,0,0-.179-.048,1.493,1.493,0,0,0-.2-.012H81.71v.706h.048a1.444,1.444,0,0,0,.2-.014.5.5,0,0,0,.172-.05.378.378,0,0,0,.119-.11.331.331,0,0,0,.048-.186.3.3,0,0,0-.05-.184.29.29,0,0,0-.124-.1" transform="translate(-190.461 -595.122)" fill="#312783"/>
        <path id="Path_1609" data-name="Path 1609" d="M79.063,530.981h.656l-.329-.747Z" transform="translate(-194.13 -594.936)" fill="#312783"/>
        <path id="Path_1610" data-name="Path 1610" d="M76.442,530.981H77.1l-.329-.747Z" transform="translate(-197.764 -594.936)" fill="#312783"/>
        <path id="Path_1611" data-name="Path 1611" d="M80.926,530.981h.659l-.329-.747Z" transform="translate(-191.548 -594.936)" fill="#312783"/>
        <path id="Path_1612" data-name="Path 1612" d="M82.731,530.16a.615.615,0,0,0-.179-.048,1.528,1.528,0,0,0-.205-.012h-.033v.706h.048a1.444,1.444,0,0,0,.2-.014.509.509,0,0,0,.174-.05.378.378,0,0,0,.119-.11.332.332,0,0,0,.045-.186.3.3,0,0,0-.048-.184.3.3,0,0,0-.124-.1" transform="translate(-189.625 -595.122)" fill="#312783"/>
        <path id="Path_1613" data-name="Path 1613" d="M93.475,523.7H78.821a4.281,4.281,0,0,0-4.269,4.267v14.96a4.281,4.281,0,0,0,4.269,4.267H93.475a4.279,4.279,0,0,0,4.267-4.267v-14.96a4.279,4.279,0,0,0-4.267-4.267m-7.032,7.741a3.546,3.546,0,0,1,3.164-1.864,3.328,3.328,0,0,1,3.324,3.324,3.488,3.488,0,0,1-.021.384l-.019.167H88.76V532.3l2.957,0a2.185,2.185,0,0,0-2.109-1.589c-.6,0-1.41.176-2.4,1.573l-.153.215-.687-.947Zm-7.386,6.932.363-.484a.039.039,0,0,1,.031-.014l.019,0,.241.126a.037.037,0,0,1,.021.031.035.035,0,0,1-.012.033l-.477.434-.026.01-.021,0-.129-.079a.047.047,0,0,1-.019-.029.033.033,0,0,1,.01-.029M80.47,540.9a.038.038,0,0,1-.033.019h-.294a.042.042,0,0,1-.036-.024l-.239-.527h-.955l-.241.527a.039.039,0,0,1-.036.024h-.294a.038.038,0,0,1-.033-.019.043.043,0,0,1,0-.038l1.048-2.284a.036.036,0,0,1,.033-.024.043.043,0,0,1,.038.024l1.048,2.284a.037.037,0,0,1,0,.038m2.186-1.04a1.235,1.235,0,0,1-.076.437,1.044,1.044,0,0,1-.224.348.992.992,0,0,1-.339.234,1.089,1.089,0,0,1-.437.086,1.143,1.143,0,0,1-.449-.093,1.2,1.2,0,0,1-.365-.26,1.282,1.282,0,0,1-.243-.375,1.178,1.178,0,0,1,1.086-1.637,1.174,1.174,0,0,1,.508.115,1.136,1.136,0,0,1,.415.327.04.04,0,0,1,0,.052l-.193.184-.029.009h0a.04.04,0,0,1-.029-.017.839.839,0,0,0-.291-.246.765.765,0,0,0-.365-.1.827.827,0,0,0-.592.248.88.88,0,0,0-.177.272.817.817,0,0,0-.067.332.8.8,0,0,0,.064.315.922.922,0,0,0,.174.277.857.857,0,0,0,.258.191.722.722,0,0,0,.317.071.674.674,0,0,0,.239-.048.82.82,0,0,0,.217-.134.788.788,0,0,0,.157-.2.583.583,0,0,0,.06-.193h-.525a.04.04,0,0,1-.038-.041v-.251a.038.038,0,0,1,.038-.04h.871a.038.038,0,0,1,.038.04Zm1.84.212a1.04,1.04,0,0,1-.06.351.8.8,0,0,1-.167.282A.74.74,0,0,1,84,540.9a.869.869,0,0,1-.351.069.892.892,0,0,1-.356-.069.762.762,0,0,1-.265-.191.871.871,0,0,1-.167-.282,1.1,1.1,0,0,1-.055-.351v-1.386a.038.038,0,0,1,.038-.038h.274a.038.038,0,0,1,.038.038v1.3a1.44,1.44,0,0,0,.024.251.614.614,0,0,0,.076.208.384.384,0,0,0,.15.138.58.58,0,0,0,.482,0,.413.413,0,0,0,.148-.138.614.614,0,0,0,.076-.208,1.438,1.438,0,0,0,.021-.251v-1.3a.04.04,0,0,1,.041-.038h.274a.04.04,0,0,1,.041.038Zm2.229.828a.034.034,0,0,1-.031.019H86.4a.037.037,0,0,1-.036-.024l-.241-.527h-.955l-.239.527a.042.042,0,0,1-.036.024h-.3a.043.043,0,0,1-.036-.057l1.048-2.284a.039.039,0,0,1,.036-.024.037.037,0,0,1,.036.024l1.048,2.284a.037.037,0,0,1,0,.038m1.4-.367a.7.7,0,0,1-.157.229.771.771,0,0,1-.234.15.79.79,0,0,1-.291.052.712.712,0,0,1-.267-.05.717.717,0,0,1-.37-.341.727.727,0,0,1-.081-.255.042.042,0,0,1,.031-.045l.277-.057h.007l.026.007a.038.038,0,0,1,.014.031.384.384,0,0,0,.029.15.4.4,0,0,0,.081.122.389.389,0,0,0,.124.076.4.4,0,0,0,.15.029.335.335,0,0,0,.146-.033.394.394,0,0,0,.115-.084.339.339,0,0,0,.076-.122.4.4,0,0,0,.029-.15.284.284,0,0,0-.029-.134.3.3,0,0,0-.076-.1.566.566,0,0,0-.115-.079,1.38,1.38,0,0,0-.134-.064l-.153-.064c-.062-.026-.124-.057-.184-.088a.746.746,0,0,1-.16-.122.536.536,0,0,1-.115-.165.6.6,0,0,1,.017-.473.631.631,0,0,1,.153-.191.721.721,0,0,1,.22-.117.768.768,0,0,1,.255-.043.661.661,0,0,1,.6.353.037.037,0,0,1-.014.053l-.215.131-.021,0h-.012a.046.046,0,0,1-.024-.019.4.4,0,0,0-.131-.141.336.336,0,0,0-.186-.045.4.4,0,0,0-.119.019.382.382,0,0,0-.107.055.353.353,0,0,0-.072.086.217.217,0,0,0-.029.11.164.164,0,0,0,.024.093.262.262,0,0,0,.067.079.336.336,0,0,0,.088.06.558.558,0,0,0,.1.045l.155.062a1.722,1.722,0,0,1,.222.107.683.683,0,0,1,.184.141.648.648,0,0,1,.122.193.762.762,0,0,1,.043.255.729.729,0,0,1-.057.291m3.05.367a.038.038,0,0,1-.033.019h-.291a.04.04,0,0,1-.038-.024l-.239-.527h-.955l-.241.527a.037.037,0,0,1-.036.024h-.294a.041.041,0,0,1-.033-.019.037.037,0,0,1,0-.038l1.048-2.284a.039.039,0,0,1,.036-.024.042.042,0,0,1,.036.024l1.045,2.284a.037.037,0,0,1,0,.038m1.322-1.267a.563.563,0,0,1-.177.21.674.674,0,0,1-.258.119,1.272,1.272,0,0,1-.305.036h-.119v.88a.042.042,0,0,1-.041.041h-.272a.04.04,0,0,1-.038-.041v-2.193a.038.038,0,0,1,.038-.038h.315a1.858,1.858,0,0,1,.432.043.743.743,0,0,1,.286.131.474.474,0,0,1,.157.217.792.792,0,0,1,.045.282.665.665,0,0,1-.064.313m-.876-3.742a3.3,3.3,0,0,1-1.9.592,3.436,3.436,0,0,1-2.518-1.157,24.747,24.747,0,0,1-1.642-2.133c-.391-.544-.761-1.06-1.06-1.429a2.206,2.206,0,1,0-1.725,3.56,2.377,2.377,0,0,0,1.809-.916c.15-.169.561-.654.566-.659l.15-.177.69.9.014.017v1.878H84.811v-.625a3.207,3.207,0,0,1-2.035.721,3.322,3.322,0,1,1,0-6.643,3.451,3.451,0,0,1,2.035.728v-.7H86V531.9c.172.227.348.472.532.723.523.709,1.062,1.444,1.465,1.9a2.3,2.3,0,0,0,1.718.833,2.2,2.2,0,0,0,1.642-.737h1.348a3.357,3.357,0,0,1-1.093,1.277m2.315,3.742a.563.563,0,0,1-.177.21.685.685,0,0,1-.26.119,1.244,1.244,0,0,1-.305.036h-.117v.88a.04.04,0,0,1-.038.041h-.274a.042.042,0,0,1-.041-.041v-2.193a.04.04,0,0,1,.041-.038h.315a1.844,1.844,0,0,1,.432.043.727.727,0,0,1,.286.131.474.474,0,0,1,.158.217.791.791,0,0,1,.048.282.7.7,0,0,1-.067.313" transform="translate(-200.384 -603.994)" fill="#312783"/>
        <path id="Path_1614" data-name="Path 1614" d="M84.42,563.9H79.69V552.469H77.335v-3.947h2.348c0-.749-.017-1.437,0-2.119a12.87,12.87,0,0,1,.141-1.921,3.924,3.924,0,0,1,3.637-3.4,9.729,9.729,0,0,1,1.236-.093c1.069-.012,2.141,0,3.241,0v3.952c-.437,0-.861,0-1.286,0-.367,0-.737-.012-1.1.024-.785.081-1.071.353-1.11,1.131s-.01,1.558-.01,2.4H88c-.143,1.353-.279,2.639-.42,3.961H84.42Z" transform="translate(-196.526 -580.036)" fill="#312783"/>
        <path id="Path_1615" data-name="Path 1615" d="M83.741,551.061l1.649-6.887h.959l-1.668,6.887Z" transform="translate(-187.645 -575.61)" fill="#312783"/>
        <path id="Path_1616" data-name="Path 1616" d="M86.258,546.526l-1.157-.21a1.794,1.794,0,0,1,.673-1.036,2.457,2.457,0,0,1,1.417-.334,3.082,3.082,0,0,1,1.272.2,1.273,1.273,0,0,1,.587.513,2.618,2.618,0,0,1,.172,1.143l-.014,1.491a5.263,5.263,0,0,0,.06.938,2.877,2.877,0,0,0,.231.647H88.233c-.033-.086-.074-.21-.122-.377-.021-.076-.036-.126-.045-.15a2.27,2.27,0,0,1-.7.477,2.021,2.021,0,0,1-.795.16,1.636,1.636,0,0,1-1.174-.406,1.344,1.344,0,0,1-.43-1.021,1.392,1.392,0,0,1,.193-.73,1.285,1.285,0,0,1,.549-.489,4.263,4.263,0,0,1,1.014-.3,7.1,7.1,0,0,0,1.241-.313V546.6a.663.663,0,0,0-.181-.525,1.109,1.109,0,0,0-.687-.155.9.9,0,0,0-.53.134.916.916,0,0,0-.31.47m1.709,1.036c-.162.055-.422.119-.776.2a2.414,2.414,0,0,0-.7.222.534.534,0,0,0-.248.451.636.636,0,0,0,.2.463.7.7,0,0,0,.508.2,1.1,1.1,0,0,0,.661-.229.8.8,0,0,0,.3-.422,2.5,2.5,0,0,0,.05-.623Z" transform="translate(-185.943 -574.541)" fill="#312783"/>
        <path id="Path_1617" data-name="Path 1617" d="M87.325,550.2l1.458.177a.5.5,0,0,0,.169.351.96.96,0,0,0,.573.136,1.487,1.487,0,0,0,.749-.15.615.615,0,0,0,.253-.322,1.883,1.883,0,0,0,.06-.585V549.1a1.725,1.725,0,0,1-1.444.783,1.78,1.78,0,0,1-1.542-.823,2.8,2.8,0,0,1-.444-1.616,2.662,2.662,0,0,1,.582-1.854,1.884,1.884,0,0,1,1.453-.64,1.76,1.76,0,0,1,1.475.785v-.678h1.2v4.329a4.338,4.338,0,0,1-.141,1.277,1.571,1.571,0,0,1-.4.663,1.757,1.757,0,0,1-.678.377,3.584,3.584,0,0,1-1.074.136,2.779,2.779,0,0,1-1.742-.42,1.318,1.318,0,0,1-.513-1.064c0-.043,0-.1,0-.155m1.141-2.83a1.735,1.735,0,0,0,.3,1.124.916.916,0,0,0,.733.358,1.007,1.007,0,0,0,.79-.367,1.59,1.59,0,0,0,.325-1.081,1.692,1.692,0,0,0-.31-1.114.982.982,0,0,0-.78-.363.943.943,0,0,0-.756.356,1.677,1.677,0,0,0-.3,1.088" transform="translate(-182.908 -574.541)" fill="#312783"/>
        <path id="Path_1618" data-name="Path 1618" d="M92.85,549.816v-.723a1.884,1.884,0,0,1-.692.611,1.951,1.951,0,0,1-.907.222,1.768,1.768,0,0,1-.873-.215,1.246,1.246,0,0,1-.558-.6,2.686,2.686,0,0,1-.172-1.067v-3.054h1.277v2.219a6.3,6.3,0,0,0,.069,1.246.681.681,0,0,0,.258.363.779.779,0,0,0,.472.134,1.015,1.015,0,0,0,.587-.179.918.918,0,0,0,.353-.444,5.141,5.141,0,0,0,.1-1.3v-2.035h1.277v4.825Z" transform="translate(-179.456 -574.478)" fill="#312783"/>
        <path id="Path_1619" data-name="Path 1619" d="M93.189,546.526l-1.157-.21a1.8,1.8,0,0,1,.671-1.036,2.467,2.467,0,0,1,1.417-.334,3.066,3.066,0,0,1,1.272.2,1.28,1.28,0,0,1,.589.513,2.664,2.664,0,0,1,.169,1.143l-.012,1.491a5.261,5.261,0,0,0,.06.938,2.86,2.86,0,0,0,.229.647H95.164c-.033-.086-.074-.21-.122-.377-.021-.076-.036-.126-.045-.15a2.3,2.3,0,0,1-.7.477,2.03,2.03,0,0,1-.795.16,1.636,1.636,0,0,1-1.174-.406,1.344,1.344,0,0,1-.43-1.021,1.392,1.392,0,0,1,.193-.73,1.272,1.272,0,0,1,.549-.489,4.263,4.263,0,0,1,1.014-.3,7.1,7.1,0,0,0,1.241-.313V546.6a.672.672,0,0,0-.181-.525,1.109,1.109,0,0,0-.687-.155.9.9,0,0,0-.53.134.916.916,0,0,0-.31.47m1.709,1.036c-.165.055-.422.119-.778.2a2.418,2.418,0,0,0-.694.222.534.534,0,0,0-.248.451.636.636,0,0,0,.2.463.7.7,0,0,0,.508.2,1.1,1.1,0,0,0,.661-.229.8.8,0,0,0,.3-.422,2.5,2.5,0,0,0,.05-.623Z" transform="translate(-176.334 -574.541)" fill="#312783"/>
        <path id="Path_1620" data-name="Path 1620" d="M94.021,548.5l1.279-.2a.939.939,0,0,0,.332.566,1.117,1.117,0,0,0,.7.193,1.26,1.26,0,0,0,.745-.181.408.408,0,0,0,.169-.341.343.343,0,0,0-.091-.241,1.029,1.029,0,0,0-.427-.167,6.85,6.85,0,0,1-1.959-.623,1.242,1.242,0,0,1-.573-1.086,1.338,1.338,0,0,1,.5-1.055,2.31,2.31,0,0,1,1.534-.425,2.7,2.7,0,0,1,1.475.322,1.663,1.663,0,0,1,.661.952l-1.205.224a.73.73,0,0,0-.294-.432,1.062,1.062,0,0,0-.613-.15,1.4,1.4,0,0,0-.723.141.3.3,0,0,0-.146.258.286.286,0,0,0,.126.234,4.939,4.939,0,0,0,1.193.358,3.557,3.557,0,0,1,1.425.568,1.184,1.184,0,0,1,.4.95,1.46,1.46,0,0,1-.554,1.141,2.457,2.457,0,0,1-1.639.477,2.686,2.686,0,0,1-1.561-.4,1.839,1.839,0,0,1-.749-1.086" transform="translate(-173.394 -574.541)" fill="#312783"/>
        <path id="Path_1621" data-name="Path 1621" d="M100.968,550.882H99.782v-.709a1.954,1.954,0,0,1-.7.616,1.809,1.809,0,0,1-.811.2,1.84,1.84,0,0,1-1.425-.668,2.74,2.74,0,0,1-.592-1.871,2.694,2.694,0,0,1,.575-1.864,1.881,1.881,0,0,1,1.46-.64,1.807,1.807,0,0,1,1.4.673v-2.4h1.277Zm-3.408-2.518a2.221,2.221,0,0,0,.212,1.117.967.967,0,0,0,.864.5.936.936,0,0,0,.749-.375,1.723,1.723,0,0,0,.31-1.122,1.884,1.884,0,0,0-.3-1.2.985.985,0,0,0-1.527,0,1.625,1.625,0,0,0-.308,1.079" transform="translate(-170.294 -575.545)" fill="#312783"/>
        <path id="Path_1622" data-name="Path 1622" d="M98.635,547.4a2.622,2.622,0,0,1,.313-1.231,2.147,2.147,0,0,1,.888-.909,2.631,2.631,0,0,1,1.284-.315,2.412,2.412,0,0,1,1.794.711,2.463,2.463,0,0,1,.7,1.8,2.49,2.49,0,0,1-.706,1.816,2.388,2.388,0,0,1-1.778.721,2.794,2.794,0,0,1-1.265-.3,2.066,2.066,0,0,1-.916-.878,2.947,2.947,0,0,1-.313-1.41m1.308.067a1.607,1.607,0,0,0,.341,1.1,1.117,1.117,0,0,0,1.678,0,1.62,1.62,0,0,0,.339-1.11,1.587,1.587,0,0,0-.339-1.09,1.116,1.116,0,0,0-1.678,0,1.6,1.6,0,0,0-.341,1.1" transform="translate(-166.998 -574.542)" fill="#312783"/>
        <path id="Path_1623" data-name="Path 1623" d="M102.394,549.878h-1.277v-4.825H102.3v.687a2.084,2.084,0,0,1,.546-.642,1.01,1.01,0,0,1,.554-.153,1.609,1.609,0,0,1,.84.241l-.4,1.112a1.13,1.13,0,0,0-.6-.21.709.709,0,0,0-.453.148.99.99,0,0,0-.294.534,7.547,7.547,0,0,0-.107,1.618Z" transform="translate(-163.557 -574.541)" fill="#312783"/>
        <path id="Path_1624" data-name="Path 1624" d="M102.657,544.222h1.277V545.4h-1.277Zm0,1.835h1.277v4.825h-1.277Z" transform="translate(-161.422 -575.545)" fill="#312783"/>
        <path id="Path_1625" data-name="Path 1625" d="M103.617,547.4a2.594,2.594,0,0,1,.313-1.231,2.147,2.147,0,0,1,.888-.909,2.63,2.63,0,0,1,1.284-.315,2.416,2.416,0,0,1,1.795.711,2.463,2.463,0,0,1,.7,1.8,2.49,2.49,0,0,1-.706,1.816,2.388,2.388,0,0,1-1.778.721,2.787,2.787,0,0,1-1.265-.3,2.066,2.066,0,0,1-.916-.878,2.919,2.919,0,0,1-.313-1.41m1.308.067a1.6,1.6,0,0,0,.341,1.1,1.117,1.117,0,0,0,1.678,0,1.62,1.62,0,0,0,.339-1.11,1.587,1.587,0,0,0-.339-1.09,1.116,1.116,0,0,0-1.678,0,1.59,1.59,0,0,0-.341,1.1" transform="translate(-160.091 -574.542)" fill="#312783"/>
        <path id="Path_1626" data-name="Path 1626" d="M86.2,580.425a51.864,51.864,0,0,1-5.684-.053,6.334,6.334,0,0,1-5.527-6.273c-.043-3.212-.052-6.424,0-9.636a6.569,6.569,0,0,1,6.5-6.445c3.152-.038,6.309-.034,9.464,0a6.587,6.587,0,0,1,6.512,6.548q.032,4.685,0,9.373A6.577,6.577,0,0,1,91,580.494c-1.6.019-3.2,0-4.8,0,0-.024,0-.05,0-.074m-9.5-11.163c0,1.556-.007,3.114,0,4.67a4.865,4.865,0,0,0,4.823,4.851q4.693.022,9.388,0a4.859,4.859,0,0,0,4.837-4.832q.018-4.7,0-9.4a4.844,4.844,0,0,0-4.823-4.813q-4.689-.018-9.381,0a4.872,4.872,0,0,0-4.842,4.859c-.01,1.556,0,3.112,0,4.668" transform="translate(-199.832 -556.457)" fill="#312783"/>
        <path id="Path_1627" data-name="Path 1627" d="M83.371,572.26a6.041,6.041,0,1,1,5.851-6.233,6.049,6.049,0,0,1-5.851,6.233m-4.529-6.03a4.373,4.373,0,0,0,5.975,4.033,4.278,4.278,0,0,0,2.455-2.527,4.35,4.35,0,1,0-8.431-1.506" transform="translate(-196.797 -553.427)" fill="#312783"/>
        <path id="Path_1628" data-name="Path 1628" d="M83.056,559.454a.87.87,0,0,1,.852.871.826.826,0,0,1-.881.821.776.776,0,0,1-.8-.819.842.842,0,0,1,.833-.873" transform="translate(-189.75 -554.428)" fill="#312783"/>
        <path id="Path_1629" data-name="Path 1629" d="M93.85,568.074h.966a3.3,3.3,0,0,1-1.394,1.446,5.343,5.343,0,0,1-2.625.6,6.129,6.129,0,0,1-2.592-.506,3.4,3.4,0,0,1-1.62-1.5,4.451,4.451,0,0,1-.532-2.15,4.9,4.9,0,0,1,.6-2.379,3.982,3.982,0,0,1,1.654-1.651,5.052,5.052,0,0,1,2.4-.554,4.474,4.474,0,0,1,2.035.446,3.133,3.133,0,0,1,1.36,1.265,3.528,3.528,0,0,1,.47,1.792,3.363,3.363,0,0,1-.714,2.1,2.756,2.756,0,0,1-2.293,1.181,1.019,1.019,0,0,1-.568-.131.632.632,0,0,1-.253-.389,1.73,1.73,0,0,1-1.236.52,1.663,1.663,0,0,1-1.253-.52,1.922,1.922,0,0,1-.5-1.384,3.4,3.4,0,0,1,.6-1.95,2.178,2.178,0,0,1,1.864-1.072,1.3,1.3,0,0,1,1.193.618l.115-.5h1.2l-.685,3.257a2.617,2.617,0,0,0-.064.4.248.248,0,0,0,.052.169.165.165,0,0,0,.126.057,1.048,1.048,0,0,0,.563-.263,2.53,2.53,0,0,0,.749-.928,2.685,2.685,0,0,0,.286-1.2,2.447,2.447,0,0,0-.809-1.868,3.188,3.188,0,0,0-2.257-.752,4.07,4.07,0,0,0-2.088.5,3.207,3.207,0,0,0-1.291,1.413,4.366,4.366,0,0,0-.432,1.9,3.266,3.266,0,0,0,.482,1.744,2.829,2.829,0,0,0,1.358,1.145,5.21,5.21,0,0,0,2,.363,5.133,5.133,0,0,0,1.866-.3,2.889,2.889,0,0,0,1.26-.907m-4.911-1.866a1.29,1.29,0,0,0,.234.849.732.732,0,0,0,.58.272.986.986,0,0,0,.484-.126,1.186,1.186,0,0,0,.341-.286,2.356,2.356,0,0,0,.415-.809,3.172,3.172,0,0,0,.177-.99,1.176,1.176,0,0,0-.239-.788.764.764,0,0,0-.6-.274,1.049,1.049,0,0,0-.721.3,1.863,1.863,0,0,0-.5.861,3.488,3.488,0,0,0-.167.99" transform="translate(-184.439 -551.754)" fill="#312783"/>
        <path id="Path_1630" data-name="Path 1630" d="M91.168,563.738l-1.157-.21a1.8,1.8,0,0,1,.673-1.036,2.457,2.457,0,0,1,1.417-.336,3.079,3.079,0,0,1,1.272.2,1.273,1.273,0,0,1,.587.513,2.618,2.618,0,0,1,.172,1.143l-.014,1.489a5.27,5.27,0,0,0,.06.94,2.876,2.876,0,0,0,.231.647H93.146a3.66,3.66,0,0,1-.124-.377c-.021-.076-.036-.126-.045-.15a2.271,2.271,0,0,1-.7.477,2.02,2.02,0,0,1-.795.16,1.636,1.636,0,0,1-1.174-.406,1.344,1.344,0,0,1-.43-1.021,1.371,1.371,0,0,1,.2-.73,1.266,1.266,0,0,1,.546-.489,4.152,4.152,0,0,1,1.014-.3,7.107,7.107,0,0,0,1.241-.312v-.129a.66.66,0,0,0-.181-.525,1.106,1.106,0,0,0-.685-.155.9.9,0,0,0-.532.134.916.916,0,0,0-.31.47m1.709,1.036c-.162.055-.422.119-.776.2a2.412,2.412,0,0,0-.7.222.534.534,0,0,0-.248.451.636.636,0,0,0,.2.463.7.7,0,0,0,.508.2,1.105,1.105,0,0,0,.661-.229.8.8,0,0,0,.3-.422,2.5,2.5,0,0,0,.05-.623Z" transform="translate(-179.136 -550.683)" fill="#312783"/>
        <path id="Path_1631" data-name="Path 1631" d="M92.235,567.408l1.458.177a.5.5,0,0,0,.169.351.959.959,0,0,0,.573.136,1.487,1.487,0,0,0,.749-.15.615.615,0,0,0,.253-.322,1.884,1.884,0,0,0,.06-.585v-.706a1.725,1.725,0,0,1-1.444.783,1.78,1.78,0,0,1-1.542-.823,2.8,2.8,0,0,1-.444-1.615,2.662,2.662,0,0,1,.582-1.854,1.886,1.886,0,0,1,1.453-.642,1.762,1.762,0,0,1,1.475.787v-.678h1.2v4.329a4.338,4.338,0,0,1-.141,1.277,1.572,1.572,0,0,1-.4.663,1.757,1.757,0,0,1-.678.377,3.582,3.582,0,0,1-1.074.136,2.779,2.779,0,0,1-1.742-.42,1.318,1.318,0,0,1-.513-1.064c0-.043,0-.1,0-.155m1.141-2.83a1.735,1.735,0,0,0,.3,1.124.916.916,0,0,0,.733.358,1.007,1.007,0,0,0,.79-.368,1.58,1.58,0,0,0,.325-1.083,1.69,1.69,0,0,0-.31-1.112.981.981,0,0,0-.78-.363.943.943,0,0,0-.756.356,1.677,1.677,0,0,0-.3,1.088" transform="translate(-176.101 -550.683)" fill="#312783"/>
        <path id="Path_1632" data-name="Path 1632" d="M97.76,567.027V566.3a1.882,1.882,0,0,1-.692.611,1.95,1.95,0,0,1-.907.222,1.768,1.768,0,0,1-.873-.215,1.246,1.246,0,0,1-.558-.6,2.687,2.687,0,0,1-.172-1.067V562.2h1.277v2.219a6.3,6.3,0,0,0,.069,1.246.682.682,0,0,0,.258.363.78.78,0,0,0,.472.134,1.015,1.015,0,0,0,.587-.179.918.918,0,0,0,.353-.444,5.141,5.141,0,0,0,.1-1.3V562.2h1.277v4.825Z" transform="translate(-172.65 -550.619)" fill="#312783"/>
        <path id="Path_1633" data-name="Path 1633" d="M98.1,563.738l-1.157-.21a1.794,1.794,0,0,1,.673-1.036,2.453,2.453,0,0,1,1.415-.336,3.064,3.064,0,0,1,1.272.2,1.28,1.28,0,0,1,.589.513,2.663,2.663,0,0,1,.169,1.143l-.012,1.489a5.27,5.27,0,0,0,.06.94,2.86,2.86,0,0,0,.229.647h-1.262c-.033-.086-.074-.21-.122-.377-.021-.076-.036-.126-.045-.15a2.3,2.3,0,0,1-.7.477,2.02,2.02,0,0,1-.795.16,1.636,1.636,0,0,1-1.174-.406,1.344,1.344,0,0,1-.43-1.021,1.391,1.391,0,0,1,.193-.73,1.272,1.272,0,0,1,.549-.489,4.152,4.152,0,0,1,1.014-.3,7.107,7.107,0,0,0,1.241-.312v-.129a.668.668,0,0,0-.181-.525,1.109,1.109,0,0,0-.687-.155.9.9,0,0,0-.53.134.916.916,0,0,0-.31.47m1.709,1.036c-.165.055-.422.119-.778.2a2.416,2.416,0,0,0-.694.222.534.534,0,0,0-.248.451.636.636,0,0,0,.2.463.7.7,0,0,0,.508.2,1.105,1.105,0,0,0,.661-.229.8.8,0,0,0,.3-.422,2.5,2.5,0,0,0,.05-.623Z" transform="translate(-169.528 -550.683)" fill="#312783"/>
        <path id="Path_1634" data-name="Path 1634" d="M98.93,565.714l1.281-.2a.94.94,0,0,0,.332.566,1.118,1.118,0,0,0,.7.193,1.261,1.261,0,0,0,.745-.181.408.408,0,0,0,.169-.341.344.344,0,0,0-.091-.241,1.03,1.03,0,0,0-.427-.167,6.852,6.852,0,0,1-1.959-.623,1.243,1.243,0,0,1-.573-1.086,1.339,1.339,0,0,1,.5-1.055,2.314,2.314,0,0,1,1.534-.427,2.682,2.682,0,0,1,1.472.324,1.655,1.655,0,0,1,.663.952l-1.205.224a.73.73,0,0,0-.294-.432,1.063,1.063,0,0,0-.613-.15,1.4,1.4,0,0,0-.723.141.3.3,0,0,0-.146.258.287.287,0,0,0,.126.234,4.945,4.945,0,0,0,1.193.358,3.56,3.56,0,0,1,1.425.568,1.178,1.178,0,0,1,.4.95,1.46,1.46,0,0,1-.554,1.141,2.457,2.457,0,0,1-1.639.477,2.685,2.685,0,0,1-1.561-.4,1.853,1.853,0,0,1-.752-1.086" transform="translate(-166.589 -550.683)" fill="#312783"/>
        <path id="Path_1635" data-name="Path 1635" d="M105.878,568.093h-1.186v-.709a1.953,1.953,0,0,1-.7.616,1.808,1.808,0,0,1-.811.2,1.84,1.84,0,0,1-1.425-.668,2.741,2.741,0,0,1-.592-1.871,2.678,2.678,0,0,1,.577-1.864,1.872,1.872,0,0,1,1.458-.64,1.807,1.807,0,0,1,1.4.673v-2.4h1.277Zm-3.408-2.517a2.191,2.191,0,0,0,.215,1.117.96.96,0,0,0,.861.5.943.943,0,0,0,.749-.375,1.723,1.723,0,0,0,.31-1.122,1.884,1.884,0,0,0-.3-1.2.981.981,0,0,0-1.527-.005,1.625,1.625,0,0,0-.308,1.079" transform="translate(-163.488 -551.685)" fill="#312783"/>
        <path id="Path_1636" data-name="Path 1636" d="M103.545,564.609a2.619,2.619,0,0,1,.313-1.229,2.148,2.148,0,0,1,.888-.909,2.631,2.631,0,0,1,1.284-.315,2.413,2.413,0,0,1,1.794.711,2.464,2.464,0,0,1,.7,1.8,2.491,2.491,0,0,1-.706,1.816,2.389,2.389,0,0,1-1.778.721,2.791,2.791,0,0,1-1.265-.3,2.064,2.064,0,0,1-.916-.878,2.949,2.949,0,0,1-.313-1.413m1.308.069a1.6,1.6,0,0,0,.341,1.1,1.112,1.112,0,0,0,1.678,0,1.609,1.609,0,0,0,.339-1.107,1.587,1.587,0,0,0-.339-1.09,1.112,1.112,0,0,0-1.678,0,1.6,1.6,0,0,0-.341,1.1" transform="translate(-160.191 -550.683)" fill="#312783"/>
        <path id="Path_1637" data-name="Path 1637" d="M107.3,567.089h-1.277v-4.825h1.186v.687a2.087,2.087,0,0,1,.546-.642,1.01,1.01,0,0,1,.554-.153,1.608,1.608,0,0,1,.84.241l-.4,1.112a1.131,1.131,0,0,0-.6-.21.709.709,0,0,0-.453.148.99.99,0,0,0-.294.534,7.549,7.549,0,0,0-.107,1.618Z" transform="translate(-156.75 -550.681)" fill="#312783"/>
        <path id="Path_1638" data-name="Path 1638" d="M107.567,561.433h1.277v1.181h-1.277Zm0,1.835h1.277v4.825h-1.277Z" transform="translate(-154.615 -551.685)" fill="#312783"/>
        <path id="Path_1639" data-name="Path 1639" d="M108.527,564.609a2.592,2.592,0,0,1,.313-1.229,2.148,2.148,0,0,1,.888-.909,2.63,2.63,0,0,1,1.284-.315,2.416,2.416,0,0,1,1.794.711,2.464,2.464,0,0,1,.7,1.8,2.491,2.491,0,0,1-.706,1.816,2.389,2.389,0,0,1-1.778.721,2.784,2.784,0,0,1-1.265-.3,2.064,2.064,0,0,1-.916-.878,2.922,2.922,0,0,1-.313-1.413m1.308.069a1.583,1.583,0,0,0,.341,1.1,1.112,1.112,0,0,0,1.678,0,1.609,1.609,0,0,0,.339-1.107,1.587,1.587,0,0,0-.339-1.09,1.112,1.112,0,0,0-1.678,0,1.59,1.59,0,0,0-.341,1.1" transform="translate(-153.284 -550.683)" fill="#312783"/>
        <path id="Path_1640" data-name="Path 1640" d="M142.352,534.654l-.112-.8a.049.049,0,0,0-.055-.045h-.971a.052.052,0,0,0-.057.045l-.136.8a.108.108,0,0,1-.119.1H139.6c-.074,0-.11-.036-.091-.119l1.332-6.209a.111.111,0,0,1,.119-.1h1.5a.111.111,0,0,1,.117.1l1.334,6.209c.017.083-.021.119-.1.119h-1.341a.1.1,0,0,1-.117-.1m.561-7.825-.728.926a.163.163,0,0,1-.138.067h-.99c-.083,0-.131-.048-.083-.129l.542-.928a.146.146,0,0,1,.138-.074h1.184c.093,0,.131.064.076.138m-1.508,5.8h.606c.029,0,.036-.019.036-.045l-.284-1.966c-.007-.036-.045-.036-.053,0l-.341,1.966c-.01.036.01.045.036.045" transform="translate(-110.347 -599.848)" fill="#fff"/>
        <path id="Path_1641" data-name="Path 1641" d="M143.762,528.122h1.305a.1.1,0,0,1,.107.112V532.6c0,1.329-.468,2.35-2.816,2.176a.115.115,0,0,1-.112-.119V533.56a.1.1,0,0,1,.122-.1c1.091.055,1.265-.293,1.286-.88,0-.048-.038-.055-.067-.019a1,1,0,0,1-.823.367c-.895,0-1.26-.613-1.26-1.589v-1.7c0-1.029.4-1.587,1.26-1.587a.944.944,0,0,1,.833.413c.026.036.057.026.057-.01v-.219a.1.1,0,0,1,.107-.112m-.107,3.095v-1.46c0-.239-.129-.4-.325-.4s-.3.164-.3.4v1.46c0,.239.122.4.3.4s.325-.158.325-.4" transform="translate(-107.567 -597.964)" fill="#fff"/>
        <path id="Path_1642" data-name="Path 1642" d="M145.5,528.08h1.305a.107.107,0,0,1,.11.112v4.527a.105.105,0,0,1-.11.11H145.5a.105.105,0,0,1-.11-.11V532.6c0-.036-.026-.045-.055-.01a.928.928,0,0,1-.8.313,1.229,1.229,0,0,1-1.289-1.386v-3.324a.109.109,0,0,1,.112-.112h1.3a.109.109,0,0,1,.112.112v2.983c0,.277.1.413.294.413s.32-.146.32-.42v-2.976a.107.107,0,0,1,.11-.112" transform="translate(-105.144 -597.922)" fill="#fff"/>
        <path id="Path_1643" data-name="Path 1643" d="M148.788,529.584v3.179a.106.106,0,0,1-.11.107h-1.305a.1.1,0,0,1-.11-.107v-.222c0-.038-.029-.055-.055-.019a1.067,1.067,0,0,1-.938.422c-.523.012-1.3-.155-1.3-1.441s.773-1.47,1.883-1.47h.367a.043.043,0,0,0,.045-.045v-.22a.375.375,0,0,0-.367-.413.3.3,0,0,0-.3.265c-.007.074-.048.11-.11.11l-1.332-.007a.1.1,0,0,1-.112-.112,1.678,1.678,0,0,1,1.866-1.561c1.122,0,1.883.6,1.883,1.534m-1.525,1.854V531.1a.043.043,0,0,0-.045-.043h-.284a.385.385,0,0,0-.406.4.313.313,0,0,0,.313.358.406.406,0,0,0,.422-.377" transform="translate(-102.766 -597.964)" fill="#fff"/>
        <path id="Path_1644" data-name="Path 1644" d="M146.732,531.493v-.055a.105.105,0,0,1,.11-.11h1.231c.064,0,.11.029.11.064v.065a.36.36,0,0,0,.367.358.261.261,0,0,0,.277-.274c0-.293-.451-.377-.857-.515a1.513,1.513,0,0,1,.535-2.976,1.573,1.573,0,0,1,1.754,1.589.1.1,0,0,1-.112.1h-1.193c-.064,0-.11-.036-.11-.091v-.093a.294.294,0,0,0-.3-.32.3.3,0,0,0-.293.32c0,.3.394.432.7.532.613.205,1.413.506,1.413,1.434,0,.883-.716,1.422-1.8,1.422-1.112,0-1.828-.578-1.828-1.451" transform="translate(-100.321 -597.964)" fill="#fff"/>
        <path id="Path_1645" data-name="Path 1645" d="M152,533.7l-.112-.8a.049.049,0,0,0-.055-.045h-.974a.051.051,0,0,0-.055.045l-.136.8a.108.108,0,0,1-.119.1h-1.305c-.074,0-.11-.036-.093-.119l1.332-6.209a.114.114,0,0,1,.122-.1h1.5a.112.112,0,0,1,.117.1l1.332,6.209c.019.083-.019.119-.093.119h-1.341a.1.1,0,0,1-.117-.1m-.947-2.021h.606c.026,0,.036-.019.036-.045l-.284-1.966c-.01-.036-.045-.036-.053,0l-.341,1.966c-.01.036.007.045.036.045" transform="translate(-96.977 -598.898)" fill="#fff"/>
        <path id="Path_1646" data-name="Path 1646" d="M155.092,529.386a1.735,1.735,0,0,1-1.732,1.931h-.6a.043.043,0,0,0-.045.048V533.7a.106.106,0,0,1-.11.11h-1.3a.107.107,0,0,1-.11-.11v-6.209a.105.105,0,0,1,.11-.11h1.983a1.821,1.821,0,0,1,1.806,2.009m-1.522.038c0-.489-.229-.744-.551-.744h-.258a.044.044,0,0,0-.045.045v1.37a.044.044,0,0,0,.045.045h.258c.322,0,.551-.248.551-.716" transform="translate(-94.137 -598.897)" fill="#fff"/>
        <path id="Path_1647" data-name="Path 1647" d="M156.918,529.386a1.735,1.735,0,0,1-1.732,1.931h-.6a.043.043,0,0,0-.045.048V533.7a.106.106,0,0,1-.11.11h-1.305a.106.106,0,0,1-.107-.11v-6.209a.1.1,0,0,1,.107-.11h1.985a1.822,1.822,0,0,1,1.806,2.009m-1.522.038c0-.489-.229-.744-.549-.744h-.26a.044.044,0,0,0-.045.045v1.37a.044.044,0,0,0,.045.045h.26c.32,0,.549-.248.549-.716" transform="translate(-91.605 -598.897)" fill="#fff"/>
        <path id="Path_1648" data-name="Path 1648" d="M135.141,530.16a.577.577,0,0,0-.179-.048,1.493,1.493,0,0,0-.2-.012h-.033v.706h.048a1.443,1.443,0,0,0,.2-.014.5.5,0,0,0,.172-.05.377.377,0,0,0,.119-.11.331.331,0,0,0,.048-.186.3.3,0,0,0-.05-.184.3.3,0,0,0-.124-.1" transform="translate(-116.965 -595.122)" fill="#fff"/>
        <path id="Path_1649" data-name="Path 1649" d="M132.079,530.981h.656l-.329-.747Z" transform="translate(-120.634 -594.936)" fill="#fff"/>
        <path id="Path_1650" data-name="Path 1650" d="M129.458,530.981h.656l-.327-.747Z" transform="translate(-124.268 -594.936)" fill="#fff"/>
        <path id="Path_1651" data-name="Path 1651" d="M133.942,530.981h.659l-.329-.747Z" transform="translate(-118.052 -594.936)" fill="#fff"/>
        <path id="Path_1652" data-name="Path 1652" d="M135.747,530.16a.611.611,0,0,0-.181-.048,1.471,1.471,0,0,0-.2-.012h-.033v.706h.048a1.444,1.444,0,0,0,.2-.014.51.51,0,0,0,.174-.05.378.378,0,0,0,.119-.11.331.331,0,0,0,.045-.186.3.3,0,0,0-.048-.184.321.321,0,0,0-.124-.1" transform="translate(-116.129 -595.122)" fill="#fff"/>
        <path id="Path_1653" data-name="Path 1653" d="M146.49,523.7H131.836a4.28,4.28,0,0,0-4.267,4.267v14.96a4.28,4.28,0,0,0,4.267,4.267H146.49a4.281,4.281,0,0,0,4.269-4.267v-14.96a4.281,4.281,0,0,0-4.269-4.267m-7.032,7.741a3.547,3.547,0,0,1,3.167-1.864,3.328,3.328,0,0,1,3.322,3.324,2.98,2.98,0,0,1-.021.384l-.019.167h-4.131V532.3l2.957,0a2.184,2.184,0,0,0-2.107-1.589c-.6,0-1.413.176-2.4,1.573l-.153.215-.687-.947Zm-7.386,6.932.363-.484a.039.039,0,0,1,.031-.014l.019,0,.241.126a.037.037,0,0,1,.021.031.041.041,0,0,1-.012.033l-.477.434-.026.01-.021,0-.129-.079a.044.044,0,0,1-.017-.029.026.026,0,0,1,.007-.029m1.413,2.527a.038.038,0,0,1-.033.019h-.294a.042.042,0,0,1-.036-.024l-.239-.527h-.955l-.241.527a.037.037,0,0,1-.036.024h-.294a.038.038,0,0,1-.033-.019.043.043,0,0,1,0-.038l1.048-2.284a.037.037,0,0,1,.036-.024.042.042,0,0,1,.036.024l1.048,2.284a.044.044,0,0,1,0,.038m2.188-1.04a1.185,1.185,0,0,1-.079.437,1.044,1.044,0,0,1-.224.348.991.991,0,0,1-.339.234,1.089,1.089,0,0,1-.437.086,1.143,1.143,0,0,1-.449-.093,1.228,1.228,0,0,1-.365-.26,1.282,1.282,0,0,1-.243-.375,1.189,1.189,0,0,1,.253-1.286,1.155,1.155,0,0,1,.833-.351,1.174,1.174,0,0,1,.508.115,1.136,1.136,0,0,1,.415.327.04.04,0,0,1,0,.052l-.193.184-.026.009h0a.04.04,0,0,1-.029-.017.839.839,0,0,0-.291-.246.765.765,0,0,0-.365-.1.824.824,0,0,0-.768.52.817.817,0,0,0-.067.332.8.8,0,0,0,.064.315.923.923,0,0,0,.174.277.856.856,0,0,0,.258.191.721.721,0,0,0,.317.071.663.663,0,0,0,.239-.048.744.744,0,0,0,.375-.329.583.583,0,0,0,.06-.193h-.525a.04.04,0,0,1-.038-.041v-.251a.038.038,0,0,1,.038-.04h.871a.04.04,0,0,1,.041.04Zm1.837.212a1.041,1.041,0,0,1-.06.351.826.826,0,0,1-.165.282.785.785,0,0,1-.265.191.889.889,0,0,1-.353.069.872.872,0,0,1-.353-.069.771.771,0,0,1-.267-.191.872.872,0,0,1-.167-.282,1.1,1.1,0,0,1-.055-.351v-1.386a.038.038,0,0,1,.038-.038h.274a.04.04,0,0,1,.041.038v1.3a1.435,1.435,0,0,0,.021.251.614.614,0,0,0,.076.208.4.4,0,0,0,.15.138.58.58,0,0,0,.482,0,.394.394,0,0,0,.148-.138.614.614,0,0,0,.076-.208,1.438,1.438,0,0,0,.021-.251v-1.3a.04.04,0,0,1,.041-.038h.274a.04.04,0,0,1,.041.038Zm2.231.828a.041.041,0,0,1-.033.019h-.294a.037.037,0,0,1-.036-.024l-.239-.527h-.957l-.239.527a.039.039,0,0,1-.036.024h-.3a.037.037,0,0,1-.031-.019.044.044,0,0,1,0-.038l1.048-2.284a.042.042,0,0,1,.036-.024.037.037,0,0,1,.036.024l1.048,2.284a.043.043,0,0,1,0,.038m1.394-.367a.7.7,0,0,1-.157.229.743.743,0,0,1-.234.15.79.79,0,0,1-.291.052.712.712,0,0,1-.267-.05.717.717,0,0,1-.37-.341.727.727,0,0,1-.081-.255.042.042,0,0,1,.031-.045l.277-.057h.007l.026.007a.038.038,0,0,1,.014.031.384.384,0,0,0,.029.15.4.4,0,0,0,.081.122.417.417,0,0,0,.124.076.4.4,0,0,0,.15.029.335.335,0,0,0,.146-.033.4.4,0,0,0,.117-.084.37.37,0,0,0,.074-.122.4.4,0,0,0,.029-.15.283.283,0,0,0-.029-.134.322.322,0,0,0-.074-.1.66.66,0,0,0-.117-.079,1.371,1.371,0,0,0-.134-.064l-.153-.064c-.062-.026-.124-.057-.184-.088a.745.745,0,0,1-.16-.122.536.536,0,0,1-.115-.165.6.6,0,0,1,.017-.473.63.63,0,0,1,.153-.191.721.721,0,0,1,.22-.117.768.768,0,0,1,.255-.043.683.683,0,0,1,.348.091.7.7,0,0,1,.251.262.04.04,0,0,1-.017.053l-.215.131-.021,0h-.012a.034.034,0,0,1-.021-.019.444.444,0,0,0-.131-.141.347.347,0,0,0-.186-.045.43.43,0,0,0-.122.019.291.291,0,0,0-.179.141.216.216,0,0,0-.029.11.164.164,0,0,0,.024.093.263.263,0,0,0,.067.079.337.337,0,0,0,.088.06.641.641,0,0,0,.1.045l.155.062a1.582,1.582,0,0,1,.222.107.683.683,0,0,1,.184.141.648.648,0,0,1,.122.193.762.762,0,0,1,.043.255.729.729,0,0,1-.057.291m3.052.367a.045.045,0,0,1-.036.019h-.291a.037.037,0,0,1-.036-.024l-.241-.527h-.954l-.241.527a.037.037,0,0,1-.036.024h-.294a.045.045,0,0,1-.033-.019.037.037,0,0,1,0-.038l1.048-2.284a.039.039,0,0,1,.036-.024.042.042,0,0,1,.036.024l1.048,2.284a.053.053,0,0,1,0,.038m1.32-1.267a.542.542,0,0,1-.177.21.674.674,0,0,1-.258.119,1.272,1.272,0,0,1-.305.036h-.119v.88a.042.042,0,0,1-.041.041h-.272a.04.04,0,0,1-.038-.041v-2.193a.038.038,0,0,1,.038-.038h.315a1.858,1.858,0,0,1,.432.043.743.743,0,0,1,.286.131.474.474,0,0,1,.157.217.793.793,0,0,1,.045.282.665.665,0,0,1-.064.313m-.876-3.742a3.3,3.3,0,0,1-1.895.592,3.441,3.441,0,0,1-2.52-1.157,24.741,24.741,0,0,1-1.642-2.133c-.391-.544-.761-1.06-1.06-1.429a2.205,2.205,0,1,0-1.725,3.56,2.377,2.377,0,0,0,1.809-.916c.153-.169.563-.654.568-.659l.15-.177.687.9.014.017v1.878h-1.193v-.625a3.2,3.2,0,0,1-2.036.721,3.322,3.322,0,1,1,0-6.643,3.451,3.451,0,0,1,2.036.728v-.7h1.193V531.9c.169.227.351.472.535.723.52.709,1.06,1.444,1.463,1.9a2.3,2.3,0,0,0,1.721.833,2.2,2.2,0,0,0,1.639-.737h1.348a3.356,3.356,0,0,1-1.093,1.277m2.315,3.742a.563.563,0,0,1-.177.21.669.669,0,0,1-.26.119,1.238,1.238,0,0,1-.3.036h-.119v.88a.04.04,0,0,1-.038.041h-.274a.042.042,0,0,1-.041-.041v-2.193a.04.04,0,0,1,.041-.038h.315a1.858,1.858,0,0,1,.432.043.727.727,0,0,1,.286.131.5.5,0,0,1,.16.217.849.849,0,0,1,.045.282.7.7,0,0,1-.067.313" transform="translate(-126.887 -603.994)" fill="#fff"/>
        <path id="Path_1654" data-name="Path 1654" d="M137.436,563.9h-4.73V552.469h-2.355v-3.947H132.7c0-.749-.017-1.437,0-2.119a12.557,12.557,0,0,1,.143-1.921,3.923,3.923,0,0,1,3.634-3.4,9.729,9.729,0,0,1,1.236-.093c1.069-.012,2.141,0,3.241,0v3.952c-.437,0-.861,0-1.286,0-.368,0-.737-.012-1.1.024-.787.081-1.074.353-1.112,1.131s-.01,1.558-.01,2.4h3.563c-.143,1.353-.279,2.639-.42,3.961h-3.157Z" transform="translate(-123.03 -580.036)" fill="#fff"/>
        <path id="Path_1655" data-name="Path 1655" d="M136.757,551.061l1.649-6.887h.957l-1.666,6.887Z" transform="translate(-114.15 -575.61)" fill="#fff"/>
        <path id="Path_1656" data-name="Path 1656" d="M139.274,546.526l-1.157-.21a1.8,1.8,0,0,1,.671-1.036,2.467,2.467,0,0,1,1.417-.334,3.066,3.066,0,0,1,1.272.2,1.28,1.28,0,0,1,.589.513,2.663,2.663,0,0,1,.169,1.143l-.012,1.491a5.258,5.258,0,0,0,.06.938,2.875,2.875,0,0,0,.231.647h-1.265c-.033-.086-.074-.21-.122-.377-.021-.076-.036-.126-.045-.15a2.3,2.3,0,0,1-.7.477,2.03,2.03,0,0,1-.795.16,1.65,1.65,0,0,1-1.176-.406,1.35,1.35,0,0,1-.427-1.021,1.392,1.392,0,0,1,.193-.73,1.272,1.272,0,0,1,.549-.489,4.263,4.263,0,0,1,1.014-.3,7.1,7.1,0,0,0,1.241-.313V546.6a.663.663,0,0,0-.181-.525,1.109,1.109,0,0,0-.687-.155.9.9,0,0,0-.53.134.915.915,0,0,0-.31.47m1.709,1.036a7.936,7.936,0,0,1-.778.2,2.418,2.418,0,0,0-.694.222.534.534,0,0,0-.248.451.627.627,0,0,0,.2.463.7.7,0,0,0,.508.2,1.1,1.1,0,0,0,.661-.229.8.8,0,0,0,.3-.422,2.5,2.5,0,0,0,.05-.623Z" transform="translate(-112.447 -574.541)" fill="#fff"/>
        <path id="Path_1657" data-name="Path 1657" d="M140.341,550.2l1.458.177a.5.5,0,0,0,.169.351.96.96,0,0,0,.573.136,1.488,1.488,0,0,0,.749-.15.616.616,0,0,0,.253-.322,1.882,1.882,0,0,0,.06-.585V549.1a1.725,1.725,0,0,1-1.444.783,1.78,1.78,0,0,1-1.542-.823,2.8,2.8,0,0,1-.444-1.616,2.652,2.652,0,0,1,.585-1.854,1.875,1.875,0,0,1,1.451-.64,1.76,1.76,0,0,1,1.475.785v-.678h1.2v4.329a4.338,4.338,0,0,1-.141,1.277,1.57,1.57,0,0,1-.4.663,1.757,1.757,0,0,1-.678.377,3.59,3.59,0,0,1-1.076.136,2.776,2.776,0,0,1-1.74-.42,1.318,1.318,0,0,1-.513-1.064c0-.043,0-.1,0-.155m1.141-2.83a1.735,1.735,0,0,0,.3,1.124.916.916,0,0,0,.733.358,1.007,1.007,0,0,0,.79-.367,1.59,1.59,0,0,0,.325-1.081,1.678,1.678,0,0,0-.31-1.114.982.982,0,0,0-.78-.363.943.943,0,0,0-.756.356,1.677,1.677,0,0,0-.3,1.088" transform="translate(-109.412 -574.541)" fill="#fff"/>
        <path id="Path_1658" data-name="Path 1658" d="M145.866,549.816v-.723a1.9,1.9,0,0,1-.692.611,1.951,1.951,0,0,1-.907.222,1.768,1.768,0,0,1-.873-.215,1.246,1.246,0,0,1-.558-.6,2.687,2.687,0,0,1-.172-1.067v-3.054h1.277v2.219a6.307,6.307,0,0,0,.069,1.246.681.681,0,0,0,.258.363.779.779,0,0,0,.472.134,1,1,0,0,0,.585-.179.91.91,0,0,0,.356-.444,5.143,5.143,0,0,0,.1-1.3v-2.035h1.277v4.825Z" transform="translate(-105.96 -574.478)" fill="#fff"/>
        <path id="Path_1659" data-name="Path 1659" d="M146.2,546.526l-1.157-.21a1.806,1.806,0,0,1,.673-1.036,2.457,2.457,0,0,1,1.417-.334,3.061,3.061,0,0,1,1.27.2,1.268,1.268,0,0,1,.589.513,2.618,2.618,0,0,1,.172,1.143l-.014,1.491a5,5,0,0,0,.062.938,2.748,2.748,0,0,0,.229.647H148.18c-.033-.086-.074-.21-.122-.377-.021-.076-.036-.126-.045-.15a2.271,2.271,0,0,1-.7.477,2.021,2.021,0,0,1-.795.16,1.644,1.644,0,0,1-1.174-.406,1.344,1.344,0,0,1-.43-1.021,1.371,1.371,0,0,1,.2-.73,1.265,1.265,0,0,1,.546-.489,4.253,4.253,0,0,1,1.017-.3,7.12,7.12,0,0,0,1.238-.313V546.6a.663.663,0,0,0-.181-.525,1.105,1.105,0,0,0-.685-.155.9.9,0,0,0-.532.134.916.916,0,0,0-.31.47m1.709,1.036c-.162.055-.422.119-.776.2a2.414,2.414,0,0,0-.7.222.534.534,0,0,0-.248.451.636.636,0,0,0,.2.463.706.706,0,0,0,.511.2,1.1,1.1,0,0,0,.659-.229.8.8,0,0,0,.3-.422,2.5,2.5,0,0,0,.05-.623Z" transform="translate(-102.838 -574.541)" fill="#fff"/>
        <path id="Path_1660" data-name="Path 1660" d="M147.036,548.5l1.281-.2a.939.939,0,0,0,.332.566,1.117,1.117,0,0,0,.7.193,1.26,1.26,0,0,0,.745-.181.408.408,0,0,0,.169-.341.344.344,0,0,0-.091-.241,1.029,1.029,0,0,0-.427-.167,6.85,6.85,0,0,1-1.959-.623,1.242,1.242,0,0,1-.573-1.086,1.346,1.346,0,0,1,.5-1.055,2.31,2.31,0,0,1,1.534-.425,2.678,2.678,0,0,1,1.472.322,1.645,1.645,0,0,1,.663.952l-1.205.224a.737.737,0,0,0-.291-.432,1.076,1.076,0,0,0-.616-.15,1.4,1.4,0,0,0-.723.141.3.3,0,0,0-.146.258.286.286,0,0,0,.126.234,4.938,4.938,0,0,0,1.193.358,3.557,3.557,0,0,1,1.425.568,1.177,1.177,0,0,1,.4.95,1.46,1.46,0,0,1-.554,1.141,2.452,2.452,0,0,1-1.639.477,2.692,2.692,0,0,1-1.561-.4,1.853,1.853,0,0,1-.752-1.086" transform="translate(-99.899 -574.541)" fill="#fff"/>
        <path id="Path_1661" data-name="Path 1661" d="M153.984,550.882H152.8v-.709a1.941,1.941,0,0,1-.7.616,1.792,1.792,0,0,1-.809.2,1.837,1.837,0,0,1-1.425-.668,2.729,2.729,0,0,1-.592-1.871,2.682,2.682,0,0,1,.578-1.864,1.873,1.873,0,0,1,1.458-.64,1.808,1.808,0,0,1,1.4.673v-2.4h1.277Zm-3.408-2.518a2.22,2.22,0,0,0,.212,1.117.967.967,0,0,0,.864.5.936.936,0,0,0,.749-.375,1.723,1.723,0,0,0,.31-1.122,1.884,1.884,0,0,0-.3-1.2.988.988,0,0,0-1.53,0,1.638,1.638,0,0,0-.305,1.079" transform="translate(-96.798 -575.545)" fill="#fff"/>
        <path id="Path_1662" data-name="Path 1662" d="M151.651,547.4a2.623,2.623,0,0,1,.313-1.231,2.134,2.134,0,0,1,.888-.909,2.63,2.63,0,0,1,1.284-.315,2.416,2.416,0,0,1,1.795.711,2.463,2.463,0,0,1,.7,1.8,2.49,2.49,0,0,1-.706,1.816,2.388,2.388,0,0,1-1.778.721,2.787,2.787,0,0,1-1.265-.3,2.053,2.053,0,0,1-.916-.878,2.947,2.947,0,0,1-.313-1.41m1.308.067a1.6,1.6,0,0,0,.341,1.1,1.117,1.117,0,0,0,1.678,0,1.62,1.62,0,0,0,.339-1.11,1.587,1.587,0,0,0-.339-1.09,1.116,1.116,0,0,0-1.678,0,1.59,1.59,0,0,0-.341,1.1" transform="translate(-93.502 -574.542)" fill="#fff"/>
        <path id="Path_1663" data-name="Path 1663" d="M155.41,549.878h-1.277v-4.825h1.186v.687a2.084,2.084,0,0,1,.546-.642,1.01,1.01,0,0,1,.554-.153,1.609,1.609,0,0,1,.84.241l-.4,1.112a1.13,1.13,0,0,0-.6-.21.72.72,0,0,0-.456.148,1.02,1.02,0,0,0-.291.534,7.546,7.546,0,0,0-.107,1.618Z" transform="translate(-90.061 -574.541)" fill="#fff"/>
        <path id="Path_1664" data-name="Path 1664" d="M155.673,544.222h1.277V545.4h-1.277Zm0,1.835h1.277v4.825h-1.277Z" transform="translate(-87.926 -575.545)" fill="#fff"/>
        <path id="Path_1665" data-name="Path 1665" d="M156.633,547.4a2.622,2.622,0,0,1,.313-1.231,2.147,2.147,0,0,1,.888-.909,2.631,2.631,0,0,1,1.284-.315,2.416,2.416,0,0,1,1.794.711,2.463,2.463,0,0,1,.7,1.8,2.49,2.49,0,0,1-.706,1.816,2.388,2.388,0,0,1-1.778.721,2.787,2.787,0,0,1-1.265-.3,2.066,2.066,0,0,1-.916-.878,2.947,2.947,0,0,1-.313-1.41m1.308.067a1.6,1.6,0,0,0,.341,1.1,1.117,1.117,0,0,0,1.678,0,1.62,1.62,0,0,0,.339-1.11,1.587,1.587,0,0,0-.339-1.09,1.116,1.116,0,0,0-1.678,0,1.59,1.59,0,0,0-.341,1.1" transform="translate(-86.595 -574.542)" fill="#fff"/>
        <path id="Path_1666" data-name="Path 1666" d="M139.215,580.425a51.912,51.912,0,0,1-5.687-.053A6.334,6.334,0,0,1,128,574.1c-.043-3.212-.052-6.424,0-9.636a6.569,6.569,0,0,1,6.5-6.445c3.155-.038,6.309-.034,9.464,0a6.587,6.587,0,0,1,6.512,6.548q.032,4.685,0,9.373a6.58,6.58,0,0,1-6.46,6.558c-1.6.019-3.2,0-4.8,0v-.074m-9.5-11.163c0,1.556-.007,3.114,0,4.67a4.866,4.866,0,0,0,4.823,4.851q4.693.022,9.388,0a4.859,4.859,0,0,0,4.837-4.832q.022-4.7,0-9.4a4.843,4.843,0,0,0-4.823-4.813q-4.689-.018-9.381,0a4.873,4.873,0,0,0-4.842,4.859c-.01,1.556,0,3.112,0,4.668" transform="translate(-126.336 -556.457)" fill="#fff"/>
        <path id="Path_1667" data-name="Path 1667" d="M136.387,572.26a6.041,6.041,0,1,1,5.849-6.233,6.047,6.047,0,0,1-5.849,6.233m-4.529-6.03a4.373,4.373,0,0,0,5.975,4.033,4.278,4.278,0,0,0,2.455-2.527,4.35,4.35,0,1,0-8.431-1.506" transform="translate(-123.301 -553.427)" fill="#fff"/>
        <path id="Path_1668" data-name="Path 1668" d="M136.072,559.454a.87.87,0,0,1,.852.871.826.826,0,0,1-.881.821.776.776,0,0,1-.8-.819.84.84,0,0,1,.833-.873" transform="translate(-116.254 -554.428)" fill="#fff"/>
        <path id="Path_1669" data-name="Path 1669" d="M146.866,568.074h.966a3.287,3.287,0,0,1-1.394,1.446,5.343,5.343,0,0,1-2.625.6,6.11,6.11,0,0,1-2.589-.506,3.4,3.4,0,0,1-1.623-1.5,4.451,4.451,0,0,1-.532-2.15,4.9,4.9,0,0,1,.6-2.379,3.982,3.982,0,0,1,1.654-1.651,5.065,5.065,0,0,1,2.4-.554,4.466,4.466,0,0,1,2.035.446,3.133,3.133,0,0,1,1.36,1.265,3.528,3.528,0,0,1,.47,1.792,3.375,3.375,0,0,1-.711,2.1,2.764,2.764,0,0,1-2.3,1.181,1.019,1.019,0,0,1-.568-.131.632.632,0,0,1-.253-.389,1.729,1.729,0,0,1-1.236.52,1.663,1.663,0,0,1-1.253-.52,1.932,1.932,0,0,1-.5-1.384,3.4,3.4,0,0,1,.6-1.95,2.178,2.178,0,0,1,1.864-1.072,1.3,1.3,0,0,1,1.193.618l.115-.5h1.2l-.687,3.257a2.621,2.621,0,0,0-.064.4.248.248,0,0,0,.052.169.165.165,0,0,0,.126.057,1.047,1.047,0,0,0,.563-.263,2.531,2.531,0,0,0,.749-.928,2.685,2.685,0,0,0,.286-1.2,2.447,2.447,0,0,0-.809-1.868,3.188,3.188,0,0,0-2.257-.752,4.07,4.07,0,0,0-2.088.5,3.206,3.206,0,0,0-1.291,1.413,4.366,4.366,0,0,0-.432,1.9,3.265,3.265,0,0,0,.482,1.744,2.824,2.824,0,0,0,1.36,1.145,5.8,5.8,0,0,0,3.868.06,2.882,2.882,0,0,0,1.258-.907m-4.911-1.866a1.29,1.29,0,0,0,.234.849.732.732,0,0,0,.58.272.986.986,0,0,0,.484-.126,1.187,1.187,0,0,0,.341-.286,2.316,2.316,0,0,0,.415-.809,3.172,3.172,0,0,0,.177-.99,1.177,1.177,0,0,0-.239-.788.763.763,0,0,0-.6-.274,1.05,1.05,0,0,0-.723.3,1.863,1.863,0,0,0-.5.861,3.487,3.487,0,0,0-.167.99" transform="translate(-110.943 -551.754)" fill="#fff"/>
        <path id="Path_1670" data-name="Path 1670" d="M144.183,563.738l-1.157-.21a1.8,1.8,0,0,1,.673-1.036,2.457,2.457,0,0,1,1.417-.336,3.059,3.059,0,0,1,1.27.2,1.268,1.268,0,0,1,.589.513,2.618,2.618,0,0,1,.172,1.143l-.014,1.489a5,5,0,0,0,.062.94,2.748,2.748,0,0,0,.229.647h-1.265c-.033-.086-.074-.21-.122-.377-.021-.076-.036-.126-.045-.15a2.271,2.271,0,0,1-.7.477,2.02,2.02,0,0,1-.795.16,1.644,1.644,0,0,1-1.174-.406,1.344,1.344,0,0,1-.43-1.021,1.371,1.371,0,0,1,.2-.73,1.265,1.265,0,0,1,.546-.489,4.152,4.152,0,0,1,1.014-.3,7.107,7.107,0,0,0,1.241-.312v-.129a.66.66,0,0,0-.181-.525,1.106,1.106,0,0,0-.685-.155.9.9,0,0,0-.532.134.916.916,0,0,0-.31.47m1.709,1.036c-.162.055-.422.119-.776.2a2.411,2.411,0,0,0-.7.222.534.534,0,0,0-.248.451.636.636,0,0,0,.2.463.706.706,0,0,0,.511.2,1.1,1.1,0,0,0,.659-.229.8.8,0,0,0,.3-.422,2.5,2.5,0,0,0,.05-.623Z" transform="translate(-105.641 -550.683)" fill="#fff"/>
        <path id="Path_1671" data-name="Path 1671" d="M145.25,567.408l1.458.177a.509.509,0,0,0,.169.351.964.964,0,0,0,.573.136,1.487,1.487,0,0,0,.749-.15.615.615,0,0,0,.253-.322,1.883,1.883,0,0,0,.06-.585v-.706a1.725,1.725,0,0,1-1.444.783,1.78,1.78,0,0,1-1.542-.823,2.8,2.8,0,0,1-.444-1.615,2.652,2.652,0,0,1,.585-1.854,1.878,1.878,0,0,1,1.451-.642,1.762,1.762,0,0,1,1.475.787v-.678h1.2v4.329a4.338,4.338,0,0,1-.141,1.277,1.593,1.593,0,0,1-.394.663,1.767,1.767,0,0,1-.68.377,3.582,3.582,0,0,1-1.074.136,2.766,2.766,0,0,1-1.74-.42,1.314,1.314,0,0,1-.515-1.064c0-.043,0-.1,0-.155m1.143-2.83a1.721,1.721,0,0,0,.3,1.124.911.911,0,0,0,.73.358,1.015,1.015,0,0,0,.792-.368,1.6,1.6,0,0,0,.322-1.083,1.676,1.676,0,0,0-.31-1.112.981.981,0,0,0-.78-.363.935.935,0,0,0-.754.356,1.663,1.663,0,0,0-.3,1.088" transform="translate(-102.607 -550.683)" fill="#fff"/>
        <path id="Path_1672" data-name="Path 1672" d="M150.775,567.027V566.3a1.882,1.882,0,0,1-.692.611,1.95,1.95,0,0,1-.907.222,1.768,1.768,0,0,1-.873-.215,1.268,1.268,0,0,1-.558-.6,2.686,2.686,0,0,1-.172-1.067V562.2h1.277v2.219a6.305,6.305,0,0,0,.069,1.246.682.682,0,0,0,.258.363.78.78,0,0,0,.472.134,1,1,0,0,0,.585-.179.91.91,0,0,0,.356-.444,5.141,5.141,0,0,0,.1-1.3V562.2h1.277v4.825Z" transform="translate(-99.155 -550.619)" fill="#fff"/>
        <path id="Path_1673" data-name="Path 1673" d="M151.115,563.738l-1.157-.21a1.8,1.8,0,0,1,.671-1.036,2.467,2.467,0,0,1,1.417-.336,3.064,3.064,0,0,1,1.272.2,1.28,1.28,0,0,1,.589.513,2.655,2.655,0,0,1,.172,1.143l-.014,1.489a5.271,5.271,0,0,0,.06.94,2.878,2.878,0,0,0,.231.647H153.09c-.031-.086-.074-.21-.122-.377-.021-.076-.036-.126-.045-.15a2.271,2.271,0,0,1-.7.477,2.02,2.02,0,0,1-.795.16,1.654,1.654,0,0,1-1.176-.406,1.35,1.35,0,0,1-.427-1.021,1.37,1.37,0,0,1,.2-.73,1.265,1.265,0,0,1,.546-.489,4.152,4.152,0,0,1,1.014-.3,7.108,7.108,0,0,0,1.241-.312v-.129a.66.66,0,0,0-.181-.525,1.106,1.106,0,0,0-.685-.155.9.9,0,0,0-.532.134.916.916,0,0,0-.31.47m1.709,1.036a7.92,7.92,0,0,1-.778.2,2.416,2.416,0,0,0-.694.222.534.534,0,0,0-.248.451.627.627,0,0,0,.2.463.706.706,0,0,0,.511.2,1.1,1.1,0,0,0,.659-.229.8.8,0,0,0,.3-.422,2.5,2.5,0,0,0,.05-.623Z" transform="translate(-96.032 -550.683)" fill="#fff"/>
        <path id="Path_1674" data-name="Path 1674" d="M151.946,565.714l1.281-.2a.94.94,0,0,0,.332.566,1.118,1.118,0,0,0,.7.193A1.261,1.261,0,0,0,155,566.1a.408.408,0,0,0,.169-.341.344.344,0,0,0-.091-.241,1.029,1.029,0,0,0-.427-.167,6.852,6.852,0,0,1-1.959-.623,1.243,1.243,0,0,1-.573-1.086,1.339,1.339,0,0,1,.5-1.055,2.309,2.309,0,0,1,1.534-.427,2.682,2.682,0,0,1,1.472.324,1.656,1.656,0,0,1,.663.952l-1.205.224a.737.737,0,0,0-.291-.432,1.077,1.077,0,0,0-.616-.15,1.4,1.4,0,0,0-.723.141.3.3,0,0,0-.146.258.287.287,0,0,0,.126.234,4.945,4.945,0,0,0,1.193.358,3.561,3.561,0,0,1,1.425.568,1.185,1.185,0,0,1,.4.95,1.46,1.46,0,0,1-.554,1.141,2.457,2.457,0,0,1-1.639.477,2.685,2.685,0,0,1-1.561-.4,1.853,1.853,0,0,1-.752-1.086" transform="translate(-93.093 -550.683)" fill="#fff"/>
        <path id="Path_1675" data-name="Path 1675" d="M158.894,568.093h-1.186v-.709a1.953,1.953,0,0,1-.7.616,1.808,1.808,0,0,1-.811.2,1.84,1.84,0,0,1-1.425-.668,2.729,2.729,0,0,1-.592-1.871,2.678,2.678,0,0,1,.578-1.864,1.872,1.872,0,0,1,1.458-.64,1.807,1.807,0,0,1,1.4.673v-2.4h1.277Zm-3.408-2.517a2.192,2.192,0,0,0,.215,1.117.96.96,0,0,0,.861.5.943.943,0,0,0,.749-.375,1.723,1.723,0,0,0,.31-1.122,1.884,1.884,0,0,0-.3-1.2.981.981,0,0,0-1.527-.005,1.626,1.626,0,0,0-.308,1.079" transform="translate(-89.992 -551.685)" fill="#fff"/>
        <path id="Path_1676" data-name="Path 1676" d="M156.561,564.609a2.619,2.619,0,0,1,.313-1.229,2.148,2.148,0,0,1,.888-.909,2.63,2.63,0,0,1,1.284-.315,2.412,2.412,0,0,1,1.794.711,2.464,2.464,0,0,1,.7,1.8,2.491,2.491,0,0,1-.706,1.816,2.389,2.389,0,0,1-1.778.721,2.784,2.784,0,0,1-1.265-.3,2.064,2.064,0,0,1-.916-.878,2.949,2.949,0,0,1-.313-1.413m1.308.069a1.6,1.6,0,0,0,.341,1.1,1.112,1.112,0,0,0,1.678,0,1.609,1.609,0,0,0,.339-1.107,1.587,1.587,0,0,0-.339-1.09,1.112,1.112,0,0,0-1.678,0,1.6,1.6,0,0,0-.341,1.1" transform="translate(-86.695 -550.683)" fill="#fff"/>
        <path id="Path_1677" data-name="Path 1677" d="M160.32,567.089h-1.277v-4.825h1.186v.687a2.088,2.088,0,0,1,.546-.642,1.008,1.008,0,0,1,.551-.153,1.61,1.61,0,0,1,.842.241l-.4,1.112a1.131,1.131,0,0,0-.6-.21.709.709,0,0,0-.453.148.99.99,0,0,0-.294.534,7.55,7.55,0,0,0-.107,1.618Z" transform="translate(-83.254 -550.681)" fill="#fff"/>
        <path id="Path_1678" data-name="Path 1678" d="M160.583,561.433h1.277v1.181h-1.277Zm0,1.835h1.277v4.825h-1.277Z" transform="translate(-81.119 -551.685)" fill="#fff"/>
        <path id="Path_1679" data-name="Path 1679" d="M161.542,564.609a2.619,2.619,0,0,1,.313-1.229,2.147,2.147,0,0,1,.888-.909,2.631,2.631,0,0,1,1.284-.315,2.413,2.413,0,0,1,1.795.711,2.464,2.464,0,0,1,.7,1.8,2.491,2.491,0,0,1-.706,1.816,2.389,2.389,0,0,1-1.778.721,2.792,2.792,0,0,1-1.265-.3,2.076,2.076,0,0,1-.916-.878,2.949,2.949,0,0,1-.313-1.413m1.308.069a1.6,1.6,0,0,0,.341,1.1,1.08,1.08,0,0,0,.84.382,1.068,1.068,0,0,0,.838-.382,1.609,1.609,0,0,0,.339-1.107,1.587,1.587,0,0,0-.339-1.09,1.076,1.076,0,0,0-.838-.382,1.088,1.088,0,0,0-.84.382,1.6,1.6,0,0,0-.341,1.1" transform="translate(-79.79 -550.683)" fill="#fff"/>
      </g>
    </g>
  </g>
</svg>
