<svg xmlns="http://www.w3.org/2000/svg" xmlns:xlink="http://www.w3.org/1999/xlink" width="50" height="50" viewBox="0 0 50 50">
  <defs>
    <linearGradient id="linear-gradient" y1="0.5" x2="1" y2="0.5" gradientUnits="objectBoundingBox">
      <stop offset="0" stop-color="#00aaac"/>
      <stop offset="1" stop-color="#253e92"/>
    </linearGradient>
    <clipPath id="clip-path">
      <rect id="Rectangle_45" data-name="Rectangle 45" width="24.754" height="24.147" fill="none"/>
    </clipPath>
  </defs>
  <g id="icon-telefone" transform="translate(-940 -1623)">
    <circle id="Ellipse_17" data-name="Ellipse 17" cx="25" cy="25" r="25" transform="translate(940 1623)" fill="url(#linear-gradient)"/>
    <g id="Group_169" data-name="Group 169" transform="translate(953 1637)" clip-path="url(#clip-path)">
      <path id="Path_1494" data-name="Path 1494" d="M51.2,194.422a8.117,8.117,0,0,0-.145-1.091,10.84,10.84,0,0,0-10.6-8.788.637.637,0,1,0-.023,1.272,10.925,10.925,0,0,1,1.687.162,9.552,9.552,0,0,1,7.848,9.383.641.641,0,0,0,.51.643.65.65,0,0,0,.715-.371c.015-.028.006-.073.049-.083v-1.021c-.056-.019-.036-.068-.038-.107" transform="translate(-27.789 -183.734)" fill="#fff"/>
      <path id="Path_1495" data-name="Path 1495" d="M48.688,193.788a7.136,7.136,0,0,0-.145-1.36,8.3,8.3,0,0,0-8.066-6.691.639.639,0,1,0-.028,1.272,7.168,7.168,0,0,1,3.138.769,7,7,0,0,1,3.066,3.066,7.219,7.219,0,0,1,.764,3.181.635.635,0,0,0,.551.63.643.643,0,0,0,.7-.459,1.592,1.592,0,0,0,.019-.408" transform="translate(-27.791 -182.379)" fill="#fff"/>
      <path id="Path_1496" data-name="Path 1496" d="M40.448,188.208a4.484,4.484,0,0,1,4.424,4.466.637.637,0,1,0,1.275-.017,4.97,4.97,0,0,0-.109-1.138,5.768,5.768,0,0,0-5.406-4.59,1.816,1.816,0,0,0-.4.023.647.647,0,0,0-.455.7.659.659,0,0,0,.675.553" transform="translate(-27.792 -181.026)" fill="#fff"/>
      <path id="Path_1497" data-name="Path 1497" d="M49.98,196.617a1.832,1.832,0,0,0-2.6-.009c-.374.325-.7.7-1.061,1.04-.207.2-.367.521-.634.572a1.813,1.813,0,0,1-.984-.267c-.058-.028-.115-.053-.171-.083a7.236,7.236,0,0,1-2.53-2.248,4.116,4.116,0,0,1-.769-1.746.276.276,0,0,1,.094-.275c.478-.472.956-.948,1.428-1.428a1.862,1.862,0,0,0,.111-2.711q-1.351-1.457-2.81-2.81a1.86,1.86,0,0,0-2.7.09c-.273.267-.542.54-.811.811a5.265,5.265,0,0,0-1.554,3.192,5.09,5.09,0,0,0,.871,3.561,35.61,35.61,0,0,0,3.211,3.926,43.633,43.633,0,0,0,5.79,5.2,5.121,5.121,0,0,0,2.662,1.044l.006.036h1.106a.028.028,0,0,1,.006-.038,4.935,4.935,0,0,0,2.15-.7,8.76,8.76,0,0,0,2-1.793,1.8,1.8,0,0,0,0-2.532q-1.361-1.46-2.818-2.829m-11.99-8.7a2.789,2.789,0,0,0,.228-.222.659.659,0,0,1,1.08-.006q.407.407.811.813.858.855,1.712,1.71a.665.665,0,0,1,0,1.082c-.115.113-.226.233-.342.352-.053-.047-.1-.085-.135-.124q-1.675-1.675-3.352-3.348c-.1-.1-.124-.164,0-.258m12.283,14.678a4.013,4.013,0,0,1-4.678-.207A42.89,42.89,0,0,1,40,197.345a35.4,35.4,0,0,1-3.092-3.775,3.976,3.976,0,0,1-.026-4.43c.079-.115.12-.152.237-.03q1.656,1.665,3.32,3.318c.094.094.12.158,0,.237-.011.009-.017.023-.03.03a1.31,1.31,0,0,0-.423,1.52,6.606,6.606,0,0,0,1.975,3.341,7.289,7.289,0,0,0,2.692,1.753,4.138,4.138,0,0,0,1.114.237.953.953,0,0,0,.8-.335c.29-.31.3-.3.591-.006q1.563,1.56,3.128,3.119c.12.12.128.171-.021.267m1.448-1.328c-.111.107-.224.295-.337.3s-.226-.186-.337-.3c-1.042-1.04-2.08-2.084-3.126-3.119-.117-.115-.132-.186,0-.286a2.056,2.056,0,0,0,.228-.224.659.659,0,0,1,1.065.009c.461.459.92.922,1.381,1.381.391.391.779.784,1.172,1.172a.672.672,0,0,1,.237.529.7.7,0,0,1-.284.538" transform="translate(-33.258 -181.95)" fill="#fff"/>
      <path id="Path_1498" data-name="Path 1498" d="M56.414,177.29a10.536,10.536,0,0,0-7.727-8.327,10.308,10.308,0,0,0-9.1,1.864,10.166,10.166,0,0,0-3.89,6.213A10.356,10.356,0,0,0,36.5,183.7a.752.752,0,0,1,.043.632c-.542,1.5-1.048,3.015-1.595,4.513a1.067,1.067,0,0,0,.638,1.537h.425l2.489-.886c.824-.29,1.655-.57,2.479-.867a.476.476,0,0,1,.416.026,10.563,10.563,0,0,0,15.086-7.994c.038-.256.066-.517.1-.775v-1.443c-.058-.384-.1-.769-.171-1.151m-4.682,9.183a8.867,8.867,0,0,1-6.339,1.949,8.593,8.593,0,0,1-3.474-.948,1.514,1.514,0,0,0-1.315-.079c-1.351.5-2.716.956-4.076,1.43-.064.023-.128.043-.226.075.226-.649.44-1.266.655-1.883.3-.86.6-1.723.91-2.579a1.178,1.178,0,0,0-.064-1,8.765,8.765,0,0,1-.969-3.119,9.088,9.088,0,0,1,2.124-7.131,8.913,8.913,0,0,1,5.188-3.087,9.029,9.029,0,0,1,7.545,1.736,8.739,8.739,0,0,1,3.425,5.519,9.016,9.016,0,0,1-3.384,9.117" transform="translate(-33.383 -201.815)" fill="#fff"/>
      <path id="Path_1499" data-name="Path 1499" d="M47.072,177.534a1.215,1.215,0,0,0-1.693-.036,5.268,5.268,0,0,0-.455.446.192.192,0,0,1-.286.038,7.776,7.776,0,0,1-2.848-2.85c-.07-.115-.081-.192.03-.286a5.167,5.167,0,0,0,.376-.374,1.245,1.245,0,0,0-.015-1.838c-.44-.448-.888-.892-1.337-1.337a1.248,1.248,0,0,0-1.868,0c-.348.342-.69.692-1.038,1.033a1.971,1.971,0,0,0-.572,1.448,5.179,5.179,0,0,0,.69,2.329,14.186,14.186,0,0,0,5.205,5.387,5.614,5.614,0,0,0,2.558.892,1.868,1.868,0,0,0,1.445-.423c.451-.418.9-.848,1.309-1.3a1.192,1.192,0,0,0-.045-1.674q-.708-.746-1.456-1.456m-.643,3.459a.939.939,0,0,1-.839.079A5.545,5.545,0,0,1,43.6,180.2a12.976,12.976,0,0,1-4.385-4.639,4.184,4.184,0,0,1-.557-1.635.885.885,0,0,1,.293-.8c.331-.3.63-.626.929-.927l1.4,1.4c-.171.162-.365.342-.557.53a1,1,0,0,0-.19,1.375,9.045,9.045,0,0,0,3.779,3.758.976.976,0,0,0,1.275-.177c.2-.2.391-.406.568-.589.476.474.929.924,1.379,1.375-.35.359-.707.76-1.1,1.119" transform="translate(-30.517 -199.243)" fill="#fff"/>
      <path id="Path_1500" data-name="Path 1500" d="M57.921,223.5a1.972,1.972,0,0,0-3.217-.561c-.542.538-1.08,1.08-1.623,1.62-.047.047-.081.115-.16.126a.563.563,0,0,1-.015-.231q0-2.271,0-4.545a1.954,1.954,0,0,0-.508-1.4c-.628-.675-1.281-1.324-1.951-1.954a1.419,1.419,0,0,0-.948-.425h-.013l.006.015a.249.249,0,0,1-.218-.038H38.055a.241.241,0,0,1-.218.036l0-.015-.032,0a1.236,1.236,0,0,0-.414.075,1.848,1.848,0,0,0-1.142,1.719q0,9.06,0,18.124a1.565,1.565,0,0,0,.083.6,1.892,1.892,0,0,0,1.74,1.238q6.479-.01,12.96,0a1.592,1.592,0,0,0,.8-.171,1.987,1.987,0,0,0,1.078-1.842c0-1.742,0-3.484,0-5.227a.745.745,0,0,1,.241-.581c1.4-1.386,2.784-2.782,4.18-4.172a2,2,0,0,0,.7-1.245v-.638a3.956,3.956,0,0,0-.109-.51m-8.743-6.113a.8.8,0,0,1,.442.228q.855.858,1.712,1.712a1.119,1.119,0,0,1,.135.167.446.446,0,0,1,.088.4c-.043.1-.2.034-.312.036-.318.006-.636,0-.954,0-.376,0-.752,0-1.127,0-.107,0-.143-.026-.143-.139q.01-1.137,0-2.274c0-.132.045-.154.16-.135M51.57,231.8v4.016c0,.536-.243.779-.775.779H38.32c-.532,0-.773-.243-.773-.781V218.178c0-.551.237-.79.784-.79q4.6,0,9.2,0c.175,0,.22.038.218.216-.011.956,0,1.913,0,2.869a.647.647,0,0,0,.734.743c.969,0,1.941,0,2.91,0,.154,0,.184.041.184.186q-.01,2.293,0,4.59a.375.375,0,0,1-.126.295c-.854.848-1.7,1.7-2.556,2.551a1.2,1.2,0,0,0-.307.5c-.269.822-.547,1.642-.824,2.462a.663.663,0,0,0,.89.882q1.249-.42,2.5-.835a1.089,1.089,0,0,0,.418-.256Zm-.583-1.462c-.132.111-.22.275-.4.333-.4.126-.8.263-1.234.406.145-.431.284-.831.412-1.232.058-.182.22-.269.331-.4.053-.064.085-.006.12.026q.375.375.749.752c.034.032.085.066.023.117m3.924-3.922q-1.444,1.438-2.882,2.882c-.023.023-.051.047-.085.079-.034-.034-.064-.062-.094-.09-.235-.235-.465-.474-.707-.7-.085-.081-.073-.124,0-.2q1.438-1.432,2.865-2.872c.068-.066.109-.085.184-.009.235.243.476.485.72.72.075.073.07.115,0,.188m1.721-1.755c-.2.243-.44.457-.658.69-.058.06-.092.032-.137-.013-.25-.25-.5-.5-.749-.749-.058-.053-.06-.092,0-.147.2-.194.4-.4.6-.6a.668.668,0,0,1,.429-.173.651.651,0,0,1,.555.352.555.555,0,0,1-.045.636" transform="translate(-31.784 -147.903)" fill="#fff"/>
      <path id="Path_1501" data-name="Path 1501" d="M38.092,220.371c1.488,0,2.974,0,4.462,0s2.944,0,4.417,0a.639.639,0,1,0,0-1.275H38.139a.657.657,0,0,0-.231.028.643.643,0,0,0-.45.7.628.628,0,0,0,.634.542" transform="translate(-30.419 -144.515)" fill="#fff"/>
      <path id="Path_1502" data-name="Path 1502" d="M44.455,220.293q-1.582,0-3.164,0H38.146a.64.64,0,1,0,0,1.277q3.135,0,6.266,0a.758.758,0,0,0,.231-.026.635.635,0,0,0-.186-1.247" transform="translate(-30.417 -143.159)" fill="#fff"/>
      <path id="Path_1503" data-name="Path 1503" d="M38.092,222.759c1.063,0,2.124,0,3.185,0h3.145a.639.639,0,1,0,0-1.275q-3.145,0-6.288,0a.65.65,0,0,0-.231.026.643.643,0,0,0-.448.707.627.627,0,0,0,.634.54" transform="translate(-30.419 -141.803)" fill="#fff"/>
      <path id="Path_1504" data-name="Path 1504" d="M45.1,223.327a.632.632,0,0,0-.7-.647c-1.035,0-2.069,0-3.1,0s-2.1,0-3.145,0a.64.64,0,1,0,0,1.275H44.4a.634.634,0,0,0,.7-.628" transform="translate(-30.417 -140.448)" fill="#fff"/>
      <path id="Path_1505" data-name="Path 1505" d="M44.265,224.512q-1.87,0-3.738,0a.639.639,0,1,0-.006,1.275c.621,0,1.245,0,1.868,0s1.247,0,1.87,0a.639.639,0,1,0,.006-1.275" transform="translate(-27.705 -138.37)" fill="#fff"/>
      <path id="Path_1506" data-name="Path 1506" d="M53.179,247.761a10.389,10.389,0,0,0-3.254-1.234c-.41-.1-.826-.173-1.255-.26.036-.062.06-.111.09-.158.711-1.115,1.439-2.22,2.135-3.343a6.82,6.82,0,0,0,.275-7.159,6.92,6.92,0,0,0-7.178-3.623,6.78,6.78,0,0,0-3.965,2.037,6.9,6.9,0,0,0-1.981,5.675,6.75,6.75,0,0,0,1.05,3.017q1.089,1.707,2.184,3.414c.026.041.047.083.079.143-.073.017-.135.032-.194.043a15.277,15.277,0,0,0-3.025.8,5.878,5.878,0,0,0-2,1.206,2.01,2.01,0,0,0-.053,2.97,4.973,4.973,0,0,0,1.633,1.087,16.219,16.219,0,0,0,5.18,1.2c.337.028.675.055,1.012.088h2.21a.915.915,0,0,1,.164-.038c.534-.047,1.072-.077,1.606-.137a15.2,15.2,0,0,0,4.229-1.023,5.114,5.114,0,0,0,1.9-1.251,1.936,1.936,0,0,0,.224-2.46,3.234,3.234,0,0,0-1.061-.993m-13.026-5.771a5.793,5.793,0,0,1,.231-6.431,5.735,5.735,0,0,1,9.392,6.58q-2.3,3.593-4.59,7.191c-.049.077-.1.154-.169.26-.068-.1-.122-.175-.169-.252q-2.347-3.677-4.695-7.349m12.9,8.374a4.007,4.007,0,0,1-1.552.967,12.731,12.731,0,0,1-3.425.843c-1.025.111-2.056.175-2.575.218a21.8,21.8,0,0,1-5.863-.683,7.378,7.378,0,0,1-2.208-.952,3.066,3.066,0,0,1-.474-.421.649.649,0,0,1,0-.984,4.008,4.008,0,0,1,.845-.66,9.174,9.174,0,0,1,2.831-.978c.442-.092.892-.143,1.337-.226a.22.22,0,0,1,.267.132c.724,1.14,1.445,2.282,2.182,3.414a1.01,1.01,0,0,0,.421.361.614.614,0,0,0,.764-.333c.668-1.044,1.347-2.077,1.988-3.136a.677.677,0,0,1,.824-.4,12.109,12.109,0,0,1,3.809,1.161,3.782,3.782,0,0,1,.82.628.672.672,0,0,1,.009,1.048" transform="translate(-32.687 -129.978)" fill="#fff"/>
      <path id="Path_1507" data-name="Path 1507" d="M44.813,236.93a3.187,3.187,0,1,0-3.209,3.158,3.187,3.187,0,0,0,3.209-3.158m-5.088-.07A1.861,1.861,0,0,1,41.662,235a1.9,1.9,0,1,1-.062,3.8,1.866,1.866,0,0,1-1.875-1.945" transform="translate(-29.298 -127.922)" fill="#fff"/>
      <path id="Path_1508" data-name="Path 1508" d="M47.638,209.757a1.121,1.121,0,0,0-.1.525,13.37,13.37,0,0,1-.863,3.4.791.791,0,0,1-1.05.491.779.779,0,0,1-.433-1.053A12.887,12.887,0,0,0,46,209.819a11.916,11.916,0,0,0-.724-5.417c-.036-.09-.07-.181-.1-.273a.795.795,0,1,1,1.488-.557,12.982,12.982,0,0,1,.6,1.892,14.5,14.5,0,0,1,.318,1.958c0,.043-.006.094.053.1v.16c-.036.032-.026.075-.028.115s-.015.1.028.147v.214a.411.411,0,0,0,0,.318v.638c-.051.064-.017.137-.028.2.009.056-.019.12.028.169Z" transform="translate(-21.708 -162.735)" fill="#fff"/>
      <path id="Path_1509" data-name="Path 1509" d="M46.335,205.759a.238.238,0,0,1,0-.318Z" transform="translate(-20.405 -160.014)" fill="#fff"/>
      <path id="Path_1510" data-name="Path 1510" d="M46.288,206.106c-.006-.075-.036-.158.045-.216v.211c-.013.021-.028.026-.045,0" transform="translate(-20.403 -159.504)" fill="#fff"/>
      <path id="Path_1511" data-name="Path 1511" d="M46.331,205.435c-.07-.036-.053-.1-.045-.162.015-.019.03-.019.045,0Z" transform="translate(-20.401 -160.221)" fill="#fff"/>
      <path id="Path_1512" data-name="Path 1512" d="M46.288,205.993l.045,0v.16c-.09-.032-.043-.1-.045-.156" transform="translate(-20.402 -159.392)" fill="#fff"/>
      <path id="Path_1513" data-name="Path 1513" d="M46.331,205.325l-.047,0c0-.043-.021-.092.047-.1Z" transform="translate(-20.401 -160.267)" fill="#fff"/>
      <path id="Path_1514" data-name="Path 1514" d="M33.563,208.3a13.251,13.251,0,0,1,.944-4.652.807.807,0,0,1,1.044-.551A.8.8,0,0,1,36,204.206a11.9,11.9,0,0,0-.075,8.67c.034.092.07.181.1.273a.8.8,0,1,1-1.488.562,12.445,12.445,0,0,1-.589-1.838,14.728,14.728,0,0,1-.382-3.576" transform="translate(-34.833 -162.735)" fill="#fff"/>
      <path id="Path_1515" data-name="Path 1515" d="M35.057,208.135a10.734,10.734,0,0,1,.739-3.982.789.789,0,0,1,1.027-.5.779.779,0,0,1,.468,1.014,10.991,10.991,0,0,0-.587,2.3,8.686,8.686,0,0,0,.5,4.089,2.61,2.61,0,0,1,.13.4.794.794,0,0,1-1.527.416,10.833,10.833,0,0,1-.638-2.4,12.893,12.893,0,0,1-.109-1.349" transform="translate(-33.138 -162.099)" fill="#fff"/>
      <path id="Path_1516" data-name="Path 1516" d="M46.023,207.9a10.678,10.678,0,0,1-.737,3.935.794.794,0,0,1-1.016.521.786.786,0,0,1-.48-1.031,11,11,0,0,0,.585-2.3,8.7,8.7,0,0,0-.491-4.065c-.038-.109-.079-.218-.109-.325a.8.8,0,0,1,.489-.986.786.786,0,0,1,1,.461,10.719,10.719,0,0,1,.649,2.447c.066.485.09.969.107,1.345" transform="translate(-23.281 -162.099)" fill="#fff"/>
      <path id="Path_1517" data-name="Path 1517" d="M51,203.275a2.38,2.38,0,0,0-2.464-2.462q-4.769-.01-9.535,0a2.415,2.415,0,0,0-2.453,2.5q0,3.914,0,7.833,0,3.946,0,7.889a2.385,2.385,0,0,0,2.479,2.5q4.756.01,9.509,0A2.378,2.378,0,0,0,51,219.079q.01-7.9,0-15.8m-12.861.474c.019-.192,0-.389.006-.583a.785.785,0,0,1,.747-.756c.079-.006.158,0,.237,0h9.294c.7,0,.984.284.984.974,0,.621,0,.621-.63.621H43.761c-1.787,0-3.576,0-5.363.006-.207,0-.28-.047-.258-.258m0,2.109c0-.228.064-.269.275-.267,1.8.009,3.593,0,5.391,0s3.576,0,5.363,0c.194,0,.248.041.248.241q-.013,5.342,0,10.675c0,.218-.066.254-.263.252q-5.377-.006-10.754,0c-.2,0-.26-.045-.26-.256q.013-5.323,0-10.647M49.413,218.59a4.952,4.952,0,0,0,0,.5.793.793,0,0,1-.841.852c-.425,0-.85,0-1.275,0H39.143c-.72,0-1-.275-1-.986,0-.608,0-.608.615-.608H43.8c1.787,0,3.574,0,5.361,0,.194,0,.271.038.248.243" transform="translate(-31.446 -165.27)" fill="#fff"/>
    </g>
  </g>
</svg>
