<svg xmlns="http://www.w3.org/2000/svg" xmlns:xlink="http://www.w3.org/1999/xlink" width="50" height="50" viewBox="0 0 50 50">
  <defs>
    <linearGradient id="linear-gradient" y1="0.5" x2="1" y2="0.5" gradientUnits="objectBoundingBox">
      <stop offset="0" stop-color="#00aaac"/>
      <stop offset="1" stop-color="#253e92"/>
    </linearGradient>
    <clipPath id="clip-path">
      <rect id="Rectangle_51" data-name="Rectangle 51" width="27.669" height="30.215" fill="none"/>
    </clipPath>
  </defs>
  <g id="icon-twitter" transform="translate(-940 -2016)">
    <circle id="Ellipse_22" data-name="Ellipse 22" cx="25" cy="25" r="25" transform="translate(940 2016)" fill="url(#linear-gradient)"/>
    <g id="Group_183" data-name="Group 183" transform="translate(952.177 2026.912)">
      <g id="Group_182" data-name="Group 182" clip-path="url(#clip-path)">
        <path id="Path_1681" data-name="Path 1681" d="M231.26,502.888a6.785,6.785,0,0,0-.126-.957,9.5,9.5,0,0,0-9.288-7.7.558.558,0,1,0-.019,1.114,9.611,9.611,0,0,1,1.477.141,8.373,8.373,0,0,1,6.875,8.218.558.558,0,0,0,1.071.239c.014-.024.007-.062.045-.072v-.895c-.05-.017-.033-.06-.036-.093" transform="translate(-208.285 -642.832)" fill="#fff"/>
        <path id="Path_1682" data-name="Path 1682" d="M229.06,502.224a6.365,6.365,0,0,0-.126-1.191,7.275,7.275,0,0,0-7.066-5.863.561.561,0,1,0-.026,1.117,6.249,6.249,0,0,1,2.749.673,6.114,6.114,0,0,1,2.687,2.685,6.357,6.357,0,0,1,.671,2.787.555.555,0,0,0,.482.551.563.563,0,0,0,.613-.4,1.332,1.332,0,0,0,.017-.358" transform="translate(-208.285 -641.536)" fill="#fff"/>
        <path id="Path_1683" data-name="Path 1683" d="M221.843,497.224a3.929,3.929,0,0,1,3.875,3.911.558.558,0,1,0,1.117-.014,4.343,4.343,0,0,0-.1-1A5.046,5.046,0,0,0,222,496.105a1.588,1.588,0,0,0-.353.019.569.569,0,0,0-.4.616.577.577,0,0,0,.592.484" transform="translate(-208.286 -640.24)" fill="#fff"/>
        <path id="Path_1684" data-name="Path 1684" d="M230.636,504.668a1.6,1.6,0,0,0-2.281-.007c-.327.282-.616.608-.928.909-.184.177-.322.456-.556.5a1.583,1.583,0,0,1-.861-.234q-.079-.036-.15-.072a6.355,6.355,0,0,1-2.217-1.971,3.594,3.594,0,0,1-.673-1.53.241.241,0,0,1,.084-.241c.418-.413.838-.828,1.25-1.25a1.632,1.632,0,0,0,.1-2.377c-.787-.85-1.611-1.673-2.46-2.46a1.63,1.63,0,0,0-2.362.079c-.239.234-.475.472-.711.711a4.61,4.61,0,0,0-1.36,2.8,4.456,4.456,0,0,0,.764,3.119,31.312,31.312,0,0,0,2.811,3.439,38.317,38.317,0,0,0,5.073,4.558,4.487,4.487,0,0,0,2.331.914l.007.033h.969a.023.023,0,0,1,0-.033,4.361,4.361,0,0,0,1.883-.618,7.691,7.691,0,0,0,1.754-1.57,1.579,1.579,0,0,0,0-2.219q-1.192-1.278-2.47-2.477m-10.5-7.626a1.9,1.9,0,0,0,.2-.193.577.577,0,0,1,.947,0c.239.236.475.475.711.711q.752.748,1.5,1.5a.583.583,0,0,1,0,.947c-.1.1-.2.205-.3.31-.045-.041-.084-.076-.117-.11q-1.468-1.468-2.937-2.933c-.091-.088-.107-.143,0-.227m10.757,12.86a3.515,3.515,0,0,1-4.095-.184,37.378,37.378,0,0,1-4.9-4.412A30.947,30.947,0,0,1,219.186,502a3.49,3.49,0,0,1-.021-3.882c.069-.1.105-.131.208-.026q1.45,1.457,2.909,2.906c.081.084.1.138,0,.208l-.026.026a1.146,1.146,0,0,0-.37,1.332,5.756,5.756,0,0,0,1.728,2.926,6.37,6.37,0,0,0,2.36,1.537,3.582,3.582,0,0,0,.974.208.83.83,0,0,0,.706-.294c.255-.272.262-.267.52-.007.912.911,1.823,1.826,2.737,2.732.105.105.115.15-.019.236m1.27-1.164c-.1.093-.2.258-.3.26s-.2-.165-.294-.26c-.914-.912-1.823-1.826-2.74-2.732-.1-.1-.117-.162,0-.25a2.215,2.215,0,0,0,.2-.2.575.575,0,0,1,.933.007l1.21,1.21c.341.341.682.687,1.026,1.026a.581.581,0,0,1,.208.465.608.608,0,0,1-.248.47" transform="translate(-213.519 -641.124)" fill="#fff"/>
        <path id="Path_1685" data-name="Path 1685" d="M236.284,489.35a9.233,9.233,0,0,0-6.77-7.293,9.026,9.026,0,0,0-7.973,1.632,8.9,8.9,0,0,0-3.405,5.441,9.077,9.077,0,0,0,.706,5.832.652.652,0,0,1,.038.554c-.475,1.315-.919,2.642-1.4,3.954a.936.936,0,0,0,.561,1.346h.372q1.088-.387,2.181-.776c.723-.253,1.448-.5,2.169-.759a.425.425,0,0,1,.365.021,9.235,9.235,0,0,0,11.1-2.31,9.093,9.093,0,0,0,2.121-4.691c.033-.224.055-.453.084-.68v-1.265c-.05-.334-.091-.671-.148-1.007m-4.1,8.044a7.761,7.761,0,0,1-5.553,1.706,7.539,7.539,0,0,1-3.043-.828,1.317,1.317,0,0,0-1.15-.069c-1.186.434-2.382.838-3.572,1.253-.057.019-.112.038-.2.064.2-.568.387-1.11.575-1.649.263-.754.523-1.508.795-2.26a1.033,1.033,0,0,0-.055-.876,7.675,7.675,0,0,1-.85-2.732,7.955,7.955,0,0,1,1.861-6.245,7.791,7.791,0,0,1,4.543-2.7,7.9,7.9,0,0,1,6.61,1.52,7.646,7.646,0,0,1,3,4.835,7.9,7.9,0,0,1-2.964,7.985" transform="translate(-213.638 -660.14)" fill="#fff"/>
        <path id="Path_1686" data-name="Path 1686" d="M227.867,489.355a1.063,1.063,0,0,0-1.482-.031,4.42,4.42,0,0,0-.4.391.168.168,0,0,1-.251.033,6.841,6.841,0,0,1-2.5-2.5c-.06-.1-.069-.169.026-.251.119-.1.224-.215.332-.327a1.091,1.091,0,0,0-.014-1.611c-.387-.394-.778-.783-1.169-1.172a1.1,1.1,0,0,0-1.637,0c-.305.3-.6.6-.909.907a1.725,1.725,0,0,0-.5,1.267,4.547,4.547,0,0,0,.6,2.04,12.4,12.4,0,0,0,4.56,4.718,4.915,4.915,0,0,0,2.241.783,1.627,1.627,0,0,0,1.265-.372c.4-.365.787-.74,1.148-1.141a1.049,1.049,0,0,0-.038-1.468c-.415-.434-.842-.861-1.277-1.274m-.566,3.031a.817.817,0,0,1-.735.069,4.872,4.872,0,0,1-1.74-.761,11.382,11.382,0,0,1-3.842-4.064,3.621,3.621,0,0,1-.487-1.432.779.779,0,0,1,.255-.7c.289-.26.551-.546.814-.811.408.408.8.8,1.224,1.227-.148.141-.322.3-.487.463a.872.872,0,0,0-.167,1.2,7.9,7.9,0,0,0,3.312,3.293.851.851,0,0,0,1.114-.155c.177-.174.344-.356.5-.518.415.415.811.811,1.207,1.205-.308.315-.618.668-.969.981" transform="translate(-210.894 -657.677)" fill="#fff"/>
        <path id="Path_1687" data-name="Path 1687" d="M237.472,525.451a1.725,1.725,0,0,0-2.816-.492c-.477.473-.947.947-1.422,1.42-.041.041-.072.1-.141.112a.493.493,0,0,1-.014-.2c0-1.327,0-2.656,0-3.983a1.723,1.723,0,0,0-.446-1.226c-.551-.589-1.124-1.16-1.711-1.711A1.229,1.229,0,0,0,230.1,519h-.012l0,.014a.219.219,0,0,1-.191-.036h-9.827a.211.211,0,0,1-.191.034l0-.014-.029,0a1.037,1.037,0,0,0-.363.064,1.621,1.621,0,0,0-1,1.506q0,7.939,0,15.876a1.371,1.371,0,0,0,.072.53,1.657,1.657,0,0,0,1.525,1.083q5.677-.007,11.352,0a1.391,1.391,0,0,0,.7-.15,1.741,1.741,0,0,0,.945-1.613c0-1.527,0-3.052,0-4.579a.661.661,0,0,1,.212-.508c1.224-1.214,2.439-2.436,3.663-3.653a1.762,1.762,0,0,0,.611-1.09V525.9a3.247,3.247,0,0,0-.1-.449m-7.658-5.355a.7.7,0,0,1,.387.2l1.5,1.5a.981.981,0,0,1,.117.146.4.4,0,0,1,.079.348c-.038.086-.179.031-.274.034-.279,0-.558,0-.838,0-.329,0-.656,0-.986,0-.093,0-.126-.022-.126-.122q.007-.995,0-1.99c0-.117.041-.136.141-.119m2.1,12.623v3.517c0,.468-.212.683-.68.683H220.3c-.465,0-.678-.215-.678-.685V520.786c0-.482.208-.692.687-.692q4.031,0,8.061,0c.153,0,.191.033.191.191-.01.835,0,1.673,0,2.513a.566.566,0,0,0,.644.649c.85,0,1.7,0,2.549,0,.134,0,.16.036.16.165q-.007,2.008,0,4.021a.345.345,0,0,1-.11.258q-1.124,1.113-2.241,2.233a1.049,1.049,0,0,0-.267.437c-.236.718-.48,1.437-.723,2.155a.6.6,0,0,0,.107.659.6.6,0,0,0,.673.115c.728-.246,1.46-.489,2.191-.733a.922.922,0,0,0,.367-.224Zm-.511-1.281c-.117.1-.193.241-.353.291-.351.11-.7.231-1.079.355.126-.377.248-.728.36-1.078.05-.16.193-.236.289-.353.048-.055.076,0,.105.024.219.22.439.437.656.659.031.029.074.057.021.1M234.835,528q-1.264,1.26-2.525,2.525l-.074.069c-.031-.029-.057-.052-.081-.079-.208-.205-.41-.415-.62-.616-.074-.069-.062-.107,0-.172q1.26-1.253,2.51-2.515c.057-.057.1-.074.16-.007.208.215.418.425.63.632.064.062.062.1,0,.162m1.508-1.537c-.177.212-.384.4-.575.6-.052.052-.081.029-.122-.012-.217-.217-.437-.437-.656-.654-.05-.05-.053-.081,0-.131.179-.169.351-.348.527-.52a.587.587,0,0,1,.375-.153.569.569,0,0,1,.487.31.48.48,0,0,1-.038.556" transform="translate(-212.108 -608.535)" fill="#fff"/>
        <path id="Path_1688" data-name="Path 1688" d="M219.993,522.432c1.3,0,2.606,0,3.909,0s2.58,0,3.871,0a.56.56,0,1,0,0-1.117h-7.741a.577.577,0,0,0-.2.024.564.564,0,0,0-.4.618.552.552,0,0,0,.556.475" transform="translate(-210.801 -605.291)" fill="#fff"/>
        <path id="Path_1689" data-name="Path 1689" d="M225.566,522.253c-.923,0-1.849,0-2.773,0h-2.754a.561.561,0,1,0,0,1.119q2.742,0,5.488,0a.708.708,0,0,0,.2-.021.557.557,0,0,0-.162-1.093" transform="translate(-210.799 -603.994)" fill="#fff"/>
        <path id="Path_1690" data-name="Path 1690" d="M219.993,524.3q1.4,0,2.792,0h2.754a.56.56,0,1,0,0-1.117q-2.753,0-5.508,0a.574.574,0,0,0-.2.021.565.565,0,0,0-.394.62.55.55,0,0,0,.556.473" transform="translate(-210.801 -602.696)" fill="#fff"/>
        <path id="Path_1691" data-name="Path 1691" d="M226.134,524.69a.554.554,0,0,0-.613-.565c-.907,0-1.814,0-2.718,0s-1.835,0-2.754,0a.56.56,0,1,0,0,1.114h5.472a.554.554,0,0,0,.613-.549" transform="translate(-210.799 -601.398)" fill="#fff"/>
        <path id="Path_1692" data-name="Path 1692" d="M225.179,525.56q-1.636,0-3.274,0a.56.56,0,1,0-.007,1.117h3.274a.56.56,0,1,0,.007-1.117" transform="translate(-208.203 -599.409)" fill="#fff"/>
        <path id="Path_1693" data-name="Path 1693" d="M233.392,545.244a9.179,9.179,0,0,0-2.849-1.083c-.36-.083-.725-.15-1.1-.227.031-.055.053-.1.076-.138.625-.976,1.262-1.945,1.871-2.93a5.968,5.968,0,0,0,.241-6.269,6.061,6.061,0,0,0-6.288-3.174,5.957,5.957,0,0,0-3.472,1.783,6.056,6.056,0,0,0-1.735,4.973,5.894,5.894,0,0,0,.921,2.642q.952,1.5,1.911,2.99c.024.036.041.074.072.126-.067.014-.119.029-.172.038a13.328,13.328,0,0,0-2.649.7,5.144,5.144,0,0,0-1.756,1.057,1.759,1.759,0,0,0-.045,2.6,4.361,4.361,0,0,0,1.429.952,14.16,14.16,0,0,0,4.539,1.045c.3.026.592.05.885.079h1.938a.7.7,0,0,1,.141-.033c.47-.041.94-.067,1.408-.119a13.307,13.307,0,0,0,3.7-.9,4.464,4.464,0,0,0,1.663-1.1,1.691,1.691,0,0,0,.2-2.155,2.789,2.789,0,0,0-.928-.869m-11.411-5.057a5.075,5.075,0,0,1,.2-5.632,5.024,5.024,0,0,1,8.228,5.763q-2.015,3.146-4.021,6.3c-.043.069-.088.136-.148.229-.06-.088-.105-.153-.148-.219q-2.058-3.221-4.114-6.438m11.3,7.336a3.531,3.531,0,0,1-1.36.847,11.116,11.116,0,0,1-3,.737c-.9.1-1.8.155-2.255.193a19.226,19.226,0,0,1-5.135-.6,6.418,6.418,0,0,1-1.933-.835,2.347,2.347,0,0,1-.415-.368.57.57,0,0,1,0-.864,3.542,3.542,0,0,1,.742-.578,8.072,8.072,0,0,1,2.479-.857c.387-.079.783-.124,1.172-.2.122-.024.174.021.234.117.632,1,1.265,2,1.911,2.99a.854.854,0,0,0,.367.315c.253.107.494-.014.671-.291.585-.914,1.179-1.821,1.742-2.747a.591.591,0,0,1,.721-.351,10.6,10.6,0,0,1,3.336,1.019,3.333,3.333,0,0,1,.718.549.589.589,0,0,1,.007.919" transform="translate(-212.972 -591.376)" fill="#fff"/>
        <path id="Path_1694" data-name="Path 1694" d="M225.788,535.588a2.791,2.791,0,1,0-2.809,2.766,2.788,2.788,0,0,0,2.809-2.766m-4.455-.062a1.632,1.632,0,0,1,1.7-1.628,1.666,1.666,0,1,1-.055,3.331,1.634,1.634,0,0,1-1.642-1.7" transform="translate(-209.728 -589.408)" fill="#fff"/>
        <path id="Path_1695" data-name="Path 1695" d="M227.646,514.615a.987.987,0,0,0-.088.461,11.782,11.782,0,0,1-.754,2.98.7.7,0,0,1-.921.432.684.684,0,0,1-.379-.924,11.313,11.313,0,0,0,.709-2.895,10.414,10.414,0,0,0-.632-4.746c-.031-.079-.062-.158-.088-.239a.7.7,0,1,1,1.305-.487,11.81,11.81,0,0,1,.525,1.656,12.6,12.6,0,0,1,.277,1.716c0,.038,0,.081.048.091v.141c-.031.029-.021.067-.024.1s-.014.093.024.131v.186a.355.355,0,0,0,0,.279v.558c-.045.055-.014.119-.024.179.007.048-.017.1.024.146Z" transform="translate(-202.463 -622.731)" fill="#fff"/>
        <path id="Path_1696" data-name="Path 1696" d="M226.4,510.892a.208.208,0,0,1,0-.279Z" transform="translate(-201.217 -620.127)" fill="#fff"/>
        <path id="Path_1697" data-name="Path 1697" d="M226.357,511.155c0-.067-.031-.138.038-.191v.188c-.012.017-.024.019-.038,0" transform="translate(-201.213 -619.641)" fill="#fff"/>
        <path id="Path_1698" data-name="Path 1698" d="M226.4,510.625c-.062-.031-.048-.088-.041-.141.014-.019.029-.019.041,0Z" transform="translate(-201.213 -620.325)" fill="#fff"/>
        <path id="Path_1699" data-name="Path 1699" d="M226.358,511.045l.038,0v.139c-.079-.026-.036-.088-.038-.136" transform="translate(-201.213 -619.531)" fill="#fff"/>
        <path id="Path_1700" data-name="Path 1700" d="M226.394,510.531l-.041,0c0-.038-.019-.081.041-.091Z" transform="translate(-201.212 -620.37)" fill="#fff"/>
        <path id="Path_1701" data-name="Path 1701" d="M216.384,513.336a11.561,11.561,0,0,1,.828-4.073.7.7,0,0,1,.914-.484.7.7,0,0,1,.389.974,10.42,10.42,0,0,0-.064,7.6c.031.081.062.16.088.241a.7.7,0,1,1-1.305.489,11.259,11.259,0,0,1-.515-1.608,13.064,13.064,0,0,1-.334-3.133" transform="translate(-215.026 -622.732)" fill="#fff"/>
        <path id="Path_1702" data-name="Path 1702" d="M217.555,513.142a9.377,9.377,0,0,1,.649-3.489.692.692,0,1,1,1.308.453,9.646,9.646,0,0,0-.515,2.019,7.632,7.632,0,0,0,.437,3.582,2.346,2.346,0,0,1,.115.353.7.7,0,0,1-1.336.365,9.433,9.433,0,0,1-.561-2.1,11.348,11.348,0,0,1-.1-1.181" transform="translate(-213.403 -622.122)" fill="#fff"/>
        <path id="Path_1703" data-name="Path 1703" d="M226.359,512.94a9.348,9.348,0,0,1-.644,3.448.7.7,0,0,1-.89.453.686.686,0,0,1-.42-.9,9.648,9.648,0,0,0,.513-2.016,7.628,7.628,0,0,0-.432-3.56c-.033-.1-.067-.191-.1-.284a.7.7,0,0,1,.43-.864.687.687,0,0,1,.878.4,9.47,9.47,0,0,1,.57,2.143c.055.425.079.849.091,1.179" transform="translate(-203.968 -622.122)" fill="#fff"/>
        <path id="Path_1704" data-name="Path 1704" d="M231.383,509.144a2.083,2.083,0,0,0-2.157-2.157q-4.177-.007-8.352,0a2.114,2.114,0,0,0-2.15,2.191q0,3.429,0,6.863,0,3.454,0,6.908a2.09,2.09,0,0,0,2.172,2.19q4.166.007,8.328,0a2.08,2.08,0,0,0,2.16-2.155q.007-6.923,0-13.841m-11.266.413c.017-.167,0-.341.007-.511a.685.685,0,0,1,.651-.661c.069,0,.141,0,.21,0h8.14c.613,0,.861.246.864.852,0,.544,0,.544-.551.544h-4.4c-1.565,0-3.131,0-4.7,0-.181,0-.246-.041-.227-.227m0,1.849c0-.2.055-.236.243-.234,1.573.007,3.148,0,4.72,0s3.133,0,4.7,0c.169,0,.217.033.215.212q-.007,4.675,0,9.349c0,.191-.057.222-.231.22q-4.707,0-9.419,0c-.177,0-.229-.038-.229-.224q.011-4.664,0-9.326m9.877,11.151a3.9,3.9,0,0,0,0,.441.7.7,0,0,1-.737.747c-.372,0-.745,0-1.117,0H221c-.63,0-.876-.243-.876-.864,0-.535,0-.535.539-.535h4.419c1.565,0,3.131,0,4.7,0,.172,0,.239.033.217.212" transform="translate(-211.784 -625.158)" fill="#fff"/>
        <path id="Path_1705" data-name="Path 1705" d="M246.275,548.587a4.818,4.818,0,0,0-4.813-4.813H230.745a4.817,4.817,0,0,0-4.811,4.813v.821h-6.288a4.817,4.817,0,0,0-4.811,4.813v4.191a4.79,4.79,0,0,0,.971,2.89l-.94,3.527a.564.564,0,0,0,.542.709.547.547,0,0,0,.277-.074l3.992-2.238h10.686a4.818,4.818,0,0,0,4.813-4.813v-.821h6.257l3.992,2.241a.568.568,0,0,0,.274.072.564.564,0,0,0,.544-.709l-.94-3.527a4.805,4.805,0,0,0,.971-2.89ZM230.364,562.1H219.647l-.1,0a.6.6,0,0,0-.289.072l-2.964,1.663.671-2.515a.559.559,0,0,0-.117-.511,3.679,3.679,0,0,1-.89-2.393v-4.191a3.691,3.691,0,0,1,3.687-3.689h10.717a3.692,3.692,0,0,1,3.689,3.689v2.654a.539.539,0,0,0-.024.153.553.553,0,0,0,.024.155v1.229a3.691,3.691,0,0,1-3.689,3.687m14.788-9.321a3.682,3.682,0,0,1-.89,2.393.559.559,0,0,0-.117.511l.671,2.515-2.964-1.661a.576.576,0,0,0-.291-.074l-.036,0-.062,0h-6.286v-2.246a4.818,4.818,0,0,0-4.813-4.813h-3.305v-.821a3.693,3.693,0,0,1,3.687-3.689h10.717a3.693,3.693,0,0,1,3.689,3.689Z" transform="translate(-217.172 -574.156)" fill="#fff"/>
        <path id="Path_1706" data-name="Path 1706" d="M232.326,546.732H221.891a.562.562,0,0,1,0-1.124h10.435a.562.562,0,1,1,0,1.124" transform="translate(-208.17 -571.614)" fill="#fff"/>
        <path id="Path_1707" data-name="Path 1707" d="M229.479,547.785h-5.531a.562.562,0,1,1,0-1.124h5.531a.562.562,0,1,1,0,1.124" transform="translate(-205.322 -570.154)" fill="#fff"/>
        <path id="Path_1708" data-name="Path 1708" d="M229.046,548.8h-4.787a.562.562,0,1,1,0-1.124h4.787a.562.562,0,1,1,0,1.124" transform="translate(-204.89 -568.751)" fill="#fff"/>
        <path id="Path_1709" data-name="Path 1709" d="M227.9,548.959H217.178a.562.562,0,1,1,0-1.124H227.9a.562.562,0,1,1,0,1.124" transform="translate(-214.706 -568.526)" fill="#fff"/>
        <path id="Path_1710" data-name="Path 1710" d="M227.9,549.917H217.178a.562.562,0,1,1,0-1.124H227.9a.562.562,0,1,1,0,1.124" transform="translate(-214.706 -567.198)" fill="#fff"/>
        <path id="Path_1711" data-name="Path 1711" d="M227.9,550.875H217.178a.562.562,0,1,1,0-1.124H227.9a.562.562,0,1,1,0,1.124" transform="translate(-214.706 -565.87)" fill="#fff"/>
        <path id="Path_1712" data-name="Path 1712" d="M224.054,578.156a13.8,13.8,0,0,0,13.891-13.888c0-.212,0-.425-.014-.632a9.9,9.9,0,0,0,2.436-2.529,9.63,9.63,0,0,1-2.8.768,4.893,4.893,0,0,0,2.145-2.7,9.869,9.869,0,0,1-3.1,1.186,4.885,4.885,0,0,0-8.319,4.45,13.856,13.856,0,0,1-10.063-5.1,4.886,4.886,0,0,0,1.511,6.517,4.809,4.809,0,0,1-2.21-.611l0,.062a4.887,4.887,0,0,0,3.918,4.787,4.978,4.978,0,0,1-1.289.17,4.833,4.833,0,0,1-.916-.086,4.882,4.882,0,0,0,4.56,3.391,9.84,9.84,0,0,1-7.228,2.021,13.822,13.822,0,0,0,7.483,2.193" transform="translate(-214.767 -553.302)" fill="#fff"/>
        <path id="Path_1713" data-name="Path 1713" d="M224.415,576.738c.084-.091.115-.117.138-.15a4.357,4.357,0,0,1,4.62-1.842,4.576,4.576,0,0,1,3.921,4.183,10.782,10.782,0,0,1,.124,1.663c0,2.319,0,4.637,0,6.954,0,.26-.062.336-.329.336q-1.822-.025-3.644,0c-.265,0-.332-.077-.332-.336.01-2.16.007-4.324,0-6.484a5.261,5.261,0,0,0-.172-1.456,2.1,2.1,0,0,0-3.415-1.048,2.568,2.568,0,0,0-.926,2.126c.012,2.04,0,4.078,0,6.118,0,.265-.017.535,0,.8.017.231-.079.277-.289.274-1.236-.007-2.472-.01-3.708,0-.224,0-.305-.045-.3-.291q.029-2.756.026-5.515,0-3.393-.019-6.784c0-.248.05-.322.305-.32,1.236.014,2.472.012,3.711,0,.222,0,.284.065.277.282-.014.465,0,.933,0,1.484" transform="translate(-209.847 -531.329)" fill="#fff"/>
        <path id="Path_1714" data-name="Path 1714" d="M221.633,581.25c0,2.038-.007,4.076,0,6.116,0,.253-.052.344-.324.339-1.229-.017-2.453-.014-3.677,0-.227,0-.3-.055-.3-.293q.007-6.168,0-12.33c0-.215.05-.286.277-.284q1.868.018,3.739,0c.248,0,.289.088.289.308-.01,2.047,0,4.1,0,6.147" transform="translate(-213.711 -531.152)" fill="#fff"/>
        <path id="Path_1715" data-name="Path 1715" d="M219.669,572.191a2.235,2.235,0,0,1,2.322,2.83,2.39,2.39,0,0,1-2.864,1.594,2.21,2.21,0,0,1-1.737-3.042,2.309,2.309,0,0,1,2.279-1.382" transform="translate(-213.863 -534.762)" fill="#fff"/>
      </g>
    </g>
  </g>
</svg>
