<svg xmlns="http://www.w3.org/2000/svg" width="141.508" height="52" viewBox="0 0 141.508 52">
  <g id="icon-choose" transform="translate(21 -24)">
    <path id="Path_1091" data-name="Path 1091" d="M1303.484,831.089a3.686,3.686,0,0,1,5.232,0l22.2,22.285a3.722,3.722,0,0,1,0,5.252l-22.2,22.285a3.707,3.707,0,0,1-5.232-5.252L1323.068,856l-19.584-19.659A3.72,3.72,0,0,1,1303.484,831.089ZM1313.5,856a3.706,3.706,0,0,1-3.7,3.714h-48.1a3.714,3.714,0,0,1,0-7.428h48.1A3.706,3.706,0,0,1,1313.5,856Z" transform="translate(-1211.492 -806)" fill="#fcc200"/>
    <path id="Path_1092" data-name="Path 1092" d="M45.484,1.089a3.686,3.686,0,0,1,5.232,0l22.2,22.285a3.722,3.722,0,0,1,0,5.252l-22.2,22.285a3.707,3.707,0,0,1-5.232-5.252L65.068,26,45.484,6.341A3.72,3.72,0,0,1,45.484,1.089ZM55.5,26a3.706,3.706,0,0,1-3.7,3.714H3.7a3.714,3.714,0,0,1,0-7.428H51.8A3.706,3.706,0,0,1,55.5,26Z" transform="translate(53 76) rotate(180)" fill="#fcc200"/>
  </g>
</svg>
