<svg xmlns="http://www.w3.org/2000/svg" width="80.338" height="80.334" viewBox="0 0 80.338 80.334">
  <g id="icon-click" transform="translate(0 0)">
    <path id="Path_1112" data-name="Path 1112" d="M36.725,14.375a2.651,2.651,0,0,1-1.894-.771L26.8,5.571a2.678,2.678,0,1,1,3.787-3.787l8.033,8.034a2.693,2.693,0,0,1-1.893,4.557Z" transform="translate(-26.013 -1)" fill="#fff"/>
    <path id="Path_1113" data-name="Path 1113" d="M29.678,9h5.165a2.678,2.678,0,1,1,0,5.356H29.678a2.678,2.678,0,1,1,0-5.356Z" transform="translate(-26.809 12.422)" fill="#fff"/>
    <path id="Path_1114" data-name="Path 1114" d="M23.678,11.592A2.678,2.678,0,0,1,21,8.914V3.749a2.678,2.678,0,0,1,5.356,0V8.914A2.678,2.678,0,0,1,23.678,11.592Z" transform="translate(0.423 -0.881)" fill="#fff"/>
    <path id="Path_1115" data-name="Path 1115" d="M30.571,26.6a2.751,2.751,0,0,1-3.786,0,2.676,2.676,0,0,1,0-3.786l8.034-8.033A2.678,2.678,0,1,1,38.6,18.571Z" transform="translate(-26 20.811)" fill="#fff"/>
    <path id="Path_1116" data-name="Path 1116" d="M17.571,13.6a2.746,2.746,0,0,1-3.786,0,2.676,2.676,0,0,1,0-3.786l8.034-8.033A2.678,2.678,0,1,1,25.6,5.571Z" transform="translate(21.812 -1)" fill="#fff"/>
    <path id="Path_1117" data-name="Path 1117" d="M58.469,38.367,37.834,44.558a.415.415,0,0,0-.28.278l-6.19,20.636a5.7,5.7,0,0,1-5.319,4.109,5.781,5.781,0,0,1-5.607-3.713L1.377,15.831A5.774,5.774,0,0,1,8.83,8.382L58.867,27.443a5.773,5.773,0,0,1-.4,10.925Zm-1.512-5.918L6.921,13.389a.419.419,0,0,0-.539.537L25.443,63.961a.422.422,0,0,0,.79-.027l6.193-20.64a5.759,5.759,0,0,1,3.87-3.866l20.637-6.192a.417.417,0,0,0,.025-.789Z" transform="translate(17.753 10.749)" fill="#fff"/>
  </g>
</svg>
