<svg id="icon-foto" xmlns="http://www.w3.org/2000/svg" width="44.021" height="31.58" viewBox="0 0 44.021 31.58">
  <g id="Group_110" data-name="Group 110" transform="translate(0 0)">
    <path id="Path_1110" data-name="Path 1110" d="M7.349,969.362A3.374,3.374,0,0,0,4,972.712v24.881a3.374,3.374,0,0,0,3.349,3.349H44.671a3.374,3.374,0,0,0,3.349-3.349V972.712a3.374,3.374,0,0,0-3.349-3.349Zm0,2.871H44.671a.449.449,0,0,1,.478.479v17.106l-7.237-5.787a1.435,1.435,0,0,0-1.7-.075l-6.789,4.665-9.211-7.461a1.41,1.41,0,0,0-1.72-.06L6.871,989.115v-16.4A.449.449,0,0,1,7.349,972.233Zm22.01,1.914a4.306,4.306,0,1,0,4.306,4.306A4.328,4.328,0,0,0,29.36,974.147Zm0,2.871a1.435,1.435,0,1,1-1.435,1.435A1.414,1.414,0,0,1,29.36,977.018Zm-10.108,7.058,9.211,7.447a1.436,1.436,0,0,0,1.7.075l6.774-4.665L45.15,993.5v4.1a.449.449,0,0,1-.478.479H7.349a.449.449,0,0,1-.478-.479v-4.979Z" transform="translate(-4 -969.362)" fill="#fff"/>
  </g>
</svg>
