<svg xmlns="http://www.w3.org/2000/svg" width="70.792" height="55" viewBox="0 0 70.792 55">
  <g id="icon-population" transform="translate(-2.49 -13)">
    <g id="Group_23" data-name="Group 23" transform="translate(2.491 13)">
      <path id="Path_162" data-name="Path 162" d="M15.6,54.913a4.017,4.017,0,0,1-3.126-4.391l.744-5.88a9.612,9.612,0,0,1,6.028-7.815,8.149,8.149,0,0,1-2.084-2.679A5.026,5.026,0,0,0,16.117,34h0a9.057,9.057,0,0,1-3.2.6,9.379,9.379,0,0,1-3.2-.6h0a7.281,7.281,0,0,0-6.475,6.4L2.5,46.28a1.54,1.54,0,0,0,1.191,1.637c1.042.223,2.158.372,3.275.521l.819,13.769a2.034,2.034,0,0,0,2.009,1.935h6.252a1.874,1.874,0,0,0,1.489-.67l-.521-8.336C16.564,55.062,16.117,54.988,15.6,54.913Z" transform="translate(-2.491 -18.371)" fill="#253e92"/>
      <path id="Path_163" data-name="Path 163" d="M14.147,26.694A6.641,6.641,0,0,0,17.5,25.8a8.2,8.2,0,0,1-.149-1.34,9.4,9.4,0,0,1,3.2-7,6.839,6.839,0,1,0-6.4,9.229Z" transform="translate(-3.721 -13)" fill="#253e92"/>
      <path id="Path_164" data-name="Path 164" d="M32.4,61.113a4.017,4.017,0,0,1-3.126-4.391l.744-5.88a9.718,9.718,0,0,1,6.028-7.815,8.7,8.7,0,0,1-2.084-2.6L32.843,40.2a8.5,8.5,0,0,1-6.252,0,7.288,7.288,0,0,0-6.624,6.326l-.67,5.88a1.475,1.475,0,0,0,1.191,1.637c1.042.223,2.158.372,3.275.521l.819,13.769a2.034,2.034,0,0,0,2.009,1.935h6.252a2.078,2.078,0,0,0,1.488-.6l-.521-8.336C33.289,61.262,32.843,61.188,32.4,61.113Z" transform="translate(-6.787 -19.956)" fill="#253e92"/>
      <path id="Path_165" data-name="Path 165" d="M30.922,32.92A6.89,6.89,0,0,0,34.2,32.1a8.2,8.2,0,0,1-.149-1.34,9.4,9.4,0,0,1,3.2-7,6.828,6.828,0,1,0-6.326,9.154Z" transform="translate(-7.992 -14.611)" fill="#253e92"/>
      <path id="Path_166" data-name="Path 166" d="M91,40.3a7.351,7.351,0,0,0-6.475-6.4h0a8.9,8.9,0,0,1-6.4,0h0a5.026,5.026,0,0,0-1.042.149A9.27,9.27,0,0,1,75,36.728a9.718,9.718,0,0,1,6.028,7.815l.744,5.88a4.077,4.077,0,0,1-3.051,4.391c-.447.074-.968.223-1.489.3l-.447,8.336a2.14,2.14,0,0,0,1.488.67h6.252a1.987,1.987,0,0,0,2.009-1.935l.819-13.769a23.141,23.141,0,0,0,3.275-.6A1.54,1.54,0,0,0,91.82,46.18Z" transform="translate(-21.035 -18.345)" fill="#253e92"/>
      <path id="Path_167" data-name="Path 167" d="M77.926,25.876a6.862,6.862,0,1,0-3.126-8.41,9.4,9.4,0,0,1,3.2,7A2.986,2.986,0,0,1,77.926,25.876Z" transform="translate(-20.984 -13)" fill="#253e92"/>
      <path id="Path_168" data-name="Path 168" d="M75.046,52.406l-.744-5.88A7.28,7.28,0,0,0,67.752,40.2a8.5,8.5,0,0,1-6.252,0,2.986,2.986,0,0,0-1.116.223,7.873,7.873,0,0,1-2.084,2.6,9.828,9.828,0,0,1,6.028,7.889l.744,5.88a4.028,4.028,0,0,1-3.051,4.391c-.447.074-.968.223-1.489.3l-.521,8.336a2.078,2.078,0,0,0,1.488.6h6.252a2.052,2.052,0,0,0,2.084-1.935l.819-13.769c1.116-.149,2.233-.3,3.275-.521A1.8,1.8,0,0,0,75.046,52.406Z" transform="translate(-16.764 -19.956)" fill="#253e92"/>
      <path id="Path_169" data-name="Path 169" d="M61.226,32.076a6.862,6.862,0,1,0-3.126-8.41,9.4,9.4,0,0,1,3.2,7A4.4,4.4,0,0,1,61.226,32.076Z" transform="translate(-16.713 -14.586)" fill="#253e92"/>
      <path id="Path_170" data-name="Path 170" d="M56.836,58.58l-.744-5.88a7.351,7.351,0,0,0-6.475-6.4h0a8.9,8.9,0,0,1-6.4,0h0a7.211,7.211,0,0,0-6.475,6.4L36,58.58a1.475,1.475,0,0,0,1.191,1.637c1.042.223,2.158.447,3.275.6l.744,13.769a2.034,2.034,0,0,0,2.009,1.935h6.252a2.106,2.106,0,0,0,2.084-1.935l.819-13.769a23.141,23.141,0,0,0,3.275-.6A1.418,1.418,0,0,0,56.836,58.58Z" transform="translate(-11.058 -21.516)" fill="#00aaac"/>
      <circle id="Ellipse_1" data-name="Ellipse 1" cx="6.847" cy="6.847" r="6.847" transform="translate(28.512 9.303)" fill="#00aaac"/>
    </g>
  </g>
</svg>
