<svg xmlns="http://www.w3.org/2000/svg" xmlns:xlink="http://www.w3.org/1999/xlink" width="50" height="50" viewBox="0 0 50 50">
  <defs>
    <linearGradient id="linear-gradient" y1="0.5" x2="1" y2="0.5" gradientUnits="objectBoundingBox">
      <stop offset="0" stop-color="#00aaac"/>
      <stop offset="1" stop-color="#253e92"/>
    </linearGradient>
    <clipPath id="clip-path">
      <rect id="Rectangle_47" data-name="Rectangle 47" width="17.165" height="26.497" fill="none"/>
    </clipPath>
  </defs>
  <g id="icon-face" transform="translate(-941 -1921)">
    <circle id="Ellipse_21" data-name="Ellipse 21" cx="25" cy="25" r="25" transform="translate(941 1921)" fill="url(#linear-gradient)"/>
    <g id="Group_175" data-name="Group 175" transform="translate(957.685 1932.288)">
      <g id="Group_174" data-name="Group 174" clip-path="url(#clip-path)">
        <path id="Path_1519" data-name="Path 1519" d="M3.034,551.679l-.112-.8a.049.049,0,0,0-.055-.045H1.9a.052.052,0,0,0-.057.045l-.136.8a.107.107,0,0,1-.119.1H.278c-.072,0-.11-.036-.091-.119l1.329-6.209a.115.115,0,0,1,.122-.1h1.5a.111.111,0,0,1,.117.1l1.334,6.209c.017.084-.019.119-.1.119H3.153a.105.105,0,0,1-.119-.1m.561-7.825-.728.926a.163.163,0,0,1-.138.067h-.99c-.084,0-.129-.048-.084-.129l.542-.928a.146.146,0,0,1,.138-.074H3.52c.091,0,.129.064.074.139m-1.508,5.8h.606c.029,0,.036-.019.036-.045l-.284-1.966c-.01-.036-.045-.036-.052,0l-.341,1.966c-.01.036.01.045.036.045" transform="translate(-101.986 -576.036)" fill="#312783"/>
        <path id="Path_1520" data-name="Path 1520" d="M4.445,545.147H5.751a.1.1,0,0,1,.107.112v4.362c0,1.329-.468,2.351-2.816,2.176a.115.115,0,0,1-.112-.119v-1.093a.1.1,0,0,1,.119-.1c1.093.055,1.267-.294,1.286-.881,0-.048-.036-.055-.064-.019a1,1,0,0,1-.826.367c-.892,0-1.258-.613-1.258-1.589v-1.7c0-1.029.394-1.587,1.258-1.587a.945.945,0,0,1,.835.413c.026.036.055.026.055-.009v-.22a.106.106,0,0,1,.11-.112m-.11,3.095v-1.46c0-.239-.129-.4-.322-.4s-.3.165-.3.4v1.46c0,.239.122.4.3.4s.322-.157.322-.4" transform="translate(-99.205 -574.152)" fill="#312783"/>
        <path id="Path_1521" data-name="Path 1521" d="M6.186,545.1H7.492a.107.107,0,0,1,.11.112v4.527a.105.105,0,0,1-.11.11H6.186a.105.105,0,0,1-.11-.11v-.119c0-.036-.026-.045-.055-.01a.927.927,0,0,1-.8.313,1.229,1.229,0,0,1-1.289-1.386v-3.324a.109.109,0,0,1,.112-.112h1.3a.109.109,0,0,1,.112.112V548.2c0,.277.1.413.294.413s.32-.146.32-.42v-2.976a.107.107,0,0,1,.11-.112" transform="translate(-96.782 -574.11)" fill="#312783"/>
        <path id="Path_1522" data-name="Path 1522" d="M9.468,546.608v3.179a.1.1,0,0,1-.107.107H8.055a.1.1,0,0,1-.11-.107v-.222c0-.038-.029-.055-.055-.019a1.067,1.067,0,0,1-.938.422c-.523.012-1.3-.155-1.3-1.441s.773-1.47,1.883-1.47H7.9a.043.043,0,0,0,.045-.045v-.22a.375.375,0,0,0-.367-.413.3.3,0,0,0-.3.265.1.1,0,0,1-.11.11l-1.332-.007a.1.1,0,0,1-.112-.112,1.679,1.679,0,0,1,1.866-1.561c1.122,0,1.88.6,1.88,1.534m-1.522,1.854v-.341a.043.043,0,0,0-.045-.043H7.616a.386.386,0,0,0-.406.4.313.313,0,0,0,.313.358.406.406,0,0,0,.422-.377" transform="translate(-94.406 -574.153)" fill="#312783"/>
        <path id="Path_1523" data-name="Path 1523" d="M7.414,548.517v-.055a.105.105,0,0,1,.11-.11H8.755c.064,0,.11.029.11.064v.064a.36.36,0,0,0,.367.358.261.261,0,0,0,.277-.274c0-.294-.451-.377-.854-.516a1.513,1.513,0,0,1,.532-2.976,1.573,1.573,0,0,1,1.754,1.589.1.1,0,0,1-.112.1H9.636c-.064,0-.11-.036-.11-.091v-.093a.294.294,0,0,0-.3-.32.3.3,0,0,0-.294.32c0,.3.4.432.7.532.613.205,1.413.506,1.413,1.434,0,.883-.716,1.422-1.8,1.422-1.112,0-1.828-.577-1.828-1.451" transform="translate(-91.961 -574.153)" fill="#312783"/>
        <path id="Path_1524" data-name="Path 1524" d="M12.681,550.729l-.112-.8a.049.049,0,0,0-.055-.045H11.54a.051.051,0,0,0-.055.045l-.136.8a.108.108,0,0,1-.119.1H9.924c-.074,0-.11-.036-.093-.119l1.334-6.209a.11.11,0,0,1,.119-.1h1.5a.112.112,0,0,1,.117.1l1.332,6.209c.019.083-.019.119-.093.119H12.8a.1.1,0,0,1-.117-.1m-.947-2.021h.606c.026,0,.036-.019.036-.045l-.284-1.966c-.01-.036-.045-.036-.052,0l-.341,1.966c-.01.036.007.045.036.045" transform="translate(-88.615 -575.086)" fill="#312783"/>
        <path id="Path_1525" data-name="Path 1525" d="M15.774,546.41a1.735,1.735,0,0,1-1.732,1.931h-.6a.043.043,0,0,0-.045.048v2.331a.107.107,0,0,1-.11.11h-1.3a.107.107,0,0,1-.11-.11v-6.209a.105.105,0,0,1,.11-.11h1.983a1.821,1.821,0,0,1,1.806,2.009m-1.522.038c0-.489-.229-.745-.551-.745h-.258a.044.044,0,0,0-.045.045v1.37a.044.044,0,0,0,.045.045H13.7c.322,0,.551-.248.551-.716" transform="translate(-85.776 -575.086)" fill="#312783"/>
        <path id="Path_1526" data-name="Path 1526" d="M17.6,546.41a1.735,1.735,0,0,1-1.732,1.931h-.6a.043.043,0,0,0-.045.048v2.331a.107.107,0,0,1-.11.11h-1.3a.107.107,0,0,1-.11-.11v-6.209a.105.105,0,0,1,.11-.11h1.983A1.821,1.821,0,0,1,17.6,546.41m-1.52.038c0-.489-.231-.745-.554-.745h-.258a.044.044,0,0,0-.045.045v1.37a.044.044,0,0,0,.045.045h.258c.322,0,.554-.248.554-.716" transform="translate(-83.245 -575.086)" fill="#312783"/>
        <path id="Path_1527" data-name="Path 1527" d="M-4.176,547.184a.577.577,0,0,0-.179-.048,1.474,1.474,0,0,0-.2-.012h-.033v.706h.048a1.435,1.435,0,0,0,.2-.014.5.5,0,0,0,.172-.05.375.375,0,0,0,.119-.11A.33.33,0,0,0-4,547.47a.3.3,0,0,0-.05-.184.291.291,0,0,0-.124-.1" transform="translate(-108.603 -571.311)" fill="#312783"/>
        <path id="Path_1528" data-name="Path 1528" d="M-7.238,548.006h.656l-.329-.747Z" transform="translate(-112.273 -571.125)" fill="#312783"/>
        <path id="Path_1529" data-name="Path 1529" d="M-9.86,548.006H-9.2l-.329-.747Z" transform="translate(-115.907 -571.125)" fill="#312783"/>
        <path id="Path_1530" data-name="Path 1530" d="M-5.376,548.006h.659l-.329-.747Z" transform="translate(-109.691 -571.125)" fill="#312783"/>
        <path id="Path_1531" data-name="Path 1531" d="M-3.571,547.184a.615.615,0,0,0-.179-.048,1.508,1.508,0,0,0-.205-.012h-.033v.706h.048a1.435,1.435,0,0,0,.2-.014.508.508,0,0,0,.174-.05.375.375,0,0,0,.119-.11.331.331,0,0,0,.045-.186.3.3,0,0,0-.048-.184.306.306,0,0,0-.124-.1" transform="translate(-107.769 -571.311)" fill="#312783"/>
        <path id="Path_1532" data-name="Path 1532" d="M7.173,540.725H-7.481a4.281,4.281,0,0,0-4.269,4.267v14.96a4.281,4.281,0,0,0,4.269,4.267H7.173a4.279,4.279,0,0,0,4.267-4.267v-14.96a4.279,4.279,0,0,0-4.267-4.267M.141,548.466A3.546,3.546,0,0,1,3.305,546.6a3.328,3.328,0,0,1,3.324,3.324,3.488,3.488,0,0,1-.021.384l-.019.167H2.458v-1.15l2.957,0a2.185,2.185,0,0,0-2.109-1.589c-.6,0-1.41.177-2.4,1.573l-.153.215-.687-.947ZM-7.245,555.4l.363-.484a.038.038,0,0,1,.031-.014l.019,0,.241.126a.037.037,0,0,1,.021.031.035.035,0,0,1-.012.034l-.477.434-.026.009-.021,0-.129-.079a.047.047,0,0,1-.019-.029.033.033,0,0,1,.01-.029m1.413,2.527a.038.038,0,0,1-.033.019h-.294a.042.042,0,0,1-.036-.024l-.239-.527h-.955l-.241.527a.039.039,0,0,1-.036.024h-.294a.038.038,0,0,1-.033-.019.043.043,0,0,1,0-.038l1.048-2.284a.036.036,0,0,1,.033-.024.042.042,0,0,1,.038.024l1.048,2.284a.037.037,0,0,1,0,.038m2.186-1.04a1.234,1.234,0,0,1-.076.437,1.042,1.042,0,0,1-.224.348.992.992,0,0,1-.339.234,1.09,1.09,0,0,1-.437.086,1.146,1.146,0,0,1-.449-.093,1.2,1.2,0,0,1-.365-.26,1.285,1.285,0,0,1-.243-.375,1.161,1.161,0,0,1-.091-.449,1.151,1.151,0,0,1,.093-.461,1.157,1.157,0,0,1,.251-.377,1.157,1.157,0,0,1,.372-.258,1.16,1.16,0,0,1,.461-.093,1.172,1.172,0,0,1,.508.115,1.135,1.135,0,0,1,.415.327.04.04,0,0,1,0,.053l-.193.184a.051.051,0,0,1-.029.01h0a.04.04,0,0,1-.029-.017.839.839,0,0,0-.291-.246.764.764,0,0,0-.365-.1.825.825,0,0,0-.327.067.83.83,0,0,0-.265.181.877.877,0,0,0-.177.272.816.816,0,0,0-.067.332.8.8,0,0,0,.064.315.921.921,0,0,0,.174.277.825.825,0,0,0,.258.191.719.719,0,0,0,.317.072.676.676,0,0,0,.239-.048.816.816,0,0,0,.217-.134.787.787,0,0,0,.157-.2.585.585,0,0,0,.06-.193h-.525a.04.04,0,0,1-.038-.041v-.25a.038.038,0,0,1,.038-.041h.871a.038.038,0,0,1,.038.041Zm1.84.212a1.04,1.04,0,0,1-.06.351.8.8,0,0,1-.167.282.743.743,0,0,1-.265.191.869.869,0,0,1-.351.069A.892.892,0,0,1-3,557.921a.764.764,0,0,1-.265-.191.872.872,0,0,1-.167-.282,1.1,1.1,0,0,1-.055-.351v-1.386a.038.038,0,0,1,.038-.038h.274a.038.038,0,0,1,.038.038v1.3a1.439,1.439,0,0,0,.024.251.614.614,0,0,0,.076.208.383.383,0,0,0,.15.138.507.507,0,0,0,.241.053.513.513,0,0,0,.241-.053.412.412,0,0,0,.148-.138.614.614,0,0,0,.076-.208,1.439,1.439,0,0,0,.021-.251v-1.3a.04.04,0,0,1,.041-.038h.274a.04.04,0,0,1,.041.038Zm2.229.828a.034.034,0,0,1-.031.019H.1a.037.037,0,0,1-.036-.024l-.241-.527h-.955l-.239.527a.042.042,0,0,1-.036.024h-.3a.037.037,0,0,1-.031-.019.037.037,0,0,1,0-.038L-.692,555.6a.039.039,0,0,1,.036-.024.037.037,0,0,1,.036.024l1.048,2.284a.037.037,0,0,1,0,.038m1.4-.367a.7.7,0,0,1-.157.229.771.771,0,0,1-.234.15.787.787,0,0,1-.291.053.712.712,0,0,1-.267-.05.672.672,0,0,1-.215-.136A.667.667,0,0,1,.5,557.6a.727.727,0,0,1-.081-.255.042.042,0,0,1,.031-.045l.277-.057H.733l.026.007a.038.038,0,0,1,.014.031.384.384,0,0,0,.029.15.4.4,0,0,0,.081.122.387.387,0,0,0,.124.076.4.4,0,0,0,.15.029.336.336,0,0,0,.146-.033.4.4,0,0,0,.115-.084.339.339,0,0,0,.076-.122.4.4,0,0,0,.029-.15.284.284,0,0,0-.029-.133.3.3,0,0,0-.076-.1.572.572,0,0,0-.115-.079,1.38,1.38,0,0,0-.134-.065l-.153-.064c-.062-.026-.124-.057-.184-.088a.745.745,0,0,1-.16-.122.535.535,0,0,1-.115-.165.6.6,0,0,1,.017-.472.627.627,0,0,1,.153-.191.718.718,0,0,1,.22-.117.762.762,0,0,1,.255-.043.661.661,0,0,1,.6.353.037.037,0,0,1-.014.052l-.215.131-.021,0H1.537a.045.045,0,0,1-.024-.019.394.394,0,0,0-.131-.141.336.336,0,0,0-.186-.045.4.4,0,0,0-.119.019.381.381,0,0,0-.107.055.354.354,0,0,0-.072.086.215.215,0,0,0-.029.11.164.164,0,0,0,.024.093.261.261,0,0,0,.067.079.34.34,0,0,0,.088.06.569.569,0,0,0,.1.045l.155.062a1.761,1.761,0,0,1,.222.107.684.684,0,0,1,.184.141.648.648,0,0,1,.122.193.762.762,0,0,1,.043.255.728.728,0,0,1-.057.291m3.05.367a.038.038,0,0,1-.033.019H4.544a.04.04,0,0,1-.038-.024l-.239-.527H3.312l-.241.527a.037.037,0,0,1-.036.024H2.742a.041.041,0,0,1-.033-.019.037.037,0,0,1,0-.038L3.754,555.6a.039.039,0,0,1,.036-.024.042.042,0,0,1,.036.024l1.045,2.284a.037.037,0,0,1,0,.038m1.322-1.267a.562.562,0,0,1-.177.21.671.671,0,0,1-.258.119,1.272,1.272,0,0,1-.305.036H5.331v.881a.042.042,0,0,1-.041.04H5.019a.04.04,0,0,1-.038-.04v-2.193a.038.038,0,0,1,.038-.038h.315a1.857,1.857,0,0,1,.432.043.74.74,0,0,1,.286.131.474.474,0,0,1,.157.217.791.791,0,0,1,.045.281.664.664,0,0,1-.064.313m-.876-3.742a3.3,3.3,0,0,1-1.9.592A3.436,3.436,0,0,1,.9,552.351a24.744,24.744,0,0,1-1.642-2.133c-.391-.544-.761-1.06-1.06-1.429a2.209,2.209,0,0,0-1.725-.809,2.207,2.207,0,0,0-2.222,2.186,2.207,2.207,0,0,0,2.222,2.183,2.377,2.377,0,0,0,1.809-.916c.15-.169.561-.654.566-.659L-1,550.6l.69.9.014.017v1.878H-1.491v-.625a3.208,3.208,0,0,1-2.036.721A3.35,3.35,0,0,1-6.9,550.165a3.348,3.348,0,0,1,3.369-3.322,3.456,3.456,0,0,1,2.036.728v-.7H-.3v2.055c.172.227.348.472.532.723.523.709,1.062,1.444,1.465,1.9a2.3,2.3,0,0,0,1.718.833,2.2,2.2,0,0,0,1.642-.737H6.407a3.356,3.356,0,0,1-1.093,1.277m2.315,3.742a.562.562,0,0,1-.177.21.682.682,0,0,1-.26.119,1.244,1.244,0,0,1-.305.036H6.77v.881a.04.04,0,0,1-.038.04H6.457a.042.042,0,0,1-.041-.04v-2.193a.04.04,0,0,1,.041-.038h.315a1.843,1.843,0,0,1,.432.043.723.723,0,0,1,.286.131.474.474,0,0,1,.157.217.79.79,0,0,1,.048.281.7.7,0,0,1-.067.313" transform="translate(-118.528 -580.182)" fill="#312783"/>
        <path id="Path_1533" data-name="Path 1533" d="M-1.882,580.926h-4.73V569.493H-8.967v-3.947h2.348c0-.749-.017-1.437,0-2.119a12.868,12.868,0,0,1,.141-1.921,3.923,3.923,0,0,1,3.637-3.4,9.729,9.729,0,0,1,1.236-.093c1.069-.012,2.141,0,3.241,0v3.952c-.437,0-.861,0-1.286,0-.367,0-.737-.012-1.1.024-.785.081-1.071.353-1.112,1.131s-.007,1.558-.007,2.4H1.695c-.143,1.353-.279,2.639-.42,3.961H-1.882Z" transform="translate(-114.67 -556.226)" fill="#312783"/>
        <path id="Path_1534" data-name="Path 1534" d="M-2.561,568.086-.912,561.2H.047l-1.668,6.887Z" transform="translate(-105.789 -551.799)" fill="#312783"/>
        <path id="Path_1535" data-name="Path 1535" d="M-.044,563.551l-1.157-.21a1.794,1.794,0,0,1,.673-1.036,2.457,2.457,0,0,1,1.417-.334,3.084,3.084,0,0,1,1.272.2,1.271,1.271,0,0,1,.587.513,2.617,2.617,0,0,1,.172,1.143l-.014,1.491a5.258,5.258,0,0,0,.06.938,2.878,2.878,0,0,0,.231.647H1.931c-.033-.086-.074-.21-.122-.377-.021-.076-.036-.126-.045-.15a2.269,2.269,0,0,1-.7.477,2.022,2.022,0,0,1-.795.16A1.637,1.637,0,0,1-.9,566.608a1.344,1.344,0,0,1-.43-1.021,1.392,1.392,0,0,1,.193-.73,1.286,1.286,0,0,1,.549-.489,4.275,4.275,0,0,1,1.014-.3,7.118,7.118,0,0,0,1.241-.312v-.129a.663.663,0,0,0-.181-.525,1.108,1.108,0,0,0-.687-.155.9.9,0,0,0-.53.134.917.917,0,0,0-.31.47m1.709,1.036c-.162.055-.422.119-.776.2a2.411,2.411,0,0,0-.7.222.534.534,0,0,0-.248.451.636.636,0,0,0,.2.463.7.7,0,0,0,.508.2,1.106,1.106,0,0,0,.661-.229.8.8,0,0,0,.3-.422,2.5,2.5,0,0,0,.05-.623Z" transform="translate(-104.087 -550.729)" fill="#312783"/>
        <path id="Path_1536" data-name="Path 1536" d="M1.023,567.221l1.458.177a.5.5,0,0,0,.169.351.96.96,0,0,0,.573.136,1.487,1.487,0,0,0,.749-.15.616.616,0,0,0,.253-.322,1.882,1.882,0,0,0,.06-.585v-.706a1.725,1.725,0,0,1-1.444.783A1.781,1.781,0,0,1,1.3,566.08a2.794,2.794,0,0,1-.444-1.616,2.662,2.662,0,0,1,.582-1.854,1.884,1.884,0,0,1,1.453-.64,1.76,1.76,0,0,1,1.475.785v-.678h1.2v4.329a4.338,4.338,0,0,1-.141,1.277,1.574,1.574,0,0,1-.4.663,1.759,1.759,0,0,1-.678.377,3.591,3.591,0,0,1-1.074.136,2.78,2.78,0,0,1-1.742-.42,1.318,1.318,0,0,1-.513-1.064c0-.043,0-.1,0-.155m1.141-2.83a1.735,1.735,0,0,0,.3,1.124.916.916,0,0,0,.733.358,1.007,1.007,0,0,0,.79-.367,1.591,1.591,0,0,0,.325-1.081A1.693,1.693,0,0,0,4,563.31a.982.982,0,0,0-.78-.363.943.943,0,0,0-.756.356,1.678,1.678,0,0,0-.3,1.088" transform="translate(-101.052 -550.729)" fill="#312783"/>
        <path id="Path_1537" data-name="Path 1537" d="M6.548,566.841v-.723a1.885,1.885,0,0,1-.692.611,1.954,1.954,0,0,1-.907.222,1.768,1.768,0,0,1-.873-.215,1.245,1.245,0,0,1-.558-.6,2.685,2.685,0,0,1-.172-1.066v-3.055H4.623v2.219a6.308,6.308,0,0,0,.069,1.246.682.682,0,0,0,.258.363.779.779,0,0,0,.472.134,1.015,1.015,0,0,0,.587-.179.917.917,0,0,0,.353-.444,5.139,5.139,0,0,0,.1-1.3v-2.036H7.734v4.825Z" transform="translate(-97.6 -550.667)" fill="#312783"/>
        <path id="Path_1538" data-name="Path 1538" d="M6.887,563.551l-1.157-.21a1.8,1.8,0,0,1,.671-1.036,2.468,2.468,0,0,1,1.417-.334,3.069,3.069,0,0,1,1.272.2,1.278,1.278,0,0,1,.589.513,2.662,2.662,0,0,1,.169,1.143l-.012,1.491a5.258,5.258,0,0,0,.06.938,2.862,2.862,0,0,0,.229.647H8.862c-.033-.086-.074-.21-.122-.377-.021-.076-.036-.126-.045-.15a2.3,2.3,0,0,1-.7.477,2.031,2.031,0,0,1-.795.16,1.637,1.637,0,0,1-1.174-.406,1.344,1.344,0,0,1-.43-1.021,1.392,1.392,0,0,1,.193-.73,1.273,1.273,0,0,1,.549-.489,4.275,4.275,0,0,1,1.014-.3,7.118,7.118,0,0,0,1.241-.312v-.129a.671.671,0,0,0-.181-.525,1.108,1.108,0,0,0-.687-.155.9.9,0,0,0-.53.134.917.917,0,0,0-.31.47M8.6,564.586c-.165.055-.422.119-.778.2a2.415,2.415,0,0,0-.694.222.534.534,0,0,0-.248.451.636.636,0,0,0,.2.463.7.7,0,0,0,.508.2,1.106,1.106,0,0,0,.661-.229.8.8,0,0,0,.3-.422,2.5,2.5,0,0,0,.05-.623Z" transform="translate(-94.478 -550.729)" fill="#312783"/>
        <path id="Path_1539" data-name="Path 1539" d="M7.719,565.526l1.281-.2a.94.94,0,0,0,.332.566,1.119,1.119,0,0,0,.7.193,1.259,1.259,0,0,0,.745-.182.407.407,0,0,0,.169-.341.343.343,0,0,0-.091-.241,1.027,1.027,0,0,0-.427-.167,6.861,6.861,0,0,1-1.959-.623,1.243,1.243,0,0,1-.573-1.086,1.339,1.339,0,0,1,.5-1.055,2.315,2.315,0,0,1,1.534-.425,2.663,2.663,0,0,1,1.472.322,1.654,1.654,0,0,1,.663.952l-1.205.224a.731.731,0,0,0-.294-.432,1.063,1.063,0,0,0-.613-.15,1.4,1.4,0,0,0-.723.141.3.3,0,0,0-.146.258.286.286,0,0,0,.126.234,4.935,4.935,0,0,0,1.193.358,3.56,3.56,0,0,1,1.425.568,1.185,1.185,0,0,1,.4.95,1.46,1.46,0,0,1-.554,1.141,2.456,2.456,0,0,1-1.639.477,2.685,2.685,0,0,1-1.561-.4,1.852,1.852,0,0,1-.752-1.086" transform="translate(-91.538 -550.729)" fill="#312783"/>
        <path id="Path_1540" data-name="Path 1540" d="M14.666,567.907H13.48V567.2a1.969,1.969,0,0,1-.694.616,1.82,1.82,0,0,1-.814.2,1.84,1.84,0,0,1-1.425-.668,2.74,2.74,0,0,1-.592-1.871,2.694,2.694,0,0,1,.575-1.864,1.881,1.881,0,0,1,1.46-.64,1.807,1.807,0,0,1,1.4.673v-2.4h1.277Zm-3.405-2.518a2.224,2.224,0,0,0,.21,1.117.967.967,0,0,0,.864.5.933.933,0,0,0,.749-.375,1.723,1.723,0,0,0,.31-1.122,1.885,1.885,0,0,0-.3-1.2.985.985,0,0,0-1.527,0,1.625,1.625,0,0,0-.305,1.078" transform="translate(-88.438 -551.733)" fill="#312783"/>
        <path id="Path_1541" data-name="Path 1541" d="M12.333,564.426a2.622,2.622,0,0,1,.313-1.231,2.149,2.149,0,0,1,.888-.909,2.63,2.63,0,0,1,1.284-.315,2.413,2.413,0,0,1,1.795.711,2.463,2.463,0,0,1,.7,1.8,2.49,2.49,0,0,1-.706,1.816,2.389,2.389,0,0,1-1.778.721,2.794,2.794,0,0,1-1.265-.3,2.065,2.065,0,0,1-.916-.878,2.947,2.947,0,0,1-.313-1.41m1.308.067a1.606,1.606,0,0,0,.341,1.1,1.117,1.117,0,0,0,1.678,0,1.62,1.62,0,0,0,.339-1.11,1.588,1.588,0,0,0-.339-1.091,1.117,1.117,0,0,0-1.678,0,1.6,1.6,0,0,0-.341,1.1" transform="translate(-85.141 -550.731)" fill="#312783"/>
        <path id="Path_1542" data-name="Path 1542" d="M16.092,566.9H14.815v-4.825H16v.687a2.086,2.086,0,0,1,.546-.642,1.012,1.012,0,0,1,.554-.153,1.609,1.609,0,0,1,.84.241l-.4,1.112a1.129,1.129,0,0,0-.6-.21.709.709,0,0,0-.453.148.99.99,0,0,0-.294.535,7.548,7.548,0,0,0-.107,1.618Z" transform="translate(-81.701 -550.729)" fill="#312783"/>
        <path id="Path_1543" data-name="Path 1543" d="M16.355,561.247h1.277v1.181H16.355Zm0,1.835h1.277v4.825H16.355Z" transform="translate(-79.566 -551.733)" fill="#312783"/>
        <path id="Path_1544" data-name="Path 1544" d="M17.315,564.426a2.594,2.594,0,0,1,.313-1.231,2.149,2.149,0,0,1,.888-.909,2.63,2.63,0,0,1,1.284-.315,2.416,2.416,0,0,1,1.794.711,2.463,2.463,0,0,1,.7,1.8,2.49,2.49,0,0,1-.706,1.816,2.389,2.389,0,0,1-1.778.721,2.787,2.787,0,0,1-1.265-.3,2.066,2.066,0,0,1-.916-.878,2.919,2.919,0,0,1-.313-1.41m1.308.067a1.594,1.594,0,0,0,.341,1.1,1.117,1.117,0,0,0,1.678,0,1.62,1.62,0,0,0,.339-1.11,1.588,1.588,0,0,0-.339-1.091,1.117,1.117,0,0,0-1.678,0,1.59,1.59,0,0,0-.341,1.1" transform="translate(-78.235 -550.731)" fill="#312783"/>
        <path id="Path_1545" data-name="Path 1545" d="M-.106,597.449A51.833,51.833,0,0,1-5.79,597.4a6.334,6.334,0,0,1-5.527-6.274c-.043-3.212-.053-6.424,0-9.636a6.569,6.569,0,0,1,6.493-6.445c3.155-.038,6.312-.033,9.466,0a6.587,6.587,0,0,1,6.512,6.548q.032,4.685,0,9.371a6.577,6.577,0,0,1-6.457,6.56c-1.6.019-3.2,0-4.8,0,0-.024,0-.05,0-.074m-9.5-11.163c0,1.556-.007,3.115,0,4.67a4.865,4.865,0,0,0,4.823,4.851q4.693.022,9.388,0a4.859,4.859,0,0,0,4.837-4.832q.018-4.7,0-9.4a4.844,4.844,0,0,0-4.823-4.813q-4.689-.018-9.381,0A4.872,4.872,0,0,0-9.6,581.618c-.01,1.556,0,3.112,0,4.668" transform="translate(-117.976 -532.647)" fill="#312783"/>
        <path id="Path_1546" data-name="Path 1546" d="M-2.931,589.285a6.049,6.049,0,0,1-6.226-5.868,6.056,6.056,0,0,1,5.83-6.207,6.046,6.046,0,0,1,6.247,5.842,6.033,6.033,0,0,1-5.851,6.233m-4.529-6.03a4.373,4.373,0,0,0,5.975,4.033A4.277,4.277,0,0,0,.971,584.76a4.369,4.369,0,0,0-4.088-5.854,4.374,4.374,0,0,0-4.343,4.348" transform="translate(-114.94 -529.615)" fill="#312783"/>
        <path id="Path_1547" data-name="Path 1547" d="M-3.245,576.479a.87.87,0,0,1,.852.871.826.826,0,0,1-.881.821.776.776,0,0,1-.8-.819.841.841,0,0,1,.833-.873" transform="translate(-107.892 -530.617)" fill="#312783"/>
        <path id="Path_1548" data-name="Path 1548" d="M7.548,585.1h.966a3.3,3.3,0,0,1-1.394,1.446,5.343,5.343,0,0,1-2.625.6,6.129,6.129,0,0,1-2.592-.506,3.4,3.4,0,0,1-1.62-1.5,4.451,4.451,0,0,1-.532-2.15,4.9,4.9,0,0,1,.6-2.379,3.982,3.982,0,0,1,1.654-1.651,5.049,5.049,0,0,1,2.4-.554,4.473,4.473,0,0,1,2.036.446,3.135,3.135,0,0,1,1.36,1.265,3.527,3.527,0,0,1,.47,1.792,3.363,3.363,0,0,1-.714,2.1,2.756,2.756,0,0,1-2.293,1.181,1.018,1.018,0,0,1-.568-.132.631.631,0,0,1-.253-.389,1.73,1.73,0,0,1-1.236.52,1.664,1.664,0,0,1-1.253-.52,1.922,1.922,0,0,1-.5-1.384,3.4,3.4,0,0,1,.6-1.95,2.178,2.178,0,0,1,1.864-1.071,1.305,1.305,0,0,1,1.193.618l.115-.5h1.2l-.685,3.257a2.615,2.615,0,0,0-.064.4.248.248,0,0,0,.052.169.165.165,0,0,0,.126.057A1.047,1.047,0,0,0,6.422,584a2.533,2.533,0,0,0,.749-.928,2.686,2.686,0,0,0,.286-1.2A2.447,2.447,0,0,0,6.648,580a3.189,3.189,0,0,0-2.257-.752,4.068,4.068,0,0,0-2.088.5,3.206,3.206,0,0,0-1.291,1.413,4.367,4.367,0,0,0-.432,1.9,3.264,3.264,0,0,0,.482,1.744,2.829,2.829,0,0,0,1.358,1.146,5.209,5.209,0,0,0,2,.363,5.137,5.137,0,0,0,1.866-.3,2.888,2.888,0,0,0,1.26-.907m-4.911-1.866a1.29,1.29,0,0,0,.234.85.732.732,0,0,0,.58.272.985.985,0,0,0,.484-.127,1.188,1.188,0,0,0,.341-.286,2.356,2.356,0,0,0,.415-.809,3.173,3.173,0,0,0,.177-.99,1.176,1.176,0,0,0-.239-.788.764.764,0,0,0-.6-.274,1.049,1.049,0,0,0-.721.3,1.864,1.864,0,0,0-.5.861,3.489,3.489,0,0,0-.167.99" transform="translate(-102.582 -527.942)" fill="#312783"/>
        <path id="Path_1549" data-name="Path 1549" d="M4.866,580.763l-1.157-.21a1.805,1.805,0,0,1,.673-1.036,2.456,2.456,0,0,1,1.417-.336,3.079,3.079,0,0,1,1.272.2,1.273,1.273,0,0,1,.587.513,2.618,2.618,0,0,1,.172,1.143l-.014,1.489a5.273,5.273,0,0,0,.06.94,2.879,2.879,0,0,0,.231.647H6.844a3.669,3.669,0,0,1-.124-.377c-.021-.076-.036-.126-.045-.15a2.269,2.269,0,0,1-.7.477,2.022,2.022,0,0,1-.795.16,1.637,1.637,0,0,1-1.174-.406,1.344,1.344,0,0,1-.43-1.021,1.371,1.371,0,0,1,.2-.73,1.266,1.266,0,0,1,.546-.489,4.166,4.166,0,0,1,1.014-.3,7.107,7.107,0,0,0,1.241-.312v-.129a.66.66,0,0,0-.181-.525,1.1,1.1,0,0,0-.685-.155.9.9,0,0,0-.532.134.917.917,0,0,0-.31.47M6.574,581.8a7.931,7.931,0,0,1-.776.2,2.411,2.411,0,0,0-.7.222.534.534,0,0,0-.248.451.636.636,0,0,0,.2.463.7.7,0,0,0,.508.2,1.106,1.106,0,0,0,.661-.229.8.8,0,0,0,.3-.422,2.5,2.5,0,0,0,.05-.623Z" transform="translate(-97.28 -526.871)" fill="#312783"/>
        <path id="Path_1550" data-name="Path 1550" d="M5.933,584.433l1.458.177a.5.5,0,0,0,.169.351.96.96,0,0,0,.573.136,1.486,1.486,0,0,0,.749-.15.616.616,0,0,0,.253-.322,1.882,1.882,0,0,0,.06-.585v-.706a1.725,1.725,0,0,1-1.444.783,1.781,1.781,0,0,1-1.542-.823,2.794,2.794,0,0,1-.444-1.615,2.662,2.662,0,0,1,.582-1.854,1.885,1.885,0,0,1,1.453-.642,1.762,1.762,0,0,1,1.475.787v-.678h1.2v4.329a4.336,4.336,0,0,1-.141,1.276,1.574,1.574,0,0,1-.4.664,1.76,1.76,0,0,1-.678.377,3.59,3.59,0,0,1-1.074.136,2.779,2.779,0,0,1-1.742-.42,1.319,1.319,0,0,1-.513-1.064c0-.043,0-.1,0-.155m1.141-2.83a1.735,1.735,0,0,0,.3,1.124.916.916,0,0,0,.733.358,1.007,1.007,0,0,0,.79-.367,1.581,1.581,0,0,0,.325-1.083,1.69,1.69,0,0,0-.31-1.112.982.982,0,0,0-.78-.363.943.943,0,0,0-.756.355,1.678,1.678,0,0,0-.3,1.088" transform="translate(-94.245 -526.871)" fill="#312783"/>
        <path id="Path_1551" data-name="Path 1551" d="M11.458,584.051v-.723a1.883,1.883,0,0,1-.692.611,1.951,1.951,0,0,1-.907.222,1.768,1.768,0,0,1-.873-.215,1.246,1.246,0,0,1-.558-.6,2.687,2.687,0,0,1-.172-1.067v-3.054H9.533v2.219a6.3,6.3,0,0,0,.069,1.246.681.681,0,0,0,.258.363.78.78,0,0,0,.472.134,1.014,1.014,0,0,0,.587-.179.918.918,0,0,0,.353-.444,5.141,5.141,0,0,0,.1-1.3v-2.035h1.277v4.825Z" transform="translate(-90.793 -526.809)" fill="#312783"/>
        <path id="Path_1552" data-name="Path 1552" d="M11.8,580.763l-1.157-.21a1.794,1.794,0,0,1,.673-1.036,2.453,2.453,0,0,1,1.415-.336,3.064,3.064,0,0,1,1.272.2,1.28,1.28,0,0,1,.589.513,2.664,2.664,0,0,1,.169,1.143l-.012,1.489a5.273,5.273,0,0,0,.06.94,2.863,2.863,0,0,0,.229.647H13.772c-.033-.086-.074-.21-.122-.377-.021-.076-.036-.126-.045-.15a2.3,2.3,0,0,1-.7.477,2.022,2.022,0,0,1-.795.16,1.637,1.637,0,0,1-1.174-.406,1.344,1.344,0,0,1-.43-1.021,1.392,1.392,0,0,1,.193-.73,1.272,1.272,0,0,1,.549-.489,4.165,4.165,0,0,1,1.014-.3,7.107,7.107,0,0,0,1.241-.312v-.129a.668.668,0,0,0-.181-.525,1.108,1.108,0,0,0-.687-.155.9.9,0,0,0-.53.134.917.917,0,0,0-.31.47m1.709,1.036a8.021,8.021,0,0,1-.778.2,2.415,2.415,0,0,0-.694.222.534.534,0,0,0-.248.451.636.636,0,0,0,.2.463.7.7,0,0,0,.508.2,1.106,1.106,0,0,0,.661-.229.8.8,0,0,0,.3-.422,2.5,2.5,0,0,0,.05-.623Z" transform="translate(-87.671 -526.871)" fill="#312783"/>
        <path id="Path_1553" data-name="Path 1553" d="M12.628,582.739l1.281-.2a.939.939,0,0,0,.332.565,1.118,1.118,0,0,0,.7.193,1.26,1.26,0,0,0,.745-.181.408.408,0,0,0,.169-.341.343.343,0,0,0-.091-.241,1.027,1.027,0,0,0-.427-.167,6.865,6.865,0,0,1-1.959-.623,1.243,1.243,0,0,1-.573-1.086,1.339,1.339,0,0,1,.5-1.055,2.315,2.315,0,0,1,1.534-.427,2.682,2.682,0,0,1,1.472.324,1.644,1.644,0,0,1,.663.952l-1.205.224a.731.731,0,0,0-.294-.432,1.063,1.063,0,0,0-.613-.15,1.4,1.4,0,0,0-.723.141.3.3,0,0,0-.146.258.287.287,0,0,0,.126.234,4.94,4.94,0,0,0,1.193.358,3.558,3.558,0,0,1,1.425.568,1.177,1.177,0,0,1,.4.95,1.46,1.46,0,0,1-.554,1.141,2.456,2.456,0,0,1-1.639.477,2.685,2.685,0,0,1-1.561-.4,1.852,1.852,0,0,1-.752-1.086" transform="translate(-84.732 -526.871)" fill="#312783"/>
        <path id="Path_1554" data-name="Path 1554" d="M19.576,585.118H18.39v-.709a1.952,1.952,0,0,1-.7.616,1.811,1.811,0,0,1-.811.2,1.84,1.84,0,0,1-1.425-.668,2.741,2.741,0,0,1-.592-1.871,2.679,2.679,0,0,1,.577-1.864,1.873,1.873,0,0,1,1.458-.639,1.807,1.807,0,0,1,1.4.673v-2.4h1.277ZM16.168,582.6a2.191,2.191,0,0,0,.215,1.117.961.961,0,0,0,.861.5.943.943,0,0,0,.749-.375,1.724,1.724,0,0,0,.31-1.122,1.885,1.885,0,0,0-.3-1.2.981.981,0,0,0-1.527,0,1.625,1.625,0,0,0-.308,1.079" transform="translate(-81.631 -527.873)" fill="#312783"/>
        <path id="Path_1555" data-name="Path 1555" d="M17.243,581.634a2.62,2.62,0,0,1,.313-1.229,2.148,2.148,0,0,1,.888-.909,2.63,2.63,0,0,1,1.284-.315,2.412,2.412,0,0,1,1.794.711,2.464,2.464,0,0,1,.7,1.8,2.49,2.49,0,0,1-.706,1.816,2.389,2.389,0,0,1-1.778.721,2.794,2.794,0,0,1-1.265-.3,2.066,2.066,0,0,1-.916-.878,2.95,2.95,0,0,1-.313-1.413m1.308.069a1.6,1.6,0,0,0,.341,1.1,1.112,1.112,0,0,0,1.678,0,1.609,1.609,0,0,0,.339-1.107,1.588,1.588,0,0,0-.339-1.091,1.113,1.113,0,0,0-1.678,0,1.6,1.6,0,0,0-.341,1.1" transform="translate(-78.335 -526.871)" fill="#312783"/>
        <path id="Path_1556" data-name="Path 1556" d="M21,584.113H19.725v-4.825h1.186v.687a2.084,2.084,0,0,1,.546-.642,1.012,1.012,0,0,1,.554-.153,1.608,1.608,0,0,1,.84.241l-.4,1.112a1.13,1.13,0,0,0-.6-.21.709.709,0,0,0-.453.148.99.99,0,0,0-.294.535A7.549,7.549,0,0,0,21,582.624Z" transform="translate(-74.894 -526.871)" fill="#312783"/>
        <path id="Path_1557" data-name="Path 1557" d="M21.265,578.457h1.277v1.181H21.265Zm0,1.837h1.277v4.825H21.265Z" transform="translate(-72.759 -527.875)" fill="#312783"/>
        <path id="Path_1558" data-name="Path 1558" d="M22.225,581.634a2.592,2.592,0,0,1,.313-1.229,2.148,2.148,0,0,1,.888-.909,2.63,2.63,0,0,1,1.284-.315,2.416,2.416,0,0,1,1.794.711,2.464,2.464,0,0,1,.7,1.8A2.49,2.49,0,0,1,26.5,583.5a2.389,2.389,0,0,1-1.778.721,2.787,2.787,0,0,1-1.265-.3,2.066,2.066,0,0,1-.916-.878,2.923,2.923,0,0,1-.313-1.413m1.308.069a1.584,1.584,0,0,0,.341,1.1,1.112,1.112,0,0,0,1.678,0,1.609,1.609,0,0,0,.339-1.107,1.588,1.588,0,0,0-.339-1.091,1.113,1.113,0,0,0-1.678,0,1.591,1.591,0,0,0-.341,1.1" transform="translate(-71.428 -526.871)" fill="#312783"/>
        <path id="Path_1559" data-name="Path 1559" d="M56.05,551.679l-.112-.8a.049.049,0,0,0-.055-.045h-.971a.052.052,0,0,0-.057.045l-.136.8a.108.108,0,0,1-.119.1H53.294c-.074,0-.11-.036-.091-.119l1.332-6.209a.111.111,0,0,1,.119-.1h1.5a.111.111,0,0,1,.117.1L57.6,551.66c.017.084-.021.119-.1.119H56.167a.1.1,0,0,1-.117-.1m.561-7.825-.728.926a.163.163,0,0,1-.138.067h-.99c-.084,0-.131-.048-.084-.129l.542-.928a.146.146,0,0,1,.138-.074h1.184c.093,0,.131.064.076.139m-1.508,5.8h.606c.029,0,.036-.019.036-.045l-.284-1.966c-.007-.036-.045-.036-.052,0l-.341,1.966c-.01.036.01.045.036.045" transform="translate(-28.49 -576.036)" fill="#fff"/>
        <path id="Path_1560" data-name="Path 1560" d="M57.461,545.147h1.305a.1.1,0,0,1,.107.112v4.362c0,1.329-.468,2.351-2.816,2.176a.115.115,0,0,1-.112-.119v-1.093a.1.1,0,0,1,.119-.1c1.093.055,1.267-.294,1.286-.881,0-.048-.036-.055-.064-.019a1,1,0,0,1-.826.367c-.892,0-1.258-.613-1.258-1.589v-1.7c0-1.029.394-1.587,1.258-1.587a.945.945,0,0,1,.835.413c.026.036.055.026.055-.009v-.22a.106.106,0,0,1,.11-.112m-.11,3.095v-1.46c0-.239-.129-.4-.322-.4s-.3.165-.3.4v1.46c0,.239.122.4.3.4s.322-.157.322-.4" transform="translate(-25.709 -574.152)" fill="#fff"/>
        <path id="Path_1561" data-name="Path 1561" d="M59.2,545.1h1.305a.107.107,0,0,1,.11.112v4.527a.105.105,0,0,1-.11.11H59.2a.105.105,0,0,1-.11-.11v-.119c0-.036-.026-.045-.055-.01a.928.928,0,0,1-.8.313,1.229,1.229,0,0,1-1.289-1.386v-3.324a.109.109,0,0,1,.112-.112h1.3a.109.109,0,0,1,.112.112V548.2c0,.277.1.413.294.413s.32-.146.32-.42v-2.976a.107.107,0,0,1,.11-.112" transform="translate(-23.287 -574.11)" fill="#fff"/>
        <path id="Path_1562" data-name="Path 1562" d="M62.486,546.608v3.179a.106.106,0,0,1-.11.107H61.071a.1.1,0,0,1-.11-.107v-.222c0-.038-.029-.055-.055-.019a1.067,1.067,0,0,1-.938.422c-.523.012-1.3-.155-1.3-1.441s.773-1.47,1.883-1.47h.368a.043.043,0,0,0,.045-.045v-.22a.374.374,0,0,0-.367-.413.3.3,0,0,0-.3.265.1.1,0,0,1-.11.11l-1.332-.007a.1.1,0,0,1-.112-.112,1.678,1.678,0,0,1,1.866-1.561c1.122,0,1.883.6,1.883,1.534m-1.525,1.854v-.341a.043.043,0,0,0-.045-.043h-.284a.385.385,0,0,0-.406.4.313.313,0,0,0,.313.358.406.406,0,0,0,.422-.377" transform="translate(-20.91 -574.153)" fill="#fff"/>
        <path id="Path_1563" data-name="Path 1563" d="M60.43,548.517v-.055a.105.105,0,0,1,.11-.11h1.231c.064,0,.11.029.11.064v.064a.36.36,0,0,0,.367.358.261.261,0,0,0,.277-.274c0-.294-.451-.377-.857-.516a1.513,1.513,0,0,1,.535-2.976,1.573,1.573,0,0,1,1.754,1.589.1.1,0,0,1-.112.1H62.652c-.064,0-.11-.036-.11-.091v-.093a.294.294,0,0,0-.3-.32.3.3,0,0,0-.294.32c0,.3.394.432.7.532.613.205,1.413.506,1.413,1.434,0,.883-.716,1.422-1.8,1.422-1.112,0-1.828-.577-1.828-1.451" transform="translate(-18.465 -574.153)" fill="#fff"/>
        <path id="Path_1564" data-name="Path 1564" d="M65.7,550.729l-.112-.8a.049.049,0,0,0-.055-.045h-.974a.051.051,0,0,0-.055.045l-.136.8a.108.108,0,0,1-.119.1H62.939c-.074,0-.11-.036-.093-.119l1.332-6.209a.114.114,0,0,1,.122-.1h1.5a.112.112,0,0,1,.117.1l1.332,6.209c.019.083-.019.119-.093.119H65.813a.1.1,0,0,1-.117-.1m-.947-2.021h.606c.026,0,.036-.019.036-.045l-.284-1.966c-.01-.036-.045-.036-.052,0l-.341,1.966c-.01.036.007.045.036.045" transform="translate(-15.12 -575.086)" fill="#fff"/>
        <path id="Path_1565" data-name="Path 1565" d="M68.79,546.41a1.735,1.735,0,0,1-1.732,1.931h-.6a.043.043,0,0,0-.045.048v2.331a.107.107,0,0,1-.11.11H65a.107.107,0,0,1-.11-.11v-6.209a.105.105,0,0,1,.11-.11h1.983a1.821,1.821,0,0,1,1.806,2.009m-1.522.038c0-.489-.229-.745-.551-.745h-.258a.044.044,0,0,0-.045.045v1.37a.044.044,0,0,0,.045.045h.258c.322,0,.551-.248.551-.716" transform="translate(-12.28 -575.086)" fill="#fff"/>
        <path id="Path_1566" data-name="Path 1566" d="M70.616,546.41a1.735,1.735,0,0,1-1.732,1.931h-.6a.043.043,0,0,0-.045.048v2.331a.107.107,0,0,1-.11.11h-1.3a.107.107,0,0,1-.11-.11v-6.209a.105.105,0,0,1,.11-.11H68.81a1.821,1.821,0,0,1,1.806,2.009m-1.522.038c0-.489-.229-.745-.549-.745h-.26a.044.044,0,0,0-.045.045v1.37a.044.044,0,0,0,.045.045h.26c.32,0,.549-.248.549-.716" transform="translate(-9.749 -575.086)" fill="#fff"/>
        <path id="Path_1567" data-name="Path 1567" d="M48.839,547.184a.577.577,0,0,0-.179-.048,1.474,1.474,0,0,0-.2-.012h-.033v.706h.048a1.434,1.434,0,0,0,.2-.014.5.5,0,0,0,.172-.05.375.375,0,0,0,.119-.11.33.33,0,0,0,.048-.186.3.3,0,0,0-.05-.184.306.306,0,0,0-.124-.1" transform="translate(-35.108 -571.311)" fill="#fff"/>
        <path id="Path_1568" data-name="Path 1568" d="M45.777,548.006h.656l-.329-.747Z" transform="translate(-38.777 -571.125)" fill="#fff"/>
        <path id="Path_1569" data-name="Path 1569" d="M43.156,548.006h.656l-.327-.747Z" transform="translate(-42.412 -571.125)" fill="#fff"/>
        <path id="Path_1570" data-name="Path 1570" d="M47.64,548.006H48.3l-.329-.747Z" transform="translate(-36.195 -571.125)" fill="#fff"/>
        <path id="Path_1571" data-name="Path 1571" d="M49.445,547.184a.611.611,0,0,0-.181-.048,1.453,1.453,0,0,0-.2-.012h-.033v.706h.048a1.434,1.434,0,0,0,.2-.014.508.508,0,0,0,.174-.05.375.375,0,0,0,.119-.11.33.33,0,0,0,.045-.186.3.3,0,0,0-.048-.184.322.322,0,0,0-.124-.1" transform="translate(-34.273 -571.311)" fill="#fff"/>
        <path id="Path_1572" data-name="Path 1572" d="M60.188,540.725H45.534a4.281,4.281,0,0,0-4.267,4.267v14.96a4.28,4.28,0,0,0,4.267,4.267H60.188a4.281,4.281,0,0,0,4.269-4.267v-14.96a4.281,4.281,0,0,0-4.269-4.267m-7.032,7.741a3.547,3.547,0,0,1,3.167-1.864,3.328,3.328,0,0,1,3.322,3.324,2.987,2.987,0,0,1-.021.384l-.019.167H55.473v-1.15l2.957,0a2.184,2.184,0,0,0-2.107-1.589c-.6,0-1.413.177-2.4,1.573l-.153.215-.687-.947ZM45.77,555.4l.363-.484a.038.038,0,0,1,.031-.014l.019,0,.241.126a.037.037,0,0,1,.021.031.042.042,0,0,1-.012.034l-.477.434-.026.009-.021,0-.129-.079a.044.044,0,0,1-.017-.029.026.026,0,0,1,.007-.029m1.413,2.527a.038.038,0,0,1-.033.019h-.294a.042.042,0,0,1-.036-.024l-.239-.527h-.955l-.241.527a.037.037,0,0,1-.036.024h-.294a.038.038,0,0,1-.033-.019.043.043,0,0,1,0-.038l1.048-2.284a.037.037,0,0,1,.036-.024.042.042,0,0,1,.036.024l1.048,2.284a.044.044,0,0,1,0,.038m2.188-1.04a1.183,1.183,0,0,1-.079.437,1.041,1.041,0,0,1-.224.348.992.992,0,0,1-.339.234,1.09,1.09,0,0,1-.437.086,1.146,1.146,0,0,1-.449-.093,1.233,1.233,0,0,1-.365-.26,1.285,1.285,0,0,1-.243-.375,1.189,1.189,0,0,1,.253-1.286,1.154,1.154,0,0,1,.833-.351,1.172,1.172,0,0,1,.508.115,1.135,1.135,0,0,1,.415.327.04.04,0,0,1,0,.053l-.193.184-.026.01h0a.04.04,0,0,1-.029-.017.839.839,0,0,0-.291-.246.764.764,0,0,0-.365-.1.824.824,0,0,0-.768.52.816.816,0,0,0-.067.332.8.8,0,0,0,.064.315.921.921,0,0,0,.174.277.854.854,0,0,0,.258.191.719.719,0,0,0,.317.072.666.666,0,0,0,.239-.048.746.746,0,0,0,.375-.329.586.586,0,0,0,.06-.193h-.525a.04.04,0,0,1-.038-.041v-.25a.038.038,0,0,1,.038-.041h.871a.04.04,0,0,1,.041.041Zm1.837.212a1.039,1.039,0,0,1-.06.351.827.827,0,0,1-.165.282.787.787,0,0,1-.265.191.889.889,0,0,1-.353.069.872.872,0,0,1-.353-.069.773.773,0,0,1-.267-.191.872.872,0,0,1-.167-.282,1.1,1.1,0,0,1-.055-.351v-1.386a.038.038,0,0,1,.038-.038h.274a.04.04,0,0,1,.041.038v1.3a1.439,1.439,0,0,0,.021.251.614.614,0,0,0,.076.208.4.4,0,0,0,.15.138.579.579,0,0,0,.482,0,.393.393,0,0,0,.148-.138.671.671,0,0,0,.079-.208,1.716,1.716,0,0,0,.021-.251v-1.3a.038.038,0,0,1,.038-.038h.274a.04.04,0,0,1,.041.038Zm2.231.828a.041.041,0,0,1-.033.019h-.294a.037.037,0,0,1-.036-.024l-.239-.527h-.957l-.239.527a.039.039,0,0,1-.036.024h-.3a.037.037,0,0,1-.031-.019.044.044,0,0,1,0-.038l1.048-2.284a.042.042,0,0,1,.036-.024.037.037,0,0,1,.036.024l1.048,2.284a.043.043,0,0,1,0,.038m1.394-.367a.7.7,0,0,1-.157.229.743.743,0,0,1-.234.15.787.787,0,0,1-.291.053.712.712,0,0,1-.267-.05.716.716,0,0,1-.37-.341.78.78,0,0,1-.081-.255.042.042,0,0,1,.031-.045l.277-.057h.007l.026.007a.038.038,0,0,1,.014.031.384.384,0,0,0,.029.15.4.4,0,0,0,.081.122.414.414,0,0,0,.124.076.4.4,0,0,0,.15.029.336.336,0,0,0,.146-.033.407.407,0,0,0,.117-.084.369.369,0,0,0,.074-.122.4.4,0,0,0,.029-.15.284.284,0,0,0-.029-.133.322.322,0,0,0-.074-.1.669.669,0,0,0-.117-.079,1.38,1.38,0,0,0-.134-.065l-.153-.064c-.062-.026-.124-.057-.184-.088a.745.745,0,0,1-.16-.122.535.535,0,0,1-.115-.165.6.6,0,0,1,.017-.472.627.627,0,0,1,.153-.191.718.718,0,0,1,.22-.117.762.762,0,0,1,.255-.043.683.683,0,0,1,.348.091.7.7,0,0,1,.251.262.04.04,0,0,1-.017.052l-.215.131-.021,0h-.012a.034.034,0,0,1-.021-.019.441.441,0,0,0-.131-.141.347.347,0,0,0-.186-.045.43.43,0,0,0-.122.019.29.29,0,0,0-.179.141.215.215,0,0,0-.029.11.164.164,0,0,0,.024.093.261.261,0,0,0,.067.079.34.34,0,0,0,.088.06.654.654,0,0,0,.1.045l.155.062a1.616,1.616,0,0,1,.222.107.684.684,0,0,1,.184.141.648.648,0,0,1,.122.193.762.762,0,0,1,.043.255.728.728,0,0,1-.057.291m3.052.367a.045.045,0,0,1-.036.019h-.291a.037.037,0,0,1-.036-.024l-.241-.527h-.955l-.241.527a.037.037,0,0,1-.036.024h-.294a.045.045,0,0,1-.033-.019.037.037,0,0,1,0-.038l1.048-2.284a.039.039,0,0,1,.036-.024.042.042,0,0,1,.036.024l1.048,2.284a.053.053,0,0,1,0,.038m1.32-1.267a.541.541,0,0,1-.177.21.671.671,0,0,1-.258.119,1.272,1.272,0,0,1-.305.036h-.119v.881a.042.042,0,0,1-.041.04h-.272a.04.04,0,0,1-.038-.04v-2.193a.038.038,0,0,1,.038-.038h.315a1.857,1.857,0,0,1,.432.043.74.74,0,0,1,.286.131.474.474,0,0,1,.157.217.791.791,0,0,1,.045.281.665.665,0,0,1-.064.313m-.876-3.742a3.3,3.3,0,0,1-1.895.592,3.441,3.441,0,0,1-2.52-1.157,24.744,24.744,0,0,1-1.642-2.133c-.391-.544-.761-1.06-1.06-1.429a2.205,2.205,0,1,0-1.725,3.56,2.377,2.377,0,0,0,1.809-.916c.153-.169.563-.654.568-.659l.15-.176.687.9.014.017v1.878H51.523v-.625a3.2,3.2,0,0,1-2.035.721,3.322,3.322,0,1,1,0-6.643,3.451,3.451,0,0,1,2.035.728v-.7h1.193v2.055c.169.227.351.472.535.723.52.709,1.06,1.444,1.463,1.9a2.3,2.3,0,0,0,1.721.833,2.2,2.2,0,0,0,1.639-.737h1.348a3.356,3.356,0,0,1-1.093,1.277m2.315,3.742a.562.562,0,0,1-.177.21.666.666,0,0,1-.26.119,1.238,1.238,0,0,1-.3.036h-.119v.881a.04.04,0,0,1-.038.04h-.274a.042.042,0,0,1-.041-.04v-2.193a.04.04,0,0,1,.041-.038h.315a1.857,1.857,0,0,1,.432.043.723.723,0,0,1,.286.131.5.5,0,0,1,.16.217.849.849,0,0,1,.045.281.7.7,0,0,1-.067.313" transform="translate(-45.03 -580.182)" fill="#fff"/>
        <path id="Path_1573" data-name="Path 1573" d="M51.134,580.926H46.4V569.493H44.049v-3.947H46.4c0-.749-.017-1.437,0-2.119a12.559,12.559,0,0,1,.143-1.921,3.923,3.923,0,0,1,3.634-3.4,9.729,9.729,0,0,1,1.236-.093c1.069-.012,2.141,0,3.241,0v3.952c-.437,0-.861,0-1.286,0-.367,0-.737-.012-1.1.024-.787.081-1.074.353-1.112,1.131s-.01,1.558-.01,2.4h3.563c-.143,1.353-.279,2.639-.42,3.961H51.134Z" transform="translate(-41.174 -556.226)" fill="#fff"/>
        <path id="Path_1574" data-name="Path 1574" d="M50.455,568.086,52.1,561.2h.957l-1.666,6.887Z" transform="translate(-32.293 -551.799)" fill="#fff"/>
        <path id="Path_1575" data-name="Path 1575" d="M52.972,563.551l-1.157-.21a1.8,1.8,0,0,1,.671-1.036,2.468,2.468,0,0,1,1.417-.334,3.069,3.069,0,0,1,1.272.2,1.278,1.278,0,0,1,.589.513,2.662,2.662,0,0,1,.169,1.143l-.012,1.491a5.258,5.258,0,0,0,.06.938,2.877,2.877,0,0,0,.231.647H54.947c-.033-.086-.074-.21-.122-.377-.021-.076-.036-.126-.045-.15a2.3,2.3,0,0,1-.7.477,2.031,2.031,0,0,1-.795.16,1.651,1.651,0,0,1-1.176-.406,1.351,1.351,0,0,1-.427-1.021,1.392,1.392,0,0,1,.193-.73,1.273,1.273,0,0,1,.549-.489,4.275,4.275,0,0,1,1.014-.3,7.118,7.118,0,0,0,1.241-.312v-.129a.663.663,0,0,0-.181-.525,1.108,1.108,0,0,0-.687-.155.9.9,0,0,0-.53.134.917.917,0,0,0-.31.47m1.709,1.036a7.917,7.917,0,0,1-.778.2,2.415,2.415,0,0,0-.694.222.534.534,0,0,0-.248.451.627.627,0,0,0,.2.463.7.7,0,0,0,.508.2,1.106,1.106,0,0,0,.661-.229.8.8,0,0,0,.3-.422,2.5,2.5,0,0,0,.05-.623Z" transform="translate(-30.591 -550.729)" fill="#fff"/>
        <path id="Path_1576" data-name="Path 1576" d="M54.039,567.221l1.458.177a.5.5,0,0,0,.169.351.96.96,0,0,0,.573.136,1.487,1.487,0,0,0,.749-.15.616.616,0,0,0,.253-.322,1.883,1.883,0,0,0,.06-.585v-.706a1.725,1.725,0,0,1-1.444.783,1.781,1.781,0,0,1-1.542-.823,2.794,2.794,0,0,1-.444-1.616,2.651,2.651,0,0,1,.585-1.854,1.875,1.875,0,0,1,1.451-.64,1.76,1.76,0,0,1,1.475.785v-.678h1.2v4.329a4.338,4.338,0,0,1-.141,1.277,1.574,1.574,0,0,1-.4.663,1.759,1.759,0,0,1-.678.377,3.6,3.6,0,0,1-1.076.136,2.777,2.777,0,0,1-1.74-.42,1.318,1.318,0,0,1-.513-1.064c0-.043,0-.1,0-.155m1.141-2.83a1.735,1.735,0,0,0,.3,1.124.916.916,0,0,0,.733.358,1.007,1.007,0,0,0,.79-.367,1.591,1.591,0,0,0,.325-1.081,1.679,1.679,0,0,0-.31-1.114.982.982,0,0,0-.78-.363.943.943,0,0,0-.756.356,1.678,1.678,0,0,0-.3,1.088" transform="translate(-27.556 -550.729)" fill="#fff"/>
        <path id="Path_1577" data-name="Path 1577" d="M59.564,566.841v-.723a1.9,1.9,0,0,1-.692.611,1.954,1.954,0,0,1-.907.222,1.768,1.768,0,0,1-.873-.215,1.245,1.245,0,0,1-.558-.6,2.685,2.685,0,0,1-.172-1.066v-3.055h1.277v2.219a6.309,6.309,0,0,0,.069,1.246.682.682,0,0,0,.258.363.779.779,0,0,0,.472.134,1,1,0,0,0,.585-.179.909.909,0,0,0,.356-.444,5.139,5.139,0,0,0,.1-1.3v-2.036H60.75v4.825Z" transform="translate(-24.104 -550.667)" fill="#fff"/>
        <path id="Path_1578" data-name="Path 1578" d="M59.9,563.551l-1.157-.21a1.805,1.805,0,0,1,.673-1.036,2.457,2.457,0,0,1,1.417-.334,3.064,3.064,0,0,1,1.27.2,1.266,1.266,0,0,1,.589.513,2.617,2.617,0,0,1,.172,1.143l-.014,1.491a4.992,4.992,0,0,0,.062.938,2.75,2.75,0,0,0,.229.647H61.878c-.033-.086-.074-.21-.122-.377-.021-.076-.036-.126-.045-.15a2.269,2.269,0,0,1-.7.477,2.022,2.022,0,0,1-.795.16,1.644,1.644,0,0,1-1.174-.406,1.344,1.344,0,0,1-.43-1.021,1.372,1.372,0,0,1,.2-.73,1.267,1.267,0,0,1,.546-.489,4.265,4.265,0,0,1,1.017-.3,7.136,7.136,0,0,0,1.238-.312v-.129a.663.663,0,0,0-.181-.525,1.1,1.1,0,0,0-.685-.155.9.9,0,0,0-.532.134.917.917,0,0,0-.31.47m1.709,1.036c-.162.055-.422.119-.776.2a2.411,2.411,0,0,0-.7.222.534.534,0,0,0-.248.451.636.636,0,0,0,.2.463.706.706,0,0,0,.511.2,1.1,1.1,0,0,0,.659-.229.8.8,0,0,0,.3-.422,2.5,2.5,0,0,0,.05-.623Z" transform="translate(-20.982 -550.729)" fill="#fff"/>
        <path id="Path_1579" data-name="Path 1579" d="M60.734,565.526l1.281-.2a.94.94,0,0,0,.332.566,1.119,1.119,0,0,0,.7.193,1.259,1.259,0,0,0,.745-.182.407.407,0,0,0,.169-.341.343.343,0,0,0-.091-.241,1.027,1.027,0,0,0-.427-.167,6.861,6.861,0,0,1-1.959-.623,1.243,1.243,0,0,1-.573-1.086,1.346,1.346,0,0,1,.5-1.055,2.311,2.311,0,0,1,1.534-.425,2.658,2.658,0,0,1,1.472.322,1.643,1.643,0,0,1,.663.952l-1.205.224a.738.738,0,0,0-.291-.432,1.076,1.076,0,0,0-.616-.15,1.4,1.4,0,0,0-.723.141.3.3,0,0,0-.146.258.286.286,0,0,0,.126.234,4.935,4.935,0,0,0,1.193.358,3.56,3.56,0,0,1,1.425.568,1.178,1.178,0,0,1,.4.95,1.46,1.46,0,0,1-.554,1.141,2.452,2.452,0,0,1-1.639.477,2.69,2.69,0,0,1-1.561-.4,1.852,1.852,0,0,1-.752-1.086" transform="translate(-18.043 -550.729)" fill="#fff"/>
        <path id="Path_1580" data-name="Path 1580" d="M67.68,567.907H66.5V567.2a1.929,1.929,0,0,1-.7.616,1.784,1.784,0,0,1-.807.2,1.83,1.83,0,0,1-1.425-.668,2.728,2.728,0,0,1-.592-1.871,2.682,2.682,0,0,1,.575-1.864,1.878,1.878,0,0,1,1.46-.64,1.806,1.806,0,0,1,1.4.673v-2.4H67.68Zm-3.405-2.518a2.251,2.251,0,0,0,.21,1.117.969.969,0,0,0,.864.5.944.944,0,0,0,.752-.375,1.737,1.737,0,0,0,.308-1.122,1.885,1.885,0,0,0-.3-1.2.985.985,0,0,0-1.527,0,1.638,1.638,0,0,0-.305,1.078" transform="translate(-14.941 -551.733)" fill="#fff"/>
        <path id="Path_1581" data-name="Path 1581" d="M65.349,564.426a2.622,2.622,0,0,1,.313-1.231,2.135,2.135,0,0,1,.888-.909,2.63,2.63,0,0,1,1.284-.315,2.416,2.416,0,0,1,1.795.711,2.463,2.463,0,0,1,.7,1.8,2.49,2.49,0,0,1-.706,1.816,2.389,2.389,0,0,1-1.778.721,2.787,2.787,0,0,1-1.265-.3,2.053,2.053,0,0,1-.916-.878,2.947,2.947,0,0,1-.313-1.41m1.308.067a1.594,1.594,0,0,0,.341,1.1,1.117,1.117,0,0,0,1.678,0,1.62,1.62,0,0,0,.339-1.11,1.588,1.588,0,0,0-.339-1.091,1.117,1.117,0,0,0-1.678,0,1.59,1.59,0,0,0-.341,1.1" transform="translate(-11.645 -550.731)" fill="#fff"/>
        <path id="Path_1582" data-name="Path 1582" d="M69.108,566.9H67.831v-4.825h1.186v.687a2.086,2.086,0,0,1,.546-.642,1.012,1.012,0,0,1,.554-.153,1.609,1.609,0,0,1,.84.241l-.4,1.112a1.129,1.129,0,0,0-.6-.21.709.709,0,0,0-.453.148,1.006,1.006,0,0,0-.293.535,7.546,7.546,0,0,0-.107,1.618Z" transform="translate(-8.205 -550.729)" fill="#fff"/>
        <path id="Path_1583" data-name="Path 1583" d="M69.371,561.247h1.277v1.181H69.371Zm0,1.835h1.277v4.825H69.371Z" transform="translate(-6.07 -551.733)" fill="#fff"/>
        <path id="Path_1584" data-name="Path 1584" d="M70.331,564.426a2.622,2.622,0,0,1,.313-1.231,2.149,2.149,0,0,1,.888-.909,2.63,2.63,0,0,1,1.284-.315,2.416,2.416,0,0,1,1.794.711,2.463,2.463,0,0,1,.7,1.8,2.49,2.49,0,0,1-.706,1.816,2.389,2.389,0,0,1-1.778.721,2.787,2.787,0,0,1-1.265-.3,2.066,2.066,0,0,1-.916-.878,2.947,2.947,0,0,1-.313-1.41m1.308.067a1.594,1.594,0,0,0,.341,1.1,1.117,1.117,0,0,0,1.678,0,1.62,1.62,0,0,0,.339-1.11,1.588,1.588,0,0,0-.339-1.091,1.117,1.117,0,0,0-1.678,0,1.59,1.59,0,0,0-.341,1.1" transform="translate(-4.739 -550.731)" fill="#fff"/>
        <path id="Path_1585" data-name="Path 1585" d="M52.913,597.449a51.882,51.882,0,0,1-5.687-.052,6.334,6.334,0,0,1-5.527-6.274c-.043-3.212-.052-6.424,0-9.636a6.569,6.569,0,0,1,6.5-6.445c3.155-.038,6.309-.033,9.464,0a6.587,6.587,0,0,1,6.512,6.548q.032,4.685,0,9.371a6.581,6.581,0,0,1-6.46,6.56c-1.6.019-3.2,0-4.8,0v-.074m-9.5-11.163c0,1.556-.007,3.115,0,4.67a4.866,4.866,0,0,0,4.823,4.851q4.693.022,9.388,0a4.859,4.859,0,0,0,4.837-4.832q.021-4.7,0-9.4a4.843,4.843,0,0,0-4.823-4.813q-4.689-.018-9.381,0a4.873,4.873,0,0,0-4.842,4.858c-.01,1.556,0,3.112,0,4.668" transform="translate(-44.48 -532.647)" fill="#fff"/>
        <path id="Path_1586" data-name="Path 1586" d="M50.085,589.285a6.041,6.041,0,1,1,5.849-6.233,6.048,6.048,0,0,1-5.849,6.233m-4.529-6.03a4.373,4.373,0,0,0,5.975,4.033,4.277,4.277,0,0,0,2.455-2.527,4.35,4.35,0,1,0-8.431-1.506" transform="translate(-41.444 -529.615)" fill="#fff"/>
        <path id="Path_1587" data-name="Path 1587" d="M49.77,576.479a.871.871,0,0,1,.852.871.826.826,0,0,1-.881.821.776.776,0,0,1-.8-.819.84.84,0,0,1,.833-.873" transform="translate(-34.398 -530.617)" fill="#fff"/>
        <path id="Path_1588" data-name="Path 1588" d="M60.564,585.1h.966a3.286,3.286,0,0,1-1.394,1.446,5.343,5.343,0,0,1-2.625.6,6.11,6.11,0,0,1-2.589-.506,3.4,3.4,0,0,1-1.623-1.5,4.451,4.451,0,0,1-.532-2.15,4.9,4.9,0,0,1,.6-2.379,3.982,3.982,0,0,1,1.654-1.651,5.062,5.062,0,0,1,2.4-.554,4.466,4.466,0,0,1,2.036.446,3.135,3.135,0,0,1,1.36,1.265,3.527,3.527,0,0,1,.47,1.792,3.375,3.375,0,0,1-.711,2.1,2.764,2.764,0,0,1-2.3,1.181,1.018,1.018,0,0,1-.568-.132.631.631,0,0,1-.253-.389,1.73,1.73,0,0,1-1.236.52,1.664,1.664,0,0,1-1.253-.52,1.932,1.932,0,0,1-.5-1.384,3.4,3.4,0,0,1,.6-1.95,2.178,2.178,0,0,1,1.864-1.071,1.3,1.3,0,0,1,1.193.618l.115-.5h1.2l-.687,3.257a2.616,2.616,0,0,0-.064.4.248.248,0,0,0,.052.169.165.165,0,0,0,.126.057,1.047,1.047,0,0,0,.563-.262,2.532,2.532,0,0,0,.749-.928,2.686,2.686,0,0,0,.286-1.2A2.447,2.447,0,0,0,59.664,580a3.189,3.189,0,0,0-2.257-.752,4.068,4.068,0,0,0-2.088.5,3.205,3.205,0,0,0-1.291,1.413,4.367,4.367,0,0,0-.432,1.9,3.264,3.264,0,0,0,.482,1.744,2.824,2.824,0,0,0,1.36,1.146,5.8,5.8,0,0,0,3.868.06,2.881,2.881,0,0,0,1.258-.907m-4.911-1.866a1.29,1.29,0,0,0,.234.85.732.732,0,0,0,.58.272.985.985,0,0,0,.484-.127,1.188,1.188,0,0,0,.341-.286,2.316,2.316,0,0,0,.415-.809,3.173,3.173,0,0,0,.177-.99,1.176,1.176,0,0,0-.239-.788.763.763,0,0,0-.6-.274,1.051,1.051,0,0,0-.723.3,1.864,1.864,0,0,0-.5.861,3.489,3.489,0,0,0-.167.99" transform="translate(-29.086 -527.942)" fill="#fff"/>
        <path id="Path_1589" data-name="Path 1589" d="M57.882,580.763l-1.157-.21a1.805,1.805,0,0,1,.673-1.036,2.456,2.456,0,0,1,1.417-.336,3.059,3.059,0,0,1,1.27.2,1.268,1.268,0,0,1,.589.513,2.618,2.618,0,0,1,.172,1.143l-.014,1.489a5.007,5.007,0,0,0,.062.94,2.751,2.751,0,0,0,.229.647H59.857c-.033-.086-.074-.21-.122-.377-.021-.076-.036-.126-.045-.15a2.269,2.269,0,0,1-.7.477,2.022,2.022,0,0,1-.795.16,1.645,1.645,0,0,1-1.174-.406,1.344,1.344,0,0,1-.43-1.021,1.372,1.372,0,0,1,.2-.73,1.266,1.266,0,0,1,.546-.489,4.156,4.156,0,0,1,1.017-.3,7.125,7.125,0,0,0,1.238-.312v-.129a.66.66,0,0,0-.181-.525,1.1,1.1,0,0,0-.685-.155.9.9,0,0,0-.532.134.917.917,0,0,0-.31.47M59.59,581.8a7.931,7.931,0,0,1-.776.2,2.411,2.411,0,0,0-.7.222.534.534,0,0,0-.248.451.636.636,0,0,0,.2.463.706.706,0,0,0,.511.2,1.1,1.1,0,0,0,.659-.229.8.8,0,0,0,.3-.422,2.5,2.5,0,0,0,.05-.623Z" transform="translate(-23.784 -526.871)" fill="#fff"/>
        <path id="Path_1590" data-name="Path 1590" d="M58.949,584.433l1.458.177a.51.51,0,0,0,.169.351.965.965,0,0,0,.573.136,1.486,1.486,0,0,0,.749-.15.616.616,0,0,0,.253-.322,1.883,1.883,0,0,0,.06-.585v-.706a1.725,1.725,0,0,1-1.444.783,1.781,1.781,0,0,1-1.542-.823,2.794,2.794,0,0,1-.444-1.615,2.651,2.651,0,0,1,.585-1.854,1.877,1.877,0,0,1,1.451-.642,1.762,1.762,0,0,1,1.475.787v-.678h1.2v4.329a4.336,4.336,0,0,1-.141,1.276,1.6,1.6,0,0,1-.394.664,1.771,1.771,0,0,1-.68.377,3.59,3.59,0,0,1-1.074.136,2.767,2.767,0,0,1-1.74-.42,1.314,1.314,0,0,1-.515-1.064c0-.043,0-.1,0-.155m1.141-2.83a1.735,1.735,0,0,0,.3,1.124.919.919,0,0,0,.733.358,1.015,1.015,0,0,0,.792-.367,1.605,1.605,0,0,0,.322-1.083,1.677,1.677,0,0,0-.31-1.112.982.982,0,0,0-.78-.363.946.946,0,0,0-.756.355,1.678,1.678,0,0,0-.3,1.088" transform="translate(-20.749 -526.871)" fill="#fff"/>
        <path id="Path_1591" data-name="Path 1591" d="M64.474,584.051v-.723a1.883,1.883,0,0,1-.692.611,1.951,1.951,0,0,1-.907.222,1.768,1.768,0,0,1-.873-.215,1.269,1.269,0,0,1-.558-.6,2.687,2.687,0,0,1-.172-1.067v-3.054h1.277v2.219a6.3,6.3,0,0,0,.069,1.246.681.681,0,0,0,.258.363.78.78,0,0,0,.472.134,1,1,0,0,0,.585-.179.909.909,0,0,0,.356-.444,5.141,5.141,0,0,0,.1-1.3v-2.035H65.66v4.825Z" transform="translate(-17.297 -526.809)" fill="#fff"/>
        <path id="Path_1592" data-name="Path 1592" d="M64.813,580.763l-1.157-.21a1.8,1.8,0,0,1,.671-1.036,2.467,2.467,0,0,1,1.417-.336,3.064,3.064,0,0,1,1.272.2,1.28,1.28,0,0,1,.589.513,2.655,2.655,0,0,1,.172,1.143l-.014,1.489a5.274,5.274,0,0,0,.06.94,2.88,2.88,0,0,0,.231.647H66.788c-.033-.086-.074-.21-.122-.377-.021-.076-.036-.126-.045-.15a2.269,2.269,0,0,1-.7.477,2.022,2.022,0,0,1-.795.16,1.655,1.655,0,0,1-1.176-.406,1.351,1.351,0,0,1-.427-1.021,1.371,1.371,0,0,1,.2-.73,1.266,1.266,0,0,1,.546-.489,4.166,4.166,0,0,1,1.014-.3,7.107,7.107,0,0,0,1.241-.312v-.129a.66.66,0,0,0-.181-.525,1.1,1.1,0,0,0-.685-.155.9.9,0,0,0-.532.134.917.917,0,0,0-.31.47m1.709,1.036a7.839,7.839,0,0,1-.778.2,2.415,2.415,0,0,0-.694.222.534.534,0,0,0-.248.451.627.627,0,0,0,.2.463.706.706,0,0,0,.511.2,1.1,1.1,0,0,0,.659-.229.8.8,0,0,0,.3-.422,2.5,2.5,0,0,0,.05-.623Z" transform="translate(-14.175 -526.871)" fill="#fff"/>
        <path id="Path_1593" data-name="Path 1593" d="M65.644,582.739l1.281-.2a.939.939,0,0,0,.332.565,1.118,1.118,0,0,0,.7.193,1.26,1.26,0,0,0,.745-.181.408.408,0,0,0,.169-.341.343.343,0,0,0-.091-.241,1.027,1.027,0,0,0-.427-.167,6.864,6.864,0,0,1-1.959-.623,1.243,1.243,0,0,1-.573-1.086,1.339,1.339,0,0,1,.5-1.055,2.311,2.311,0,0,1,1.534-.427,2.682,2.682,0,0,1,1.472.324,1.654,1.654,0,0,1,.663.952l-1.205.224a.738.738,0,0,0-.291-.432,1.076,1.076,0,0,0-.616-.15,1.4,1.4,0,0,0-.723.141.3.3,0,0,0-.146.258.287.287,0,0,0,.126.234,4.94,4.94,0,0,0,1.193.358,3.557,3.557,0,0,1,1.425.568,1.185,1.185,0,0,1,.4.95,1.46,1.46,0,0,1-.554,1.141,2.456,2.456,0,0,1-1.639.477,2.685,2.685,0,0,1-1.561-.4,1.852,1.852,0,0,1-.752-1.086" transform="translate(-11.236 -526.871)" fill="#fff"/>
        <path id="Path_1594" data-name="Path 1594" d="M72.592,585.118H71.406v-.709a1.953,1.953,0,0,1-.7.616,1.811,1.811,0,0,1-.811.2,1.84,1.84,0,0,1-1.425-.668,2.729,2.729,0,0,1-.592-1.871,2.679,2.679,0,0,1,.577-1.864,1.873,1.873,0,0,1,1.458-.639,1.807,1.807,0,0,1,1.4.673v-2.4h1.277ZM69.184,582.6a2.191,2.191,0,0,0,.215,1.117.961.961,0,0,0,.861.5.943.943,0,0,0,.749-.375,1.724,1.724,0,0,0,.31-1.122,1.885,1.885,0,0,0-.3-1.2.981.981,0,0,0-1.527,0,1.625,1.625,0,0,0-.308,1.079" transform="translate(-8.135 -527.873)" fill="#fff"/>
        <path id="Path_1595" data-name="Path 1595" d="M70.259,581.634a2.62,2.62,0,0,1,.313-1.229,2.148,2.148,0,0,1,.888-.909,2.63,2.63,0,0,1,1.284-.315,2.412,2.412,0,0,1,1.795.711,2.464,2.464,0,0,1,.7,1.8,2.49,2.49,0,0,1-.706,1.816,2.389,2.389,0,0,1-1.778.721,2.787,2.787,0,0,1-1.265-.3,2.066,2.066,0,0,1-.916-.878,2.95,2.95,0,0,1-.313-1.413m1.308.069a1.6,1.6,0,0,0,.341,1.1,1.112,1.112,0,0,0,1.678,0,1.609,1.609,0,0,0,.339-1.107,1.588,1.588,0,0,0-.339-1.091,1.113,1.113,0,0,0-1.678,0,1.6,1.6,0,0,0-.341,1.1" transform="translate(-4.839 -526.871)" fill="#fff"/>
        <path id="Path_1596" data-name="Path 1596" d="M74.018,584.113H72.741v-4.825h1.186v.687a2.085,2.085,0,0,1,.546-.642,1.01,1.01,0,0,1,.551-.153,1.61,1.61,0,0,1,.842.241l-.4,1.112a1.13,1.13,0,0,0-.6-.21.709.709,0,0,0-.453.148.99.99,0,0,0-.294.535,7.55,7.55,0,0,0-.107,1.618Z" transform="translate(-1.398 -526.871)" fill="#fff"/>
        <path id="Path_1597" data-name="Path 1597" d="M74.281,578.457h1.277v1.181H74.281Zm0,1.837h1.277v4.825H74.281Z" transform="translate(0.737 -527.875)" fill="#fff"/>
        <path id="Path_1598" data-name="Path 1598" d="M75.241,581.634a2.62,2.62,0,0,1,.313-1.229,2.148,2.148,0,0,1,.888-.909,2.63,2.63,0,0,1,1.284-.315,2.412,2.412,0,0,1,1.794.711,2.464,2.464,0,0,1,.7,1.8,2.49,2.49,0,0,1-.706,1.816,2.389,2.389,0,0,1-1.778.721,2.8,2.8,0,0,1-1.265-.3,2.078,2.078,0,0,1-.916-.878,2.95,2.95,0,0,1-.313-1.413m1.308.069a1.6,1.6,0,0,0,.341,1.1,1.08,1.08,0,0,0,.84.382,1.068,1.068,0,0,0,.838-.382,1.609,1.609,0,0,0,.339-1.107,1.588,1.588,0,0,0-.339-1.091,1.076,1.076,0,0,0-.838-.382,1.088,1.088,0,0,0-.84.382,1.6,1.6,0,0,0-.341,1.1" transform="translate(2.068 -526.871)" fill="#fff"/>
      </g>
    </g>
  </g>
</svg>
