<svg xmlns="http://www.w3.org/2000/svg" width="167.652" height="127.865" viewBox="0 0 167.652 127.865">
  <g id="icon-esgoto" transform="translate(233.179 -717.483)">
    <path id="Path_1100" data-name="Path 1100" d="M-167.911,728.68a15.322,15.322,0,0,1,2.667,2.02,9.842,9.842,0,0,1,.914,1,8.015,8.015,0,0,1,.468.7c.1.162.191.323.272.485.055.115.089.23.136.34a5.2,5.2,0,0,1,.2.493c.03.094.034.183.055.276s.021.162.034.243.026.162.034.242.03.161.03.243c0,.051.021.106.021.157l0,.055c0,.051-.021.106-.026.157s-.017.106-.021.162-.013.1-.021.157-.013.106-.021.157-.009.106-.021.157-.008.106-.021.162l-.034.141-.047.115c-.013.043-.034.081-.047.119l-.051.119-.047.119c-.017.042-.034.089-.055.132l-.055.136c-.017.043-.03.089-.051.132s-.03.089-.055.132l-.068.119c-.021.038-.055.077-.077.111s-.051.077-.072.111l-.077.115c-.021.034-.051.072-.072.111l-.077.11-.072.111c-.03.038-.051.073-.077.111s-.047.077-.077.111a.988.988,0,0,1-.072.111c-.026.034-.064.068-.089.1s-.064.064-.089.1l-.1.106c-.034.038-.072.072-.1.111l-.1.106-.1.111-.1.106-.1.111c-.038.034-.064.072-.1.106s-.064.073-.1.106-.077.068-.115.1-.081.06-.115.094l-.119.1c-.038.03-.081.06-.119.094l-.115.1-.132.1-.132.111c-.043.034-.085.068-.128.106s-.085.073-.132.106-.085.073-.132.106l-.14.1-.145.094c-.047.034-.1.064-.149.1l-.145.1-.149.094c-.047.034-.1.064-.149.1s-.093.064-.145.094-.106.072-.162.106-.106.073-.162.106-.106.072-.162.106l-.174.1c-.055.034-.123.063-.179.1l-.183.094c-.055.034-.119.064-.179.1l-.179.1-.183.094c-.06.034-.119.068-.179.1l-.183.1-.2.106-.2.1c-.068.034-.145.068-.217.1l-.217.094c-.072.034-.149.064-.217.1s-.149.064-.221.1-.145.064-.217.1l-.217.093c-.077.034-.145.068-.221.1s-.14.068-.217.1-.153.072-.234.1l-.259.1c-.085.034-.179.064-.264.1l-.264.094c-.085.034-.174.068-.264.1s-.174.068-.264.1-.174.068-.264.1-.174.064-.264.1-.174.064-.264.1a67.849,67.849,0,0,1-21.434,3.105,67.869,67.869,0,0,1-21.434-3.105c-.089-.034-.17-.068-.264-.1s-.174-.068-.264-.1-.174-.064-.264-.1-.174-.064-.264-.1-.179-.064-.264-.1l-.264-.094c-.085-.034-.179-.064-.264-.1s-.174-.068-.255-.1-.153-.068-.238-.1-.145-.064-.217-.1-.145-.064-.217-.1-.149-.064-.221-.093-.145-.068-.217-.1-.149-.064-.221-.1-.145-.064-.217-.1l-.217-.094c-.072-.034-.149-.068-.217-.1l-.2-.1-.2-.106-.183-.1c-.059-.03-.119-.064-.179-.1s-.119-.064-.183-.094l-.179-.1c-.059-.034-.123-.064-.179-.1l-.183-.094c-.055-.034-.123-.064-.179-.1l-.17-.1c-.06-.034-.106-.072-.166-.106s-.106-.072-.162-.106-.106-.068-.162-.106l-.145-.094-.149-.1-.145-.094c-.051-.034-.1-.064-.149-.1s-.1-.064-.149-.1l-.145-.094-.14-.1c-.047-.034-.085-.072-.132-.106s-.085-.072-.132-.106-.085-.072-.128-.106l-.132-.111-.132-.1-.115-.1c-.038-.034-.081-.064-.119-.094s-.081-.064-.115-.1-.085-.064-.119-.094l-.115-.1c-.038-.034-.064-.072-.1-.106s-.064-.072-.1-.106l-.1-.111-.1-.106-.1-.111-.1-.106c-.03-.038-.068-.072-.1-.111l-.1-.106c-.026-.034-.064-.064-.089-.1s-.064-.064-.089-.1a1.006,1.006,0,0,1-.072-.111c-.03-.034-.047-.072-.077-.111l-.072-.111c-.03-.038-.051-.072-.077-.111l-.077-.11a.976.976,0,0,0-.072-.111l-.077-.115c-.021-.034-.051-.073-.072-.111s-.055-.072-.077-.111l-.068-.119c-.021-.042-.03-.089-.055-.132s-.03-.089-.051-.132l-.055-.136c-.021-.042-.038-.089-.055-.132l-.047-.119a.979.979,0,0,1-.047-.119,1.03,1.03,0,0,1-.051-.119l-.047-.115-.034-.141c-.013-.055-.008-.106-.021-.162s-.013-.1-.021-.157l-.021-.157c-.009-.055-.017-.106-.021-.157s-.021-.106-.021-.162-.021-.106-.021-.157l-.008-.055c0-.051.017-.106.021-.157,0-.081.026-.162.03-.243s.021-.162.034-.242.017-.162.034-.243.03-.183.055-.276a5.254,5.254,0,0,1,.2-.493c.047-.111.081-.226.136-.34.081-.162.174-.323.272-.485a7.967,7.967,0,0,1,.468-.7,9.843,9.843,0,0,1,.914-1,15.648,15.648,0,0,1,2.667-2.02,37.591,37.591,0,0,1,11.255-4.224c.085-.021.162-.042.247-.059.23-.051.476-.089.71-.141a76.1,76.1,0,0,1,15.36-1.48,75.828,75.828,0,0,1,15.368,1.484c.234.047.472.085.7.136.089.021.17.043.255.059a37.65,37.65,0,0,1,11.246,4.224m5.968,9.936,0-.047a7.013,7.013,0,0,0,1.153-3.692c0-8.073-15.241-14.394-34.7-14.394s-34.7,6.321-34.7,14.394a7.014,7.014,0,0,0,1.153,3.692l0,.047c0,.034-.013.064-.013.1s.013.064.013.094-.013.064-.013.1.013.064.013.093-.013.064-.013.1.013.064.013.093-.013.064-.013.1.013.064.013.094-.013.064-.013.1.013.064.013.1-.013.06-.013.094.013.064.013.1-.013.064-.013.093.013.064.013.1-.013.064-.013.094.013.064.013.1-.013.064-.013.094.013.063.013.1-.013.064-.013.094.013.064.013.1-.013.064-.013.093.013.068.013.1-.013.064-.013.1.013.064.013.093-.013.064-.013.1.013.064.013.094-.013.064-.013.1.013.064.013.094-.013.064-.013.1.013.064.013.094-.013.064-.013.1.013.064.013.1-.013.06-.013.094.013.064.013.1-.013.064-.013.093.013.064.013.1-.013.064-.013.094.013.064.013.1-.013.064-.013.094.013.064.013.1-.013.064-.013.1.013.059.013.094-.013.064-.013.1.013.06.013.094-.013.064-.013.1.013.064.013.094-.013.064-.013.1.013.063.013.093-.013.064-.013.1.013.064.013.094-.013.064-.013.1.013.064.013.094-.013.064-.013.1.013.064.013.1-.013.064-.013.094.013.063.013.1-.013.064-.013.094.013.064.013.1-.013.064-.013.093.013.064.013.1-.013.064-.013.1.013.06.013.093-.013.064-.013.1.013.064.013.094-.013.064-.013.1.013.064.013.094-.013.064-.013.1.013.064.013.093-.013.064-.013.1.013.064.013.093-.013.064-.013.1.013.064.013.094-.013.064-.013.1.013.064.013.1-.013.06-.013.094.013.064.013.1-.013.063-.013.093.013.064.013.1-.013.064-.013.094.013.064.013.1-.013.064-.013.094.013.064.013.1-.013.064-.013.1.013.06.013.094-.013.064-.013.1.013.063.013.093-.013.064-.013.1.013.064.013.093-.013.064-.013.1.013.064.013.094-.013.064-.013.1.013.064.013.094-.013.064-.013.1.013.063.013.1-.013.06-.013.094.013.064.013.1-.013.064-.013.093.013.064.013.1-.013.064-.013.094.013.064.013.1-.013.064-.013.094.013.064.013.1-.013.064-.013.094.013.064.013.1-.013.064-.013.1.013.059.013.094-.013.064-.013.1.013.064.013.094-.013.063-.013.1.013.064.013.094-.013.064-.013.1.013.064.013.093-.013.064-.013.1.013.064.013.094-.013.068-.013.1.013.064.013.1-.013.064-.013.094.013.064.013.1-.013.064-.013.094.013.064.013.1-.013.064-.013.094.013.064.013.1-.013.064-.013.093.013.064.013.1-.013.064-.013.1.013.06.013.093-.013.064-.013.1.013.064.013.094-.013.064-.013.1.013.064.013.093-.013.064-.013.1.013.064.013.094-.013.064-.013.1.013.064.013.094-.013.064-.013.1.013.064.013.1-.013.06-.013.094.013.064.013.1-.013.064-.013.094.013.064.013.1-.013.064-.013.094.013.064.013.1-.013.064-.013.094.013.064.013.1-.013.064-.013.1.013.06.013.094-.013.063-.013.1.013.064.013.094-.013.064-.013.1.013.064.013.093-.013.064-.013.1.013.064.013.094-.013.064-.013.1.013.064.013.094-.013.063-.013.1.013.064.013.094-.013.064-.013.1.013.064.013.1-.013.064-.013.094.013.064.013.1-.013.064-.013.093c0,7.316,15.024,13.25,33.552,13.25s33.552-5.934,33.552-13.25c0-.029-.013-.064-.013-.093s.013-.064.013-.1-.013-.064-.013-.094.013-.064.013-.1-.013-.064-.013-.1.013-.059.013-.094-.013-.064-.013-.1.013-.06.013-.094-.013-.064-.013-.1.013-.064.013-.094-.013-.064-.013-.1.013-.064.013-.093-.013-.064-.013-.1.013-.064.013-.094-.013-.063-.013-.1.013-.064.013-.094-.013-.064-.013-.1.013-.064.013-.1-.013-.064-.013-.094.013-.064.013-.1-.013-.064-.013-.094.013-.064.013-.1-.013-.064-.013-.094.013-.064.013-.1-.013-.064-.013-.094.013-.064.013-.1-.013-.064-.013-.1.013-.064.013-.094-.013-.064-.013-.1.013-.059.013-.094-.013-.064-.013-.1.013-.064.013-.093-.013-.064-.013-.1.013-.064.013-.094-.013-.064-.013-.1.013-.063.013-.093-.013-.064-.013-.1.013-.064.013-.1-.013-.064-.013-.093.013-.064.013-.1-.013-.064-.013-.094.013-.064.013-.1-.013-.064-.013-.094.013-.063.013-.1-.013-.064-.013-.094.013-.064.013-.1-.013-.064-.013-.1.013-.064.013-.094-.013-.064-.013-.1.013-.064.013-.093-.013-.064-.013-.1.013-.064.013-.094-.013-.064-.013-.1.013-.064.013-.094-.013-.064-.013-.1.013-.064.013-.094-.013-.064-.013-.1.013-.064.013-.1-.013-.06-.013-.094.013-.064.013-.1-.013-.064-.013-.094.013-.064.013-.1-.013-.064-.013-.094.013-.064.013-.1-.013-.063-.013-.093.013-.064.013-.1-.013-.064-.013-.094.013-.064.013-.1-.013-.064-.013-.1.013-.064.013-.094-.013-.064-.013-.1.013-.064.013-.094-.013-.064-.013-.1.013-.063.013-.093-.013-.064-.013-.1.013-.064.013-.093-.013-.064-.013-.1.013-.064.013-.094-.013-.064-.013-.1.013-.064.013-.1-.013-.06-.013-.094.013-.064.013-.1-.013-.064-.013-.094.013-.064.013-.1-.013-.064-.013-.093.013-.064.013-.1-.013-.064-.013-.094.013-.064.013-.1-.013-.064-.013-.1.013-.06.013-.094-.013-.064-.013-.1.013-.064.013-.093-.013-.064-.013-.1.013-.064.013-.093-.013-.064-.013-.1.013-.064.013-.094-.013-.063-.013-.1.013-.064.013-.094-.013-.064-.013-.1.013-.064.013-.093-.013-.064-.013-.1.013-.064.013-.1-.013-.064-.013-.093.013-.064.013-.1-.013-.064-.013-.094.013-.064.013-.1-.013-.064-.013-.094.013-.064.013-.1-.013-.064-.013-.1.013-.06.013-.094-.013-.064-.013-.1.013-.064.013-.094-.013-.064-.013-.1.013-.064.013-.093-.013-.064-.013-.1.013-.064.013-.094-.013-.064-.013-.1.013-.064.013-.094-.013-.064-.013-.1.013-.064.013-.094-.013-.064-.013-.1.013-.064.013-.1-.013-.064-.013-.094.013-.064.013-.1-.013-.064-.013-.094.013-.064.013-.1-.013-.063-.013-.093.013-.064.013-.1-.013-.064-.013-.094.013-.064.013-.1-.013-.064-.013-.1.013-.059.013-.094-.013-.064-.013-.1.013-.064.013-.094-.013-.063-.013-.1.013-.064.013-.094-.013-.064-.013-.1.013-.064.013-.093-.013-.064-.013-.1.013-.064.013-.1-.013-.059-.013-.093.013-.064.013-.1-.013-.064-.013-.094.013-.064.013-.1-.013-.064-.013-.094.013-.064.013-.1-.013-.064-.013-.094.013-.064.013-.1-.013-.064-.013-.093.013-.064.013-.1-.013-.064-.013-.094.013-.064.013-.1-.013-.063-.013-.1.013-.064.013-.094-.013-.064-.013-.1.013-.064.013-.093-.013-.064-.013-.1.013-.064.013-.093-.013-.064-.013-.1.013-.064.013-.094-.013-.064-.013-.1" transform="translate(0 0)" fill="none" stroke="#fff" stroke-linecap="round" stroke-linejoin="round" stroke-width="6"/>
    <path id="Path_1101" data-name="Path 1101" d="M-146.221,728.68a15.315,15.315,0,0,1,2.667,2.02,9.847,9.847,0,0,1,.915,1,8.015,8.015,0,0,1,.468.7c.1.162.191.323.272.485.055.115.089.23.136.34a5.225,5.225,0,0,1,.2.493c.03.094.034.183.055.276s.021.162.034.243.026.162.034.242.03.161.03.243c0,.051.021.106.021.157l-.009.055c0,.051-.017.106-.021.157s-.017.106-.021.162-.013.1-.021.157-.013.106-.021.157-.009.106-.021.157-.009.106-.021.162l-.034.141-.047.115c-.013.043-.034.081-.047.119l-.051.119-.047.119c-.017.042-.034.089-.055.132l-.055.136c-.017.043-.03.089-.051.132s-.034.089-.055.132-.047.081-.068.119-.055.077-.077.111-.051.077-.072.111l-.077.115c-.021.034-.051.072-.072.111l-.076.11c-.026.038-.047.073-.077.111s-.042.073-.072.111-.047.077-.077.111a.984.984,0,0,1-.072.111c-.026.034-.064.068-.089.1s-.064.064-.089.1l-.1.106-.1.111-.1.106-.1.111-.1.106-.1.111c-.038.034-.064.072-.1.106s-.064.073-.1.106-.077.068-.115.1-.081.06-.115.094l-.119.1c-.038.03-.081.06-.119.094l-.115.1-.132.1-.128.111c-.047.034-.085.068-.132.106s-.085.073-.132.106-.085.073-.132.106l-.14.1-.145.094c-.047.034-.1.064-.149.1l-.145.1-.149.094c-.047.034-.1.064-.149.1s-.094.064-.145.094-.106.072-.162.106-.106.073-.162.106-.106.072-.162.106l-.174.1c-.055.034-.123.063-.179.1l-.179.094c-.06.034-.123.064-.183.1l-.179.1c-.059.03-.119.064-.183.094s-.119.068-.179.1l-.183.1-.2.106-.2.1c-.068.034-.145.068-.217.1l-.217.094c-.072.034-.149.064-.217.1s-.149.064-.221.1-.145.064-.217.1l-.217.093c-.077.034-.145.068-.221.1s-.14.068-.217.1-.153.072-.234.1l-.259.1c-.085.034-.179.064-.264.1l-.264.094c-.085.034-.174.068-.264.1s-.174.068-.264.1-.174.068-.264.1-.174.064-.264.1-.174.064-.264.1a67.849,67.849,0,0,1-21.434,3.105,67.869,67.869,0,0,1-21.434-3.105c-.089-.034-.17-.068-.264-.1s-.174-.068-.264-.1-.174-.064-.264-.1-.174-.064-.264-.1-.179-.064-.264-.1l-.264-.094c-.085-.034-.179-.064-.264-.1s-.174-.068-.255-.1-.153-.068-.238-.1-.145-.064-.217-.1-.145-.064-.217-.1-.149-.064-.221-.093-.145-.068-.217-.1-.149-.064-.221-.1-.145-.064-.217-.1l-.217-.094c-.072-.034-.149-.068-.217-.1l-.2-.1-.2-.106-.183-.1c-.059-.03-.119-.064-.179-.1l-.183-.094-.179-.1c-.059-.034-.123-.064-.179-.1l-.183-.094c-.055-.034-.123-.064-.179-.1l-.17-.1c-.06-.034-.106-.072-.166-.106s-.106-.072-.162-.106-.106-.068-.162-.106l-.145-.094-.149-.1-.145-.094c-.051-.034-.1-.064-.149-.1s-.1-.064-.149-.1l-.145-.094-.14-.1c-.047-.034-.085-.072-.132-.106s-.085-.072-.132-.106-.085-.072-.128-.106l-.132-.111-.132-.1-.115-.1c-.038-.034-.081-.064-.119-.094s-.081-.064-.115-.1-.085-.064-.119-.094l-.115-.1c-.038-.034-.064-.072-.1-.106s-.064-.072-.1-.106l-.1-.111-.1-.106-.1-.111-.1-.106c-.03-.038-.068-.072-.1-.111l-.1-.106c-.026-.034-.064-.064-.089-.1s-.064-.064-.089-.1a.988.988,0,0,1-.072-.111c-.03-.034-.047-.072-.077-.111l-.072-.111c-.03-.038-.051-.072-.077-.111l-.077-.11c-.021-.038-.051-.077-.072-.111l-.077-.115c-.021-.034-.051-.073-.072-.111s-.055-.072-.077-.111-.047-.077-.068-.119-.034-.089-.055-.132-.03-.089-.051-.132l-.055-.136c-.021-.042-.038-.089-.055-.132l-.047-.119a.978.978,0,0,1-.047-.119,1.025,1.025,0,0,1-.051-.119l-.047-.115-.034-.141c-.013-.055-.009-.106-.021-.162l-.021-.157-.021-.157c-.008-.055-.017-.106-.021-.157s-.021-.106-.021-.162-.021-.106-.021-.157l-.008-.055c0-.051.017-.106.021-.157a2.342,2.342,0,0,1,.034-.243,2.314,2.314,0,0,1,.03-.242c.013-.081.017-.162.034-.243s.03-.183.055-.276a5.221,5.221,0,0,1,.2-.493c.047-.111.081-.226.14-.34a5.491,5.491,0,0,1,.268-.485,8.015,8.015,0,0,1,.468-.7,9.436,9.436,0,0,1,.919-1,15.437,15.437,0,0,1,2.663-2.02,37.59,37.59,0,0,1,11.255-4.224c.085-.021.162-.042.247-.059.23-.051.476-.089.71-.141a76.1,76.1,0,0,1,15.36-1.48,75.829,75.829,0,0,1,15.368,1.484c.234.047.472.085.7.136.089.021.17.043.255.059a37.648,37.648,0,0,1,11.246,4.224m5.968,9.936,0-.047a7.013,7.013,0,0,0,1.153-3.692c0-8.073-15.241-14.394-34.7-14.394s-34.7,6.321-34.7,14.394a7.013,7.013,0,0,0,1.153,3.692l0,.047c0,.034-.013.064-.013.1s.013.064.013.094-.013.064-.013.1.013.064.013.093-.013.064-.013.1.013.064.013.093-.013.064-.013.1.013.064.013.094-.013.064-.013.1.013.064.013.1-.013.06-.013.094.013.064.013.1-.013.064-.013.093.013.064.013.1-.013.064-.013.094.013.064.013.1-.013.064-.013.094.013.063.013.1-.013.064-.013.094.013.064.013.1-.013.064-.013.093.013.068.013.1-.013.064-.013.1.013.064.013.093-.013.064-.013.1.013.064.013.094-.013.064-.013.1.013.064.013.094-.013.064-.013.1.013.064.013.094-.013.064-.013.1.013.064.013.1-.013.06-.013.094.013.064.013.1-.013.064-.013.093.013.064.013.1-.013.064-.013.094.013.064.013.1-.013.064-.013.094.013.064.013.1-.013.064-.013.1.013.059.013.094-.013.064-.013.1.013.06.013.094-.013.064-.013.1.013.064.013.094-.013.064-.013.1.013.063.013.093-.013.064-.013.1.013.064.013.094-.013.064-.013.1.013.064.013.094-.013.064-.013.1.013.064.013.1-.013.064-.013.094.013.063.013.1-.013.064-.013.094.013.064.013.1-.013.064-.013.093.013.064.013.1-.013.064-.013.1.013.06.013.093-.013.064-.013.1.013.064.013.094-.013.064-.013.1.013.064.013.094-.013.064-.013.1.013.064.013.093-.013.064-.013.1.013.064.013.093-.013.064-.013.1.013.064.013.094-.013.064-.013.1.013.064.013.1-.013.06-.013.094.013.064.013.1-.013.063-.013.093.013.064.013.1-.013.064-.013.094.013.064.013.1-.013.064-.013.094.013.064.013.1-.013.064-.013.1.013.06.013.094-.013.064-.013.1.013.063.013.093-.013.064-.013.1.013.064.013.093-.013.064-.013.1.013.064.013.094-.013.064-.013.1.013.064.013.094-.013.064-.013.1.013.063.013.1-.013.06-.013.094.013.064.013.1-.013.064-.013.093.013.064.013.1-.013.064-.013.094.013.064.013.1-.013.064-.013.094.013.064.013.1-.013.064-.013.094.013.064.013.1-.013.064-.013.1.013.059.013.094-.013.064-.013.1.013.064.013.094-.013.063-.013.1.013.064.013.094-.013.064-.013.1.013.064.013.093-.013.064-.013.1.013.064.013.094-.013.068-.013.1.013.064.013.1-.013.064-.013.094.013.064.013.1-.013.064-.013.094.013.064.013.1-.013.064-.013.094.013.064.013.1-.013.064-.013.093.013.064.013.1-.013.064-.013.1.013.06.013.093-.013.064-.013.1.013.064.013.094-.013.064-.013.1.013.064.013.093-.013.064-.013.1.013.064.013.094-.013.064-.013.1.013.064.013.094-.013.064-.013.1.013.064.013.1-.013.06-.013.094.013.064.013.1-.013.064-.013.094.013.064.013.1-.013.064-.013.094.013.064.013.1-.013.064-.013.094.013.064.013.1-.013.064-.013.1.013.06.013.094-.013.063-.013.1.013.064.013.094-.013.064-.013.1.013.064.013.093-.013.064-.013.1.013.064.013.094-.013.064-.013.1.013.064.013.094-.013.063-.013.1.013.064.013.094-.013.064-.013.1.013.064.013.1-.013.064-.013.094.013.064.013.1-.013.064-.013.093c0,7.316,15.024,13.25,33.552,13.25s33.552-5.934,33.552-13.25c0-.029-.013-.064-.013-.093s.013-.064.013-.1-.013-.064-.013-.094.013-.064.013-.1-.013-.064-.013-.1.013-.059.013-.094-.013-.064-.013-.1.013-.06.013-.094-.013-.064-.013-.1.013-.064.013-.094-.013-.064-.013-.1.013-.064.013-.093-.013-.064-.013-.1.013-.064.013-.094-.013-.063-.013-.1.013-.064.013-.094-.013-.064-.013-.1.013-.064.013-.1-.013-.064-.013-.094.013-.064.013-.1-.013-.064-.013-.094.013-.064.013-.1-.013-.064-.013-.094.013-.064.013-.1-.013-.064-.013-.094.013-.064.013-.1-.013-.064-.013-.1.013-.064.013-.094-.013-.064-.013-.1.013-.059.013-.094-.013-.064-.013-.1.013-.064.013-.093-.013-.064-.013-.1.013-.064.013-.094-.013-.064-.013-.1.013-.063.013-.093-.013-.064-.013-.1.013-.064.013-.1-.013-.064-.013-.093.013-.064.013-.1-.013-.064-.013-.094.013-.064.013-.1-.013-.064-.013-.094.013-.063.013-.1-.013-.064-.013-.094.013-.064.013-.1-.013-.064-.013-.1.013-.064.013-.094-.013-.064-.013-.1.013-.064.013-.093-.013-.064-.013-.1.013-.064.013-.094-.013-.064-.013-.1.013-.064.013-.094-.013-.064-.013-.1.013-.064.013-.094-.013-.064-.013-.1.013-.064.013-.1-.013-.06-.013-.094.013-.064.013-.1-.013-.064-.013-.094.013-.064.013-.1-.013-.064-.013-.094.013-.064.013-.1-.013-.063-.013-.093.013-.064.013-.1-.013-.064-.013-.094.013-.064.013-.1-.013-.064-.013-.1.013-.064.013-.094-.013-.064-.013-.1.013-.064.013-.094-.013-.064-.013-.1.013-.063.013-.093-.013-.064-.013-.1.013-.064.013-.093-.013-.064-.013-.1.013-.064.013-.094-.013-.064-.013-.1.013-.064.013-.1-.013-.06-.013-.094.013-.064.013-.1-.013-.064-.013-.094.013-.064.013-.1-.013-.064-.013-.093.013-.064.013-.1-.013-.064-.013-.094.013-.064.013-.1-.013-.064-.013-.1.013-.06.013-.094-.013-.064-.013-.1.013-.064.013-.093-.013-.064-.013-.1.013-.064.013-.093-.013-.064-.013-.1.013-.064.013-.094-.013-.063-.013-.1.013-.064.013-.094-.013-.064-.013-.1.013-.064.013-.093-.013-.064-.013-.1.013-.064.013-.1-.013-.064-.013-.093.013-.064.013-.1-.013-.064-.013-.094.013-.064.013-.1-.013-.064-.013-.094.013-.064.013-.1-.013-.064-.013-.1.013-.06.013-.094-.013-.064-.013-.1.013-.064.013-.094-.013-.064-.013-.1.013-.064.013-.093-.013-.064-.013-.1.013-.064.013-.094-.013-.064-.013-.1.013-.064.013-.094-.013-.064-.013-.1.013-.064.013-.094-.013-.064-.013-.1.013-.064.013-.1-.013-.064-.013-.094.013-.064.013-.1-.013-.064-.013-.094.013-.064.013-.1-.013-.063-.013-.093.013-.064.013-.1-.013-.064-.013-.094.013-.064.013-.1-.013-.064-.013-.1.013-.059.013-.094-.013-.064-.013-.1.013-.064.013-.094-.013-.063-.013-.1.013-.064.013-.094-.013-.064-.013-.1.013-.064.013-.093-.013-.064-.013-.1.013-.064.013-.1-.013-.059-.013-.093.013-.064.013-.1-.013-.064-.013-.094.013-.064.013-.1-.013-.064-.013-.094.013-.064.013-.1-.013-.064-.013-.094.013-.064.013-.1-.013-.064-.013-.093.013-.064.013-.1-.013-.064-.013-.094.013-.064.013-.1-.013-.063-.013-.1.013-.064.013-.094-.013-.064-.013-.1.013-.064.013-.093-.013-.064-.013-.1.013-.064.013-.093-.013-.064-.013-.1.013-.064.013-.094-.013-.064-.013-.1" transform="translate(70.57 0)" fill="none" stroke="#fff" stroke-linecap="round" stroke-linejoin="round" stroke-width="6"/>
    <path id="Path_1103" data-name="Path 1103" d="M-202.2,753.725l-3.78-1.952,10.12-20.763,3.78,1.952Z" transform="translate(78.736 34.25)" fill="#fff"/>
    <path id="Path_1104" data-name="Path 1104" d="M-208.344,753.6l-11.164-20.6,3.78-1.944,11.164,20.6Z" transform="translate(34.718 34.376)" fill="#fff"/>
    <path id="Path_1102" data-name="Path 1102" d="M-142.388,745.565A19.7,19.7,0,0,1-139,748.129a12.676,12.676,0,0,1,1.165,1.272c.225.3.413.591.6.889.123.2.242.408.345.612.068.145.115.289.174.434.085.213.2.421.255.629.034.115.042.234.068.349s.026.2.043.307.03.208.043.31.038.208.043.311c0,.064.026.132.026.2l-.008.072c0,.068-.026.136-.03.2s-.021.132-.026.2l-.03.2-.026.2c-.013.064-.013.132-.03.2s-.008.132-.026.2-.026.119-.043.179-.047.1-.059.153-.047.1-.064.149-.043.1-.06.149-.043.1-.059.153l-.072.17c-.021.055-.043.11-.068.166s-.038.115-.068.17-.038.115-.068.17-.059.1-.089.153-.064.094-.094.14-.068.094-.094.141-.068.094-.1.14l-.094.14c-.03.051-.064.1-.094.145l-.1.14c-.034.047-.059.093-.094.141s-.06.094-.094.14-.06.1-.1.145-.077.081-.111.123l-.115.119c-.038.047-.089.094-.132.14s-.085.089-.128.136l-.128.136c-.047.047-.089.094-.132.141l-.132.136c-.043.047-.081.094-.128.136s-.081.094-.128.14-.081.089-.132.136-.1.085-.145.123-.1.081-.149.123-.1.081-.149.123l-.149.119c-.047.042-.1.081-.149.123l-.166.136c-.055.043-.111.089-.166.136s-.111.09-.166.136-.111.089-.166.132-.106.093-.17.136l-.174.132c-.06.038-.128.077-.187.119s-.128.081-.187.123-.128.081-.187.123-.128.081-.187.119-.123.085-.187.123l-.187.123c-.072.042-.136.089-.2.136s-.136.089-.208.132-.132.094-.2.136-.145.085-.221.128-.153.081-.225.123-.157.081-.23.123-.157.081-.23.123l-.23.123c-.077.038-.153.081-.23.124l-.23.119c-.077.042-.149.085-.23.123s-.162.094-.247.136-.162.089-.251.132-.187.085-.277.128-.187.081-.276.123-.187.081-.277.123-.187.081-.281.119-.183.085-.276.128-.183.081-.276.123-.183.081-.281.119-.179.085-.277.123-.191.094-.3.132-.221.085-.327.127-.225.081-.336.123-.225.081-.336.123-.221.085-.332.124-.225.085-.336.123-.221.085-.336.123-.221.085-.336.123-.221.085-.336.123c-7.006,2.386-16.325,3.952-27.244,3.952s-20.239-1.565-27.248-3.952c-.115-.038-.217-.081-.332-.123s-.221-.081-.336-.123-.225-.081-.336-.123-.225-.081-.336-.123-.225-.081-.336-.124-.225-.081-.336-.123-.225-.081-.336-.123-.217-.081-.323-.127-.2-.085-.3-.132-.183-.081-.276-.123-.183-.081-.276-.119-.187-.085-.277-.123l-.281-.128-.276-.119c-.089-.042-.187-.085-.277-.123s-.191-.081-.281-.123-.187-.085-.272-.128-.162-.089-.251-.132-.162-.089-.251-.136-.149-.081-.23-.123-.149-.081-.225-.119-.153-.085-.23-.124-.157-.081-.23-.123-.157-.081-.23-.123-.157-.081-.23-.123-.157-.081-.23-.123l-.217-.128c-.072-.042-.136-.089-.208-.136s-.132-.089-.2-.132-.136-.093-.2-.136-.128-.081-.187-.123-.128-.081-.187-.123-.128-.081-.187-.119-.128-.081-.187-.123-.128-.081-.187-.123-.132-.081-.187-.119-.119-.089-.179-.132-.106-.09-.166-.136-.106-.089-.166-.132-.111-.094-.166-.136-.111-.093-.166-.136l-.166-.136c-.051-.042-.1-.081-.149-.123s-.1-.081-.149-.119-.106-.081-.149-.123-.106-.081-.149-.123-.1-.081-.145-.123-.085-.094-.132-.136-.085-.094-.132-.14-.081-.089-.128-.136-.085-.093-.128-.136-.089-.093-.132-.141-.089-.089-.128-.136-.089-.089-.132-.136-.089-.094-.128-.14-.085-.081-.119-.119-.077-.085-.111-.123-.06-.1-.094-.145-.06-.093-.1-.14-.06-.094-.094-.141-.059-.094-.094-.14l-.1-.145-.094-.14-.094-.14c-.03-.047-.068-.094-.094-.141s-.072-.093-.1-.14-.06-.1-.085-.153-.043-.111-.068-.17-.043-.111-.072-.17-.043-.111-.068-.166-.047-.115-.068-.17-.043-.1-.06-.153a1.577,1.577,0,0,1-.064-.149c-.017-.051-.043-.1-.06-.149s-.047-.1-.059-.153-.03-.119-.043-.179-.013-.132-.03-.2-.017-.136-.026-.2-.021-.136-.03-.2-.021-.132-.026-.2-.026-.136-.03-.2-.026-.136-.026-.2l-.013-.072c0-.064.025-.132.03-.2,0-.1.03-.208.042-.311s.026-.2.043-.31a2.521,2.521,0,0,1,.043-.307c.026-.115.034-.234.068-.349.06-.208.17-.417.251-.629.06-.145.106-.289.179-.434.1-.2.221-.408.345-.612a8.982,8.982,0,0,1,.6-.889,13.156,13.156,0,0,1,1.161-1.272,19.583,19.583,0,0,1,3.39-2.565,47.671,47.671,0,0,1,14.309-5.372l.311-.077c.293-.064.6-.115.906-.175a96.292,96.292,0,0,1,19.524-1.889,96.727,96.727,0,0,1,19.537,1.889c.293.06.6.115.889.175.115.025.217.055.327.081a47.674,47.674,0,0,1,14.3,5.368m7.584,12.629.009-.06a8.918,8.918,0,0,0,1.463-4.7c0-10.259-19.375-18.3-44.105-18.3s-44.11,8.039-44.11,18.3a8.885,8.885,0,0,0,1.468,4.7l.008.06a1.208,1.208,0,0,0-.017.123,1.158,1.158,0,0,0,.017.119,1.2,1.2,0,0,0-.017.123,1.217,1.217,0,0,0,.017.123,1.135,1.135,0,0,0-.017.119,1.236,1.236,0,0,0,.017.123,1.208,1.208,0,0,0-.017.123,1.144,1.144,0,0,0,.017.119,1.219,1.219,0,0,0-.017.123,1.218,1.218,0,0,0,.017.123,1.123,1.123,0,0,0-.017.119,1.224,1.224,0,0,0,.017.123,1.073,1.073,0,0,0-.017.123,1.149,1.149,0,0,0,.017.119,1.2,1.2,0,0,0-.017.123,1.213,1.213,0,0,0,.017.123,1.139,1.139,0,0,0-.017.119,1.219,1.219,0,0,0,.017.123,1.22,1.22,0,0,0-.017.123,1.154,1.154,0,0,0,.017.119,1.217,1.217,0,0,0-.017.123,1.146,1.146,0,0,0,.017.119,1.212,1.212,0,0,0-.017.123,1.218,1.218,0,0,0,.017.123,1.213,1.213,0,0,0-.017.123,1.144,1.144,0,0,0,.017.119,1.221,1.221,0,0,0-.017.123c0,.038.013.081.017.123a.99.99,0,0,0-.017.119,1.212,1.212,0,0,0,.017.123,1.067,1.067,0,0,0-.017.123,1.155,1.155,0,0,0,.017.119,1.212,1.212,0,0,0-.017.123,1.217,1.217,0,0,0,.017.123,1,1,0,0,0-.017.119,1.221,1.221,0,0,0,.017.123,1.122,1.122,0,0,0-.017.119,1.212,1.212,0,0,0,.017.123,1.218,1.218,0,0,0-.017.123,1.146,1.146,0,0,0,.017.119c0,.043-.017.085-.017.123a1.215,1.215,0,0,0,.017.123,1.074,1.074,0,0,0-.017.123c0,.038.013.077.017.119a1.219,1.219,0,0,0-.017.123,1.155,1.155,0,0,0,.017.119,1.217,1.217,0,0,0-.017.123,1.218,1.218,0,0,0,.017.123,1.128,1.128,0,0,0-.017.119,1.215,1.215,0,0,0,.017.123,1.218,1.218,0,0,0-.017.123,1.142,1.142,0,0,0,.017.119,1.218,1.218,0,0,0-.017.123,1.221,1.221,0,0,0,.017.123,1.133,1.133,0,0,0-.017.119,1.208,1.208,0,0,0,.017.123,1.22,1.22,0,0,0-.017.123,1.135,1.135,0,0,0,.017.119,1.215,1.215,0,0,0-.017.123,1.208,1.208,0,0,0,.017.123,1.139,1.139,0,0,0-.017.119,1.218,1.218,0,0,0,.017.123,1.211,1.211,0,0,0-.017.123,1.136,1.136,0,0,0,.017.119,1.219,1.219,0,0,0-.017.123,1.22,1.22,0,0,0,.017.123,1.139,1.139,0,0,0-.017.119,1.217,1.217,0,0,0,.017.123,1.218,1.218,0,0,0-.017.123,1.13,1.13,0,0,0,.017.119,1.218,1.218,0,0,0-.017.123,1.218,1.218,0,0,0,.017.123,1.149,1.149,0,0,0-.017.119,1.22,1.22,0,0,0,.017.123,1.218,1.218,0,0,0-.017.123,1.139,1.139,0,0,0,.017.119,1.212,1.212,0,0,0-.017.123,1.218,1.218,0,0,0,.017.123,1.149,1.149,0,0,0-.017.119,1.225,1.225,0,0,0,.017.123,1.215,1.215,0,0,0-.017.123,1.128,1.128,0,0,0,.017.119,1.218,1.218,0,0,0-.017.123,1.218,1.218,0,0,0,.017.123,1.144,1.144,0,0,0-.017.119,1.212,1.212,0,0,0,.017.123,1.235,1.235,0,0,0-.017.123,1.13,1.13,0,0,0,.017.119,1.217,1.217,0,0,0-.017.123,1.2,1.2,0,0,0,.017.123,1.154,1.154,0,0,0-.017.119,1.218,1.218,0,0,0,.017.123c0,.042-.017.081-.017.119a1.062,1.062,0,0,0,.017.123,1.22,1.22,0,0,0-.017.123,1.213,1.213,0,0,0,.017.123,1.146,1.146,0,0,0-.017.119,1.213,1.213,0,0,0,.017.123,1.236,1.236,0,0,0-.017.123,1.133,1.133,0,0,0,.017.119,1.218,1.218,0,0,0-.017.123,1.211,1.211,0,0,0,.017.123,1.15,1.15,0,0,0-.017.119,1.207,1.207,0,0,0,.017.123,1.225,1.225,0,0,0-.017.123,1.139,1.139,0,0,0,.017.119,1.223,1.223,0,0,0-.017.123.986.986,0,0,0,.017.119c0,.043-.017.085-.017.123a1.22,1.22,0,0,0,.017.123,1.143,1.143,0,0,0-.017.119,1.061,1.061,0,0,0,.017.123,1.233,1.233,0,0,0-.017.123,1.232,1.232,0,0,0,.017.124.985.985,0,0,0-.017.119,1.2,1.2,0,0,0,.017.123,1.158,1.158,0,0,0-.017.119,1.212,1.212,0,0,0,.017.123,1.221,1.221,0,0,0-.017.123.988.988,0,0,0,.017.119,1.235,1.235,0,0,0-.017.123,1.222,1.222,0,0,0,.017.124,1.137,1.137,0,0,0-.017.119,1.061,1.061,0,0,0,.017.123,1.232,1.232,0,0,0-.017.124,1.138,1.138,0,0,0,.017.119,1.221,1.221,0,0,0-.017.123,1.227,1.227,0,0,0,.017.123,1.068,1.068,0,0,0-.017.123c0,.038.013.077.017.119a1.222,1.222,0,0,0-.017.124,1.14,1.14,0,0,0,.017.119,1.223,1.223,0,0,0-.017.123,1.214,1.214,0,0,0,.017.124,1.136,1.136,0,0,0-.017.119,1.219,1.219,0,0,0,.017.123,1.212,1.212,0,0,0-.017.124,1.129,1.129,0,0,0,.017.119,1.232,1.232,0,0,0-.017.124,1.235,1.235,0,0,0,.017.123,1.128,1.128,0,0,0-.017.119,1.214,1.214,0,0,0,.017.124,1.219,1.219,0,0,0-.017.123,1.135,1.135,0,0,0,.017.119,1.215,1.215,0,0,0-.017.124,1.224,1.224,0,0,0,.017.123,1.144,1.144,0,0,0-.017.119,1.222,1.222,0,0,0,.017.124,1.2,1.2,0,0,0-.017.123,1.135,1.135,0,0,0,.017.119,1.227,1.227,0,0,0-.017.124,1.227,1.227,0,0,0,.017.123,1.135,1.135,0,0,0-.017.119,1.23,1.23,0,0,0,.017.124,1.2,1.2,0,0,0-.017.123,1.149,1.149,0,0,0,.017.119,1.208,1.208,0,0,0-.017.123,1.23,1.23,0,0,0,.017.123,1.126,1.126,0,0,0-.017.119,1.223,1.223,0,0,0,.017.123,1.218,1.218,0,0,0-.017.123c0,9.3,19.094,16.84,42.651,16.84s42.65-7.542,42.65-16.84c0-.043-.017-.081-.017-.123s.017-.081.017-.123-.017-.081-.017-.119.017-.081.017-.123-.017-.081-.017-.123.017-.081.017-.119-.017-.081-.017-.123.017-.081.017-.124-.017-.081-.017-.119.017-.081.017-.123-.017-.081-.017-.124.017-.081.017-.119-.017-.081-.017-.123.017-.081.017-.124-.017-.081-.017-.119.017-.081.017-.123-.017-.081-.017-.124.017-.081.017-.119-.017-.081-.017-.123.017-.081.017-.124-.017-.081-.017-.119.017-.081.017-.123-.017-.081-.017-.124.017-.081.017-.119-.017-.081-.017-.124.017-.081.017-.123-.017-.081-.017-.119.017-.081.017-.124-.017-.081-.017-.123.017-.081.017-.119-.017-.081-.017-.124.017-.081.017-.119-.017-.085-.017-.123.017-.081.017-.123-.017-.081-.017-.123.017-.081.017-.119-.017-.081-.017-.124.017-.081.017-.123-.017-.081-.017-.119.017-.081.017-.124-.017-.081-.017-.123.017-.077.017-.119-.017-.081-.017-.123.017-.081.017-.123-.017-.081-.017-.119.017-.081.017-.123-.017-.081-.017-.119.017-.081.017-.124-.017-.081-.017-.123.017-.081.017-.123-.017-.081-.017-.119.017-.081.017-.123-.017-.081-.017-.123.017-.077.017-.119-.017-.081-.017-.123.017-.081.017-.119-.017-.081-.017-.123.017-.081.017-.123-.017-.081-.017-.119.017-.081.017-.123-.017-.081-.017-.123.017-.081.017-.119-.017-.081-.017-.123.017-.081.017-.123-.017-.081-.017-.119.017-.081.017-.123-.017-.081-.017-.123.017-.081.017-.123-.017-.077-.017-.119.017-.081.017-.123-.017-.081-.017-.119.017-.081.017-.123-.017-.081-.017-.123.017-.081.017-.119-.017-.081-.017-.123.017-.081.017-.123-.017-.081-.017-.119.017-.081.017-.123-.017-.081-.017-.123.017-.081.017-.119-.017-.081-.017-.123.017-.081.017-.123-.017-.081-.017-.119.017-.081.017-.123-.017-.081-.017-.123.017-.081.017-.119-.017-.081-.017-.123.017-.081.017-.123-.017-.081-.017-.119.017-.081.017-.123-.017-.081-.017-.123.017-.081.017-.119-.017-.081-.017-.123.017-.081.017-.123-.017-.081-.017-.119.017-.081.017-.123-.017-.081-.017-.123.017-.081.017-.119-.017-.081-.017-.123.017-.081.017-.123-.017-.081-.017-.119.017-.081.017-.123-.017-.081-.017-.123.017-.081.017-.119-.017-.081-.017-.123.017-.081.017-.123-.017-.081-.017-.119.017-.081.017-.123-.017-.081-.017-.123.017-.081.017-.119-.017-.081-.017-.123.017-.081.017-.123-.017-.081-.017-.119.017-.081.017-.123-.017-.081-.017-.123.017-.081.017-.119-.017-.081-.017-.123.017-.081.017-.119-.017-.085-.017-.123.017-.081.017-.123-.017-.081-.017-.123.017-.081.017-.119-.017-.081-.017-.123.017-.081.017-.123-.017-.081-.017-.119.017-.081.017-.123-.017-.081-.017-.119.017-.081.017-.123-.017-.081-.017-.123.017-.081.017-.119-.017-.085-.017-.123.017-.081.017-.123-.017-.081-.017-.119.017-.085.017-.123-.017-.081-.017-.123.017-.081.017-.119-.017-.081-.017-.123.017-.081.017-.123-.017-.081-.017-.123.017-.081.017-.119-.017-.081-.017-.123.017-.081.017-.119-.017-.081-.017-.123.017-.081.017-.123-.017-.081-.017-.119.017-.081.017-.123-.017-.081-.017-.123.017-.081.017-.119-.017-.085-.017-.123.017-.081.017-.123-.017-.081-.017-.119.017-.081.017-.123-.017-.081-.017-.123.017-.081.017-.119-.017-.081-.017-.123.017-.081.017-.123-.017-.081-.017-.119.017-.081.017-.123-.017-.081-.017-.123.017-.081.017-.119-.017-.081-.017-.123" transform="translate(28.085 47.684)" fill="none" stroke="#00aaac" stroke-linecap="round" stroke-linejoin="round" stroke-width="6"/>
  </g>
</svg>
