<svg xmlns="http://www.w3.org/2000/svg" xmlns:xlink="http://www.w3.org/1999/xlink" width="50" height="50" viewBox="0 0 50 50">
  <defs>
    <linearGradient id="linear-gradient" y1="0.5" x2="1" y2="0.5" gradientUnits="objectBoundingBox">
      <stop offset="0" stop-color="#00aaac"/>
      <stop offset="1" stop-color="#253e92"/>
    </linearGradient>
    <clipPath id="clip-path">
      <rect id="Rectangle_39" data-name="Rectangle 39" width="27.085" height="26.344" fill="none"/>
    </clipPath>
  </defs>
  <g id="icon-app" transform="translate(-939 -1773)">
    <circle id="Ellipse_20" data-name="Ellipse 20" cx="25" cy="25" r="25" transform="translate(939 1773)" fill="url(#linear-gradient)"/>
    <g id="Group_157" data-name="Group 157" transform="translate(951 1785)" clip-path="url(#clip-path)">
      <path id="Path_1352" data-name="Path 1352" d="M-7.56,264.359l-.111-.794a.051.051,0,0,0-.056-.047h-.965a.052.052,0,0,0-.056.047l-.137.794a.107.107,0,0,1-.12.1h-1.3c-.075,0-.109-.036-.092-.12l1.324-6.17a.113.113,0,0,1,.12-.1h1.488a.114.114,0,0,1,.12.1l1.324,6.17c.017.083-.021.12-.094.12H-7.442a.1.1,0,0,1-.117-.1M-7,256.581l-.724.92a.159.159,0,0,1-.137.066h-.984c-.083,0-.13-.047-.083-.128l.538-.922a.147.147,0,0,1,.139-.073h1.176c.092,0,.128.064.075.137m-1.5,5.769h.6c.03,0,.036-.019.036-.045l-.282-1.954c-.009-.036-.047-.036-.053,0l-.339,1.954c-.009.036.009.045.036.045" transform="translate(-85.583 -248.111)" fill="#312783"/>
      <path id="Path_1353" data-name="Path 1353" d="M-5.923,258.027h1.3a.1.1,0,0,1,.107.111v4.336c0,1.324-.465,2.336-2.8,2.163a.112.112,0,0,1-.109-.117v-1.087a.092.092,0,0,1,.117-.1c1.087.051,1.26-.292,1.279-.878,0-.045-.036-.055-.064-.019a1,1,0,0,1-.822.365c-.886,0-1.249-.609-1.249-1.58v-1.687c0-1.023.391-1.58,1.249-1.58a.941.941,0,0,1,.831.412c.028.034.056.026.056-.011v-.218a.106.106,0,0,1,.109-.111m-.109,3.074v-1.45c0-.237-.128-.4-.32-.4s-.3.162-.3.4v1.45c0,.239.12.395.3.395s.32-.156.32-.395" transform="translate(-83.054 -246.397)" fill="#312783"/>
      <path id="Path_1354" data-name="Path 1354" d="M-3.987,257.987h1.3a.107.107,0,0,1,.111.111v4.5a.1.1,0,0,1-.111.109h-1.3A.1.1,0,0,1-4.1,262.6v-.12c0-.034-.026-.045-.053-.009a.927.927,0,0,1-.794.312A1.222,1.222,0,0,1-6.225,261.4V258.1a.108.108,0,0,1,.113-.111h1.294a.108.108,0,0,1,.111.111v2.966c0,.273.1.412.292.412s.318-.145.318-.421V258.1a.106.106,0,0,1,.109-.111" transform="translate(-80.85 -246.36)" fill="#312783"/>
      <path id="Path_1355" data-name="Path 1355" d="M-.524,259.48v3.158a.1.1,0,0,1-.107.109h-1.3a.1.1,0,0,1-.109-.109v-.22c0-.036-.028-.053-.056-.017a1.061,1.061,0,0,1-.931.421c-.521.009-1.3-.158-1.3-1.435s.769-1.46,1.872-1.46h.365a.044.044,0,0,0,.045-.047v-.218a.372.372,0,0,0-.365-.41.3.3,0,0,0-.3.263c-.006.075-.045.111-.107.111l-1.324-.009a.1.1,0,0,1-.111-.111,1.668,1.668,0,0,1,1.853-1.552c1.114,0,1.87.6,1.87,1.526m-1.514,1.843v-.337a.043.043,0,0,0-.045-.045h-.284a.382.382,0,0,0-.4.4.313.313,0,0,0,.31.357.4.4,0,0,0,.421-.376" transform="translate(-78.688 -246.398)" fill="#312783"/>
      <path id="Path_1356" data-name="Path 1356" d="M-2.36,261.376v-.055a.1.1,0,0,1,.109-.107h1.223c.064,0,.109.026.109.062v.064a.359.359,0,0,0,.367.357.258.258,0,0,0,.273-.273c0-.293-.448-.376-.85-.512a1.51,1.51,0,0,1-1.176-1.46,1.506,1.506,0,0,1,1.706-1.5,1.564,1.564,0,0,1,1.744,1.58.1.1,0,0,1-.109.1H-.15c-.066,0-.109-.034-.109-.09v-.092a.294.294,0,0,0-.3-.318.3.3,0,0,0-.292.318c0,.3.393.429.7.529.611.2,1.4.5,1.4,1.424,0,.877-.709,1.416-1.787,1.416-1.1,0-1.817-.574-1.817-1.443" transform="translate(-76.463 -246.397)" fill="#312783"/>
      <path id="Path_1357" data-name="Path 1357" d="M3.157,263.5l-.111-.794a.051.051,0,0,0-.056-.047H2.024a.052.052,0,0,0-.053.047l-.137.794a.107.107,0,0,1-.12.1H.418c-.075,0-.109-.036-.092-.12l1.324-6.17a.112.112,0,0,1,.12-.1H3.258a.114.114,0,0,1,.12.1l1.324,6.17c.017.083-.021.12-.094.12H3.275a.1.1,0,0,1-.117-.1m-.942-2.009h.6c.028,0,.036-.019.036-.045l-.282-1.954c-.009-.036-.047-.036-.053,0l-.339,1.954c-.009.036.009.045.036.045" transform="translate(-73.419 -247.248)" fill="#312783"/>
      <path id="Path_1358" data-name="Path 1358" d="M6.474,259.206a1.723,1.723,0,0,1-1.723,1.917H4.158a.042.042,0,0,0-.045.047v2.319A.105.105,0,0,1,4,263.6h-1.3a.1.1,0,0,1-.109-.107v-6.172a.106.106,0,0,1,.109-.111H4.679a1.812,1.812,0,0,1,1.8,2m-1.514.036c0-.485-.228-.739-.547-.739H4.158a.042.042,0,0,0-.045.045v1.36a.041.041,0,0,0,.045.045h.256c.318,0,.547-.245.547-.711" transform="translate(-70.837 -247.247)" fill="#312783"/>
      <path id="Path_1359" data-name="Path 1359" d="M8.5,259.206a1.723,1.723,0,0,1-1.723,1.917H6.187a.042.042,0,0,0-.045.047v2.319a.1.1,0,0,1-.109.107h-1.3a.1.1,0,0,1-.109-.107v-6.172a.106.106,0,0,1,.109-.111H6.708a1.812,1.812,0,0,1,1.8,2m-1.514.036c0-.485-.228-.739-.547-.739H6.187a.042.042,0,0,0-.045.045v1.36a.041.041,0,0,0,.045.045h.256c.318,0,.547-.245.547-.711" transform="translate(-68.534 -247.247)" fill="#312783"/>
      <path id="Path_1360" data-name="Path 1360" d="M-15.287,260.291a.581.581,0,0,0-.179-.047,1.608,1.608,0,0,0-.2-.013H-15.7v.7h.047a1.269,1.269,0,0,0,.2-.015.484.484,0,0,0,.171-.049.326.326,0,0,0,.12-.109.319.319,0,0,0,.047-.186.305.305,0,0,0-.049-.181.306.306,0,0,0-.124-.1" transform="translate(-91.603 -243.813)" fill="#312783"/>
      <path id="Path_1361" data-name="Path 1361" d="M-18.64,261.123h.653l-.327-.743Z" transform="translate(-94.942 -243.643)" fill="#312783"/>
      <path id="Path_1362" data-name="Path 1362" d="M-21.553,261.123h.653l-.327-.743Z" transform="translate(-98.248 -243.643)" fill="#312783"/>
      <path id="Path_1363" data-name="Path 1363" d="M-16.571,261.123h.653l-.327-.743Z" transform="translate(-92.593 -243.643)" fill="#312783"/>
      <path id="Path_1364" data-name="Path 1364" d="M-14.614,260.291a.611.611,0,0,0-.181-.047,1.668,1.668,0,0,0-.2-.013h-.032v.7h.047a1.3,1.3,0,0,0,.2-.015.5.5,0,0,0,.171-.049.344.344,0,0,0,.12-.109.319.319,0,0,0,.047-.186.291.291,0,0,0-.049-.181.33.33,0,0,0-.122-.1" transform="translate(-90.844 -243.813)" fill="#312783"/>
      <path id="Path_1365" data-name="Path 1365" d="M-4.841,253.121H-19.411a4.254,4.254,0,0,0-4.242,4.24v14.873a4.257,4.257,0,0,0,4.242,4.242H-4.841A4.256,4.256,0,0,0-.6,272.234V257.361a4.253,4.253,0,0,0-4.242-4.24m-6.992,7.695a3.53,3.53,0,0,1,3.147-1.851,3.308,3.308,0,0,1,3.305,3.3,3.188,3.188,0,0,1-.021.38l-.021.167H-9.53v-1.142h2.938a2.169,2.169,0,0,0-2.094-1.584c-.6,0-1.4.177-2.383,1.565l-.152.214-.683-.939Zm-7.342,6.892.361-.48a.038.038,0,0,1,.032-.015l.019,0,.239.124a.035.035,0,0,1,.019.032.032.032,0,0,1-.011.032l-.474.433a.043.043,0,0,1-.028.009l-.019,0-.128-.079a.034.034,0,0,1-.017-.028.028.028,0,0,1,.006-.028m1.4,2.513a.04.04,0,0,1-.032.019H-18.1a.043.043,0,0,1-.036-.023l-.237-.525h-.95l-.237.525a.041.041,0,0,1-.036.023h-.292a.04.04,0,0,1-.032-.019.038.038,0,0,1,0-.036l1.042-2.274a.036.036,0,0,1,.034-.021.039.039,0,0,1,.036.021l1.042,2.274a.033.033,0,0,1,0,.036m2.173-1.033a1.2,1.2,0,0,1-.077.433,1.064,1.064,0,0,1-.222.348,1.008,1.008,0,0,1-.337.231,1.106,1.106,0,0,1-.433.085,1.086,1.086,0,0,1-.446-.094,1.244,1.244,0,0,1-.363-.256,1.233,1.233,0,0,1-.241-.376,1.112,1.112,0,0,1-.09-.442,1.155,1.155,0,0,1,.092-.461,1.162,1.162,0,0,1,.248-.376,1.22,1.22,0,0,1,.371-.254,1.18,1.18,0,0,1,.457-.092,1.191,1.191,0,0,1,.506.113,1.133,1.133,0,0,1,.412.325.04.04,0,0,1,0,.053l-.192.181a.054.054,0,0,1-.028.011h0a.039.039,0,0,1-.028-.017.829.829,0,0,0-.29-.243.744.744,0,0,0-.363-.1.834.834,0,0,0-.327.066.836.836,0,0,0-.263.181.839.839,0,0,0-.175.267.819.819,0,0,0-.066.331.794.794,0,0,0,.064.314.923.923,0,0,0,.173.275.836.836,0,0,0,.256.19.714.714,0,0,0,.314.073.6.6,0,0,0,.239-.051.747.747,0,0,0,.216-.13.734.734,0,0,0,.156-.194.574.574,0,0,0,.06-.192H-16.5a.041.041,0,0,1-.038-.043v-.25a.038.038,0,0,1,.038-.036h.865a.038.038,0,0,1,.038.036Zm1.828.211a1,1,0,0,1-.058.344.848.848,0,0,1-.164.284.764.764,0,0,1-.265.19.905.905,0,0,1-.35.068.924.924,0,0,1-.352-.068.736.736,0,0,1-.263-.19.818.818,0,0,1-.167-.284,1.056,1.056,0,0,1-.056-.344v-1.379a.038.038,0,0,1,.038-.038h.271a.039.039,0,0,1,.041.038v1.287a1.376,1.376,0,0,0,.023.25.515.515,0,0,0,.077.2.331.331,0,0,0,.147.139.472.472,0,0,0,.239.053.467.467,0,0,0,.239-.053.355.355,0,0,0,.147-.139.638.638,0,0,0,.079-.2,1.6,1.6,0,0,0,.021-.25v-1.287a.038.038,0,0,1,.038-.038h.273a.038.038,0,0,1,.038.038Zm2.218.822a.04.04,0,0,1-.032.019h-.292a.043.043,0,0,1-.036-.023l-.237-.525h-.95l-.237.525a.043.043,0,0,1-.036.023h-.293a.04.04,0,0,1-.032-.019.033.033,0,0,1,0-.036l1.042-2.274a.038.038,0,0,1,.034-.021.039.039,0,0,1,.036.021l1.042,2.274a.038.038,0,0,1,0,.036m1.386-.367a.658.658,0,0,1-.156.228.731.731,0,0,1-.233.147.722.722,0,0,1-.288.055.72.72,0,0,1-.265-.049.766.766,0,0,1-.216-.135.7.7,0,0,1-.154-.2.75.75,0,0,1-.081-.256.045.045,0,0,1,.032-.045l.275-.056h.006l.026.006a.037.037,0,0,1,.015.03.366.366,0,0,0,.028.149.329.329,0,0,0,.081.12.342.342,0,0,0,.124.079.387.387,0,0,0,.149.028.3.3,0,0,0,.143-.034.32.32,0,0,0,.115-.083.385.385,0,0,0,.077-.12.432.432,0,0,0,.028-.149.285.285,0,0,0-.03-.134.246.246,0,0,0-.075-.1.427.427,0,0,0-.115-.079.832.832,0,0,0-.132-.064l-.152-.064c-.062-.028-.122-.058-.181-.092a.681.681,0,0,1-.16-.12.5.5,0,0,1-.113-.164.508.508,0,0,1-.043-.214.566.566,0,0,1,.06-.256.554.554,0,0,1,.152-.186.676.676,0,0,1,.218-.12.778.778,0,0,1,.252-.041.683.683,0,0,1,.346.088.673.673,0,0,1,.25.263.037.037,0,0,1-.015.051l-.216.132-.021,0h-.009a.031.031,0,0,1-.023-.019.392.392,0,0,0-.13-.139.352.352,0,0,0-.186-.047.326.326,0,0,0-.12.019.3.3,0,0,0-.107.055.442.442,0,0,0-.073.083.251.251,0,0,0-.028.111.16.16,0,0,0,.026.092.276.276,0,0,0,.064.079.526.526,0,0,0,.088.06,1.081,1.081,0,0,0,.1.045l.156.062a1.752,1.752,0,0,1,.22.1.672.672,0,0,1,.181.143.569.569,0,0,1,.122.19.72.72,0,0,1,.043.254.71.71,0,0,1-.058.288m3.034.367a.043.043,0,0,1-.034.019h-.29a.041.041,0,0,1-.036-.023l-.239-.525H-8.68l-.239.525a.043.043,0,0,1-.036.023h-.293a.043.043,0,0,1-.032-.019.032.032,0,0,1,0-.036l1.04-2.274a.041.041,0,0,1,.036-.021.041.041,0,0,1,.036.021l1.04,2.274a.037.037,0,0,1,0,.036m1.313-1.262a.586.586,0,0,1-.175.211.738.738,0,0,1-.258.12,1.373,1.373,0,0,1-.3.034h-.117v.875a.042.042,0,0,1-.041.041h-.271a.04.04,0,0,1-.038-.041v-2.18a.038.038,0,0,1,.038-.038h.314a1.891,1.891,0,0,1,.429.041.791.791,0,0,1,.286.13.521.521,0,0,1,.156.218.773.773,0,0,1,.047.282.648.648,0,0,1-.066.307m-.871-3.719a3.278,3.278,0,0,1-1.885.591,3.429,3.429,0,0,1-2.5-1.151,26.438,26.438,0,0,1-1.631-2.12c-.389-.542-.756-1.055-1.053-1.422a2.2,2.2,0,0,0-1.717-.8,2.193,2.193,0,0,0-2.205,2.173,2.191,2.191,0,0,0,2.205,2.169,2.362,2.362,0,0,0,1.8-.914c.149-.167.557-.647.564-.653l.149-.177.685.9.011.017v1.864h-1.185v-.621a3.167,3.167,0,0,1-2.024.715,3.328,3.328,0,0,1-3.348-3.3A3.329,3.329,0,0,1-15.48,259.2a3.422,3.422,0,0,1,2.024.726v-.7h1.185v2.043c.171.228.35.468.532.717.519.707,1.055,1.435,1.456,1.892a2.288,2.288,0,0,0,1.708.828,2.192,2.192,0,0,0,1.631-.734H-5.6a3.31,3.31,0,0,1-1.087,1.268m2.3,3.719a.586.586,0,0,1-.175.211.738.738,0,0,1-.258.12,1.373,1.373,0,0,1-.3.034h-.117v.875a.04.04,0,0,1-.038.041h-.271a.042.042,0,0,1-.041-.041v-2.18a.04.04,0,0,1,.041-.038h.312a1.878,1.878,0,0,1,.429.041.791.791,0,0,1,.286.13.521.521,0,0,1,.156.218.821.821,0,0,1,.047.282.675.675,0,0,1-.066.307" transform="translate(-100.631 -251.883)" fill="#312783"/>
      <path id="Path_1366" data-name="Path 1366" d="M-13.518,295.107h-4.7V283.743h-2.342v-3.926h2.334c0-.743-.017-1.426.006-2.105a12.347,12.347,0,0,1,.141-1.909,3.9,3.9,0,0,1,3.612-3.38,9.5,9.5,0,0,1,1.23-.094c1.063-.013,2.126,0,3.222,0v3.928c-.433,0-.856,0-1.279,0-.365,0-.732-.013-1.1.023-.781.081-1.065.35-1.1,1.125s-.011,1.548-.011,2.387h3.544c-.143,1.347-.28,2.624-.418,3.939h-3.138Z" transform="translate(-97.122 -230.089)" fill="#312783"/>
      <path id="Path_1367" data-name="Path 1367" d="M-13.443,282.717l1.64-6.847h.952l-1.657,6.847Z" transform="translate(-89.043 -226.062)" fill="#312783"/>
      <path id="Path_1368" data-name="Path 1368" d="M-10.8,278.3l-1.153-.209a1.8,1.8,0,0,1,.668-1.029,2.452,2.452,0,0,1,1.409-.333,3.039,3.039,0,0,1,1.266.2,1.252,1.252,0,0,1,.583.51,2.6,2.6,0,0,1,.171,1.136l-.015,1.482a5.1,5.1,0,0,0,.062.931,2.765,2.765,0,0,0,.228.645H-8.832c-.034-.085-.075-.209-.122-.376-.021-.075-.036-.124-.045-.149a2.294,2.294,0,0,1-.7.474,1.972,1.972,0,0,1-.79.16,1.628,1.628,0,0,1-1.168-.4,1.336,1.336,0,0,1-.427-1.016,1.356,1.356,0,0,1,.194-.724,1.273,1.273,0,0,1,.544-.489,4.4,4.4,0,0,1,1.01-.295A6.924,6.924,0,0,0-9.1,278.5v-.126a.658.658,0,0,0-.181-.523,1.085,1.085,0,0,0-.681-.156.9.9,0,0,0-.527.134.906.906,0,0,0-.307.468m1.7,1.029c-.162.053-.421.12-.773.194a2.264,2.264,0,0,0-.69.222.526.526,0,0,0-.25.446.62.62,0,0,0,.2.461.691.691,0,0,0,.5.194,1.1,1.1,0,0,0,.655-.226.8.8,0,0,0,.3-.421,2.56,2.56,0,0,0,.049-.619Z" transform="translate(-87.494 -225.089)" fill="#312783"/>
      <path id="Path_1369" data-name="Path 1369" d="M-9.48,281.947l1.45.175a.482.482,0,0,0,.169.348.953.953,0,0,0,.568.137,1.47,1.47,0,0,0,.745-.149.606.606,0,0,0,.252-.32,1.884,1.884,0,0,0,.06-.583v-.7a1.717,1.717,0,0,1-1.437.777,1.768,1.768,0,0,1-1.531-.818,2.785,2.785,0,0,1-.442-1.608,2.635,2.635,0,0,1,.581-1.843,1.869,1.869,0,0,1,1.443-.636,1.759,1.759,0,0,1,1.467.781v-.675h1.187v4.3a4.368,4.368,0,0,1-.139,1.27,1.563,1.563,0,0,1-.393.658,1.731,1.731,0,0,1-.677.376,3.563,3.563,0,0,1-1.068.134,2.768,2.768,0,0,1-1.729-.416,1.315,1.315,0,0,1-.51-1.059c0-.043,0-.094,0-.154m1.134-2.814a1.727,1.727,0,0,0,.3,1.119.916.916,0,0,0,.728.354,1,1,0,0,0,.786-.365,1.58,1.58,0,0,0,.32-1.076,1.684,1.684,0,0,0-.305-1.106A.977.977,0,0,0-7.3,277.7a.936.936,0,0,0-.752.352,1.659,1.659,0,0,0-.3,1.083" transform="translate(-84.734 -225.089)" fill="#312783"/>
      <path id="Path_1370" data-name="Path 1370" d="M-3.7,281.571v-.717a1.823,1.823,0,0,1-.69.606,1.927,1.927,0,0,1-.9.222,1.751,1.751,0,0,1-.867-.214,1.25,1.25,0,0,1-.555-.6,2.681,2.681,0,0,1-.171-1.061v-3.034h1.268v2.2a6.093,6.093,0,0,0,.07,1.24.689.689,0,0,0,.254.361.8.8,0,0,0,.472.132,1,1,0,0,0,.581-.177.894.894,0,0,0,.352-.444,5.061,5.061,0,0,0,.1-1.294v-2.022h1.268v4.793Z" transform="translate(-81.593 -225.031)" fill="#312783"/>
      <path id="Path_1371" data-name="Path 1371" d="M-3.095,278.3l-1.153-.209a1.8,1.8,0,0,1,.668-1.029,2.452,2.452,0,0,1,1.409-.333,3.039,3.039,0,0,1,1.266.2,1.263,1.263,0,0,1,.583.51,2.6,2.6,0,0,1,.171,1.136l-.015,1.482a5.1,5.1,0,0,0,.062.931,2.765,2.765,0,0,0,.228.645H-1.131c-.034-.085-.075-.209-.122-.376-.021-.075-.036-.124-.047-.149a2.26,2.26,0,0,1-.694.474,1.972,1.972,0,0,1-.79.16,1.628,1.628,0,0,1-1.168-.4,1.336,1.336,0,0,1-.427-1.016,1.356,1.356,0,0,1,.194-.724,1.249,1.249,0,0,1,.544-.489,4.395,4.395,0,0,1,1.01-.295A6.924,6.924,0,0,0-1.4,278.5v-.126a.658.658,0,0,0-.181-.523,1.085,1.085,0,0,0-.681-.156.908.908,0,0,0-.529.134.917.917,0,0,0-.305.468m1.7,1.029c-.162.053-.421.12-.773.194a2.264,2.264,0,0,0-.69.222.526.526,0,0,0-.25.446.62.62,0,0,0,.2.461.691.691,0,0,0,.5.194,1.108,1.108,0,0,0,.655-.226.8.8,0,0,0,.3-.421,2.56,2.56,0,0,0,.049-.619Z" transform="translate(-78.754 -225.089)" fill="#312783"/>
      <path id="Path_1372" data-name="Path 1372" d="M-2.022,280.263l1.272-.194a.932.932,0,0,0,.331.561,1.111,1.111,0,0,0,.7.192,1.257,1.257,0,0,0,.739-.179.4.4,0,0,0,.169-.339.329.329,0,0,0-.092-.239A1,1,0,0,0,.67,279.9a6.875,6.875,0,0,1-1.947-.619,1.235,1.235,0,0,1-.57-1.08,1.326,1.326,0,0,1,.493-1.046,2.294,2.294,0,0,1,1.527-.425,2.662,2.662,0,0,1,1.462.32A1.629,1.629,0,0,1,2.3,278l-1.2.222a.744.744,0,0,0-.292-.429,1.056,1.056,0,0,0-.613-.149,1.373,1.373,0,0,0-.717.141.3.3,0,0,0-.145.256.279.279,0,0,0,.128.231,4.676,4.676,0,0,0,1.185.357,3.523,3.523,0,0,1,1.416.566,1.171,1.171,0,0,1,.4.944,1.449,1.449,0,0,1-.551,1.134,2.44,2.44,0,0,1-1.629.474,2.678,2.678,0,0,1-1.552-.4,1.824,1.824,0,0,1-.747-1.078" transform="translate(-76.079 -225.089)" fill="#312783"/>
      <path id="Path_1373" data-name="Path 1373" d="M5.148,282.544H3.968v-.7a1.9,1.9,0,0,1-.692.613,1.8,1.8,0,0,1-.807.2,1.826,1.826,0,0,1-1.416-.666,2.711,2.711,0,0,1-.589-1.86,2.68,2.68,0,0,1,.574-1.853,1.869,1.869,0,0,1,1.45-.634,1.79,1.79,0,0,1,1.39.668v-2.385h1.27Zm-3.388-2.5a2.213,2.213,0,0,0,.211,1.112.959.959,0,0,0,.858.5.935.935,0,0,0,.745-.372,1.722,1.722,0,0,0,.307-1.115,1.879,1.879,0,0,0-.3-1.189.981.981,0,0,0-1.52,0,1.621,1.621,0,0,0-.305,1.072" transform="translate(-73.258 -226.002)" fill="#312783"/>
      <path id="Path_1374" data-name="Path 1374" d="M3.106,279.165a2.6,2.6,0,0,1,.312-1.223,2.131,2.131,0,0,1,.882-.9,2.635,2.635,0,0,1,1.277-.312,2.388,2.388,0,0,1,1.783.707,2.438,2.438,0,0,1,.7,1.787,2.478,2.478,0,0,1-.7,1.8,2.375,2.375,0,0,1-1.768.715,2.787,2.787,0,0,1-1.258-.3,2.034,2.034,0,0,1-.91-.873,2.922,2.922,0,0,1-.312-1.4m1.3.068a1.588,1.588,0,0,0,.339,1.093,1.109,1.109,0,0,0,1.667,0,1.615,1.615,0,0,0,.337-1.1,1.586,1.586,0,0,0-.337-1.085,1.109,1.109,0,0,0-1.667,0,1.589,1.589,0,0,0-.339,1.093" transform="translate(-70.259 -225.089)" fill="#312783"/>
      <path id="Path_1375" data-name="Path 1375" d="M7.132,281.629H5.864v-4.793H7.043v.681a2.016,2.016,0,0,1,.544-.636,1,1,0,0,1,.549-.154,1.608,1.608,0,0,1,.835.239l-.393,1.106a1.108,1.108,0,0,0-.6-.207.7.7,0,0,0-.453.147.994.994,0,0,0-.29.529,7.4,7.4,0,0,0-.107,1.608Z" transform="translate(-67.129 -225.089)" fill="#312783"/>
      <path id="Path_1376" data-name="Path 1376" d="M7.575,275.923H8.843V277.1H7.575Zm0,1.823H8.843v4.8H7.575Z" transform="translate(-65.187 -226.002)" fill="#312783"/>
      <path id="Path_1377" data-name="Path 1377" d="M8.641,279.165a2.58,2.58,0,0,1,.312-1.223,2.131,2.131,0,0,1,.882-.9,2.629,2.629,0,0,1,1.277-.312,2.392,2.392,0,0,1,1.783.707,2.447,2.447,0,0,1,.7,1.787,2.478,2.478,0,0,1-.7,1.8,2.375,2.375,0,0,1-1.768.715,2.787,2.787,0,0,1-1.258-.3,2.034,2.034,0,0,1-.91-.873,2.9,2.9,0,0,1-.312-1.4m1.3.068a1.6,1.6,0,0,0,.337,1.093,1.082,1.082,0,0,0,.837.378,1.07,1.07,0,0,0,.833-.378,1.615,1.615,0,0,0,.337-1.1,1.586,1.586,0,0,0-.337-1.085,1.07,1.07,0,0,0-.833-.378,1.082,1.082,0,0,0-.837.378,1.6,1.6,0,0,0-.337,1.093" transform="translate(-63.977 -225.089)" fill="#312783"/>
      <path id="Path_1378" data-name="Path 1378" d="M-12.029,313.524a51.4,51.4,0,0,1-5.651-.053,6.3,6.3,0,0,1-5.493-6.236c-.045-3.192-.053-6.386,0-9.58a6.531,6.531,0,0,1,6.456-6.407q4.7-.054,9.409,0a6.551,6.551,0,0,1,6.476,6.51q.032,4.66,0,9.317a6.541,6.541,0,0,1-6.42,6.52c-1.591.019-3.183,0-4.774,0v-.073m-9.443-11.1c0,1.548-.006,3.094,0,4.642a4.836,4.836,0,0,0,4.793,4.823q4.669.022,9.334,0a4.83,4.83,0,0,0,4.808-4.8q.019-4.669,0-9.343a4.817,4.817,0,0,0-4.8-4.787q-4.66-.016-9.324,0a4.842,4.842,0,0,0-4.814,4.827c-.009,1.548,0,3.094,0,4.642" transform="translate(-100.129 -208.638)" fill="#312783"/>
      <path id="Path_1379" data-name="Path 1379" d="M-14.585,305.662a6.011,6.011,0,0,1-6.187-5.833,6.016,6.016,0,0,1,5.792-6.17,6.01,6.01,0,0,1,6.211,5.807,6,6,0,0,1-5.816,6.2m-4.5-6a4.347,4.347,0,0,0,5.94,4.01,4.259,4.259,0,0,0,2.442-2.513,4.345,4.345,0,0,0-4.065-5.82,4.349,4.349,0,0,0-4.317,4.323" transform="translate(-97.368 -205.882)" fill="#312783"/>
      <path id="Path_1380" data-name="Path 1380" d="M-14.3,292.847a.867.867,0,0,1,.845.865.821.821,0,0,1-.875.818.772.772,0,0,1-.8-.813.839.839,0,0,1,.831-.869" transform="translate(-90.958 -206.793)" fill="#312783"/>
      <path id="Path_1381" data-name="Path 1381" d="M-3.125,301.642h.963a3.272,3.272,0,0,1-1.386,1.437,5.3,5.3,0,0,1-2.611.6,6.047,6.047,0,0,1-2.575-.5,3.387,3.387,0,0,1-1.612-1.486,4.433,4.433,0,0,1-.527-2.137,4.849,4.849,0,0,1,.6-2.363,3.949,3.949,0,0,1,1.644-1.644,5.031,5.031,0,0,1,2.385-.549,4.463,4.463,0,0,1,2.022.442,3.129,3.129,0,0,1,1.354,1.258,3.524,3.524,0,0,1,.468,1.783,3.359,3.359,0,0,1-.709,2.082,2.744,2.744,0,0,1-2.28,1.172.994.994,0,0,1-.566-.13.628.628,0,0,1-.252-.384,1.715,1.715,0,0,1-1.228.515,1.641,1.641,0,0,1-1.245-.517,1.9,1.9,0,0,1-.5-1.375,3.367,3.367,0,0,1,.6-1.937,2.165,2.165,0,0,1,1.853-1.065,1.3,1.3,0,0,1,1.187.613l.113-.5h1.191l-.681,3.237a2.616,2.616,0,0,0-.064.4.238.238,0,0,0,.051.169.165.165,0,0,0,.124.058,1.029,1.029,0,0,0,.562-.263,2.5,2.5,0,0,0,.745-.92,2.676,2.676,0,0,0,.284-1.2,2.44,2.44,0,0,0-.8-1.857,3.177,3.177,0,0,0-2.246-.747,4.024,4.024,0,0,0-2.073.5,3.16,3.16,0,0,0-1.283,1.4,4.311,4.311,0,0,0-.431,1.885,3.247,3.247,0,0,0,.48,1.734,2.8,2.8,0,0,0,1.349,1.14,5.184,5.184,0,0,0,1.99.359,5.128,5.128,0,0,0,1.855-.3,2.867,2.867,0,0,0,1.251-.9m-4.881-1.855a1.267,1.267,0,0,0,.233.843.724.724,0,0,0,.576.271.965.965,0,0,0,.483-.126,1.183,1.183,0,0,0,.339-.284,2.375,2.375,0,0,0,.412-.8,3.182,3.182,0,0,0,.173-.986,1.165,1.165,0,0,0-.237-.784.757.757,0,0,0-.6-.271,1.043,1.043,0,0,0-.717.3,1.852,1.852,0,0,0-.5.856,3.474,3.474,0,0,0-.167.984" transform="translate(-86.126 -204.359)" fill="#312783"/>
      <path id="Path_1382" data-name="Path 1382" d="M-5.341,297.423l-1.153-.209a1.8,1.8,0,0,1,.67-1.029,2.443,2.443,0,0,1,1.407-.335,3.035,3.035,0,0,1,1.266.2,1.252,1.252,0,0,1,.583.51A2.6,2.6,0,0,1-2.4,297.7l-.015,1.48a5.114,5.114,0,0,0,.062.933,2.733,2.733,0,0,0,.228.645H-3.377c-.034-.085-.075-.209-.122-.376-.021-.075-.036-.124-.045-.149a2.293,2.293,0,0,1-.7.474,1.972,1.972,0,0,1-.79.16,1.628,1.628,0,0,1-1.168-.4,1.336,1.336,0,0,1-.427-1.016,1.356,1.356,0,0,1,.194-.724,1.273,1.273,0,0,1,.544-.489,4.293,4.293,0,0,1,1.01-.295,6.919,6.919,0,0,0,1.232-.312V297.5a.655.655,0,0,0-.181-.523,1.085,1.085,0,0,0-.681-.156.9.9,0,0,0-.527.135.905.905,0,0,0-.307.468m1.7,1.029c-.162.053-.421.12-.773.194a2.346,2.346,0,0,0-.69.22.532.532,0,0,0-.25.448.62.62,0,0,0,.2.461.7.7,0,0,0,.5.194A1.1,1.1,0,0,0-4,299.743a.8.8,0,0,0,.3-.421,2.56,2.56,0,0,0,.049-.619Z" transform="translate(-81.303 -203.385)" fill="#312783"/>
      <path id="Path_1383" data-name="Path 1383" d="M-4.024,301.07l1.45.175a.482.482,0,0,0,.169.348.954.954,0,0,0,.568.137,1.493,1.493,0,0,0,.745-.149.606.606,0,0,0,.252-.32,1.884,1.884,0,0,0,.06-.583v-.7a1.717,1.717,0,0,1-1.437.777,1.768,1.768,0,0,1-1.531-.818,2.785,2.785,0,0,1-.442-1.608,2.645,2.645,0,0,1,.581-1.843,1.869,1.869,0,0,1,1.443-.636,1.758,1.758,0,0,1,1.467.781v-.675H.487v4.3a4.368,4.368,0,0,1-.139,1.27,1.563,1.563,0,0,1-.393.658,1.73,1.73,0,0,1-.677.376,3.563,3.563,0,0,1-1.068.135,2.768,2.768,0,0,1-1.729-.416,1.315,1.315,0,0,1-.51-1.059c0-.043,0-.094,0-.154m1.134-2.814a1.727,1.727,0,0,0,.3,1.119.916.916,0,0,0,.728.354,1,1,0,0,0,.786-.365,1.569,1.569,0,0,0,.32-1.076,1.684,1.684,0,0,0-.305-1.106.979.979,0,0,0-.777-.363.937.937,0,0,0-.752.354,1.658,1.658,0,0,0-.3,1.082" transform="translate(-78.541 -203.384)" fill="#312783"/>
      <path id="Path_1384" data-name="Path 1384" d="M1.76,300.7v-.717a1.843,1.843,0,0,1-.692.6,1.925,1.925,0,0,1-.9.222,1.752,1.752,0,0,1-.869-.214,1.25,1.25,0,0,1-.555-.6,2.681,2.681,0,0,1-.171-1.061V295.9H-.157v2.2a6.093,6.093,0,0,0,.07,1.24.681.681,0,0,0,.256.361.789.789,0,0,0,.47.132,1,1,0,0,0,.581-.177.9.9,0,0,0,.354-.444,5.062,5.062,0,0,0,.1-1.294V295.9H2.937v4.8Z" transform="translate(-75.402 -203.326)" fill="#312783"/>
      <path id="Path_1385" data-name="Path 1385" d="M2.361,297.423l-1.153-.209a1.787,1.787,0,0,1,.67-1.029,2.439,2.439,0,0,1,1.407-.335,3.035,3.035,0,0,1,1.266.2,1.262,1.262,0,0,1,.583.51,2.6,2.6,0,0,1,.171,1.136l-.015,1.48a5.114,5.114,0,0,0,.062.933,2.733,2.733,0,0,0,.228.645H4.325c-.034-.085-.075-.209-.122-.376-.021-.075-.036-.124-.047-.149a2.259,2.259,0,0,1-.694.474,1.972,1.972,0,0,1-.79.16,1.628,1.628,0,0,1-1.168-.4,1.336,1.336,0,0,1-.427-1.016,1.356,1.356,0,0,1,.194-.724,1.261,1.261,0,0,1,.544-.489,4.293,4.293,0,0,1,1.01-.295,6.919,6.919,0,0,0,1.232-.312V297.5a.655.655,0,0,0-.181-.523,1.085,1.085,0,0,0-.681-.156.908.908,0,0,0-.529.135.916.916,0,0,0-.305.468m1.7,1.029c-.162.053-.421.12-.773.194a2.346,2.346,0,0,0-.69.22.532.532,0,0,0-.25.448.62.62,0,0,0,.2.461.691.691,0,0,0,.5.194,1.108,1.108,0,0,0,.655-.226.8.8,0,0,0,.3-.421,2.56,2.56,0,0,0,.049-.619Z" transform="translate(-72.561 -203.385)" fill="#312783"/>
      <path id="Path_1386" data-name="Path 1386" d="M3.434,299.386l1.272-.194a.932.932,0,0,0,.331.562,1.111,1.111,0,0,0,.7.192,1.257,1.257,0,0,0,.739-.179.4.4,0,0,0,.169-.339.336.336,0,0,0-.09-.239,1.028,1.028,0,0,0-.425-.167,6.876,6.876,0,0,1-1.947-.619,1.235,1.235,0,0,1-.57-1.08,1.326,1.326,0,0,1,.493-1.046,2.294,2.294,0,0,1,1.527-.425,2.663,2.663,0,0,1,1.462.32,1.629,1.629,0,0,1,.66.948l-1.2.222a.744.744,0,0,0-.292-.429,1.056,1.056,0,0,0-.613-.149,1.373,1.373,0,0,0-.717.141.3.3,0,0,0-.145.256.279.279,0,0,0,.128.231,4.685,4.685,0,0,0,1.185.357,3.557,3.557,0,0,1,1.416.564,1.178,1.178,0,0,1,.4.946,1.449,1.449,0,0,1-.551,1.134,2.44,2.44,0,0,1-1.629.474,2.678,2.678,0,0,1-1.552-.4,1.824,1.824,0,0,1-.747-1.078" transform="translate(-69.887 -203.384)" fill="#312783"/>
      <path id="Path_1387" data-name="Path 1387" d="M10.6,301.667H9.423v-.7a1.9,1.9,0,0,1-.692.613,1.8,1.8,0,0,1-.807.2,1.826,1.826,0,0,1-1.416-.666,2.71,2.71,0,0,1-.589-1.859,2.676,2.676,0,0,1,.574-1.853,1.869,1.869,0,0,1,1.45-.634,1.79,1.79,0,0,1,1.39.668v-2.385H10.6Zm-3.388-2.5a2.2,2.2,0,0,0,.211,1.11.961.961,0,0,0,.858.5.931.931,0,0,0,.745-.374,1.715,1.715,0,0,0,.307-1.112,1.879,1.879,0,0,0-.3-1.189.977.977,0,0,0-1.52,0,1.621,1.621,0,0,0-.305,1.072" transform="translate(-67.066 -204.297)" fill="#312783"/>
      <path id="Path_1388" data-name="Path 1388" d="M8.561,298.288a2.6,2.6,0,0,1,.312-1.223,2.119,2.119,0,0,1,.882-.9,2.611,2.611,0,0,1,1.277-.312,2.389,2.389,0,0,1,1.783.707,2.439,2.439,0,0,1,.7,1.787,2.478,2.478,0,0,1-.7,1.8,2.375,2.375,0,0,1-1.768.715,2.787,2.787,0,0,1-1.258-.3,2.028,2.028,0,0,1-.91-.875,2.908,2.908,0,0,1-.312-1.4m1.3.066a1.591,1.591,0,0,0,.339,1.1,1.109,1.109,0,0,0,1.667,0,1.615,1.615,0,0,0,.337-1.1,1.583,1.583,0,0,0-.337-1.085,1.1,1.1,0,0,0-1.667,0,1.586,1.586,0,0,0-.339,1.091" transform="translate(-64.067 -203.384)" fill="#312783"/>
      <path id="Path_1389" data-name="Path 1389" d="M12.587,300.754H11.319v-4.8H12.5v.681a2.017,2.017,0,0,1,.544-.636,1,1,0,0,1,.549-.154,1.607,1.607,0,0,1,.835.239l-.393,1.106a1.108,1.108,0,0,0-.6-.207.7.7,0,0,0-.453.147.994.994,0,0,0-.29.53,7.4,7.4,0,0,0-.107,1.608Z" transform="translate(-60.937 -203.384)" fill="#312783"/>
      <path id="Path_1390" data-name="Path 1390" d="M13.03,295.046H14.3v1.174H13.03Zm0,1.823H14.3v4.8H13.03Z" transform="translate(-58.995 -204.297)" fill="#312783"/>
      <path id="Path_1391" data-name="Path 1391" d="M14.1,298.288a2.58,2.58,0,0,1,.312-1.223,2.119,2.119,0,0,1,.882-.9,2.611,2.611,0,0,1,1.277-.312,2.392,2.392,0,0,1,1.783.707,2.447,2.447,0,0,1,.7,1.787,2.478,2.478,0,0,1-.7,1.8,2.375,2.375,0,0,1-1.768.715,2.787,2.787,0,0,1-1.258-.3,2.028,2.028,0,0,1-.91-.875,2.884,2.884,0,0,1-.312-1.4m1.3.066a1.6,1.6,0,0,0,.337,1.1,1.082,1.082,0,0,0,.837.378,1.07,1.07,0,0,0,.833-.378,1.615,1.615,0,0,0,.337-1.1,1.583,1.583,0,0,0-.337-1.085,1.072,1.072,0,0,0-.833-.38,1.084,1.084,0,0,0-.837.38,1.6,1.6,0,0,0-.337,1.091" transform="translate(-57.784 -203.384)" fill="#312783"/>
      <path id="Path_1392" data-name="Path 1392" d="M51.346,264.359l-.111-.794a.051.051,0,0,0-.056-.047h-.965a.052.052,0,0,0-.056.047l-.137.794a.106.106,0,0,1-.117.1h-1.3c-.075,0-.109-.036-.09-.12l1.322-6.17a.113.113,0,0,1,.12-.1h1.488a.114.114,0,0,1,.12.1l1.324,6.17c.017.083-.021.12-.094.12H51.463a.1.1,0,0,1-.117-.1m.557-7.778-.724.92a.159.159,0,0,1-.137.066h-.986c-.081,0-.128-.047-.081-.128l.538-.922a.146.146,0,0,1,.137-.073h1.179c.092,0,.128.064.075.137m-1.5,5.769h.6c.03,0,.036-.019.036-.045l-.282-1.954c-.009-.036-.047-.036-.053,0l-.339,1.954c-.009.036.011.045.036.045" transform="translate(-18.722 -248.111)" fill="#fff"/>
      <path id="Path_1393" data-name="Path 1393" d="M52.984,258.027h1.3a.106.106,0,0,1,.107.111v4.336c0,1.324-.465,2.336-2.8,2.163a.112.112,0,0,1-.109-.117v-1.087a.092.092,0,0,1,.117-.1c1.087.051,1.26-.292,1.279-.878,0-.045-.036-.055-.064-.019a1,1,0,0,1-.822.365c-.886,0-1.249-.609-1.249-1.58v-1.687c0-1.023.391-1.58,1.249-1.58a.941.941,0,0,1,.831.412c.028.034.056.026.056-.011v-.218a.106.106,0,0,1,.109-.111m-.109,3.074v-1.45c0-.237-.126-.4-.32-.4s-.3.162-.3.4v1.45c0,.239.12.395.3.395s.32-.156.32-.395" transform="translate(-16.193 -246.397)" fill="#fff"/>
      <path id="Path_1394" data-name="Path 1394" d="M54.919,257.987h1.3a.107.107,0,0,1,.111.111v4.5a.1.1,0,0,1-.111.109h-1.3a.1.1,0,0,1-.109-.109v-.12c0-.034-.026-.045-.053-.009a.927.927,0,0,1-.794.312,1.222,1.222,0,0,1-1.281-1.379V258.1a.108.108,0,0,1,.113-.111h1.294a.108.108,0,0,1,.111.111v2.966c0,.273.1.412.293.412s.318-.145.318-.421V258.1a.106.106,0,0,1,.109-.111" transform="translate(-13.99 -246.36)" fill="#fff"/>
      <path id="Path_1395" data-name="Path 1395" d="M58.385,259.48v3.158a.105.105,0,0,1-.109.109h-1.3a.1.1,0,0,1-.109-.109v-.22c0-.036-.028-.053-.056-.017a1.061,1.061,0,0,1-.931.421c-.521.009-1.3-.158-1.3-1.435s.769-1.46,1.872-1.46h.365a.044.044,0,0,0,.045-.047v-.218a.371.371,0,0,0-.365-.41.3.3,0,0,0-.3.263c-.006.075-.045.111-.107.111l-1.324-.009a.1.1,0,0,1-.111-.111,1.667,1.667,0,0,1,1.853-1.552c1.114,0,1.872.6,1.872,1.526m-1.516,1.843v-.337a.043.043,0,0,0-.045-.045h-.284a.382.382,0,0,0-.4.4.313.313,0,0,0,.31.357.4.4,0,0,0,.421-.376" transform="translate(-11.827 -246.398)" fill="#fff"/>
      <path id="Path_1396" data-name="Path 1396" d="M56.547,261.376v-.055a.1.1,0,0,1,.109-.107h1.223c.064,0,.109.026.109.062v.064a.359.359,0,0,0,.367.357.258.258,0,0,0,.273-.273c0-.293-.448-.376-.85-.512a1.5,1.5,0,0,1,.529-2.957,1.564,1.564,0,0,1,1.744,1.58.1.1,0,0,1-.109.1H58.757c-.066,0-.111-.034-.111-.09v-.092a.293.293,0,0,0-.3-.318.3.3,0,0,0-.293.318c0,.3.393.429.7.529.611.2,1.4.5,1.4,1.424,0,.877-.709,1.416-1.787,1.416-1.1,0-1.817-.574-1.817-1.443" transform="translate(-9.602 -246.397)" fill="#fff"/>
      <path id="Path_1397" data-name="Path 1397" d="M62.063,263.5l-.111-.794a.051.051,0,0,0-.056-.047H60.93a.054.054,0,0,0-.056.047l-.134.794a.107.107,0,0,1-.12.1h-1.3c-.075,0-.109-.036-.092-.12l1.324-6.17a.112.112,0,0,1,.12-.1h1.488a.114.114,0,0,1,.12.1l1.324,6.17c.017.083-.021.12-.094.12H62.181a.1.1,0,0,1-.117-.1m-.942-2.009h.6c.028,0,.036-.019.036-.045l-.282-1.954c-.009-.036-.047-.036-.053,0l-.339,1.954c-.009.036.009.045.036.045" transform="translate(-6.559 -247.248)" fill="#fff"/>
      <path id="Path_1398" data-name="Path 1398" d="M65.38,259.206a1.723,1.723,0,0,1-1.723,1.917h-.594a.042.042,0,0,0-.045.047v2.319a.105.105,0,0,1-.111.107h-1.3a.1.1,0,0,1-.109-.107v-6.172a.106.106,0,0,1,.109-.111h1.973a1.812,1.812,0,0,1,1.8,2m-1.514.036c0-.485-.228-.739-.547-.739h-.256a.042.042,0,0,0-.045.045v1.36a.041.041,0,0,0,.045.045h.256c.318,0,.547-.245.547-.711" transform="translate(-3.977 -247.247)" fill="#fff"/>
      <path id="Path_1399" data-name="Path 1399" d="M67.409,259.206a1.723,1.723,0,0,1-1.723,1.917h-.594a.042.042,0,0,0-.045.047v2.319a.1.1,0,0,1-.109.107h-1.3a.1.1,0,0,1-.109-.107v-6.172a.106.106,0,0,1,.109-.111h1.973a1.812,1.812,0,0,1,1.8,2m-1.514.036c0-.485-.228-.739-.547-.739h-.256a.042.042,0,0,0-.045.045v1.36a.042.042,0,0,0,.045.045h.256c.318,0,.547-.245.547-.711" transform="translate(-1.674 -247.247)" fill="#fff"/>
      <path id="Path_1400" data-name="Path 1400" d="M43.62,260.291a.611.611,0,0,0-.181-.047,1.583,1.583,0,0,0-.2-.013h-.03v.7h.045a1.269,1.269,0,0,0,.2-.015.448.448,0,0,0,.171-.049.326.326,0,0,0,.12-.109.32.32,0,0,0,.047-.186.305.305,0,0,0-.049-.181.3.3,0,0,0-.122-.1" transform="translate(-24.742 -243.813)" fill="#fff"/>
      <path id="Path_1401" data-name="Path 1401" d="M40.266,261.123h.653l-.327-.743Z" transform="translate(-28.081 -243.643)" fill="#fff"/>
      <path id="Path_1402" data-name="Path 1402" d="M37.353,261.123h.653l-.327-.743Z" transform="translate(-31.388 -243.643)" fill="#fff"/>
      <path id="Path_1403" data-name="Path 1403" d="M42.336,261.123h.653l-.327-.743Z" transform="translate(-25.732 -243.643)" fill="#fff"/>
      <path id="Path_1404" data-name="Path 1404" d="M44.291,260.291a.581.581,0,0,0-.179-.047,1.669,1.669,0,0,0-.2-.013h-.032v.7h.047a1.315,1.315,0,0,0,.2-.015.5.5,0,0,0,.171-.049.344.344,0,0,0,.12-.109.337.337,0,0,0,.045-.186.305.305,0,0,0-.047-.181.321.321,0,0,0-.124-.1" transform="translate(-23.983 -243.813)" fill="#fff"/>
      <path id="Path_1405" data-name="Path 1405" d="M54.065,253.121H39.5a4.254,4.254,0,0,0-4.242,4.24v14.873a4.257,4.257,0,0,0,4.242,4.242H54.065a4.256,4.256,0,0,0,4.242-4.242V257.361a4.252,4.252,0,0,0-4.242-4.24m-6.992,7.695a3.531,3.531,0,0,1,3.149-1.851,3.31,3.31,0,0,1,3.305,3.3,3.187,3.187,0,0,1-.023.38l-.019.167H49.376v-1.142h2.94a2.173,2.173,0,0,0-2.094-1.584c-.594,0-1.4.177-2.385,1.565l-.152.214L47,260.927Zm-7.342,6.892.363-.48a.036.036,0,0,1,.032-.015l.017,0,.239.124a.035.035,0,0,1,.019.032.031.031,0,0,1-.009.032l-.474.433a.049.049,0,0,1-.03.009l-.017,0-.13-.079a.034.034,0,0,1-.017-.028.028.028,0,0,1,.006-.028m1.407,2.513a.04.04,0,0,1-.034.019H40.81a.038.038,0,0,1-.034-.023l-.237-.525h-.95l-.237.525a.047.047,0,0,1-.038.023h-.292a.047.047,0,0,1-.032-.019.044.044,0,0,1,0-.036l1.04-2.274a.042.042,0,0,1,.038-.021.033.033,0,0,1,.032.021l1.042,2.274a.029.029,0,0,1,0,.036m2.176-1.033a1.159,1.159,0,0,1-.081.433,1.064,1.064,0,0,1-.222.348,1.021,1.021,0,0,1-.335.231,1.124,1.124,0,0,1-.436.085,1.076,1.076,0,0,1-.444-.094,1.226,1.226,0,0,1-.365-.256,1.188,1.188,0,0,1-.239-.376,1.113,1.113,0,0,1-.09-.442,1.209,1.209,0,0,1,.337-.837,1.22,1.22,0,0,1,.371-.254,1.186,1.186,0,0,1,.963.021,1.14,1.14,0,0,1,.414.325.042.042,0,0,1,0,.053l-.192.181a.047.047,0,0,1-.028.011h0a.044.044,0,0,1-.028-.017.822.822,0,0,0-.288-.243.752.752,0,0,0-.365-.1.812.812,0,0,0-.589.248.767.767,0,0,0-.173.267.82.82,0,0,0-.068.331.833.833,0,0,0,.064.314.968.968,0,0,0,.173.275.836.836,0,0,0,.256.19.723.723,0,0,0,.316.073.619.619,0,0,0,.239-.051.766.766,0,0,0,.213-.13.694.694,0,0,0,.156-.194.574.574,0,0,0,.06-.192h-.519a.041.041,0,0,1-.041-.043v-.25a.038.038,0,0,1,.041-.036h.863a.042.042,0,0,1,.043.036Zm1.823.211a.954.954,0,0,1-.058.344.813.813,0,0,1-.164.284.744.744,0,0,1-.265.19.905.905,0,0,1-.35.068.921.921,0,0,1-.35-.068.764.764,0,0,1-.265-.19.814.814,0,0,1-.164-.284,1,1,0,0,1-.058-.344v-1.379a.039.039,0,0,1,.041-.038h.269a.041.041,0,0,1,.043.038v1.287a1.377,1.377,0,0,0,.021.25.55.55,0,0,0,.077.2.343.343,0,0,0,.147.139.472.472,0,0,0,.239.053.494.494,0,0,0,.243-.053.358.358,0,0,0,.143-.139.592.592,0,0,0,.079-.2,1.376,1.376,0,0,0,.021-.25v-1.287a.038.038,0,0,1,.038-.038H45.1a.037.037,0,0,1,.038.038Zm2.218.822a.04.04,0,0,1-.032.019h-.29a.05.05,0,0,1-.038-.023l-.237-.525h-.95l-.237.525a.038.038,0,0,1-.034.023h-.295a.033.033,0,0,1-.03-.019.03.03,0,0,1-.006-.036l1.044-2.274a.033.033,0,0,1,.032-.021.039.039,0,0,1,.036.021l1.044,2.274a.046.046,0,0,1-.006.036m1.388-.367a.7.7,0,0,1-.389.376.732.732,0,0,1-.29.055.72.72,0,0,1-.265-.049.766.766,0,0,1-.216-.135.7.7,0,0,1-.154-.2.747.747,0,0,1-.079-.256.041.041,0,0,1,.03-.045l.278-.056h0l.026.006a.032.032,0,0,1,.015.03.455.455,0,0,0,.028.149.329.329,0,0,0,.081.12.351.351,0,0,0,.126.079.373.373,0,0,0,.149.028.293.293,0,0,0,.141-.034.32.32,0,0,0,.115-.083.35.35,0,0,0,.077-.12.432.432,0,0,0,.028-.149.284.284,0,0,0-.03-.134.246.246,0,0,0-.075-.1.416.416,0,0,0-.113-.079.953.953,0,0,0-.135-.064l-.152-.064c-.062-.028-.122-.058-.181-.092a.681.681,0,0,1-.16-.12.536.536,0,0,1-.113-.164.58.58,0,0,1,.019-.47.6.6,0,0,1,.149-.186.665.665,0,0,1,.22-.12.76.76,0,0,1,.252-.041.648.648,0,0,1,.6.35.042.042,0,0,1-.015.051l-.216.132-.021,0h-.011a.025.025,0,0,1-.021-.019.416.416,0,0,0-.132-.139.352.352,0,0,0-.186-.047.334.334,0,0,0-.12.019.285.285,0,0,0-.107.055.442.442,0,0,0-.073.083.251.251,0,0,0-.028.111.16.16,0,0,0,.026.092.276.276,0,0,0,.064.079.526.526,0,0,0,.088.06c.038.017.068.032.1.045l.158.062a1.872,1.872,0,0,1,.218.1.717.717,0,0,1,.184.143.6.6,0,0,1,.12.19.72.72,0,0,1,.043.254.746.746,0,0,1-.056.288m3.032.367a.043.043,0,0,1-.034.019h-.288a.044.044,0,0,1-.038-.023l-.239-.525h-.948l-.239.525a.035.035,0,0,1-.034.023h-.295a.039.039,0,0,1-.03-.019.03.03,0,0,1,0-.036l1.042-2.274a.036.036,0,0,1,.034-.021.041.041,0,0,1,.036.021l1.042,2.274a.045.045,0,0,1,0,.036m1.315-1.262a.592.592,0,0,1-.177.211.737.737,0,0,1-.258.12,1.358,1.358,0,0,1-.3.034h-.117v.875a.04.04,0,0,1-.038.041h-.273a.04.04,0,0,1-.038-.041v-2.18a.038.038,0,0,1,.038-.038h.316a1.916,1.916,0,0,1,.429.041.8.8,0,0,1,.284.13.5.5,0,0,1,.156.218.773.773,0,0,1,.047.282.675.675,0,0,1-.064.307m-.871-3.719a3.288,3.288,0,0,1-1.885.591,3.434,3.434,0,0,1-2.507-1.151,25.978,25.978,0,0,1-1.629-2.12c-.391-.542-.758-1.055-1.055-1.422a2.191,2.191,0,1,0-1.717,3.538,2.359,2.359,0,0,0,1.8-.914c.149-.167.562-.647.564-.653l.149-.177.685.9.013.017v1.864H45.45v-.621a3.163,3.163,0,0,1-2.024.715,3.3,3.3,0,1,1,0-6.6,3.417,3.417,0,0,1,2.024.726v-.7h1.187v2.043c.169.228.348.468.529.717.519.707,1.055,1.435,1.456,1.892a2.292,2.292,0,0,0,1.71.828,2.18,2.18,0,0,0,1.629-.734H53.3a3.347,3.347,0,0,1-1.087,1.268m2.3,3.719a.571.571,0,0,1-.177.211.72.72,0,0,1-.258.12,1.373,1.373,0,0,1-.3.034h-.117v.875a.04.04,0,0,1-.038.041h-.271a.044.044,0,0,1-.041-.041v-2.18a.042.042,0,0,1,.041-.038h.312a1.891,1.891,0,0,1,.429.041.791.791,0,0,1,.286.13.526.526,0,0,1,.158.218.822.822,0,0,1,.045.282.7.7,0,0,1-.064.307" transform="translate(-33.771 -251.883)" fill="#fff"/>
      <path id="Path_1406" data-name="Path 1406" d="M45.391,295.107h-4.7V283.743H38.345v-3.926h2.334c0-.743-.015-1.426.006-2.105a12.617,12.617,0,0,1,.141-1.909,3.9,3.9,0,0,1,3.612-3.38,9.511,9.511,0,0,1,1.234-.094c1.059-.013,2.122,0,3.22,0v3.928c-.436,0-.858,0-1.281,0-.365,0-.732-.013-1.093.023-.784.081-1.065.35-1.106,1.125s-.006,1.548-.006,2.387h3.54c-.143,1.347-.278,2.624-.418,3.939H45.391Z" transform="translate(-30.262 -230.089)" fill="#fff"/>
      <path id="Path_1407" data-name="Path 1407" d="M45.463,282.717l1.64-6.847h.952L46.4,282.717Z" transform="translate(-22.182 -226.062)" fill="#fff"/>
      <path id="Path_1408" data-name="Path 1408" d="M48.11,278.3l-1.151-.209a1.79,1.79,0,0,1,.666-1.029,2.457,2.457,0,0,1,1.409-.333,3.032,3.032,0,0,1,1.266.2,1.263,1.263,0,0,1,.583.51,2.6,2.6,0,0,1,.171,1.136l-.015,1.482a5.1,5.1,0,0,0,.062.931,2.765,2.765,0,0,0,.228.645H50.074c-.034-.085-.075-.209-.122-.376-.021-.075-.036-.124-.047-.149a2.26,2.26,0,0,1-.694.474,1.972,1.972,0,0,1-.79.16,1.632,1.632,0,0,1-1.168-.4,1.336,1.336,0,0,1-.427-1.016,1.356,1.356,0,0,1,.194-.724,1.249,1.249,0,0,1,.544-.489,4.395,4.395,0,0,1,1.01-.295,6.924,6.924,0,0,0,1.232-.312v-.126a.658.658,0,0,0-.181-.523,1.085,1.085,0,0,0-.681-.156.76.76,0,0,0-.835.6m1.7,1.029c-.162.053-.421.12-.773.194a2.264,2.264,0,0,0-.69.222.526.526,0,0,0-.25.446.62.62,0,0,0,.2.461.691.691,0,0,0,.5.194,1.108,1.108,0,0,0,.655-.226.8.8,0,0,0,.3-.421,2.56,2.56,0,0,0,.049-.619Z" transform="translate(-20.634 -225.089)" fill="#fff"/>
      <path id="Path_1409" data-name="Path 1409" d="M49.427,281.947l1.45.175a.489.489,0,0,0,.167.348.965.965,0,0,0,.57.137,1.47,1.47,0,0,0,.745-.149.616.616,0,0,0,.252-.32,1.884,1.884,0,0,0,.06-.583v-.7a1.717,1.717,0,0,1-1.437.777,1.768,1.768,0,0,1-1.531-.818,2.785,2.785,0,0,1-.442-1.608,2.635,2.635,0,0,1,.581-1.843,1.869,1.869,0,0,1,1.443-.636,1.759,1.759,0,0,1,1.467.781v-.675h1.187v4.3a4.368,4.368,0,0,1-.139,1.27,1.563,1.563,0,0,1-.393.658,1.73,1.73,0,0,1-.677.376,3.573,3.573,0,0,1-1.068.134,2.768,2.768,0,0,1-1.729-.416,1.315,1.315,0,0,1-.51-1.059c0-.043,0-.094,0-.154m1.134-2.814a1.727,1.727,0,0,0,.3,1.119.916.916,0,0,0,.728.354,1.007,1.007,0,0,0,.786-.365,1.58,1.58,0,0,0,.32-1.076,1.66,1.66,0,0,0-.307-1.106.97.97,0,0,0-.775-.361.936.936,0,0,0-.752.352,1.659,1.659,0,0,0-.3,1.083" transform="translate(-17.873 -225.089)" fill="#fff"/>
      <path id="Path_1410" data-name="Path 1410" d="M55.21,281.571v-.717a1.839,1.839,0,0,1-.69.606,1.933,1.933,0,0,1-.9.222,1.745,1.745,0,0,1-.867-.214,1.25,1.25,0,0,1-.555-.6,2.643,2.643,0,0,1-.171-1.061v-3.034H53.3v2.2a6.093,6.093,0,0,0,.07,1.24.689.689,0,0,0,.254.361.8.8,0,0,0,.47.132,1,1,0,0,0,.583-.177.894.894,0,0,0,.352-.444,5.1,5.1,0,0,0,.094-1.294v-2.022h1.27v4.793Z" transform="translate(-14.732 -225.031)" fill="#fff"/>
      <path id="Path_1411" data-name="Path 1411" d="M55.811,278.3l-1.151-.209a1.792,1.792,0,0,1,.668-1.029,2.449,2.449,0,0,1,1.407-.333,3.032,3.032,0,0,1,1.266.2,1.252,1.252,0,0,1,.583.51,2.6,2.6,0,0,1,.171,1.136l-.013,1.482a5.148,5.148,0,0,0,.06.931,2.765,2.765,0,0,0,.228.645H57.775c-.034-.085-.075-.209-.122-.376-.021-.075-.036-.124-.047-.149a2.26,2.26,0,0,1-.694.474,1.972,1.972,0,0,1-.79.16,1.632,1.632,0,0,1-1.168-.4,1.336,1.336,0,0,1-.427-1.016,1.356,1.356,0,0,1,.194-.724,1.273,1.273,0,0,1,.544-.489,4.4,4.4,0,0,1,1.01-.295,6.924,6.924,0,0,0,1.232-.312v-.126a.665.665,0,0,0-.179-.523,1.1,1.1,0,0,0-.683-.156.9.9,0,0,0-.527.134.919.919,0,0,0-.307.468m1.7,1.029c-.162.053-.421.12-.773.194a2.287,2.287,0,0,0-.69.222.524.524,0,0,0-.248.446.618.618,0,0,0,.2.461.7.7,0,0,0,.506.194,1.1,1.1,0,0,0,.653-.226.8.8,0,0,0,.3-.421,2.561,2.561,0,0,0,.049-.619Z" transform="translate(-11.894 -225.089)" fill="#fff"/>
      <path id="Path_1412" data-name="Path 1412" d="M56.885,280.263l1.272-.194a.943.943,0,0,0,.331.561,1.115,1.115,0,0,0,.7.192,1.257,1.257,0,0,0,.739-.179.4.4,0,0,0,.169-.339.329.329,0,0,0-.092-.239,1,1,0,0,0-.423-.167,6.9,6.9,0,0,1-1.947-.619,1.234,1.234,0,0,1-.568-1.08,1.331,1.331,0,0,1,.491-1.046,2.294,2.294,0,0,1,1.527-.425,2.662,2.662,0,0,1,1.462.32,1.629,1.629,0,0,1,.66.948l-1.2.222a.734.734,0,0,0-.293-.429,1.053,1.053,0,0,0-.611-.149,1.376,1.376,0,0,0-.719.141.3.3,0,0,0-.143.256.282.282,0,0,0,.126.231,4.71,4.71,0,0,0,1.185.357,3.509,3.509,0,0,1,1.416.566,1.171,1.171,0,0,1,.4.944,1.449,1.449,0,0,1-.551,1.134,2.436,2.436,0,0,1-1.629.474,2.683,2.683,0,0,1-1.552-.4,1.824,1.824,0,0,1-.747-1.078" transform="translate(-9.218 -225.089)" fill="#fff"/>
      <path id="Path_1413" data-name="Path 1413" d="M64.052,282.544H62.874v-.7a1.922,1.922,0,0,1-.694.613,1.788,1.788,0,0,1-.8.2,1.826,1.826,0,0,1-1.416-.666,2.711,2.711,0,0,1-.589-1.86,2.669,2.669,0,0,1,.574-1.853,1.869,1.869,0,0,1,1.45-.634,1.79,1.79,0,0,1,1.39.668v-2.385h1.268Zm-3.386-2.5a2.213,2.213,0,0,0,.211,1.112.959.959,0,0,0,.858.5.935.935,0,0,0,.745-.372,1.722,1.722,0,0,0,.307-1.115,1.865,1.865,0,0,0-.3-1.189.979.979,0,0,0-1.518,0,1.621,1.621,0,0,0-.305,1.072" transform="translate(-6.398 -226.002)" fill="#fff"/>
      <path id="Path_1414" data-name="Path 1414" d="M62.012,279.165a2.628,2.628,0,0,1,.31-1.223,2.148,2.148,0,0,1,.884-.9,2.629,2.629,0,0,1,1.277-.312,2.392,2.392,0,0,1,1.783.707,2.447,2.447,0,0,1,.7,1.787,2.478,2.478,0,0,1-.7,1.8,2.375,2.375,0,0,1-1.768.715,2.787,2.787,0,0,1-1.258-.3,2.05,2.05,0,0,1-.912-.873,2.947,2.947,0,0,1-.31-1.4m1.3.068a1.6,1.6,0,0,0,.337,1.093,1.082,1.082,0,0,0,.837.378,1.07,1.07,0,0,0,.833-.378,1.615,1.615,0,0,0,.335-1.1,1.586,1.586,0,0,0-.335-1.085,1.07,1.07,0,0,0-.833-.378,1.082,1.082,0,0,0-.837.378,1.6,1.6,0,0,0-.337,1.093" transform="translate(-3.399 -225.089)" fill="#fff"/>
      <path id="Path_1415" data-name="Path 1415" d="M66.038,281.629H64.77v-4.793h1.179v.681a2.043,2.043,0,0,1,.542-.636,1.009,1.009,0,0,1,.551-.154,1.608,1.608,0,0,1,.835.239l-.393,1.106a1.108,1.108,0,0,0-.6-.207.7.7,0,0,0-.453.147.994.994,0,0,0-.29.529,7.547,7.547,0,0,0-.107,1.608Z" transform="translate(-0.269 -225.089)" fill="#fff"/>
      <path id="Path_1416" data-name="Path 1416" d="M66.481,275.923h1.268V277.1H66.481Zm0,1.823h1.268v4.8H66.481Z" transform="translate(1.673 -226.002)" fill="#fff"/>
      <path id="Path_1417" data-name="Path 1417" d="M67.548,279.165a2.6,2.6,0,0,1,.31-1.223,2.131,2.131,0,0,1,.882-.9,2.635,2.635,0,0,1,1.277-.312,2.392,2.392,0,0,1,1.783.707,2.44,2.44,0,0,1,.7,1.787,2.471,2.471,0,0,1-.7,1.8,2.375,2.375,0,0,1-1.768.715,2.787,2.787,0,0,1-1.258-.3,2.034,2.034,0,0,1-.91-.873,2.922,2.922,0,0,1-.31-1.4m1.3.068a1.588,1.588,0,0,0,.337,1.093,1.109,1.109,0,0,0,1.667,0,1.615,1.615,0,0,0,.339-1.1,1.587,1.587,0,0,0-.339-1.085,1.109,1.109,0,0,0-1.667,0,1.588,1.588,0,0,0-.337,1.093" transform="translate(2.884 -225.089)" fill="#fff"/>
      <path id="Path_1418" data-name="Path 1418" d="M46.877,313.524a51.408,51.408,0,0,1-5.651-.053,6.3,6.3,0,0,1-5.493-6.236c-.043-3.192-.053-6.386,0-9.58a6.531,6.531,0,0,1,6.456-6.407q4.7-.054,9.409,0a6.551,6.551,0,0,1,6.476,6.51q.032,4.66,0,9.317a6.541,6.541,0,0,1-6.42,6.52c-1.591.019-3.183,0-4.774,0v-.073m-9.443-11.1c0,1.548-.006,3.094,0,4.642a4.838,4.838,0,0,0,4.8,4.823q4.666.022,9.332,0a4.829,4.829,0,0,0,4.808-4.8q.019-4.669,0-9.343a4.817,4.817,0,0,0-4.8-4.787q-4.66-.016-9.324,0a4.843,4.843,0,0,0-4.814,4.827c-.009,1.548,0,3.094,0,4.642" transform="translate(-33.268 -208.638)" fill="#fff"/>
      <path id="Path_1419" data-name="Path 1419" d="M44.323,305.662a6,6,0,1,1,5.816-6.2,6.014,6.014,0,0,1-5.816,6.2m-4.5-6a4.347,4.347,0,0,0,5.94,4.01,4.265,4.265,0,0,0,2.442-2.513,4.324,4.324,0,1,0-8.382-1.5" transform="translate(-30.508 -205.882)" fill="#fff"/>
      <path id="Path_1420" data-name="Path 1420" d="M44.606,292.847a.867.867,0,0,1,.848.865.821.821,0,0,1-.875.818.772.772,0,0,1-.8-.813.837.837,0,0,1,.828-.869" transform="translate(-24.097 -206.793)" fill="#fff"/>
      <path id="Path_1421" data-name="Path 1421" d="M55.781,301.642h.963a3.26,3.26,0,0,1-1.386,1.437,5.3,5.3,0,0,1-2.611.6,6.03,6.03,0,0,1-2.573-.5,3.383,3.383,0,0,1-1.614-1.486,4.433,4.433,0,0,1-.527-2.137,4.849,4.849,0,0,1,.6-2.363,3.949,3.949,0,0,1,1.644-1.644,5.031,5.031,0,0,1,2.385-.549,4.478,4.478,0,0,1,2.024.442,3.136,3.136,0,0,1,1.351,1.258,3.524,3.524,0,0,1,.468,1.783,3.359,3.359,0,0,1-.709,2.082,2.744,2.744,0,0,1-2.28,1.172,1,1,0,0,1-.566-.13.637.637,0,0,1-.252-.384,1.715,1.715,0,0,1-1.228.515,1.641,1.641,0,0,1-1.245-.517,1.9,1.9,0,0,1-.5-1.375,3.367,3.367,0,0,1,.6-1.937,2.164,2.164,0,0,1,1.853-1.065,1.3,1.3,0,0,1,1.187.613l.113-.5h1.191l-.681,3.237a2.616,2.616,0,0,0-.064.4.228.228,0,0,0,.053.169.159.159,0,0,0,.124.058,1.031,1.031,0,0,0,.559-.263,2.5,2.5,0,0,0,.745-.92,2.676,2.676,0,0,0,.284-1.2,2.433,2.433,0,0,0-.8-1.857,3.177,3.177,0,0,0-2.246-.747,4.024,4.024,0,0,0-2.073.5,3.172,3.172,0,0,0-1.283,1.4,4.311,4.311,0,0,0-.431,1.885,3.247,3.247,0,0,0,.48,1.734,2.79,2.79,0,0,0,1.351,1.14,5.779,5.779,0,0,0,3.845.058,2.873,2.873,0,0,0,1.249-.9M50.9,299.786a1.267,1.267,0,0,0,.233.843.726.726,0,0,0,.576.271.965.965,0,0,0,.483-.126,1.183,1.183,0,0,0,.339-.284,2.375,2.375,0,0,0,.412-.8,3.182,3.182,0,0,0,.173-.986,1.176,1.176,0,0,0-.235-.784.764.764,0,0,0-.6-.271,1.043,1.043,0,0,0-.717.3,1.852,1.852,0,0,0-.5.856,3.474,3.474,0,0,0-.167.984" transform="translate(-19.266 -204.359)" fill="#fff"/>
      <path id="Path_1422" data-name="Path 1422" d="M53.565,297.423l-1.151-.209a1.774,1.774,0,0,1,.668-1.029,2.452,2.452,0,0,1,1.407-.335,3.021,3.021,0,0,1,1.266.2,1.241,1.241,0,0,1,.583.51,2.565,2.565,0,0,1,.173,1.136l-.013,1.48a4.967,4.967,0,0,0,.06.933,2.819,2.819,0,0,0,.226.645H55.532a3.346,3.346,0,0,1-.124-.376c-.021-.075-.036-.124-.047-.149a2.234,2.234,0,0,1-.694.474,1.964,1.964,0,0,1-.79.16,1.635,1.635,0,0,1-1.168-.4,1.336,1.336,0,0,1-.427-1.016,1.357,1.357,0,0,1,.2-.724,1.268,1.268,0,0,1,.542-.489,4.325,4.325,0,0,1,1.01-.295,7.009,7.009,0,0,0,1.234-.312V297.5a.662.662,0,0,0-.181-.523,1.1,1.1,0,0,0-.683-.156.884.884,0,0,0-.525.135.907.907,0,0,0-.31.468m1.7,1.029c-.162.053-.423.12-.775.194a2.394,2.394,0,0,0-.69.22.535.535,0,0,0-.248.448.612.612,0,0,0,.2.461.692.692,0,0,0,.506.194,1.107,1.107,0,0,0,.653-.226.809.809,0,0,0,.3-.421,2.526,2.526,0,0,0,.051-.619Z" transform="translate(-14.443 -203.385)" fill="#fff"/>
      <path id="Path_1423" data-name="Path 1423" d="M54.882,301.07l1.45.175a.49.49,0,0,0,.169.348.954.954,0,0,0,.568.137,1.493,1.493,0,0,0,.745-.149.606.606,0,0,0,.252-.32,1.884,1.884,0,0,0,.06-.583v-.7a1.717,1.717,0,0,1-1.437.777,1.77,1.77,0,0,1-1.531-.818,2.785,2.785,0,0,1-.442-1.608,2.645,2.645,0,0,1,.581-1.843,1.869,1.869,0,0,1,1.443-.636,1.756,1.756,0,0,1,1.467.781v-.675h1.187v4.3a4.368,4.368,0,0,1-.139,1.27,1.563,1.563,0,0,1-.393.658,1.73,1.73,0,0,1-.677.376,3.563,3.563,0,0,1-1.068.135,2.768,2.768,0,0,1-1.729-.416,1.315,1.315,0,0,1-.51-1.059c0-.043,0-.094,0-.154m1.134-2.814a1.727,1.727,0,0,0,.3,1.119.916.916,0,0,0,.728.354,1,1,0,0,0,.786-.365,1.581,1.581,0,0,0,.322-1.076,1.672,1.672,0,0,0-.307-1.106.979.979,0,0,0-.777-.363.937.937,0,0,0-.752.354,1.658,1.658,0,0,0-.3,1.082" transform="translate(-11.681 -203.384)" fill="#fff"/>
      <path id="Path_1424" data-name="Path 1424" d="M60.665,300.7v-.717a1.837,1.837,0,0,1-.69.6,1.927,1.927,0,0,1-.9.222,1.75,1.75,0,0,1-.867-.214,1.26,1.26,0,0,1-.555-.6,2.681,2.681,0,0,1-.171-1.061V295.9H58.75v2.2a6.092,6.092,0,0,0,.07,1.24.689.689,0,0,0,.254.361.8.8,0,0,0,.472.132,1,1,0,0,0,.581-.177.9.9,0,0,0,.352-.444,5.062,5.062,0,0,0,.1-1.294V295.9h1.268v4.8Z" transform="translate(-8.541 -203.326)" fill="#fff"/>
      <path id="Path_1425" data-name="Path 1425" d="M61.267,297.423l-1.151-.209a1.782,1.782,0,0,1,.666-1.029,2.455,2.455,0,0,1,1.409-.335,3.01,3.01,0,0,1,1.264.2,1.258,1.258,0,0,1,.585.51,2.6,2.6,0,0,1,.171,1.136l-.015,1.48a5.113,5.113,0,0,0,.062.933,2.732,2.732,0,0,0,.228.645H63.231c-.034-.085-.075-.209-.122-.376-.021-.075-.036-.124-.047-.149a2.259,2.259,0,0,1-.694.474,1.972,1.972,0,0,1-.79.16,1.632,1.632,0,0,1-1.168-.4,1.336,1.336,0,0,1-.427-1.016,1.356,1.356,0,0,1,.194-.724,1.261,1.261,0,0,1,.544-.489,4.293,4.293,0,0,1,1.01-.295,6.919,6.919,0,0,0,1.232-.312V297.5a.662.662,0,0,0-.179-.523,1.1,1.1,0,0,0-.683-.156.76.76,0,0,0-.835.6m1.7,1.029c-.162.053-.421.12-.773.194a2.346,2.346,0,0,0-.69.22.53.53,0,0,0-.248.448.618.618,0,0,0,.2.461.7.7,0,0,0,.506.194,1.107,1.107,0,0,0,.653-.226.8.8,0,0,0,.3-.421,2.559,2.559,0,0,0,.049-.619Z" transform="translate(-5.701 -203.385)" fill="#fff"/>
      <path id="Path_1426" data-name="Path 1426" d="M62.34,299.386l1.272-.194a.932.932,0,0,0,.331.562,1.111,1.111,0,0,0,.7.192,1.257,1.257,0,0,0,.739-.179.4.4,0,0,0,.169-.339.336.336,0,0,0-.09-.239,1.028,1.028,0,0,0-.425-.167,6.876,6.876,0,0,1-1.947-.619,1.234,1.234,0,0,1-.568-1.08,1.324,1.324,0,0,1,.491-1.046,2.294,2.294,0,0,1,1.527-.425,2.663,2.663,0,0,1,1.462.32,1.629,1.629,0,0,1,.66.948l-1.2.222a.735.735,0,0,0-.292-.429,1.056,1.056,0,0,0-.613-.149,1.374,1.374,0,0,0-.717.141.3.3,0,0,0-.143.256.277.277,0,0,0,.126.231,4.685,4.685,0,0,0,1.185.357,3.543,3.543,0,0,1,1.416.564,1.178,1.178,0,0,1,.4.946,1.449,1.449,0,0,1-.551,1.134,2.436,2.436,0,0,1-1.629.474,2.678,2.678,0,0,1-1.552-.4,1.824,1.824,0,0,1-.747-1.078" transform="translate(-3.027 -203.384)" fill="#fff"/>
      <path id="Path_1427" data-name="Path 1427" d="M69.508,301.667H68.327v-.7a1.911,1.911,0,0,1-.69.613,1.8,1.8,0,0,1-2.223-.466A3.258,3.258,0,0,1,65.4,297.4a1.869,1.869,0,0,1,1.45-.634,1.787,1.787,0,0,1,1.39.668v-2.385h1.27Zm-3.386-2.5a2.175,2.175,0,0,0,.211,1.11.959.959,0,0,0,.858.5.934.934,0,0,0,.745-.374,1.716,1.716,0,0,0,.305-1.112,1.866,1.866,0,0,0-.3-1.189.975.975,0,0,0-1.518,0,1.609,1.609,0,0,0-.305,1.072" transform="translate(-0.205 -204.297)" fill="#fff"/>
      <path id="Path_1428" data-name="Path 1428" d="M67.467,298.288a2.6,2.6,0,0,1,.312-1.223,2.119,2.119,0,0,1,.882-.9,2.611,2.611,0,0,1,1.277-.312,2.389,2.389,0,0,1,1.783.707,2.439,2.439,0,0,1,.7,1.787,2.478,2.478,0,0,1-.7,1.8,2.375,2.375,0,0,1-1.768.715,2.787,2.787,0,0,1-1.258-.3,2.028,2.028,0,0,1-.91-.875,2.908,2.908,0,0,1-.312-1.4m1.3.066a1.591,1.591,0,0,0,.339,1.1,1.109,1.109,0,0,0,1.667,0,1.615,1.615,0,0,0,.337-1.1,1.583,1.583,0,0,0-.337-1.085,1.1,1.1,0,0,0-1.667,0,1.586,1.586,0,0,0-.339,1.091" transform="translate(2.793 -203.384)" fill="#fff"/>
      <path id="Path_1429" data-name="Path 1429" d="M71.5,300.754h-1.27v-4.8H71.4v.681a2.073,2.073,0,0,1,.544-.636,1,1,0,0,1,.549-.154,1.609,1.609,0,0,1,.837.239l-.393,1.106a1.108,1.108,0,0,0-.6-.207.7.7,0,0,0-.453.147.994.994,0,0,0-.29.53,7.547,7.547,0,0,0-.107,1.608Z" transform="translate(5.923 -203.384)" fill="#fff"/>
      <path id="Path_1430" data-name="Path 1430" d="M71.936,295.046H73.2v1.174H71.936Zm0,1.823H73.2v4.8H71.936Z" transform="translate(7.865 -204.297)" fill="#fff"/>
      <path id="Path_1431" data-name="Path 1431" d="M73,298.288a2.6,2.6,0,0,1,.312-1.223,2.112,2.112,0,0,1,.884-.9,2.6,2.6,0,0,1,1.275-.312,2.389,2.389,0,0,1,1.783.707,2.439,2.439,0,0,1,.7,1.787,2.478,2.478,0,0,1-.7,1.8,2.375,2.375,0,0,1-1.768.715,2.788,2.788,0,0,1-1.258-.3,2.028,2.028,0,0,1-.91-.875,2.908,2.908,0,0,1-.312-1.4m1.3.066a1.591,1.591,0,0,0,.339,1.1,1.109,1.109,0,0,0,1.667,0,1.615,1.615,0,0,0,.337-1.1,1.583,1.583,0,0,0-.337-1.085,1.1,1.1,0,0,0-1.667,0,1.586,1.586,0,0,0-.339,1.091" transform="translate(9.076 -203.384)" fill="#fff"/>
    </g>
  </g>
</svg>
