<svg xmlns="http://www.w3.org/2000/svg" xmlns:xlink="http://www.w3.org/1999/xlink" width="50" height="50" viewBox="0 0 50 50">
  <defs>
    <linearGradient id="linear-gradient" y1="0.5" x2="1" y2="0.5" gradientUnits="objectBoundingBox">
      <stop offset="0" stop-color="#00aaac"/>
      <stop offset="1" stop-color="#253e92"/>
    </linearGradient>
    <clipPath id="clip-path">
      <rect id="Rectangle_44" data-name="Rectangle 44" width="23.949" height="23.949" fill="none"/>
    </clipPath>
  </defs>
  <g id="icon-whats" transform="translate(-1005 -1624)">
    <circle id="Ellipse_18" data-name="Ellipse 18" cx="25" cy="25" r="25" transform="translate(1005 1624)" fill="url(#linear-gradient)"/>
    <g id="Group_167" data-name="Group 167" transform="translate(1018 1637)" clip-path="url(#clip-path)">
      <path id="Path_1470" data-name="Path 1470" d="M80.564,209.747a7.667,7.667,0,0,0-.143-1.082,10.45,10.45,0,0,0-2.415-4.983,10.558,10.558,0,0,0-8.1-3.732.633.633,0,1,0-.021,1.264,10.728,10.728,0,0,1,1.672.16,9.478,9.478,0,0,1,7.784,9.3.633.633,0,0,0,.5.638.644.644,0,0,0,.709-.369c.015-.028.009-.07.051-.083v-1.012c-.056-.017-.038-.066-.041-.1" transform="translate(-57.948 -165.178)" fill="#fff"/>
      <path id="Path_1471" data-name="Path 1471" d="M78.072,209.118a7.22,7.22,0,0,0-.143-1.349,8.234,8.234,0,0,0-8-6.636A.634.634,0,1,0,69.9,202.4a7.092,7.092,0,0,1,3.111.76,6.929,6.929,0,0,1,3.04,3.04,7.15,7.15,0,0,1,.76,3.156.632.632,0,0,0,.544.626.641.641,0,0,0,.7-.455,1.579,1.579,0,0,0,.019-.406" transform="translate(-57.948 -163.834)" fill="#fff"/>
      <path id="Path_1472" data-name="Path 1472" d="M69.9,203.583a4.366,4.366,0,0,1,4.01,2.654,4.3,4.3,0,0,1,.376,1.774.633.633,0,1,0,1.266-.017,4.877,4.877,0,0,0-.109-1.127,5.59,5.59,0,0,0-1.42-2.741,5.65,5.65,0,0,0-3.941-1.81,1.778,1.778,0,0,0-.4.023.641.641,0,0,0-.451.7.652.652,0,0,0,.668.547" transform="translate(-57.949 -162.492)" fill="#fff"/>
      <path id="Path_1473" data-name="Path 1473" d="M79.352,211.924a1.813,1.813,0,0,0-2.581-.006c-.369.32-.7.687-1.053,1.029-.207.2-.365.517-.628.568a1.8,1.8,0,0,1-.976-.267c-.058-.026-.115-.051-.171-.081a7.133,7.133,0,0,1-2.509-2.229,4.115,4.115,0,0,1-.764-1.732.277.277,0,0,1,.1-.273c.474-.47.948-.939,1.416-1.415a1.846,1.846,0,0,0,.109-2.69q-1.339-1.448-2.784-2.786a1.847,1.847,0,0,0-2.675.088c-.271.267-.538.536-.8.807a5.217,5.217,0,0,0-1.541,3.164,5.043,5.043,0,0,0,.865,3.531,35.22,35.22,0,0,0,3.183,3.894,43.323,43.323,0,0,0,5.741,5.16,5.109,5.109,0,0,0,2.641,1.035l.009.036h1.1a.03.03,0,0,1,.006-.038,4.924,4.924,0,0,0,2.133-.7,8.6,8.6,0,0,0,1.983-1.779,1.786,1.786,0,0,0,.006-2.511q-1.351-1.448-2.8-2.805m-11.89-8.632a2.757,2.757,0,0,0,.226-.22.653.653,0,0,1,1.072-.006l.8.8q.852.849,1.7,1.7a.66.66,0,0,1,0,1.074c-.113.113-.224.231-.339.35-.051-.047-.094-.085-.132-.124q-1.662-1.662-3.324-3.32c-.1-.1-.122-.164,0-.256m12.18,14.557A3.978,3.978,0,0,1,75,217.641a42.465,42.465,0,0,1-5.549-5,35.258,35.258,0,0,1-3.064-3.743,3.944,3.944,0,0,1-.026-4.394c.079-.115.117-.149.235-.03q1.64,1.653,3.292,3.29c.094.094.117.158,0,.237-.011.006-.017.021-.03.03a1.293,1.293,0,0,0-.418,1.505,6.527,6.527,0,0,0,1.958,3.314,7.23,7.23,0,0,0,2.671,1.74,4.038,4.038,0,0,0,1.1.233.932.932,0,0,0,.8-.331c.288-.307.295-.3.587-.006q1.55,1.547,3.1,3.094c.117.117.126.171-.023.265m1.437-1.317c-.111.1-.222.293-.335.295s-.224-.186-.333-.295c-1.033-1.031-2.065-2.067-3.1-3.094-.115-.113-.13-.184,0-.284a2.467,2.467,0,0,0,.226-.222.65.65,0,0,1,1.055.009c.459.457.914.914,1.371,1.371.389.386.775.777,1.164,1.161a.664.664,0,0,1,.235.525.691.691,0,0,1-.282.534" transform="translate(-63.371 -163.407)" fill="#fff"/>
      <path id="Path_1474" data-name="Path 1474" d="M85.734,192.757a10.458,10.458,0,0,0-7.663-8.258,10.222,10.222,0,0,0-9.027,1.849,10.067,10.067,0,0,0-3.856,6.16,10.256,10.256,0,0,0,.8,6.6.747.747,0,0,1,.043.63c-.536,1.488-1.04,2.989-1.582,4.475a1.061,1.061,0,0,0,.632,1.524h.423c.822-.292,1.644-.587,2.468-.878s1.642-.566,2.457-.86a.478.478,0,0,1,.414.023A10.478,10.478,0,0,0,85.807,196.1c.038-.256.064-.512.1-.771V193.9c-.056-.38-.1-.76-.169-1.14m-4.644,9.106a8.79,8.79,0,0,1-6.286,1.932,8.506,8.506,0,0,1-3.444-.939,1.506,1.506,0,0,0-1.3-.079c-1.341.493-2.694.95-4.044,1.42-.064.021-.128.043-.224.073.224-.643.436-1.255.651-1.866.3-.854.591-1.708.9-2.558a1.168,1.168,0,0,0-.064-.991,8.677,8.677,0,0,1-.961-3.094,9.009,9.009,0,0,1,2.107-7.071,8.829,8.829,0,0,1,5.143-3.062,8.961,8.961,0,0,1,7.485,1.721,8.678,8.678,0,0,1,3.395,5.472,8.943,8.943,0,0,1-3.356,9.042" transform="translate(-63.494 -183.109)" fill="#fff"/>
      <path id="Path_1475" data-name="Path 1475" d="M76.469,193a1.2,1.2,0,0,0-1.678-.034,4.885,4.885,0,0,0-.45.442.191.191,0,0,1-.284.038,7.768,7.768,0,0,1-2.827-2.827c-.068-.115-.077-.19.032-.284.132-.115.252-.243.374-.371a1.234,1.234,0,0,0-.015-1.821c-.438-.446-.882-.886-1.326-1.326a1.238,1.238,0,0,0-1.853,0c-.346.337-.683.685-1.029,1.025a1.954,1.954,0,0,0-.566,1.437,5.118,5.118,0,0,0,.681,2.308,14.063,14.063,0,0,0,5.162,5.342,5.58,5.58,0,0,0,2.536.886,1.846,1.846,0,0,0,1.433-.421c.448-.414.89-.839,1.3-1.292a1.185,1.185,0,0,0-.045-1.661q-.7-.737-1.445-1.443m-.638,3.431a.927.927,0,0,1-.831.079,5.506,5.506,0,0,1-1.971-.863,12.872,12.872,0,0,1-4.349-4.6,4.156,4.156,0,0,1-.553-1.62.889.889,0,0,1,.29-.792c.325-.292.626-.619.922-.918.461.463.905.907,1.386,1.388-.169.16-.365.337-.551.525a.986.986,0,0,0-.19,1.362,8.973,8.973,0,0,0,3.747,3.728A.972.972,0,0,0,75,194.541c.2-.2.389-.4.564-.587.472.472.92.92,1.369,1.366-.348.354-.7.754-1.1,1.108" transform="translate(-60.65 -180.559)" fill="#fff"/>
      <path id="Path_1476" data-name="Path 1476" d="M87.229,238.585a1.956,1.956,0,0,0-3.19-.557c-.538.536-1.072,1.074-1.61,1.608-.047.047-.081.115-.158.126a.556.556,0,0,1-.017-.228c0-1.5,0-3,0-4.507a1.958,1.958,0,0,0-.506-1.392c-.621-.666-1.27-1.311-1.934-1.934a1.411,1.411,0,0,0-.939-.423h-.013l.006.017a.257.257,0,0,1-.216-.038H67.529a.255.255,0,0,1-.218.036l0-.015a.163.163,0,0,0-.032,0,1.2,1.2,0,0,0-.41.075,1.832,1.832,0,0,0-1.134,1.7q0,8.986,0,17.975a1.548,1.548,0,0,0,.081.6,1.877,1.877,0,0,0,1.725,1.225q6.428-.01,12.853,0a1.567,1.567,0,0,0,.794-.169,1.967,1.967,0,0,0,1.068-1.828c0-1.727,0-3.454,0-5.182a.746.746,0,0,1,.241-.576c1.386-1.375,2.761-2.761,4.146-4.136a1.988,1.988,0,0,0,.692-1.236v-.632a3.912,3.912,0,0,0-.107-.508m-8.67-6.061a.777.777,0,0,1,.438.226q.849.852,1.7,1.7a1.206,1.206,0,0,1,.132.164.444.444,0,0,1,.088.395c-.043.1-.2.034-.31.036-.316.006-.632,0-.948,0-.372,0-.743,0-1.117,0-.1,0-.143-.023-.141-.137,0-.754,0-1.5,0-2.255,0-.132.047-.154.16-.135m2.372,14.29v3.982c0,.532-.241.773-.771.773H67.792c-.529,0-.769-.241-.769-.775V233.3c0-.549.235-.786.779-.786q4.56,0,9.123,0c.175,0,.218.038.216.216-.009.946,0,1.9,0,2.844a.643.643,0,0,0,.73.737c.961,0,1.924,0,2.887,0,.152,0,.181.041.179.184q-.006,2.277,0,4.554a.378.378,0,0,1-.124.29q-1.271,1.262-2.536,2.53a1.223,1.223,0,0,0-.305.493c-.265.816-.542,1.629-.816,2.442a.656.656,0,0,0,.882.873q1.239-.416,2.481-.828a1.076,1.076,0,0,0,.416-.254Zm-.579-1.45c-.132.111-.218.273-.4.329-.4.126-.792.263-1.221.4.143-.427.282-.824.408-1.221.058-.179.218-.267.329-.4.051-.062.083-.006.117.028.248.248.5.493.743.743.034.032.085.068.023.117m3.892-3.89c-.954.95-1.907,1.907-2.859,2.859-.023.023-.051.047-.085.079l-.092-.09c-.235-.233-.463-.47-.7-.7-.083-.079-.07-.122,0-.194q1.422-1.419,2.842-2.846c.066-.066.107-.085.181-.009.233.241.472.48.713.713.073.073.068.115,0,.186m1.706-1.74c-.2.241-.436.455-.651.683-.058.062-.092.032-.137-.013-.248-.246-.5-.5-.743-.741-.058-.055-.06-.092,0-.147.2-.194.4-.4.6-.591a.671.671,0,0,1,.425-.171.639.639,0,0,1,.549.35.545.545,0,0,1-.043.63" transform="translate(-61.908 -129.645)" fill="#fff"/>
      <path id="Path_1477" data-name="Path 1477" d="M67.565,235.48c1.475,0,2.951,0,4.424,0s2.923,0,4.383,0a.633.633,0,1,0,0-1.264H67.61a.642.642,0,0,0-.673.726.622.622,0,0,0,.628.538" transform="translate(-60.553 -126.284)" fill="#fff"/>
      <path id="Path_1478" data-name="Path 1478" d="M73.875,235.4q-1.569,0-3.138,0H67.619a.635.635,0,1,0,0,1.266q3.106,0,6.215,0a.737.737,0,0,0,.226-.026.629.629,0,0,0-.184-1.236" transform="translate(-60.553 -124.94)" fill="#fff"/>
      <path id="Path_1479" data-name="Path 1479" d="M67.566,237.848c1.053,0,2.107,0,3.16,0h3.117a.633.633,0,1,0,0-1.264q-3.119,0-6.236,0a.636.636,0,0,0-.673.726.622.622,0,0,0,.63.536" transform="translate(-60.554 -123.596)" fill="#fff"/>
      <path id="Path_1480" data-name="Path 1480" d="M74.518,238.411a.627.627,0,0,0-.7-.641c-1.025,0-2.05,0-3.074,0s-2.08,0-3.119,0a.635.635,0,1,0,0,1.264h6.194a.628.628,0,0,0,.694-.623" transform="translate(-60.553 -122.251)" fill="#fff"/>
      <path id="Path_1481" data-name="Path 1481" d="M73.686,239.586q-1.854,0-3.706,0a.633.633,0,1,0-.009,1.264c.619,0,1.236,0,1.853,0s1.236,0,1.855,0a.633.633,0,1,0,.006-1.264" transform="translate(-57.864 -120.191)" fill="#fff"/>
      <path id="Path_1482" data-name="Path 1482" d="M82.527,262.642a10.368,10.368,0,0,0-3.228-1.223c-.408-.1-.82-.171-1.243-.258.032-.062.058-.109.085-.156.707-1.106,1.428-2.2,2.118-3.318a6.76,6.76,0,0,0,.273-7.1A6.863,6.863,0,0,0,73.415,247a6.719,6.719,0,0,0-3.931,2.018,6.845,6.845,0,0,0-1.964,5.63,6.687,6.687,0,0,0,1.04,2.989c.719,1.129,1.445,2.257,2.167,3.386.026.041.047.083.079.143-.075.017-.135.032-.194.043a15.021,15.021,0,0,0-3,.8,5.811,5.811,0,0,0-1.986,1.2,1.99,1.99,0,0,0-.053,2.944,4.929,4.929,0,0,0,1.62,1.078,16,16,0,0,0,5.137,1.185c.335.028.668.058,1,.088h2.191a.881.881,0,0,1,.162-.036c.532-.047,1.063-.077,1.593-.137a15.074,15.074,0,0,0,4.193-1.016,5.028,5.028,0,0,0,1.883-1.238,1.917,1.917,0,0,0,.222-2.438,3.181,3.181,0,0,0-1.05-.986m-12.919-5.724a5.741,5.741,0,0,1,.231-6.375,5.6,5.6,0,0,1,3.551-2.257,5.71,5.71,0,0,1,5.762,8.781q-2.283,3.564-4.552,7.131c-.049.077-.1.154-.169.258-.068-.1-.12-.175-.167-.25q-2.328-3.644-4.656-7.289M82.4,265.223a3.965,3.965,0,0,1-1.539.959,12.506,12.506,0,0,1-3.395.835c-1.018.113-2.041.175-2.556.218a21.637,21.637,0,0,1-5.814-.677,7.309,7.309,0,0,1-2.188-.946,2.814,2.814,0,0,1-.47-.416.644.644,0,0,1,0-.976,4.037,4.037,0,0,1,.841-.655,9.142,9.142,0,0,1,2.805-.969c.44-.09.886-.141,1.326-.224.139-.028.2.023.267.132.715,1.129,1.433,2.261,2.163,3.386a.992.992,0,0,0,.416.357.607.607,0,0,0,.758-.331c.662-1.033,1.337-2.06,1.973-3.111a.671.671,0,0,1,.816-.395,12.014,12.014,0,0,1,3.777,1.151,3.793,3.793,0,0,1,.813.623.666.666,0,0,1,.009,1.04" transform="translate(-62.804 -111.868)" fill="#fff"/>
      <path id="Path_1483" data-name="Path 1483" d="M74.23,251.9a3.16,3.16,0,1,0-3.181,3.134A3.156,3.156,0,0,0,74.23,251.9m-5.045-.068a1.848,1.848,0,0,1,1.922-1.843,1.885,1.885,0,1,1-.062,3.77,1.85,1.85,0,0,1-1.86-1.928" transform="translate(-59.442 -109.829)" fill="#fff"/>
      <path id="Path_1484" data-name="Path 1484" d="M77.031,224.952a1.11,1.11,0,0,0-.1.523,13.325,13.325,0,0,1-.856,3.371.784.784,0,0,1-1.042.489.768.768,0,0,1-.429-1.042,12.772,12.772,0,0,0,.8-3.279,11.815,11.815,0,0,0-.717-5.372c-.034-.09-.07-.181-.1-.269a.789.789,0,1,1,1.477-.553,13.119,13.119,0,0,1,.594,1.877,13.89,13.89,0,0,1,.316,1.939c0,.045-.006.092.053.107v.158c-.036.03-.026.075-.028.115s-.015.1.028.143v.211a.411.411,0,0,0,0,.318v.632c-.051.062-.017.137-.028.2.009.051-.019.115.028.167Z" transform="translate(-51.916 -144.353)" fill="#fff"/>
      <path id="Path_1485" data-name="Path 1485" d="M75.739,220.99a.238.238,0,0,1,0-.316Z" transform="translate(-50.625 -141.654)" fill="#fff"/>
      <path id="Path_1486" data-name="Path 1486" d="M75.693,221.334c-.006-.075-.036-.156.043-.216v.211c-.011.021-.026.023-.043,0" transform="translate(-50.621 -141.151)" fill="#fff"/>
      <path id="Path_1487" data-name="Path 1487" d="M75.735,220.668c-.07-.036-.053-.1-.045-.16.015-.019.03-.019.045,0Z" transform="translate(-50.621 -141.859)" fill="#fff"/>
      <path id="Path_1488" data-name="Path 1488" d="M75.693,221.221l.043,0v.158c-.088-.03-.041-.1-.043-.154" transform="translate(-50.621 -141.038)" fill="#fff"/>
      <path id="Path_1489" data-name="Path 1489" d="M75.734,220.558l-.045,0c-.006-.043-.023-.092.045-.1Z" transform="translate(-50.62 -141.905)" fill="#fff"/>
      <path id="Path_1490" data-name="Path 1490" d="M63.074,223.506a13.1,13.1,0,0,1,.937-4.612.8.8,0,0,1,1.033-.549.789.789,0,0,1,.442,1.1,11.905,11.905,0,0,0-.839,4.832,11.78,11.78,0,0,0,.766,3.766c.034.092.068.181.1.273a.788.788,0,1,1-1.475.555,12.5,12.5,0,0,1-.585-1.823,14.711,14.711,0,0,1-.378-3.546" transform="translate(-64.931 -144.354)" fill="#fff"/>
      <path id="Path_1491" data-name="Path 1491" d="M64.555,223.346a10.623,10.623,0,0,1,.734-3.95.784.784,0,1,1,1.482.512,10.828,10.828,0,0,0-.583,2.287,8.6,8.6,0,0,0,.493,4.054,2.48,2.48,0,0,1,.128.4.788.788,0,0,1-1.514.414,10.808,10.808,0,0,1-.634-2.378,13.2,13.2,0,0,1-.107-1.339" transform="translate(-63.25 -143.722)" fill="#fff"/>
      <path id="Path_1492" data-name="Path 1492" d="M75.431,223.114a10.689,10.689,0,0,1-.73,3.9.787.787,0,0,1-1.008.515.774.774,0,0,1-.476-1.021,10.781,10.781,0,0,0,.579-2.282,8.639,8.639,0,0,0-.487-4.031c-.038-.109-.077-.214-.109-.322a.786.786,0,0,1,.487-.976.775.775,0,0,1,.993.453,10.641,10.641,0,0,1,.645,2.427c.064.48.09.961.107,1.334" transform="translate(-53.476 -143.721)" fill="#fff"/>
      <path id="Path_1493" data-name="Path 1493" d="M80.366,218.526a2.36,2.36,0,0,0-2.445-2.44q-4.727-.01-9.454,0a2.395,2.395,0,0,0-2.434,2.479q0,3.885,0,7.769,0,3.91,0,7.823a2.365,2.365,0,0,0,2.46,2.479q4.714.01,9.428,0a2.358,2.358,0,0,0,2.445-2.438q.01-7.837,0-15.671m-12.755.468c.019-.19,0-.384.006-.576a.778.778,0,0,1,.741-.749c.077-.006.158,0,.235,0H77.81c.694,0,.976.28.976.965,0,.617,0,.617-.623.617H73.186c-1.772,0-3.546,0-5.318.006-.2,0-.278-.047-.256-.258m0,2.092c0-.226.062-.265.273-.263,1.783.009,3.563,0,5.346,0s3.546,0,5.318,0c.192,0,.246.038.246.239q-.013,5.294,0,10.586c0,.216-.064.252-.26.25q-5.332-.006-10.664,0c-.2,0-.258-.045-.258-.254q.013-5.278,0-10.56M78.79,233.713a4.876,4.876,0,0,0,0,.5.787.787,0,0,1-.833.845c-.423,0-.843,0-1.264,0H68.606c-.713,0-.991-.275-.991-.978,0-.6,0-.6.608-.6h5c1.774,0,3.546,0,5.318,0,.194,0,.269.038.246.241" transform="translate(-61.573 -146.866)" fill="#fff"/>
    </g>
  </g>
</svg>
