<svg xmlns="http://www.w3.org/2000/svg" xmlns:xlink="http://www.w3.org/1999/xlink" width="2357.672" height="678.962" viewBox="0 0 2357.672 678.962">
  <defs>
    <clipPath id="clip-path">
      <rect id="Rectangle_23" data-name="Rectangle 23" width="766.069" height="487.941" fill="none" stroke="#707070" stroke-width="0.2"/>
    </clipPath>
  </defs>
  <g id="ilustra-header" transform="translate(360.132 -390.529)">
    <g id="Group_42" data-name="Group 42" transform="translate(-1120.926 -109.521)">
      <g id="Group_41" data-name="Group 41" transform="translate(760.794 658.943)" clip-path="url(#clip-path)">
        <path id="Path_433" data-name="Path 433" d="M1207.783,717.869l-2.328,34.719m-13.065-41.828.222,38.781m-18.543-46.476v38.694M1152.775,696.2l-.23,37.777m-29.906-46.1-.083,37.4m-35.947-44.648-.23,39.151M1048.6,676.964v39.151m-41.671-40.064.232,39.833m-33.2-37.773v39.607M944.2,682.233l-.24,39.4m-28.147-33.911v38.236m-25.476-31.15.282,37.339m314.527,23.834,2.217-39.067c-177.617-85.547-352.109-11.313-352.109-11.313v36.38m352.109,239.142-.349-224.844C1041.307,673.479,854,743.293,854,743.293l2.987,229.084m348.9-215.967.343-23.7C1028.619,647.171,855.944,721.4,855.944,721.4l-.111,21.27" transform="translate(-669.008 -608.677)" fill="none" stroke="#d1d2d4" stroke-width="2"/>
        <path id="Path_435" data-name="Path 435" d="M453.5,665.958s-5.476-6.26-8.606,1.558l-8.608,400.59,6.256,2.352Z" transform="translate(-1080.338 -620.631)" fill="#747375"/>
        <path id="Path_436" data-name="Path 436" d="M439.444,1075.754l11.005-409.978s30.95-18.021,66.879,1.566l-.845,407.628s-25.4,7.83-77.039.784" transform="translate(-1077.233 -625.923)" fill="#fff"/>
        <path id="Path_437" data-name="Path 437" d="M439.444,1075.754l11.005-409.978s30.95-18.021,66.879,1.566l-.845,407.628S491.078,1082.8,439.444,1075.754Z" transform="translate(-1077.233 -625.923)" fill="none" stroke="#d1d2d4" stroke-width="0.731"/>
        <path id="Path_438" data-name="Path 438" d="M517.629,752v236.39s21.109,8.439,34.373,1.2V750.8s-19.3-5.43-34.373,1.2" transform="translate(-1000.243 -536.815)" fill="#fff"/>
        <path id="Path_439" data-name="Path 439" d="M517.629,752v236.39s21.109,8.439,34.373,1.2V750.8S532.7,745.365,517.629,752Z" transform="translate(-1000.243 -536.815)" fill="none" stroke="#d1d2d4" stroke-width="0.731"/>
        <path id="Path_440" data-name="Path 440" d="M526.9,769.953,507.6,747.64s43.318-14.084,72.863.387l-17.912,20.637" transform="translate(-1010.117 -543.913)" fill="none" stroke="#d1d2d4" stroke-width="0.731"/>
        <path id="Path_441" data-name="Path 441" d="M574.719,830.254V703.01s39.135-19.893,73.5-3.612V830.254m-208.779,245.5,11.005-409.978s30.95-18.021,66.879,1.566l-.845,407.628S491.078,1082.8,439.444,1075.754Z" transform="translate(-1077.233 -625.923)" fill="none" stroke="#d1d2d4" stroke-width="0.731"/>
        <path id="Path_442" data-name="Path 442" d="M510.775,709.242s-17.861-3.888-31.593-3.888-34.574,3.888-34.574,3.888v-8.7s11.908-4.352,33.427-4.581,32.74,4.581,32.74,4.581Z" transform="translate(-1072.148 -588.755)" fill="#0e8a93"/>
        <path id="Path_443" data-name="Path 443" d="M510.775,715.243s-17.861-3.894-31.593-3.894-34.574,3.894-34.574,3.894v-8.7s11.908-4.347,33.427-4.577,32.74,4.577,32.74,4.577Z" transform="translate(-1072.148 -582.848)" fill="#0b266e"/>
        <path id="Path_444" data-name="Path 444" d="M579.6,709.242s-19.339-3.888-34.219-3.888-37.442,3.888-37.442,3.888v-8.7s12.893-4.352,36.205-4.581,35.455,4.581,35.455,4.581Z" transform="translate(-1009.786 -588.755)" fill="#0e8a93"/>
        <path id="Path_445" data-name="Path 445" d="M579.6,715.243s-19.339-3.894-34.219-3.894-37.442,3.894-37.442,3.894v-8.7s12.893-4.347,36.205-4.577S579.6,706.54,579.6,706.54Z" transform="translate(-1009.786 -582.848)" fill="#0b266e"/>
        <path id="Path_446" data-name="Path 446" d="M1041.168,425.009s-22.122-3.892-39.139-3.892-42.824,3.892-42.824,3.892v-8.7s14.744-4.348,41.407-4.577,40.556,4.577,40.556,4.577Z" transform="translate(-565.413 -868.645)" fill="#0e8a93"/>
        <path id="Path_447" data-name="Path 447" d="M1041.168,431.009s-22.122-3.892-39.139-3.892-42.824,3.892-42.824,3.892v-8.7s14.744-4.347,41.407-4.577,40.556,4.577,40.556,4.577Z" transform="translate(-565.413 -862.739)" fill="#0b266e"/>
        <path id="Path_448" data-name="Path 448" d="M1205.771,762.567s-50.922-17.729-172.264-16.834c-92.958.683-178.123,16.172-178.123,16.172V742.066s65.48-15.11,177.206-17.857c110.325-2.713,175.832,22.3,173.181,22.341Z" transform="translate(-667.647 -561.138)" fill="none" stroke="#d1d2d4" stroke-width="2"/>
        <path id="Path_449" data-name="Path 449" d="M1206.266,772.478s-83.93-13.165-170.016-12.909c-99.822.3-179.955,12.512-179.955,12.512l-1.371-17.4s66-14.246,179.5-14.655,171.845,16.538,171.845,16.538Z" transform="translate(-668.101 -545.362)" fill="none" stroke="#d1d2d4" stroke-width="2"/>
      </g>
    </g>
    <g id="Group_40" data-name="Group 40" transform="translate(1335 307.037)">
      <g id="Group_50" data-name="Group 50" transform="translate(11 15)">
        <path id="Path_422" data-name="Path 422" d="M1558.55,1040.219m.2-162.011.227-40.185,4.1,246.958-135.819-11.263m152.894-236.657-21.179.962-132.482-34.762m-225.908,32.544-31.111-3.975m256.821-27.309.965-12.474M1307.792,1063.7V886.221m54.89-5.11-107.853,10.211V1059.8l107.853,8.823Zm63.811-77.85.3,270.457-226.1-17.708-.118-220.2Zm-255.7,12.281,256-40v17.328l-256,38.668Zm408,4.667v15.334l-152-42.672V775.545Z" transform="translate(-928.66 -412.911)" fill="none" stroke="#d1d2d4" stroke-width="2"/>
      </g>
    </g>
    <g id="Group_13" data-name="Group 13" transform="translate(1095.165 -28.241)">
      <path id="Path_12" data-name="Path 12" d="M-1214.724,625.5,430.938,639.981l-.381-11.495-1647.627-34.11Z" transform="translate(2.016 376.494)" fill="#00aaac"/>
      <path id="Path_13" data-name="Path 13" d="M-1214.031,651.889,432.14,632.129v-7.256l-1646.171-4.937Z" transform="translate(0.814 395.651)" fill="#253e92"/>
      <path id="Path_14" data-name="Path 14" d="M-203.716,640.047l-391.853-27.529v7.256l391.482,33.338Z" transform="translate(1028.519 396.706)" fill="#00aaac"/>
      <path id="Path_15" data-name="Path 15" d="M-204.874,649.567l-390.695-33.355v7.256l390.324,39.163Z" transform="translate(1028.52 404.312)" fill="#253e92"/>
      <g id="Group_12" data-name="Group 12" transform="translate(-1095.165 419.82)">
        <path id="Path_16" data-name="Path 16" d="M-1259.944,583.958,441.321,629.58l383.514,29.9v79.305L385.416,697.176l-1607.357,18.04Z" transform="translate(1095.165 -61.97)" fill="none" stroke="#d1d2d4" stroke-width="2"/>
        <path id="Path_17" data-name="Path 17" d="M-667.531,428.851s-8.436-9.647-13.26,2.4L-692,968.124h10.345Z" transform="translate(1920.923 -408.756)" fill="none" stroke="#d1d2d4" stroke-width="2"/>
        <path id="Path_18" data-name="Path 18" d="M-690.906,1063.309l16.96-631.83s47.7-27.773,103.072,2.413l-1.3,628.206s-39.151,12.067-118.73,1.211" transform="translate(1927.414 -419.82)" fill="none"/>
        <path id="Path_20" data-name="Path 20" d="M-612.72,515.388V879.695s32.532,13.006,52.974,1.854V513.537s-29.743-8.369-52.974,1.851" transform="translate(2088.375 -233.527)" fill="#fff"/>
        <path id="Path_21" data-name="Path 21" d="M-612.72,515.388V879.695s32.532,13.006,52.974,1.854V513.537S-589.489,505.169-612.72,515.388Z" transform="translate(2088.375 -233.527)" fill="none" stroke="#d1d2d4" stroke-width="2"/>
        <path id="Path_22" data-name="Path 22" d="M-593.008,546.961l-29.74-34.386s66.756-21.7,112.288.6l-27.6,31.8" transform="translate(2067.731 -248.366)" fill="none" stroke="#d1d2d4" stroke-width="2"/>
        <path id="Path_23" data-name="Path 23" d="M-482.431,684.96V488.86s60.311-30.657,113.279-5.567V684.96M-688.24,979.372l14.295-547.893s47.7-27.773,103.072,2.413l-1.043,548.6Z" transform="translate(1927.414 -419.82)" fill="none" stroke="#d1d2d4" stroke-width="2"/>
        <path id="Path_24" data-name="Path 24" d="M-583.77,478.04s-27.525-5.992-48.691-5.992-53.28,5.992-53.28,5.992v-13.4s18.349-6.708,51.515-7.06,50.456,7.06,50.456,7.06Z" transform="translate(1938.047 -342.115)" fill="#00aaac"/>
        <path id="Path_25" data-name="Path 25" d="M-583.77,484.042s-27.525-6-48.691-6-53.28,6-53.28,6V470.63s18.349-6.7,51.515-7.053,50.456,7.053,50.456,7.053Z" transform="translate(1938.047 -329.765)" fill="#253e92"/>
        <path id="Path_26" data-name="Path 26" d="M-511.973,478.04s-29.807-5.992-52.738-5.992-57.7,5.992-57.7,5.992v-13.4s19.869-6.708,55.794-7.06,54.644,7.06,54.644,7.06Z" transform="translate(2068.425 -342.115)" fill="#00aaac"/>
        <path id="Path_27" data-name="Path 27" d="M-511.973,484.042s-29.807-6-52.738-6-57.7,6-57.7,6V470.63s19.869-6.7,55.794-7.053,54.644,7.053,54.644,7.053Z" transform="translate(2068.425 -329.765)" fill="#253e92"/>
      </g>
    </g>
  </g>
</svg>
