<svg xmlns="http://www.w3.org/2000/svg" xmlns:xlink="http://www.w3.org/1999/xlink" width="429" height="345" viewBox="0 0 429 345">
  <defs>
    <clipPath id="clip-path">
      <rect id="Rectangle_57" data-name="Rectangle 57" width="429" height="345" transform="translate(-27 290)" fill="#fff" stroke="#707070" stroke-width="1"/>
    </clipPath>
  </defs>
  <g id="ilustra-header-mobile" transform="translate(27 -290)" clip-path="url(#clip-path)">
    <g id="ilustra-header" transform="translate(-284.868 -71.39)">
      <g id="Group_40" data-name="Group 40" transform="translate(518.706 523.878)">
        <g id="Group_50" data-name="Group 50" transform="translate(0 0)">
          <path id="Path_422" data-name="Path 422" d="M1345.1,895.017m.089-73.131.1-18.139,1.853,111.475-61.308-5.084m69.015-106.825-9.56.434-59.8-15.691m-101.973,14.69-14.043-1.794M1285.4,788.625l.436-5.631M1231.91,905.617V825.5m24.777-2.307L1208,827.806v76.049l48.684,3.983Zm28.8-35.141.138,122.082-102.058-7.993-.053-99.4ZM1170.07,793.6l115.558-18.055v7.822L1170.07,800.821Zm184.169,2.107v6.922l-68.611-19.262v-7.822Z" transform="translate(-1169.474 -775.545)" fill="none" stroke="#d1d2d4" stroke-width="2"/>
        </g>
      </g>
      <g id="Group_13" data-name="Group 13" transform="translate(-271.951 391.579)">
        <path id="Path_12" data-name="Path 12" d="M-1216.01,608.426l742.84,6.535-.172-5.189-743.727-15.4Z" transform="translate(1237.333 -345.636)" fill="#00aaac"/>
        <path id="Path_13" data-name="Path 13" d="M-1214.031,634.359l743.07-8.92v-3.275l-743.07-2.229Z" transform="translate(1235.123 -351.011)" fill="#253e92"/>
        <path id="Path_14" data-name="Path 14" d="M-418.69,624.944l-176.88-12.427v3.275l176.712,15.048Z" transform="translate(1359.73 -346.465)" fill="#00aaac"/>
        <path id="Path_15" data-name="Path 15" d="M-419.212,631.268l-176.357-15.056v3.275l176.19,17.678Z" transform="translate(1359.73 -345.059)" fill="#253e92"/>
        <g id="Group_12" data-name="Group 12">
          <path id="Path_16" data-name="Path 16" d="M-1259.944,583.958l767.939,20.593,173.115,13.5v35.8l-198.35-18.781-725.55,8.143Z" transform="translate(1259.944 -348.336)" fill="none" stroke="#d1d2d4" stroke-width="2"/>
          <path id="Path_17" data-name="Path 17" d="M-680.957,426.845s-3.808-4.355-5.985,1.084L-692,670.269h4.67Z" transform="translate(1321.11 -417.775)" fill="none" stroke="#d1d2d4" stroke-width="2"/>
          <path id="Path_18" data-name="Path 18" d="M-690.906,710.287l7.656-285.2a49.529,49.529,0,0,1,46.526,1.089l-.588,283.568s-17.673,5.447-53.594.547" transform="translate(1323.437 -419.82)" fill="none"/>
          <path id="Path_20" data-name="Path 20" d="M-612.72,512.6V677.048s14.685,5.871,23.912.837V511.767s-13.426-3.777-23.912.835" transform="translate(1353.201 -385.373)" fill="#fff"/>
          <path id="Path_21" data-name="Path 21" d="M-612.72,512.6V677.048s14.685,5.871,23.912.837V511.767S-602.234,507.99-612.72,512.6Z" transform="translate(1353.201 -385.373)" fill="none" stroke="#d1d2d4" stroke-width="2"/>
          <path id="Path_22" data-name="Path 22" d="M-609.324,522.9l-13.424-15.522s30.133-9.8,50.686.269L-584.523,522" transform="translate(1349.383 -388.117)" fill="none" stroke="#d1d2d4" stroke-width="2"/>
          <path id="Path_23" data-name="Path 23" d="M-595.339,539.5V450.985s27.224-13.839,51.133-2.513V539.5M-688.24,672.4l6.452-247.315a49.529,49.529,0,0,1,46.526,1.089l-.471,247.634Z" transform="translate(1321.975 -419.82)" fill="none" stroke="#d1d2d4" stroke-width="2"/>
          <path id="Path_24" data-name="Path 24" d="M-639.712,466.807s-12.425-2.7-21.979-2.7-24.05,2.7-24.05,2.7v-6.05s8.283-3.028,23.253-3.187,22.776,3.187,22.776,3.187Z" transform="translate(1325.403 -405.452)" fill="#00aaac"/>
          <path id="Path_25" data-name="Path 25" d="M-639.712,472.808s-12.425-2.709-21.979-2.709-24.05,2.709-24.05,2.709v-6.054s8.283-3.025,23.253-3.184,22.776,3.184,22.776,3.184Z" transform="translate(1325.403 -403.168)" fill="#253e92"/>
          <path id="Path_26" data-name="Path 26" d="M-572.56,466.807s-13.455-2.7-23.806-2.7-26.045,2.7-26.045,2.7v-6.05s8.969-3.028,25.185-3.187,24.666,3.187,24.666,3.187Z" transform="translate(1349.512 -405.452)" fill="#00aaac"/>
          <path id="Path_27" data-name="Path 27" d="M-572.56,472.808s-13.455-2.709-23.806-2.709-26.045,2.709-26.045,2.709v-6.054s8.969-3.025,25.185-3.184,24.666,3.184,24.666,3.184Z" transform="translate(1349.512 -403.168)" fill="#253e92"/>
        </g>
      </g>
    </g>
  </g>
</svg>
