<?xml version="1.0" encoding="iso-8859-1"?>
<!DOCTYPE svg PUBLIC "-//W3C//DTD SVG 20000303 Stylable//EN" "http://www.w3.org/TR/2000/03/WD-SVG-20000303/DTD/svg-20000303-stylable.dtd">
<!-- Creator: CorelDRAW -->
<svg xml:space="preserve" x="0in" y="0in" width="9.91788in" height="6.01606in" style="shape-rendering:geometricPrecision; text-rendering:geometricPrecision; image-rendering:optimizeQuality"
     viewBox="-49282 0 99178 60161">
 <defs>
  <style type="text/css">
   <![CDATA[
    .str0 {stroke:#838281;stroke-width:30}
    .str1 {stroke:#D82B40;stroke-width:30}
    .fil0 {fill:#000000}
    .fil1 {fill:#A8F2FF}
    .fil3 {fill:#FF9719}
    .fil2 {fill:#FFF2C9}
   ]]>
  </style>
 </defs>
 <g id="Camada 1">
  <rect id="155724416" class="fil0" x="-49282" y="0" width="99179" height="60161"/>
  <rect id="18956584" class="fil1" x="-48204" y="1114" width="97021" height="57934"/>
  <g>
   <path id="155716936" class="fil2" d="M1807 24882c-4058,2309 3002,4388 4751,4388 6763,-99 8775,-5806 3200,-8808 -1848,-990 -3200,-231 -4850,1022 -924,693 -1946,1386 -2540,2310 -198,296 -264,956 -561,1088z"/>
   <path id="18913256" class="fil2 str0" d="M-37624 1075l-2785 1674 548 916 1098 245 913 1221 -304 1406 609 304 -122 672 1281 489 2195 182 -5425 4582 0 1404 -428 549 244 671 -609 490 182 672 1036 916 793 -245 1037 671 -1159 611 0 794 -1828 1893 -4573 1711 -670 -917 0 -1282 -732 -551 0 -1098 -487 -428 793 -427 -306 -978 550 -306 -305 -549 365 -367 -2195 -365 -242 -550 609 62 -122 -551 548 -61 0 -1221 915 61 609 -367 0 -427 550 0 61 -1771 -367 -366 183 -1100 -853 0 -487 794 -1037 61 -663 314 0 -9438 10580 0z"/>
   <path id="18913168" class="fil2 str0" d="M-48204 10514l663 -314 1037 -61 487 -794 853 0 -183 1100 367 365 -61 1772 -550 0 0 427 -609 367 -915 -61 0 1220 -548 62 122 550 -609 -61 242 549 2195 366 -365 367 305 549 -550 306 306 978 -793 426 487 429 0 1098 732 551 0 1282 670 916 -59 611 -1037 610 -306 977 -670 306 -853 -245 -358 282 0 -14930z"/>
   <path id="18913080" class="fil2 str0" d="M-34191 8184l-2195 -182 -1281 -489 122 -672 -609 -304 304 -1406 -913 -1221 -1098 -244 -548 -917 2785 -1674 16856 0 -257 1186 -61 1039 -915 -672 -1524 305 -2011 -1221 -427 184 183 732 -4207 4642 -609 1769 -670 429 -731 -123 -732 -1100 -1279 368 -183 -429 0 0z"/>
   <path id="18912992" class="fil2 str0" d="M-30596 9039l609 -1769 4207 -4641 -183 -733 427 -184 2011 1221 1524 -304 915 671 609 549 853 245 793 -855 1098 -122 670 855 -183 1343 -1037 183 -670 1466 1523 3847 -61 733 -670 2138 61 2076 1341 2564 -304 977 854 2933 -245 549 732 1159 -184 735 -3412 2686 -1952 549 -303 1465 -9937 -4151 -1219 -1284 -1401 -243 -2074 -1894 -120 -1710 792 -1953 2437 -490 550 -1465 548 -305 -671 -612 184 -1892 548 -794 1646 -61 670 -855 122 -916 609 -488 -183 -490 -1524 -733z"/>
   <path id="18912728" class="fil2 str0" d="M-21086 3300l61 -1039 257 -1186 4132 0 975 942 1089 -942 5679 0 425 148 670 1283 -122 488 792 549 1463 -59 -1035 1770 -794 183 -670 978 -62 1343 -3168 367 -1403 -916 -731 916 -732 -61 -2133 3724 -1098 -244 61 -733 -1523 -3847 670 -1466 1037 -183 183 -1343 -670 -856 -1098 123 -793 855 -853 -245 -609 -549 0 0z"/>
   <path id="18912640" class="fil2 str0" d="M-15681 1075l20 941 -974 -941 954 0z"/>
   <path id="18912552" class="fil2 str0" d="M1711 26444l2439 -1953 1279 -2016 1402 -917 1585 -1098 2377 2686 -2803 855 -1220 1649 -3718 1833 -1341 -1039 0 0z"/>
   <path id="18912464" class="fil2 str0" d="M-21573 29375l303 -1465 1952 -549 3412 -2686 184 -735 -732 -1159 245 -549 -854 -2933 1279 -61 123 -916 -548 -366 1157 -1100 487 -1831 1220 -122 1037 855 2681 -184 1098 672 2803 -794 305 -1588 -1159 -365 489 -2260 -427 -306 792 -855 -122 -549 1707 -1100 792 -61 61 -427 -2316 -245 -914 -1039 -1646 -243 670 -977 794 -184 1035 -1770 -1463 60 -792 -549 122 -488 -670 -1284 -424 -147 20160 0 -719 882 -1035 1770 670 977 2316 977 1037 917 60 733 -549 975 -1340 -610 -244 367 -306 -245 -2314 550 -428 732 -1402 490 -853 -61 244 1588 -670 732 1340 3419 915 551 -183 1221 -1280 367 -550 -184 -1340 1039 -487 794 243 365 -2378 1955 -2864 366 -245 1710 -8289 1772 -2377 916 -609 2686 -428 -306 -3109 612 -2255 -794 -2072 1037 -1340 0 0 0zm7000 -28300l-1088 941 -20 -941 1108 0z"/>
   <path id="18912376" class="fil2 str0" d="M-17063 19299l304 -977 -1341 -2564 -61 -2076 670 -2138 1098 244 2133 -3724 732 61 731 -916 1403 916 3168 -367 62 -1343 1646 243 914 1039 2316 245 -61 426 -792 62 -1707 1100 122 549 -792 855 427 306 -489 2259 1159 366 -305 1588 -2803 793 -1098 -671 -2681 183 -1037 -855 -1220 123 -487 1831 -1157 1100 548 365 -123 917 -1279 61 0 -1z"/>
   <path id="18912112" class="fil2 str0" d="M-1094 23452l245 -1710 2864 -365 2378 -1956 -243 -365 487 -794 1340 -1039 550 184 1280 -367 2255 1588 -1646 1832 -1585 1098 -1402 917 -1279 2016 -2439 1953 -1584 -1343 -732 -1710 -489 61 0 0z"/>
   <path id="18912024" class="fil2 str0" d="M8416 20460l1646 -1832 1340 -1343 6157 -1223 0 5558 -3229 183 -3537 1343 -2377 -2686 0 0z"/>
   <path id="18911936" class="fil2 str0" d="M7807 17040l183 -1221 -915 -551 -1340 -3419 670 -732 -244 -1588 853 61 1402 -489 428 -733 2314 -549 306 244 244 -367 1340 611 549 -976 1646 1526 2560 -306 183 1282 732 429 -1159 5800 -6157 1223 -1340 1343 -2255 -1588z"/>
   <path id="18911848" class="fil2 str0" d="M32198 1075l-1045 941 -1524 4031 609 672 550 3298 -428 0 -731 977 426 1100 611 366 365 428 -426 611 -1282 549 -974 -549 304 549 -731 122 -548 672 183 426 -1159 856 -670 -182 548 488 -2011 1526 122 306 -853 794 122 610 -1281 1831 61 916 -365 245 -1829 -1465 -793 488 -731 -304 -1159 243 0 -5558 1159 -5800 -732 -429 -183 -1282 -2560 306 -1646 -1526 -60 -733 -1037 -916 -2316 -978 -670 -977 1035 -1770 720 -882 20929 0z"/>
   <path id="18911144" class="fil2 str0" d="M30666 12460l-611 -366 -426 -1100 731 -977 428 0 -550 -3298 -609 -672 1524 -4031 1045 -941 16620 0 0 6082 -48 113 -1037 181 -2316 -1098 -732 917 -1768 304 122 855 -792 -733 183 672 -488 306 -62 1220 -1157 978 -792 0 -915 -794 -1098 -61 -1401 367 -245 488 -1766 732 -3840 856 0 0z"/>
   <path id="18910968" class="fil2 str0" d="M43465 28461l5353 1878 0 11114 -3036 -902 -3231 -183 -487 -915 -548 -61 303 -978 -2072 62 1037 -429 243 -1404 305 -61 610 977 427 -184 -183 429 670 610 732 -306 792 -1159 -61 -1223 -1768 0 -671 -1343 -853 123 -793 671 -670 -1038 1463 -1343 -243 -856 -975 -304 548 -734 914 122 184 612 670 -245 305 -1588 1035 -1343 0 1z"/>
   <path id="155672544" class="fil2 str0" d="M-43214 51483l4146 1649 3901 428 9326 -794 5119 -1467 -181 1345 -12496 975 -9206 1284 -609 -3420zm-181 -12152l0 -245 242 183 -242 62zm242 1282l367 -366 -184 -61 123 -306 -245 -61 61 -306 610 -244 -304 244 59 367 367 0 -245 610 -609 122 0 1zm-2316 -978l-61 -2564 305 -367 1585 184 -1098 1832 306 121 -184 612 426 120 -790 368 -489 -306 0 0zm-2735 -14191l358 -281 853 244 670 -306 306 -977 1037 -610 59 -611 4573 -1710 1828 -1894 0 -793 1159 -611 -1037 -671 -793 245 -1036 -917 -182 -671 609 -490 -244 -671 428 -549 0 -1405 5425 -4581 183 428 1279 -367 732 1100 731 122 670 -428 1524 733 183 489 -609 488 -122 917 -670 855 -1646 61 -548 794 -184 1892 671 612 -548 304 -550 1465 -2437 490 -792 1953 120 1711 2074 1894 1401 243 1219 1283 9937 4152 -2683 0 -4024 1588 -1890 122 -243 1284 -1707 794 -670 -306 -183 487 -670 -181 -426 1037 -367 -427 -792 427 305 1161 -366 549 -1219 -427 -1220 610 122 -855 -853 -184 366 1284 -1523 915 -1037 122 -245 -488 -914 -122 183 -488 -426 -306 2072 -671 367 -550 -428 -612 -2255 -181 -1646 426 -1035 794 -550 1221 -61 -4519 -913 -427 -1342 549 -358 -51 0 -6507z"/>
   <path id="155672456" class="fil2 str0" d="M-48204 31950l358 51 1342 -549 913 427 61 4519 -1035 61 -1639 901 0 -5410zm0 11619l54 36 -54 64 0 -100zm2735 -3934l-1402 1284 -975 0 -358 -200 0 -513 296 -632 -296 -251 0 -1543 724 -343 915 429 181 -672 671 304 183 -426 61 2563zm2255 11848l609 3420 -5599 992 0 -2065 1028 584 1585 -60 792 -793 61 -1649 -365 -735 -2499 -1343 -487 -549 1524 672 3351 1526 0 0z"/>
   <path id="155672368" class="fil2 str0" d="M43465 28461l1098 -2078 -427 -733 183 -855 1707 -1037 1646 -2016 -1463 -427 -244 -1526 1279 -917 184 -1282 670 -612 720 -395 0 13757 -5353 -1879 0 0zm-1157 -10992l426 -1161 -304 -611 426 -671 428 61 181 549 -548 733 548 733 -609 610 -548 -243 0 0z"/>
  </g>
  <path id="155672280" class="fil3 str1" d="M-35289 35910l366 -549 -305 -1161 792 -427 367 427 426 -1037 670 182 183 -488 670 306 1707 -794 243 -1283 1890 -123 4024 -1588 2683 0 1340 0 2072 -1037 2255 794 3109 -612 428 306 609 -2686 2377 -916 8289 -1772 489 -61 732 1710 1584 1343 1341 1039 3718 -1833 1220 -1649 2803 -855 3537 -1343 3229 -183 1159 -243 731 304 793 -488 1829 1465 365 -245 548 1039 1037 -671 -184 916 915 488 1342 1771 1341 855 548 2199 -426 855 548 1037 854 -733 548 551 305 -245 609 306 976 -916 915 977 -1159 1282 305 733 2194 -549 1157 426 0 429 489 -306 854 306 -550 304 -548 -184 914 978 793 0 122 977 426 62 -365 549 -976 -366 -427 305 244 367 183 -306 245 671 -428 1161 306 733 -671 733 -672 0 -61 488 1159 489 915 -1038 1218 -611 -487 611 609 855 -1584 488 488 367 121 794 -1035 0 -1768 1159 -367 1039 611 488 -1098 612 -3475 -245 -2559 1588 -3598 183 -1340 855 122 792 -1159 63 305 -489 -122 -306 -731 -182 -548 -977 -1707 -733 -306 -549 -1218 -123 -976 -916 -2438 -1039 -1341 245 -792 -245 -1280 1223 -1098 -1039 -244 427 61 244 -853 611 61 489 549 305 1950 -488 245 549 -428 183 366 62 123 -184 242 -365 -242 -917 792 -549 3170 366 974 428 -1463 60 854 306 366 549 -488 122 -793 -365 -243 426 974 62 3170 244 184 611 1036 122 245 549 974 429 670 243 61 122 -1157 367 -5975 -612 -9691 1345 -2561 915 -487 489 184 550 -611 -672 -2255 306 -1463 976 -183 612 -3170 488 -121 549 -1403 733 -365 1100 365 244 -487 427 -122 -427 -1096 305 -854 -243 426 -245 -61 -1039 -976 -733 -2011 -610 -8350 184 181 -1345 5975 -1343 976 367 304 672 3962 1649 122 1281 1157 -1649 -303 -610 -489 62 0 916 -913 -490 -915 -1220 62 426 -976 -916 305 0 -1037 -366 -609 -1161 -1890 -1098 -1035 -855 -1587 -122 -487 -549 -1098 122 -1279 -1955 -1463 -794 -1098 733 -304 671 -670 -855 -611 122 -1401 -1953 -854 488 183 -916 -1096 -1282 -3962 -2566 0 -610 -489 184 -1035 -917 182 -426 -1035 304 -1159 -733 0 0zm9935 8611l428 -62 61 245 -489 -183zm56751 -15879l-1220 245 611 733 -183 428 -550 -61 -121 -489 -1220 61 -122 -488 -426 -61 183 -490 -853 -2502 914 243 732 -304 609 304 183 1100 -488 -855 -732 488 183 673 854 915 1646 61 0 -1zm4755 -8181l-1646 1404 487 367 244 1647 1218 368 -853 1038 -426 -916 -1037 1159 -670 -1526 -1463 -123 -670 -610 -1952 672 -1766 1587 -731 -487 181 -488 -1340 -733 -548 -1100 487 -794 914 488 854 -61 61 -855 1524 -1587 61 -612 1279 368 1159 1038 1828 244 366 -244 -122 -916 793 -671 487 120 427 -671 304 -123 122 855 609 -732 976 183 0 1039 -1157 672zm-2866 29495l-61 -183 122 -182 183 122 -61 182 -183 61zm-9630 -122l-183 0 0 -304 242 120 -59 184zm9143 4763l244 -122 59 245 -120 61 -183 0 0 -184 0 0zm-11887 -4579l61 -123 183 0 122 123 -61 183 -305 -183zm11703 5251l-122 0 -61 -182 183 -183 184 183 -184 182zm-35293 -2686l61 184 -184 59 -181 -182 122 -183 182 122zm-6218 3419l122 -243 184 243 -306 245 0 -245zm41878 -6595l182 -183 244 0 61 61 0 122 -244 62 -243 -62zm-1281 -183l366 0 184 122 -184 122 -305 -61 -61 -183 0 0zm-11520 1649l366 -368 182 62 0 183 -123 123 -425 0zm-23591 3236l367 -610 365 549 -732 62 0 -1zm34929 -3053l60 -306 1159 -426 -123 304 -1096 428zm6644 2443l305 -61 548 672 -609 0 -244 -611z"/>
 </g>
</svg>
